<svg xmlns="http://www.w3.org/2000/svg" width="315" height="319.191" viewBox="0 0 315 319.191">
  <g id="Grupo_142708" data-name="Grupo 142708" transform="translate(-1057.653 -4437.389)">
    <path id="Trazado_202093" data-name="Trazado 202093" d="M8142.249,1262.154c-9.617,66.8-220.4,119.1-286.888,31.193-36.446-48.185-41.694-115.527,14.183-168.692,63.893-60.792,160.668-52.137,199.373-25.208,5.354,3.724,33.067,23.006,29.793,41.249-1.527,8.5-8.589,10.138-9.166,18.334-1.021,14.441,20,22.055,34.374,38.958C8143.2,1220.671,8143.7,1252.1,8142.249,1262.154Z" transform="translate(-6770.097 3387.711)" fill="#81af1d" opacity="0.24"/>
    <g id="Grupo_141958" data-name="Grupo 141958" transform="translate(1135.902 4437.421)">
      <path id="Trazado_202064" data-name="Trazado 202064" d="M391.461,275.842l5.4,135.365-3.99,2.565L372.635,289.807l-42.746,119.4-2.28-1.995L354.4,275.558Z" transform="translate(-285.954 -106.698)" fill="#353331"/>
      <path id="Trazado_202065" data-name="Trazado 202065" d="M361.645,167.805l4.537-2.388.956,7.641s21.97,8.358,44.418,36.776,11.7,41.791-6.687,42.746c-5.671.295-11.545-3.476-16.959-8.831l-6.444,16.235s4.3,1.91-.239,3.82-35.344,3.105-38.686,2.388,0-3.1,0-3.1l-13.373-37.253s-5.732,36.776-30.806,24.6-5.97-35.1-5.97-35.1l47.761-41.791-1.194-5.731,7.881,3.82Z" transform="translate(-275.721 -94.661)" fill="#fff"/>
      <path id="Trazado_202066" data-name="Trazado 202066" d="M359.874,264.747c-.164.982-.328,6.056-.328,6.056s-4.092,5.4,1.473,5.892" transform="translate(-277.271 -105.516)" fill="none" stroke="#8c8987" stroke-miterlimit="10" stroke-width="0.6"/>
      <path id="Trazado_202067" data-name="Trazado 202067" d="M394.011,193.733s-1.465,11.426-1.758,21.974" transform="translate(-340.687 -97.755)" fill="none" stroke="#8c8987" stroke-miterlimit="10" stroke-width="0.6"/>
      <line id="Línea_258" data-name="Línea 258" x2="33.107" y2="13.77" transform="translate(104.304 120.881)" fill="none" stroke="#8c8987" stroke-miterlimit="10" stroke-width="0.6"/>
      <path id="Trazado_202068" data-name="Trazado 202068" d="M355.653,142.658c0,1.433,2.149,24.12,2.149,24.12l6.687,3.105,2.865,9.552,1.911-11.7,5.97-4.059-8.119-36.06Z" transform="translate(-289.31 -90.529)" fill="#b5844e"/>
      <path id="Trazado_202069" data-name="Trazado 202069" d="M364.821,114.608c-.805.514,7.881,28.9,9.313,33.91a122.271,122.271,0,0,0,20.537-2.149l1.194-37.015S376.045,107.444,364.821,114.608Z" transform="translate(-318.06 -88.509)" fill="#b5844e"/>
      <path id="Trazado_202070" data-name="Trazado 202070" d="M368.15,107.577c0,.716,5.016,11.7,5.016,11.7l3.82-.716-1.194-14.328-15.045-2.628Z" transform="translate(-295.599 -87.687)" fill="#353331"/>
      <path id="Trazado_202071" data-name="Trazado 202071" d="M357.9,123.395s2.149-7.4,6.687-5.731-1.911,13.851-6.925,10.746C355.753,124.589,357.9,123.395,357.9,123.395Z" transform="translate(-281.292 -89.415)" fill="#b5844e"/>
      <path id="Trazado_202072" data-name="Trazado 202072" d="M401.788,128.587c-.716-.239-2.865-6.208-6.448-5.015s0,9.791,6.925,9.313C403.7,132.409,401.788,128.587,401.788,128.587Z" transform="translate(-350.967 -90.071)" fill="#b5844e"/>
      <path id="Trazado_202073" data-name="Trazado 202073" d="M403.153,108.735s-19.821,2.149-43.224,6.448c-2.627.239-1.672-1.671,5.732-2.627-2.388-10.985-3.582-20.06,1.91-21.97-.477-3.1.24-2.627.24-2.627S400.288,76.5,403.153,108.735Z" transform="translate(-319.856 -85.979)" fill="#fff"/>
      <path id="Trazado_202074" data-name="Trazado 202074" d="M437.482,425.282l.078,3.957s-26.306,6.627-32.933,7.229,5.422-4.819,13.052-8.032a158.077,158.077,0,0,1,17.47-5.823Z" transform="translate(-393.548 -122.768)" fill="#191918"/>
      <path id="Trazado_202075" data-name="Trazado 202075" d="M300.893,430.414l3.99-2.564s13.634,6.982,18.654,9.592,9.238,6.627-1.606,4.418-21.086-8.434-21.086-8.434Z" transform="translate(-193.979 -123.341)" fill="#191918"/>
      <path id="Trazado_202076" data-name="Trazado 202076" d="M360.789,182.04l11.427-1.465-4.688,7.325,2.93,29.006-11.427,7.325,5.86-36.037Z" transform="translate(-289.3 -96.317)" fill="#353331"/>
      <path id="Trazado_202077" data-name="Trazado 202077" d="M438.639,243.515,426.92,191.657,406.7,201.911l-30.764,7.325L355.431,202.5l-26.662-14.356,28.42,62.7,17.579,8.5,19.63,4.395,24.025-8.79Z" transform="translate(-328.769 -97.144)" fill="#d8cfc5"/>
      <path id="Trazado_202078" data-name="Trazado 202078" d="M350.126,223.287s-3.81-10.548-6.153-11.134l1.758,6.739s-6.446-4.981-11.134-5.567-7.979,4.713,2.93,14.063c6.153,5.274,8.5,7.91,12.306,5.86C352.027,232.067,350.126,223.287,350.126,223.287Z" transform="translate(-242.307 -99.768)" fill="#b5844e"/>
      <path id="Trazado_202079" data-name="Trazado 202079" d="M430.44,233.754s-3.516-.878-7.324-9.668a19.263,19.263,0,0,1-.293-8.2l2.344,5.274s1.464-8.79,6.738-9.669,5.86,7.618,6.153,11.72S430.44,233.754,430.44,233.754Z" transform="translate(-411.689 -99.689)" fill="#b5844e"/>
      <g id="Grupo_141953" data-name="Grupo 141953" transform="translate(64.75 78.984)">
        <path id="Trazado_202080" data-name="Trazado 202080" d="M349.492,174.655l4.395,7.325,5.567-7.032" transform="translate(-332.792 -174.655)" fill="none" stroke="#8c8987" stroke-miterlimit="10" stroke-width="1"/>
        <path id="Trazado_202081" data-name="Trazado 202081" d="M378.346,176.628l-4.395,8.5-4.395-8.2" transform="translate(-369.557 -174.87)" fill="none" stroke="#8c8987" stroke-miterlimit="10" stroke-width="1"/>
      </g>
      <path id="Trazado_202082" data-name="Trazado 202082" d="M380.129,128.917,379.4,143.3l6.1-3.414" transform="translate(-320.719 -90.672)" fill="none" stroke="#845628" stroke-miterlimit="10" stroke-width="1"/>
      <path id="Trazado_202083" data-name="Trazado 202083" d="M372.144,146.261s5.973,1.585,6.948-3.657" transform="translate(-307.857 -92.168)" fill="none" stroke="#845628" stroke-miterlimit="10" stroke-width="1"/>
      <g id="Grupo_141954" data-name="Grupo 141954" transform="translate(45.756 30.875)">
        <path id="Trazado_202084" data-name="Trazado 202084" d="M364.558,120.643a9.112,9.112,0,0,0-3.811,5.3c2.925-1.219,1.585.487.487,1.829" transform="translate(-328.928 -120.643)" fill="none" stroke="#845628" stroke-miterlimit="10" stroke-width="1"/>
        <line id="Línea_259" data-name="Línea 259" x2="1.64" y2="5.668" transform="translate(3.901 6.272)" fill="none" stroke="#845628" stroke-miterlimit="10" stroke-width="1"/>
        <path id="Trazado_202085" data-name="Trazado 202085" d="M396.643,127.274l3.657,3.17-2.072.366" transform="translate(-396.643 -121.368)" fill="none" stroke="#845628" stroke-miterlimit="10" stroke-width="1"/>
      </g>
      <path id="Trazado_202086" data-name="Trazado 202086" d="M379.945,128.525c0,.841.3,1.523.671,1.523s.671-.682.671-1.523-.3-1.524-.671-1.524S379.945,127.683,379.945,128.525Z" transform="translate(-316.999 -90.462)" fill="#353331"/>
      <path id="Trazado_202087" data-name="Trazado 202087" d="M387.884,129.756c0,.842.3,1.524.671,1.524s.67-.682.67-1.524-.3-1.524-.67-1.524S387.884,128.914,387.884,129.756Z" transform="translate(-332.009 -90.597)" fill="#353331"/>
      <path id="Trazado_202088" data-name="Trazado 202088" d="M376.387,121.252a21.174,21.174,0,0,1,6.948,1.1" transform="translate(-315.879 -89.834)" fill="none" stroke="#353331" stroke-miterlimit="10" stroke-width="2"/>
      <path id="Trazado_202089" data-name="Trazado 202089" d="M393.156,122.21a11.615,11.615,0,0,0-5,2.073" transform="translate(-336.183 -89.939)" fill="none" stroke="#353331" stroke-miterlimit="10" stroke-width="2"/>
      <g id="Grupo_141955" data-name="Grupo 141955" transform="translate(88.176 113.805)">
        <path id="Trazado_202090" data-name="Trazado 202090" d="M338.695,213.748c.341.227,10.578,6.939,10.578,6.939" transform="translate(-336.42 -213.748)" fill="none" stroke="#845628" stroke-miterlimit="10" stroke-width="1"/>
        <line id="Línea_260" data-name="Línea 260" x2="10.692" y2="7.849" transform="translate(0.455 1.592)" fill="none" stroke="#845628" stroke-miterlimit="10" stroke-width="1"/>
        <line id="Línea_261" data-name="Línea 261" x2="10.124" y2="6.484" transform="translate(0 4.891)" fill="none" stroke="#845628" stroke-miterlimit="10" stroke-width="1"/>
      </g>
      <g id="Grupo_141956" data-name="Grupo 141956" transform="translate(15.377 111.799)">
        <path id="Trazado_202091" data-name="Trazado 202091" d="M434.262,211.5c.053.528-4.839,10.424-4.839,10.424" transform="translate(-429.423 -211.495)" fill="none" stroke="#845628" stroke-miterlimit="10" stroke-width="1"/>
        <line id="Línea_262" data-name="Línea 262" x1="5.119" y2="11.489" transform="translate(2.958 1.438)" fill="none" stroke="#845628" stroke-miterlimit="10" stroke-width="1"/>
        <line id="Línea_263" data-name="Línea 263" x1="3.754" y2="9.782" transform="translate(6.256 5.76)" fill="none" stroke="#845628" stroke-miterlimit="10" stroke-width="1"/>
      </g>
      <g id="Grupo_141957" data-name="Grupo 141957" transform="translate(47.716 0.063)">
        <line id="Línea_264" data-name="Línea 264" x2="2.844" y2="20.632" transform="translate(0 4.544)" fill="none" stroke="#8c8987" stroke-miterlimit="10" stroke-width="1"/>
        <line id="Línea_265" data-name="Línea 265" x2="2.882" y2="22.901" transform="translate(11.185)" fill="none" stroke="#8c8987" stroke-miterlimit="10" stroke-width="1"/>
        <path id="Trazado_202092" data-name="Trazado 202092" d="M382.027,86.559s-8.189-1.517-4.4,22.446" transform="translate(-362.5 -86.104)" fill="none" stroke="#8c8987" stroke-miterlimit="10" stroke-width="1"/>
      </g>
    </g>
  </g>
</svg>
