<svg id="Grupo_141982" data-name="Grupo 141982" xmlns="http://www.w3.org/2000/svg" width="113.899" height="121.364" viewBox="0 0 113.899 121.364">
  <g id="Grupo_141981" data-name="Grupo 141981" transform="translate(0 0)">
    <g id="Grupo_141976" data-name="Grupo 141976" transform="translate(0 7.455)">
      <g id="Grupo_141975" data-name="Grupo 141975" transform="translate(0 0)">
        <path id="Trazado_202095" data-name="Trazado 202095" d="M92.968,149.272a9.932,9.932,0,0,1-7.07-2.928L39.581,100.027a10.009,10.009,0,0,1,0-14.139L85.9,39.571a10,10,0,0,1,14.138,0l46.318,46.317a10.011,10.011,0,0,1,0,14.139l-46.318,46.317A9.931,9.931,0,0,1,92.968,149.272Z" transform="translate(-36.017 -36.003)" fill="#ff0"/>
        <path id="Trazado_202096" data-name="Trazado 202096" d="M91.608,35.923a9.327,9.327,0,0,1,6.616,2.741l46.318,46.317a9.36,9.36,0,0,1,0,13.233L98.225,144.532a9.357,9.357,0,0,1-13.233,0L38.674,98.214a9.357,9.357,0,0,1,0-13.233L84.991,38.664a9.328,9.328,0,0,1,6.617-2.741m0-1.28a10.569,10.569,0,0,0-7.522,3.115L37.769,84.076a10.651,10.651,0,0,0,0,15.044l46.317,46.317a10.639,10.639,0,0,0,15.044,0L145.448,99.12a10.653,10.653,0,0,0,0-15.044L99.13,37.758a10.57,10.57,0,0,0-7.522-3.115Z" transform="translate(-34.658 -34.643)" fill="#fff"/>
      </g>
    </g>
    <g id="Grupo_141977" data-name="Grupo 141977" transform="translate(41.601 23.317)">
      <path id="Trazado_202097" data-name="Trazado 202097" d="M229.851,119.273l-35.07-35.068c0,.047-.008.093-.013.14a198.632,198.632,0,0,1-14.522,55.517c-3.743,9.022-8.506,18.427-15.606,25.271l9.675,9.675a8.727,8.727,0,0,0,12.341,0l43.195-43.194A8.731,8.731,0,0,0,229.851,119.273Z" transform="translate(-164.641 -84.205)" fill="#fcfc00"/>
    </g>
    <g id="Grupo_141980" data-name="Grupo 141980" transform="translate(4.896)">
      <path id="Trazado_202098" data-name="Trazado 202098" d="M193.743,149.16l-6.021-2.477.016-.035-5.443-2.24-.015.036-12.4-5.1V128.006l.026-.028c1.282-1.413,2.568-2.821,3.839-4.242,2-2.242,3.168-3.484,3.135-6.481-.013-1.38.083-2.763.172-4.146l0,0c.887,1.18,2.288-1.661,2.288-1.661.882-2.563,2.107-4.879,2.1-7.712,0-1.927-.991-3.407-2.317-3.423.067-.344.142-.759.219-1.223l.028-.006.089-.75c.12-.8.235-1.724.328-2.736l.009-.074h0c1.486-.7,2.321-1.408,2.321-2,0-.459-.5-.9-1.41-1.306.245-1.316.032-.025.032-1.8,0-8.717-3.663-16.422-9.271-21.116.077-.028.151-.065.229-.087a28.737,28.737,0,0,0-2.607-2.052,1.938,1.938,0,0,0-1.225-1.528c-.393-.233-.783-.449-1.169-.65l.007,0c-.238-.124-.472-.233-.706-.345-.115-.056-.232-.117-.347-.17q-.525-.239-1.039-.44c-.165-.064-.327-.118-.491-.177s-.357-.133-.532-.189-.351-.106-.526-.157c-.158-.046-.318-.1-.474-.138-.178-.048-.354-.085-.53-.125-.148-.034-.3-.073-.444-.1-.177-.035-.35-.063-.524-.093-.141-.024-.285-.051-.424-.071-.174-.024-.344-.042-.515-.061-.135-.015-.273-.032-.4-.044-.171-.014-.338-.022-.505-.03-.13-.007-.261-.015-.389-.019-.165,0-.328,0-.49,0-.125,0-.251,0-.375,0-.16,0-.317.014-.475.024-.121.007-.242.013-.361.023-.155.013-.306.031-.459.048-.117.013-.233.027-.347.043-.15.021-.3.045-.443.069-.112.02-.222.038-.332.059-.144.028-.286.059-.427.089l-.317.073c-.139.034-.275.07-.41.107-.1.027-.2.055-.3.085-.133.039-.262.08-.391.121l-.288.1c-.126.044-.249.088-.372.134-.093.034-.184.069-.273.1-.12.048-.238.1-.354.145-.087.037-.172.073-.258.111q-.17.076-.334.152l-.242.117c-.106.051-.21.1-.313.156-.078.04-.153.081-.228.121-.1.053-.2.106-.291.159-.072.04-.142.081-.211.122q-.139.08-.272.159l-.195.122c-.085.053-.169.105-.249.158l-.178.118c-.077.052-.154.1-.226.154l-.164.116-.2.146c-.052.038-.1.075-.149.113s-.121.09-.176.134l-.132.105c-.053.041-.105.084-.154.123s-.077.064-.114.1l-.128.107-.1.087c-.034.03-.071.062-.1.089s-.054.05-.081.074-.054.049-.076.07l-.065.062-.049.046-.036.036-.055.056a1.537,1.537,0,0,0-.527,1.122C140.887,72.849,136.721,81,136.721,90.3c0,.02,0,.039,0,.058s0,.04,0,.061c0,1.773-.2.667.048,1.991-.663.353-1.021.728-1.021,1.116,0,.548.715,1.19,1.992,1.839,0,0,.017.023.051.062.064,1.518.2,3.133.451,4.883a1.764,1.764,0,0,1,1.477.083c-1.593-.448-2.863,1.162-2.866,3.348,0,2.834,1.22,5.149,2.1,7.712,0,0,1.4,2.84,2.288,1.661l.1-.085c.033.61.064,1.221.1,1.831.12,1.921-.287,3.982.609,5.784a17.667,17.667,0,0,0,2.686,3.278c1.052,1.2,2.144,2.378,3.252,3.538v11.887l-7.3,3h0l-16.564,6.815s-13.184,7.3-14.5,31.132h98.62C206.927,156.456,193.743,149.16,193.743,149.16Z" transform="translate(-109.625 -62.816)" fill="#a3a3a3" style="mix-blend-mode: multiply;isolation: isolate"/>
      <g id="Grupo_141979" data-name="Grupo 141979" transform="translate(5.486)">
        <path id="Trazado_202099" data-name="Trazado 202099" d="M250.37,112.9s4.609-18.388-4.842-26.727l3.211,27.237Z" transform="translate(-181.135 -74.159)" fill="#351110"/>
        <rect id="Rectángulo_41406" data-name="Rectángulo 41406" width="21.889" height="18.616" transform="translate(38.365 61.102)" fill="#e3b989"/>
        <path id="Trazado_202100" data-name="Trazado 202100" d="M194.908,202.3s6.729-4.46,12.486-6.324c0,0,7.3-.325,9.4-6.162v-3.972H194.908Z" transform="translate(-156.543 -122.579)" fill="#b69671"/>
        <path id="Trazado_202101" data-name="Trazado 202101" d="M180.713,103.051c.25,7.7.271,15.457.752,23.147.12,1.921-.287,3.982.609,5.784a17.688,17.688,0,0,0,2.686,3.278,123.938,123.938,0,0,0,9.454,9.621s4.44,2.595,10.653,0q2.527-2.782,5.058-5.561c1.282-1.413,2.568-2.821,3.839-4.242,2-2.242,3.168-3.484,3.136-6.481-.022-2.283.259-4.575.305-6.865.1-5.094.5-10.185.659-15.278a30.292,30.292,0,0,0,.135-3.4c0-.013-1.487-17.51-20.124-16.863C197.877,86.188,184.264,87.161,180.713,103.051Z" transform="translate(-149.647 -74.159)" fill="#f3c69b"/>
        <path id="Trazado_202102" data-name="Trazado 202102" d="M249.92,147.838l.777.688c.887,1.18,2.288-1.661,2.288-1.661.882-2.563,2.107-4.879,2.1-7.712,0-2.743-2-4.593-4.132-2.583Z" transform="translate(-183.269 -98.232)" fill="#f3c69b"/>
        <path id="Trazado_202103" data-name="Trazado 202103" d="M178.419,147.838l-.776.688c-.889,1.18-2.288-1.661-2.288-1.661-.883-2.563-2.107-4.879-2.1-7.712,0-2.743,2-4.593,4.132-2.583Z" transform="translate(-146.022 -98.232)" fill="#f3c69b"/>
        <path id="Trazado_202104" data-name="Trazado 202104" d="M204.413,221.083l-24.827-10.214H159.624L134.8,221.083s-13.184,7.3-14.5,31.132h98.62C217.6,228.38,204.413,221.083,204.413,221.083Z" transform="translate(-120.295 -134.739)" fill="#e3b989"/>
        <path id="Trazado_202105" data-name="Trazado 202105" d="M204.413,224.3l-16.121-6.627L169.2,233.781h0l-17.841-16.3L134.8,224.3s-13.184,7.3-14.5,31.132h98.62C217.6,231.591,204.413,224.3,204.413,224.3Z" transform="translate(-120.295 -137.951)" fill="#012b42"/>
        <path id="Trazado_202106" data-name="Trazado 202106" d="M180.713,125.728l1.331,12.115,2.3-6.719L182.8,115.15Z" transform="translate(-149.647 -88.238)" fill="#351110"/>
        <path id="Trazado_202107" data-name="Trazado 202107" d="M250.088,126.48l-1.905,12.75-2.654-6.883,1.844-14.341Z" transform="translate(-181.135 -89.625)" fill="#351110"/>
        <path id="Trazado_202108" data-name="Trazado 202108" d="M178.306,107.5c-.542-3.8-2.824-2.77-2.824-2.77-3.368-23.739,11.408-25.478,11.408-25.478L182,77.405l7.5-.9s-2.426-1.955-4.269-1.955c0,0,8.749-1.711,11.357,0a10.652,10.652,0,0,0-4.155-2.119A19.01,19.01,0,0,1,204.775,73.7a25.986,25.986,0,0,1,6.48,5.554c7.793,8.53,2.447,29.932,2.447,29.932-.9-7.658-1.96-13.052-1.96-13.052C210,85,197.075,89.3,197.075,89.3c-18.579-5.336-17.608,19.882-17.608,19.882" transform="translate(-146.863 -67.24)" fill="#351110"/>
        <path id="Trazado_202109" data-name="Trazado 202109" d="M218.115,224.3l-16.121-6.627L183.719,249.6H182.9L165.063,217.48,148.5,224.3s7.255,22.617,7.255,31.132h53.89S208.774,236.454,218.115,224.3Z" transform="translate(-133.997 -137.951)" fill="#f68a20"/>
        <path id="Trazado_202110" data-name="Trazado 202110" d="M160.376,223.732l5.443-2.24a298.746,298.746,0,0,1,12.313,35.884h-7.3S166.414,235.9,160.376,223.732Z" transform="translate(-139.767 -139.9)" fill="#ffd400"/>
        <path id="Trazado_202111" data-name="Trazado 202111" d="M255.435,223.732l-5.443-2.24a298.846,298.846,0,0,0-12.313,35.884h7.3S249.4,235.9,255.435,223.732Z" transform="translate(-177.322 -139.9)" fill="#ffd400"/>
        <path id="Trazado_202112" data-name="Trazado 202112" d="M174.975,126.1s8.289,10.9,41.633,3.724l.426-3.56Z" transform="translate(-146.859 -93.559)" fill="#c6a481" style="mix-blend-mode: multiply;isolation: isolate"/>
        <g id="Grupo_141978" data-name="Grupo 141978" transform="translate(26.124)">
          <path id="Trazado_202113" data-name="Trazado 202113" d="M217.472,118.945c0,2.1-10.381,5.561-23.185,5.561S171.1,121.04,171.1,118.945s10.38-3.795,23.186-3.795S217.472,116.848,217.472,118.945Z" transform="translate(-171.101 -88.238)" fill="#fca01f"/>
          <path id="Trazado_202114" data-name="Trazado 202114" d="M195.018,124.9c-10.906,0-19.747-2.953-19.747-4.738,0-.444.547-.866,1.535-1.252-2.4.535-3.814,1.195-3.814,1.909,0,1.784,8.841,4.737,19.747,4.737a52.619,52.619,0,0,0,15.648-2.2A56.348,56.348,0,0,1,195.018,124.9Z" transform="translate(-172.02 -90.065)" fill="#ffb21d"/>
          <path id="Trazado_202115" data-name="Trazado 202115" d="M216.858,94.1c.326-1.774.083-.193.083-2.082,0-14.306-9.854-25.9-22.01-25.9s-22.01,11.6-22.01,25.9c0,1.889-.224.51.1,2.284C173.022,94.3,197.885,101.392,216.858,94.1Z" transform="translate(-171.949 -64.414)" fill="#fca01f"/>
          <path id="Trazado_202116" data-name="Trazado 202116" d="M226.482,96.982c.976-.118,1.924-.45,2.9-.576.326-.041.653-.076.98-.108a28.183,28.183,0,0,0,.317-4.176c0-13.253-9.13-24-20.391-24a17.626,17.626,0,0,0-1.888.106c10.376,1.122,18.5,11.387,18.5,23.89A28.145,28.145,0,0,1,226.482,96.982Z" transform="translate(-189.224 -65.392)" fill="#ffb21d"/>
          <path id="Trazado_202117" data-name="Trazado 202117" d="M195,65.88c-12.155,0-22.01,11.6-22.01,25.9,0,.811.039,1.61.1,2.4a1.286,1.286,0,0,1,.229.105,47.005,47.005,0,0,1,7,1.6,30.341,30.341,0,0,1-.28-4.106c0-12.892,8-23.58,18.483-25.566A18.885,18.885,0,0,0,195,65.88Z" transform="translate(-172.02 -64.302)" fill="#e48a1d"/>
          <path id="Trazado_202118" data-name="Trazado 202118" d="M192.518,72.3s6.564,3.156,5.833,24.8c0,0-1.843-20.6-8.7-22.583A26.25,26.25,0,0,1,192.518,72.3Z" transform="translate(-180.111 -67.421)" fill="#bc741a"/>
          <path id="Trazado_202119" data-name="Trazado 202119" d="M229.873,70.934s-6.563,3.156-5.833,24.8c0,0,1.842-20.6,8.7-22.583A26.164,26.164,0,0,0,229.873,70.934Z" transform="translate(-196.792 -66.757)" fill="#bc741a"/>
          <path id="Trazado_202120" data-name="Trazado 202120" d="M200.156,94.195s.056-19.523-6.688-24.958a1.74,1.74,0,0,1,.308-2.083s8.205-8.656,20.2-1.526c0,0,2.294.842.629,3.246,0,0-5.483,9.774-5.557,25.322Z" transform="translate(-181.86 -62.81)" fill="#fca01f"/>
          <path id="Trazado_202121" data-name="Trazado 202121" d="M221.833,68.2a16.129,16.129,0,0,0-9.625-2.51,17.137,17.137,0,0,1,7.418,2.51s2.081.762.571,2.943a58.235,58.235,0,0,0-5.471,24.427h2.205A58.234,58.234,0,0,1,222.4,71.147C223.913,68.966,221.833,68.2,221.833,68.2Z" transform="translate(-191.071 -64.191)" fill="#ffb21d"/>
          <path id="Trazado_202122" data-name="Trazado 202122" d="M197.045,70.7a1.739,1.739,0,0,1,.309-2.083,15.776,15.776,0,0,1,15.465-3.634c-11.363-5.925-19.042,2.174-19.042,2.174a1.739,1.739,0,0,0-.308,2.082c6.744,5.436,6.688,24.958,6.688,24.958h3.549C203.565,89.565,202.67,75.23,197.045,70.7Z" transform="translate(-181.86 -62.811)" fill="#e48a1d"/>
          <path id="Trazado_202123" data-name="Trazado 202123" d="M216.929,120.536s-18.462,6.289-43.937.149C172.992,120.685,197.2,128.982,216.929,120.536Z" transform="translate(-172.02 -90.854)" fill="#a3a3a3" style="mix-blend-mode: multiply;isolation: isolate"/>
        </g>
      </g>
    </g>
  </g>
</svg>
