<svg xmlns="http://www.w3.org/2000/svg" xmlns:xlink="http://www.w3.org/1999/xlink" width="1030" height="578.246" viewBox="0 0 1030 578.246">
  <defs>
    <linearGradient id="linear-gradient" y1="0.5" x2="1" y2="0.5" gradientUnits="objectBoundingBox">
      <stop offset="0" stop-color="#fff"/>
      <stop offset="1"/>
    </linearGradient>
  </defs>
  <g id="Grupo_141907" data-name="Grupo 141907" transform="translate(3345.016 4016.356)">
    <line id="Línea_233" data-name="Línea 233" y2="33.392" transform="translate(-3207.083 -3975.774)" fill="none" stroke="#dc1f27" stroke-miterlimit="10" stroke-width="1.5"/>
    <line id="Línea_234" data-name="Línea 234" x2="27.925" transform="translate(-3134.415 -3877.699)" fill="none" stroke="#dc1f27" stroke-miterlimit="10" stroke-width="1.5"/>
    <line id="Línea_235" data-name="Línea 235" x2="10.098" y2="26.035" transform="translate(-3161.971 -3851.907)" fill="none" stroke="#dc1f27" stroke-miterlimit="10" stroke-width="1.5"/>
    <line id="Línea_236" data-name="Línea 236" x2="19.355" y2="19.748" transform="translate(-3095.181 -3749.035)" fill="none" stroke="#dc1f27" stroke-miterlimit="10" stroke-width="1.5"/>
    <path id="Trazado_201892" data-name="Trazado 201892" d="M-2985.673-3665.321s51.882-50.776,125.205-12.219" transform="translate(-13.418 -12.112)" fill="none" stroke="#aea9a9" stroke-miterlimit="10" stroke-width="1.5"/>
    <path id="Trazado_201893" data-name="Trazado 201893" d="M-2710.7-3713.877s44.38-50.777,107.1-12.219" transform="translate(-23.686 -10.299)" fill="none" stroke="#aea9a9" stroke-miterlimit="10" stroke-width="1.5"/>
    <path id="Trazado_201894" data-name="Trazado 201894" d="M-2812.07-3688.768s27.7-50.986,80.719-20.868" transform="translate(-19.901 -11.098)" fill="none" stroke="#aea9a9" stroke-miterlimit="10" stroke-width="1.5"/>
    <path id="Trazado_201895" data-name="Trazado 201895" d="M-3161.093-3637.012s37.108-50.778,89.553-12.22" transform="translate(-6.868 -13.169)" fill="none" stroke="#aea9a9" stroke-miterlimit="10" stroke-width="1.5"/>
    <path id="Trazado_201896" data-name="Trazado 201896" d="M-2502.811-3709.319s51.665-13.352,59.591,43.3" transform="translate(-31.449 -11.414)" fill="none" stroke="#aea9a9" stroke-miterlimit="10" stroke-width="1.5"/>
    <line id="Línea_237" data-name="Línea 237" y2="35.454" transform="translate(-2361.71 -3660.47)" fill="none" stroke="#dc1f27" stroke-miterlimit="10" stroke-width="1.5"/>
    <line id="Línea_238" data-name="Línea 238" x1="46.642" y2="1.618" transform="translate(-2447.058 -3661.977)" fill="none" stroke="#dc1f27" stroke-miterlimit="10" stroke-width="1.5"/>
    <path id="Trazado_201897" data-name="Trazado 201897" d="M-2409.613-3641.071l-.837-12.054-10.02,6.752Z" transform="translate(-34.523 -13.563)" fill="#dc1f27"/>
    <path id="Trazado_201898" data-name="Trazado 201898" d="M-2435.116-3667.543l-12.052.864,6.774,10.005Z" transform="translate(-33.527 -13.025)" fill="#aea9a9"/>
    <path id="Trazado_201899" data-name="Trazado 201899" d="M-2599.747-3732.8l-8.74,8.343,11.595,3.4Z" transform="translate(-27.503 -10.589)" fill="#aea9a9"/>
    <path id="Trazado_201900" data-name="Trazado 201900" d="M-2854.5-3683.077l-8.74,8.343,11.595,3.4Z" transform="translate(-17.99 -12.445)" fill="#aea9a9"/>
    <path id="Trazado_201901" data-name="Trazado 201901" d="M-3164.693-3640.012l-2.34,11.854,11.436-3.9Z" transform="translate(-6.646 -14.053)" fill="#aea9a9"/>
    <path id="Trazado_201902" data-name="Trazado 201902" d="M-2725.5-3715.365l-8.741,8.343,11.595,3.4Z" transform="translate(-22.807 -11.239)" fill="#aea9a9"/>
    <path id="Trazado_201903" data-name="Trazado 201903" d="M-2743.086-3819.482H-2731l-6.042-10.464Z" transform="translate(-22.477 -6.961)" fill="#aea9a9"/>
    <path id="Trazado_201904" data-name="Trazado 201904" d="M-2317.761-3612.466h-12.083L-2323.8-3602Z" transform="translate(-37.908 -15.082)" fill="#dc1f27"/>
    <path id="Trazado_201905" data-name="Trazado 201905" d="M-2427.6-3860.971s188.8,66.223,112.19,185.512" transform="translate(-34.257 -5.802)" fill="none" stroke="#dc1f27" stroke-miterlimit="10" stroke-width="1.5"/>
    <g id="Grupo_141894" data-name="Grupo 141894" transform="translate(-3135.131 -3806.486)">
      <rect id="Rectángulo_41371" data-name="Rectángulo 41371" width="77.634" height="28.189" rx="12" transform="translate(171.884)" fill="#f0f8fe"/>
      <path id="Trazado_201906" data-name="Trazado 201906" d="M-3126.99-3783.633l178.3,6.412v-12.824Z" transform="translate(3126.99 3798.035)" fill="#f0f8fe"/>
    </g>
    <path id="Trazado_201907" data-name="Trazado 201907" d="M-2587.44-3494.665l-74.6,51.267,15.121,16.967Z" transform="translate(-25.503 -19.48)" fill="#f0f8fe"/>
    <rect id="Rectángulo_41372" data-name="Rectángulo 41372" width="77.634" height="28.189" rx="12" transform="translate(-3095.181 -3890.651)" fill="#e3e3e3"/>
    <rect id="Rectángulo_41373" data-name="Rectángulo 41373" width="80.46" height="28.189" rx="12" transform="translate(-2421.147 -3687.622)" fill="#e3e3e3"/>
    <rect id="Rectángulo_41374" data-name="Rectángulo 41374" width="124.517" height="28.189" rx="12" transform="translate(-2551.648 -3761.725)" fill="#e3e3e3"/>
    <rect id="Rectángulo_41375" data-name="Rectángulo 41375" width="124.517" height="28.189" rx="12" transform="translate(-2821.78 -3868.138)" fill="#e3e3e3"/>
    <rect id="Rectángulo_41376" data-name="Rectángulo 41376" width="124.517" height="28.189" rx="12" transform="translate(-2821.78 -3785.65)" fill="#e3e3e3"/>
    <rect id="Rectángulo_41377" data-name="Rectángulo 41377" width="140.799" height="47.256" rx="20.451" transform="translate(-2778.955 -3485.366)" fill="#f0f8fe"/>
    <rect id="Rectángulo_41378" data-name="Rectángulo 41378" width="100.021" height="28.189" rx="12" transform="translate(-3127.729 -3840.53)" fill="#e3e3e3"/>
    <rect id="Rectángulo_41379" data-name="Rectángulo 41379" width="114.546" height="28.189" rx="12" transform="translate(-3099.807 -3780.232)" fill="#e3e3e3"/>
    <rect id="Rectángulo_41380" data-name="Rectángulo 41380" width="77.634" height="28.189" rx="12" transform="translate(-3217.103 -3697.619)" fill="#e3e3e3"/>
    <rect id="Rectángulo_41381" data-name="Rectángulo 41381" width="77.634" height="28.189" rx="12" transform="translate(-3238.466 -4006.163)" fill="#e3e3e3"/>
    <path id="Trazado_201908" data-name="Trazado 201908" d="M-2416.97-3612.893l-148.948-100.221-615.291,103.55L-3193.1-3581.7v24.12l88.985-11.107h40.371l167.807-32.668,34.534,9.569,247.089-36.928,33.2,32.7Z" transform="translate(-5.673 -11.323)" fill="#b0650c"/>
    <path id="Trazado_201909" data-name="Trazado 201909" d="M-3345.016-3661.077l42.129,22.982,67.993-15.283-45.945-19.89Z" transform="translate(0 -12.811)" fill="#6d0c12"/>
    <path id="Trazado_201910" data-name="Trazado 201910" d="M-3333.084-4007.946l30.643,16.192v333.79l-30.643-16.416Z" transform="translate(-0.446 -0.314)" fill="#b1410e"/>
    <path id="Trazado_201911" data-name="Trazado 201911" d="M-3345.016-3660.6l42.129,22.982v113.966l-42.129-26.074Z" transform="translate(0 -13.284)" fill="#b1410e"/>
    <path id="Trazado_201912" data-name="Trazado 201912" d="M-3301.253-3637.323l67.993-15.283v117.533l-67.993,11.716Z" transform="translate(-1.634 -13.583)" fill="#883818"/>
    <path id="Trazado_201913" data-name="Trazado 201913" d="M-3301.253-3991.493l53.616-9.469v333.436l-53.616,9.823Z" transform="translate(-1.634 -0.575)" fill="#883818"/>
    <path id="Trazado_201914" data-name="Trazado 201914" d="M-3333.084-4008.26l30.643,16.192,53.616-9.469-38.448-14.818Z" transform="translate(-0.446)" fill="#6d0c12"/>
    <path id="Trazado_201915" data-name="Trazado 201915" d="M-3306.941-4005.435l11.219,5.538,21.065-3.72-12.83-5.607Z" transform="translate(-1.422 -0.267)" fill="#430d10"/>
    <g id="Grupo_141895" data-name="Grupo 141895" transform="translate(-3194.542 -3632.743)">
      <path id="Trazado_201916" data-name="Trazado 201916" d="M-3188.705-3614.58l47.059-3.283,35.75,20.064-45.6,3.648Z" transform="translate(3188.705 3617.863)" fill="#e46109"/>
      <path id="Trazado_201917" data-name="Trazado 201917" d="M-3151.295-3567.065l42.053-4.055,4.742-25.9-45.6,3.648Z" transform="translate(3187.308 3617.084)" fill="#ad4622"/>
      <path id="Trazado_201918" data-name="Trazado 201918" d="M-3188.705-3614.453l37.209,20.428-1.2,26.308-34.554-20.387Z" transform="translate(3188.705 3617.736)" fill="#673126"/>
    </g>
    <g id="Grupo_141896" data-name="Grupo 141896" transform="translate(-2679.922 -3737.514)">
      <path id="Trazado_201919" data-name="Trazado 201919" d="M-2654.123-3709.917l56.544,37.209,111.628-18.6-58.732-35.385-47.427,7.272Z" transform="translate(2654.123 3726.698)" fill="url(#linear-gradient)"/>
      <path id="Trazado_201920" data-name="Trazado 201920" d="M-2595.386-3671.336s6.931,23.712,15.321,35.385l43.411-5.107s31.373-22.982,52.9-48.883Z" transform="translate(2651.93 3725.325)" fill="#212829"/>
      <path id="Trazado_201921" data-name="Trazado 201921" d="M-2654.123-3709.266l56.544,37.209s7.661,25.537,15.321,35.385l-37.938-23.635S-2636.248-3672.057-2654.123-3709.266Z" transform="translate(2654.123 3726.047)" fill="#2f393b"/>
    </g>
    <path id="Trazado_201922" data-name="Trazado 201922" d="M-2404.177-3620.833l39.173-4.609,85.119,54.841-106.491,18.121-2.838-57.94Z" transform="translate(-35.132 -14.597)" fill="#328928"/>
    <path id="Trazado_201923" data-name="Trazado 201923" d="M-2279.931-3568.474l-125.49,20.915.547,10.883,124.943-21.1Z" transform="translate(-35.086 -16.724)" fill="#276124"/>
    <path id="Trazado_201924" data-name="Trazado 201924" d="M-2282.931-3559.317v63.232l-202.827,36.966,1.062-141.481,92.437-9.236,3.781,68.171Z" transform="translate(-32.086 -15.18)" fill="#ed915b"/>
    <path id="Trazado_201925" data-name="Trazado 201925" d="M-2890.92-3597.021v58.611l-66.15-28.655-101.171,13.09-.486-10.378Z" transform="translate(-10.69 -15.659)" fill="#b1410e"/>
    <path id="Trazado_201926" data-name="Trazado 201926" d="M-3100.663-3563.085v11.107l40.857-.729-.486-10.378Z" transform="translate(-9.124 -16.926)" fill="#7c2c0e"/>
    <path id="Trazado_201927" data-name="Trazado 201927" d="M-3193.1-3551.978v17.753l88.985-17.753v-11.107Z" transform="translate(-5.673 -16.926)" fill="#883818"/>
    <path id="Trazado_201928" data-name="Trazado 201928" d="M-2884.411-3597.021l34.534,9.569v59.1l-34.534-10.053Z" transform="translate(-17.199 -15.659)" fill="#883818"/>
    <path id="Trazado_201929" data-name="Trazado 201929" d="M-2848.537-3588.806l296.7-44.468,4.864,77.945-301.565,25.618Z" transform="translate(-18.539 -14.305)" fill="#c95d3b"/>
    <path id="Trazado_201930" data-name="Trazado 201930" d="M-2605.505-3509.585l43.776,21.115v-47.667h-43.776Z" transform="translate(-27.614 -17.932)" fill="#e15917"/>
    <path id="Trazado_201931" data-name="Trazado 201931" d="M-2524.525-3494.793l-35.507,6.323v-47.667l35.507,12.73Z" transform="translate(-29.312 -17.932)" fill="#a94624"/>
    <path id="Trazado_201932" data-name="Trazado 201932" d="M-2487.154-3456.2-2523.147-3481v-50.552h37.055Z" transform="translate(-30.689 -18.103)" fill="#762a0e"/>
    <path id="Trazado_201933" data-name="Trazado 201933" d="M-3238.853-3881.892l33.561,22.131,52.774-4.864-30.223-21.268Z" transform="translate(-3.964 -4.872)" fill="#16326e"/>
    <path id="Trazado_201934" data-name="Trazado 201934" d="M-3211.821-3911.188s38.182,27.057,39.641,54.3h3.064s2.286-22.288-40.031-56.379Z" transform="translate(-4.974 -3.849)" fill="#e7d933"/>
    <path id="Trazado_201935" data-name="Trazado 201935" d="M-3200.54-3909.024s38.183,27.058,39.641,54.3h3.064s2.286-22.288-40.031-56.379Z" transform="translate(-5.395 -3.93)" fill="#e7d933"/>
    <path id="Trazado_201936" data-name="Trazado 201936" d="M-3194.011-3911.188s38.183,27.057,39.641,54.3h3.064s2.286-22.288-40.03-56.379Z" transform="translate(-5.639 -3.849)" fill="#e7d933"/>
    <path id="Trazado_201937" data-name="Trazado 201937" d="M-3171.361-3888.488s38.183,27.056,39.641,54.295h3.064s2.286-22.288-40.03-56.378Z" transform="translate(-6.485 -4.697)" fill="#e7d933"/>
    <path id="Trazado_201938" data-name="Trazado 201938" d="M-3200.968-3904.229s38.182,27.057,39.642,54.295h3.064s2.286-22.287-40.03-56.378Z" transform="translate(-5.379 -4.109)" fill="#e7d933"/>
    <path id="Trazado_201939" data-name="Trazado 201939" d="M-3193.553-3904.229s38.182,27.057,39.641,54.295h3.064s2.287-22.287-40.03-56.378Z" transform="translate(-5.656 -4.109)" fill="#ffd63c"/>
    <path id="Trazado_201940" data-name="Trazado 201940" d="M-3174.547-3888.9s43.586,17.036,51.579,43.116l2.973-.74s-3.163-22.18-52.459-45.044Z" transform="translate(-6.365 -4.66)" fill="#ffd63c"/>
    <path id="Trazado_201941" data-name="Trazado 201941" d="M-3208.862-3904.229s38.182,27.057,39.642,54.295h3.064s2.286-22.287-40.03-56.378Z" transform="translate(-5.084 -4.109)" fill="#ffd63c"/>
    <g id="Grupo_141898" data-name="Grupo 141898" transform="translate(-3225.854 -3964.649)">
      <ellipse id="Elipse_5170" data-name="Elipse 5170" cx="20.453" cy="36.723" rx="20.453" ry="36.723" transform="translate(41.283)" fill="#16326e"/>
      <rect id="Rectángulo_41382" data-name="Rectángulo 41382" width="12.257" height="73.446" transform="translate(51.765)" fill="#16326e"/>
      <ellipse id="Elipse_5171" data-name="Elipse 5171" cx="20.453" cy="36.723" rx="20.453" ry="36.723" transform="translate(31.312)" fill="#21418f"/>
      <g id="Grupo_141897" data-name="Grupo 141897" transform="translate(0 30.4)">
        <rect id="Rectángulo_41383" data-name="Rectángulo 41383" width="46.11" height="19.213" transform="translate(5.654)" fill="#16326e"/>
        <ellipse id="Elipse_5172" data-name="Elipse 5172" cx="5.35" cy="9.606" rx="5.35" ry="9.606" fill="#21418f"/>
        <ellipse id="Elipse_5173" data-name="Elipse 5173" cx="5.35" cy="9.606" rx="5.35" ry="9.606" transform="translate(45.235)" fill="#16326e"/>
      </g>
    </g>
    <path id="Trazado_201942" data-name="Trazado 201942" d="M-3181.758-3860.918l29.325,75.662,119.268,117.055h6.323l-121.3-118.028-30.339-77.823Z" transform="translate(-6.096 -5.687)" fill="#16326e"/>
    <path id="Trazado_201943" data-name="Trazado 201943" d="M-3140.5-3784.726l-23.979,3.4,40.71,26.527,20.113-6.1Z" transform="translate(-6.742 -8.649)" fill="#16326e"/>
    <path id="Trazado_201944" data-name="Trazado 201944" d="M-3164.478-3758.329v-22.861l40.71,26.527v21.14Z" transform="translate(-6.742 -8.781)" fill="#21418f"/>
    <path id="Trazado_201945" data-name="Trazado 201945" d="M-3102.075-3759.969l-20.113,6.1v21.14l20.113-6.957Z" transform="translate(-8.321 -9.574)" fill="#0f2753"/>
    <path id="Trazado_201946" data-name="Trazado 201946" d="M-3183.7-3877.321l-34.048-33.867s-9-7.477-14.592,5.9,4.863,21.888,16.294,24.32l28.211,9.485Z" transform="translate(-4.149 -3.849)" fill="#0f2753"/>
    <path id="Trazado_201947" data-name="Trazado 201947" d="M-3195.938-3552.483v17.753l-73.167,5.715,29.853-47.588Z" transform="translate(-2.835 -16.421)" fill="#883818"/>
    <g id="Grupo_141899" data-name="Grupo 141899" transform="translate(-3244.519 -3612.679)">
      <path id="Trazado_201948" data-name="Trazado 201948" d="M-3240.621-3587.452l57.638,34.207,33.854-7.113-45.163-36.662Z" transform="translate(3240.621 3597.021)" fill="#193e8d"/>
      <path id="Trazado_201949" data-name="Trazado 201949" d="M-3240.621-3571.844l56.908,25.536.73-6.566-57.638-34.207Z" transform="translate(3240.621 3596.65)" fill="#0d2865"/>
      <path id="Trazado_201950" data-name="Trazado 201950" d="M-3180.775-3551.823l-.73,6.566,34.584-6.84v-6.84Z" transform="translate(3238.413 3595.599)" fill="#142042"/>
    </g>
    <path id="Trazado_201951" data-name="Trazado 201951" d="M-3345.016-3545.429l42.129,26.074v16.919l-42.129-23.994Z" transform="translate(0 -17.585)" fill="#465159"/>
    <path id="Trazado_201952" data-name="Trazado 201952" d="M-3250.667-3529.266l-50.585,10.514v16.919l50.585-10.214Z" transform="translate(-1.634 -18.188)" fill="#303336"/>
    <path id="Trazado_201953" data-name="Trazado 201953" d="M-3195.176-3533.105l-53.529,3.7v17.219l53.529-3.5Z" transform="translate(-3.597 -18.045)" fill="#303336"/>
    <path id="Trazado_201954" data-name="Trazado 201954" d="M-3104.115-3551.547l-88.985,17.753v17.413l88.985-17.413Z" transform="translate(-5.673 -17.356)" fill="#465159"/>
    <path id="Trazado_201955" data-name="Trazado 201955" d="M-3059.806-3552.305v18.313l-40.857.17v-17.753Z" transform="translate(-9.124 -17.328)" fill="#6f6863"/>
    <path id="Trazado_201956" data-name="Trazado 201956" d="M-2957.05-3565.9l-101.171,13.091v18.313l101.171-11.694Z" transform="translate(-10.709 -16.821)" fill="#465159"/>
    <path id="Trazado_201957" data-name="Trazado 201957" d="M-2886.977-3537.248l-66.15-28.655v19.71l66.15,29.277Z" transform="translate(-14.634 -16.821)" fill="#303336"/>
    <path id="Trazado_201958" data-name="Trazado 201958" d="M-2849.876-3526.083v23.994l-34.534-13.717v-20.331Z" transform="translate(-17.199 -17.932)" fill="#23282c"/>
    <path id="Trazado_201959" data-name="Trazado 201959" d="M-2564-3552.305l-284.541,25.618v23.994L-2564-3527.5Z" transform="translate(-18.539 -17.328)" fill="#2b3034"/>
    <g id="Grupo_141900" data-name="Grupo 141900" transform="translate(-2755.8 -3655.813)">
      <path id="Trazado_201960" data-name="Trazado 201960" d="M-2728.265-3614.184s-11.735,29.973,1.961,56.509c0,0,26.256,30.845,97.684,6.466,0,0,13.818-22.225,3.907-60.832Z" transform="translate(2732.944 3640.795)" fill="#b1410e"/>
      <ellipse id="Elipse_5174" data-name="Elipse 5174" cx="52.531" cy="22.982" rx="52.531" ry="22.982" transform="translate(3.883 3.643) rotate(-1.987)" fill="#5c220b"/>
      <path id="Trazado_201961" data-name="Trazado 201961" d="M-2726.046-3555.483s30.216,29.248,97.684,6.466l.569,16.407s-62.421,20.955-97.563-3.012Z" transform="translate(2732.687 3638.604)" fill="#6f6863"/>
    </g>
    <g id="Grupo_141901" data-name="Grupo 141901" transform="translate(-2795.454 -3716.646)">
      <path id="Trazado_201962" data-name="Trazado 201962" d="M-2774.137-3688.24l56.543,37.209,111.628-18.6-58.732-35.385-47.427,7.272Z" transform="translate(2774.137 3705.021)" fill="url(#linear-gradient)"/>
      <path id="Trazado_201963" data-name="Trazado 201963" d="M-2715.4-3649.658s6.931,23.712,15.322,35.385l43.411-5.107s31.372-22.983,52.9-48.883Z" transform="translate(2771.944 3703.648)" fill="#212829"/>
      <path id="Trazado_201964" data-name="Trazado 201964" d="M-2774.137-3687.589l56.543,37.209s7.661,25.536,15.322,35.385l-37.939-23.635S-2756.262-3650.38-2774.137-3687.589Z" transform="translate(2774.137 3704.37)" fill="#2f393b"/>
    </g>
    <g id="Grupo_141902" data-name="Grupo 141902" transform="translate(-2925.03 -3692.935)">
      <path id="Trazado_201965" data-name="Trazado 201965" d="M-2908.739-3660.947l55.392,37.39,130.728-20.6-58.367-36.235Z" transform="translate(2908.739 3680.389)" fill="#328928"/>
      <path id="Trazado_201966" data-name="Trazado 201966" d="M-2906.622-3637.607l53.274,36.13V-3622.8l-55.392-37.39Z" transform="translate(2908.739 3679.635)" fill="#1e431c"/>
      <path id="Trazado_201967" data-name="Trazado 201967" d="M-2720.471-3642.748l-130.728,20.6v21.325l123.181-20.961Z" transform="translate(2906.59 3678.984)" fill="#276124"/>
    </g>
    <g id="Grupo_141903" data-name="Grupo 141903" transform="translate(-3127.419 -3683.815)">
      <path id="Trazado_201968" data-name="Trazado 201968" d="M-3118.979-3645.38l52.166,35.385,176.927-28.012-58-32.909Z" transform="translate(3118.979 3670.916)" fill="#944a88"/>
      <path id="Trazado_201969" data-name="Trazado 201969" d="M-3115.331-3613.382l48.518,33.381v-29l-52.166-35.385Z" transform="translate(3118.979 3669.925)" fill="#6d3467"/>
      <path id="Trazado_201970" data-name="Trazado 201970" d="M-2887.863-3636.73l-176.927,28.012v29l166.712-28.508Z" transform="translate(3116.956 3669.639)" fill="#491945"/>
    </g>
    <g id="Grupo_141905" data-name="Grupo 141905" transform="translate(-2606.415 -3680.926)">
      <path id="Trazado_201971" data-name="Trazado 201971" d="M-2557.6-3601.568s-12.768,29.548,0,56.543c0,0,25.171,31.738,97.4,9.85,0,0,14.581-21.733,6.014-60.661Z" transform="translate(2577.224 3665.437)" fill="#b1410e"/>
      <ellipse id="Elipse_5175" data-name="Elipse 5175" cx="52.531" cy="22.982" rx="52.531" ry="22.982" transform="translate(19.625 40.886)" fill="#161615"/>
      <g id="Grupo_141904" data-name="Grupo 141904">
        <path id="Trazado_201972" data-name="Trazado 201972" d="M-2577.765-3654.1l46.552,30.635,91.9-15.317-48.354-29.133-39.047,5.987Z" transform="translate(2577.765 3667.914)" fill="url(#linear-gradient)"/>
        <path id="Trazado_201973" data-name="Trazado 201973" d="M-2529.407-3622.334s5.707,19.522,12.614,29.132l35.74-4.2s25.829-18.922,43.549-40.246Z" transform="translate(2575.959 3666.784)" fill="#212829"/>
        <path id="Trazado_201974" data-name="Trazado 201974" d="M-2577.765-3653.563l46.552,30.635s6.308,21.024,12.614,29.132l-31.234-19.458S-2563.049-3622.928-2577.765-3653.563Z" transform="translate(2577.765 3667.379)" fill="#2f393b"/>
      </g>
      <path id="Trazado_201975" data-name="Trazado 201975" d="M-2557.379-3542.832s29.184,30.279,97.4,9.85v16.416s-63.11,18.778-97.4-6.393Z" transform="translate(2577.004 3663.244)" fill="#6f6863"/>
    </g>
    <text id="Caña" transform="translate(-3217.259 -3989.007)" fill="#0c1d30" font-size="14" font-family="SegoeUI, Segoe UI"><tspan x="0" y="0">Caña</tspan></text>
    <text id="Vapor_de_agua" data-name="Vapor de agua" transform="translate(-2806.544 -3850.648)" fill="#0c1d30" font-size="14" font-family="SegoeUI, Segoe UI"><tspan x="0" y="0">Vapor de agua</tspan></text>
    <text id="Evaporación" transform="translate(-2798.272 -3768.206)" fill="#0c1d30" font-size="14" font-family="SegoeUI, Segoe UI"><tspan x="0" y="0">Evaporación</tspan></text>
    <text id="Cuarto_de_moldeo_de_la_panela" data-name="Cuarto de moldeo
de la panela" transform="translate(-2712.978 -3467.08)" fill="#0c1d30" font-size="14" font-family="SegoeUI, Segoe UI"><tspan x="-56.092" y="0">Cuarto de moldeo</tspan><tspan x="-37.43" y="17">de la panela</tspan></text>
    <text id="Concentración" transform="translate(-2539.92 -3744.437)" fill="#0c1d30" font-size="14" font-family="SegoeUI, Segoe UI"><tspan x="0" y="0">Concentración</tspan></text>
    <text id="Cámara" transform="translate(-2407.703 -3670.467)" fill="#0c1d30" font-size="14" font-family="SegoeUI, Segoe UI"><tspan x="0" y="0">Cámara</tspan></text>
    <text id="Bagazo" transform="translate(-3082.146 -3873.495)" fill="#0c1d30" font-size="14" font-family="SegoeUI, Segoe UI"><tspan x="0" y="0">Bagazo</tspan></text>
    <text id="Torta" transform="translate(-2943.455 -3788.985)" fill="#0c1d30" font-size="14" font-family="SegoeUI, Segoe UI"><tspan x="0" y="0">Torta</tspan></text>
    <text id="Jugo_crudo" data-name="Jugo crudo" transform="translate(-3115.74 -3824.13)" fill="#0c1d30" font-size="14" font-family="SegoeUI, Segoe UI"><tspan x="0" y="0">Jugo crudo</tspan></text>
    <text id="Prelimpiador" transform="translate(-3087.83 -3761.996)" fill="#0c1d30" font-size="14" font-family="SegoeUI, Segoe UI"><tspan x="0" y="0">Prelimpiador</tspan></text>
    <text id="Cachaza" transform="translate(-3207.955 -3680.463)" fill="#0c1d30" font-size="14" font-family="SegoeUI, Segoe UI"><tspan x="0" y="0">Cachaza</tspan></text>
    <path id="Trazado_201976" data-name="Trazado 201976" d="M-3030.8-3666.264s22.189,17.7,28.308,39.561l1.344-.335s-3.48-18.265-28.9-41.2Z" transform="translate(-11.733 -12.999)" fill="#ffd63c"/>
    <rect id="Rectángulo_41384" data-name="Rectángulo 41384" width="114.546" height="28.189" rx="12" transform="translate(-3113.638 -3716.223)" fill="#e3e3e3"/>
    <text id="Clarificación" transform="translate(-3099.214 -3699.067)" fill="#0c1d30" font-size="14" font-family="SegoeUI, Segoe UI"><tspan x="0" y="0">Clarificación</tspan></text>
    <g id="Grupo_141906" data-name="Grupo 141906" transform="translate(-3142.213 -3946.292)">
      <rect id="Rectángulo_41385" data-name="Rectángulo 41385" width="77.634" height="28.189" rx="12" transform="translate(30.618)" fill="#f0f8fe"/>
      <text id="Molino" transform="translate(47.605 17.156)" fill="#0c1d30" font-size="14" font-family="SegoeUI, Segoe UI"><tspan x="0" y="0">Molino</tspan></text>
      <path id="Trazado_201977" data-name="Trazado 201977" d="M-3134.346-3929.011l37.029,4.713v-9.426Z" transform="translate(3134.346 3943.207)" fill="#f0f8fe"/>
    </g>
    <line id="Línea_239" data-name="Línea 239" y1="46.697" transform="translate(-2759.522 -3834.242)" fill="none" stroke="#aea9a9" stroke-miterlimit="10" stroke-width="1.5"/>
    <path id="Trazado_201978" data-name="Trazado 201978" d="M-2999.989-3873.653s205.585-74.179,498.962-4.534" transform="translate(-12.884 -4.046)" fill="none" stroke="#dc1f27" stroke-miterlimit="10" stroke-width="1.5"/>
    <rect id="Rectángulo_41386" data-name="Rectángulo 41386" width="88.429" height="28.189" rx="12" transform="translate(-2550.291 -3883.41)" fill="#e3e3e3"/>
    <text id="Bagacera" transform="translate(-2538.325 -3865.822)" fill="#0c1d30" font-size="14" font-family="SegoeUI, Segoe UI"><tspan x="0" y="0">Bagacera</tspan></text>
    <path id="Trazado_201979" data-name="Trazado 201979" d="M-3175.107-3557.38l-12.827,70.583,17.477,1.005Z" transform="translate(-5.866 -17.139)" fill="#f0f8fe"/>
    <rect id="Rectángulo_41387" data-name="Rectángulo 41387" width="77.634" height="28.189" rx="12" transform="translate(-3222.239 -3514.284)" fill="#f0f8fe"/>
    <text id="Melote" transform="translate(-3207.083 -3497.128)" fill="#0c1d30" font-size="14" font-family="SegoeUI, Segoe UI"><tspan x="0" y="0">Melote</tspan></text>
    <path id="Trazado_201980" data-name="Trazado 201980" d="M-3201.873-3934.484l6.042-10.464h-12.083Z" transform="translate(-5.12 -2.667)" fill="#dc1f27"/>
    <path id="Trazado_201981" data-name="Trazado 201981" d="M-3141.176-3809.669l2.34-11.854-11.436,3.9Z" transform="translate(-7.272 -7.275)" fill="#dc1f27"/>
    <path id="Trazado_201982" data-name="Trazado 201982" d="M-3059.4-3709.875l-1.743-11.957-9.483,7.488Z" transform="translate(-10.246 -10.998)" fill="#dc1f27"/>
    <path id="Trazado_201983" data-name="Trazado 201983" d="M-3086.773-3872.554l-10.464-6.041v12.083Z" transform="translate(-9.253 -5.144)" fill="#dc1f27"/>
  </g>
</svg>
