<svg xmlns="http://www.w3.org/2000/svg" width="315" height="320.861" viewBox="0 0 315 320.861">
  <g id="Grupo_142707" data-name="Grupo 142707" transform="translate(-1057.653 -3911)">
    <path id="Trazado_116145" data-name="Trazado 116145" d="M8142.249,1262.154c-9.617,66.8-220.4,119.1-286.888,31.193-36.446-48.185-41.694-115.527,14.183-168.692,63.893-60.792,160.668-52.137,199.373-25.208,5.354,3.724,33.067,23.006,29.793,41.249-1.527,8.5-8.589,10.138-9.166,18.334-1.021,14.441,20,22.055,34.374,38.958C8143.2,1220.671,8143.7,1252.1,8142.249,1262.154Z" transform="translate(-6770.097 2879.144)" fill="#81af1d" opacity="0.24"/>
    <g id="Grupo_141952" data-name="Grupo 141952" transform="translate(1145.93 3911)">
      <g id="Grupo_141949" data-name="Grupo 141949" transform="translate(0 0)">
        <path id="Trazado_202037" data-name="Trazado 202037" d="M116.452,94.769s-6.15,21.525-5.71,27.235,15.374,10.1,15.374,10.1L122.6,150.995l.659,10.1,11.421-10.542,7.907-43.487-.22-14.056Z" transform="translate(-63.333 -70.579)" fill="#ffd6a4"/>
        <path id="Trazado_202038" data-name="Trazado 202038" d="M113.226,102.276l-5.284,14.245-2.3,1.493-1.608-.23,1.608-17.231Z" transform="translate(-28.468 -71.912)" fill="#353331"/>
        <path id="Trazado_202039" data-name="Trazado 202039" d="M145.269,97.862c-.878-.22-45.9-10.323-45.9-10.323l9.444.22s2.636-19.548,10.323-19.767l.878-2.2s17.57-1.1,23.719,9.884S145.269,97.862,145.269,97.862Z" transform="translate(-58.326 -65.765)" fill="#fff"/>
        <path id="Trazado_202040" data-name="Trazado 202040" d="M104.411,119.464s2.757-4.595,6.663-3.331,0,7.237-2.872,8.271-4.365-.575-4.71-1.723S104.411,119.464,104.411,119.464Z" transform="translate(-27.466 -74.626)" fill="#ffd6a4"/>
        <path id="Trazado_202041" data-name="Trazado 202041" d="M151.487,109.464s-.575-3.1-2.757-3.331-3.1,5.514-1.378,6.777a13.657,13.657,0,0,0,3.561,1.838Z" transform="translate(-101.651 -72.896)" fill="#ffd6a4"/>
        <path id="Trazado_202042" data-name="Trazado 202042" d="M85.2,265.22s2.09,58.852-1.393,140.341l4.179,2.09s13.93-91.936,15.323-121.188c7.313,24.726,43.182,120.143,43.182,120.143l4.179-3.483-32.735-136.51Z" transform="translate(-49.263 -101.007)" fill="#353331"/>
        <path id="Trazado_202043" data-name="Trazado 202043" d="M144.913,164.9l.494-6.177-9.142,2.965-5.93,10.873,2.718-12.6-4.942-3.707-3.707,7.166-17.544.741L88.822,191.337s-1.977-1.977-3.46.741a22.117,22.117,0,0,0-1.977,4.695l14.084-1.235,7.166-9.637s-3.707,13.343-3.46,19.768,3.954,38.053,3.954,38.053-3.459.988-1.235,2.718,31.628,3.46,35.335,2.719,4.942-3.46-.494-5.93c7.66-19.274,33.853-62.763,33.853-62.763s3.212-7.166-9.143-11.12S144.913,164.9,144.913,164.9Z" transform="translate(-71.205 -81.753)" fill="#fff"/>
        <path id="Trazado_202044" data-name="Trazado 202044" d="M156.447,223.7c-.251,1.006-2.765,18.856-1.508,25.644-3.52,4.526-7.291,8.3,0,11.063" transform="translate(-110.164 -93.67)" fill="none" stroke="#8c8987" stroke-miterlimit="10" stroke-width="1"/>
        <path id="Trazado_202045" data-name="Trazado 202045" d="M151.071,171.318l-6.436-2.441.665,5.992-14.869,28.85,1.554,8.433s9.987-5.326,9.987-6.213,5.2-31.15,5.2-31.15Z" transform="translate(-88.046 -83.984)" fill="#353331"/>
        <path id="Trazado_202046" data-name="Trazado 202046" d="M177.747,221.116s-.65,6.064,1.517,8.231,4.116,3.033,8.231-6.715C185.113,219.383,177.747,221.116,177.747,221.116Z" transform="translate(-163.35 -93.133)" fill="#f9c48c"/>
        <g id="Grupo_141945" data-name="Grupo 141945" transform="translate(15.914 129.042)">
          <line id="Línea_246" data-name="Línea 246" x1="1.652" y2="7.172" transform="translate(0)" fill="none" stroke="#c68b44" stroke-miterlimit="10" stroke-width="1"/>
          <line id="Línea_247" data-name="Línea 247" x1="1.465" y2="8.369" transform="translate(2.489 0.418)" fill="none" stroke="#c68b44" stroke-miterlimit="10" stroke-width="1"/>
          <line id="Línea_248" data-name="Línea 248" x1="1.046" y2="5.858" transform="translate(5.627 0.418)" fill="none" stroke="#c68b44" stroke-miterlimit="10" stroke-width="1"/>
        </g>
        <path id="Trazado_202047" data-name="Trazado 202047" d="M121.392,205.2l-5.436,11.861s20.756,6.424,40.524,6.177a103.682,103.682,0,0,0,17.792,11.614l9.884-9.884-13.1-10.132L135.477,203.97Z" transform="translate(-109.212 -90.185)" fill="#ffd6a4"/>
        <g id="Grupo_141946" data-name="Grupo 141946" transform="translate(61.847 103.282)">
          <line id="Línea_249" data-name="Línea 249" x1="15.108" y2="21.375" transform="translate(0)" fill="none" stroke="#8c8987" stroke-miterlimit="10" stroke-width="0.6"/>
          <line id="Línea_250" data-name="Línea 250" x1="19.611" y2="25.975" transform="translate(13.096 5.531)" fill="none" stroke="#8c8987" stroke-miterlimit="10" stroke-width="0.6"/>
        </g>
        <line id="Línea_251" data-name="Línea 251" x1="7.291" y2="10.811" transform="translate(32.203 94.231)" fill="none" stroke="#8c8987" stroke-miterlimit="10" stroke-width="1"/>
        <g id="Grupo_141947" data-name="Grupo 141947" transform="translate(53.199 80.415)">
          <path id="Trazado_202048" data-name="Trazado 202048" d="M117.457,165.256l1.006,7.542,7.06-6.309" transform="translate(-105.014 -163.76)" fill="none" stroke="#8c8987" stroke-miterlimit="10" stroke-width="1"/>
          <path id="Trazado_202049" data-name="Trazado 202049" d="M141.065,163.439l-4.438,6.273-1.632-5.027" transform="translate(-134.995 -163.439)" fill="none" stroke="#8c8987" stroke-miterlimit="10" stroke-width="1"/>
        </g>
        <path id="Trazado_202050" data-name="Trazado 202050" d="M141.257,111.5a26.779,26.779,0,0,1-1.383,5.961c-3.513-1.065-5.429-.957-4.364.533s4.045,2.022,4.045,2.022" transform="translate(-82.17 -73.846)" fill="none" stroke="#c68b44" stroke-miterlimit="10" stroke-width="1"/>
        <path id="Trazado_202051" data-name="Trazado 202051" d="M137.441,124.687s-5.429,9.368-10.112,1.6" transform="translate(-71.861 -76.176)" fill="none" stroke="#c68b44" stroke-miterlimit="10" stroke-width="1"/>
        <g id="Grupo_141948" data-name="Grupo 141948" transform="translate(46.952 35.632)">
          <path id="Trazado_202052" data-name="Trazado 202052" d="M112.574,119.257s-2.129-.212-4.9,3.725c3.194-.851.213.958.213.958" transform="translate(-77.767 -110.848)" fill="none" stroke="#c68b44" stroke-linecap="round" stroke-linejoin="round" stroke-width="1"/>
          <line id="Línea_252" data-name="Línea 252" x1="0.958" y2="4.258" transform="translate(1.81 1.703)" fill="none" stroke="#c68b44" stroke-linecap="round" stroke-linejoin="round" stroke-width="1"/>
          <path id="Trazado_202053" data-name="Trazado 202053" d="M147.239,109.044l2.235,3.832-2.022-.106" transform="translate(-147.239 -109.044)" fill="none" stroke="#c68b44" stroke-linecap="round" stroke-linejoin="round" stroke-width="1"/>
        </g>
        <path id="Trazado_202054" data-name="Trazado 202054" d="M132.371,113.455c0,.794-.405,1.437-.9,1.437s-.9-.643-.9-1.437.405-1.437.9-1.437S132.371,112.661,132.371,113.455Z" transform="translate(-69.452 -73.937)" fill="#353331"/>
        <path id="Trazado_202055" data-name="Trazado 202055" d="M139.417,111.58c0,.794-.405,1.437-.9,1.437s-.9-.643-.9-1.437.405-1.437.9-1.437S139.417,110.786,139.417,111.58Z" transform="translate(-82.298 -73.606)" fill="#353331"/>
        <path id="Trazado_202056" data-name="Trazado 202056" d="M126.295,104.648a10.1,10.1,0,0,1,4.364,2.874" transform="translate(-64.228 -72.635)" fill="none" stroke="#353331" stroke-miterlimit="10" stroke-width="1.5"/>
        <path id="Trazado_202057" data-name="Trazado 202057" d="M140.029,104.105a10.942,10.942,0,0,0-4.684.319" transform="translate(-81.048 -72.518)" fill="none" stroke="#353331" stroke-miterlimit="10" stroke-width="1.5"/>
        <path id="Trazado_202058" data-name="Trazado 202058" d="M38.824,436.2l.2,2.733s25.356,10.029,36.141,12.11,1.893-3.974-9.461-9.083S43,432.719,43,432.719Z" transform="translate(58.407 -130.603)" fill="#191918"/>
        <path id="Trazado_202059" data-name="Trazado 202059" d="M193.746,435.68s-25.293,3.4-32.672,6.237,8.893,3.595,16.462,3.217,21-3.217,21-3.217l-.568-4.92Z" transform="translate(-159.199 -131.127)" fill="#191918"/>
      </g>
      <path id="Trazado_202060" data-name="Trazado 202060" d="M116.479,214.958s5.849-5.416,10.181-2.6,4.982,7.148,4.549,10.83-6.715,1.083-9.964-1.732A19.471,19.471,0,0,1,116.479,214.958Z" transform="translate(-56.811 -91.524)" fill="#ffd6a4"/>
      <path id="Trazado_202061" data-name="Trazado 202061" d="M126.66,212.533c4.331,2.816,4.982,7.148,4.549,10.83s-6.715,1.083-9.964-1.732a19.471,19.471,0,0,1-4.765-6.5" transform="translate(-56.811 -91.698)" fill="none" stroke="#c68b44" stroke-miterlimit="10" stroke-width="1"/>
      <line id="Línea_253" data-name="Línea 253" x1="21.003" y1="19.274" transform="translate(26.265 113.785)" fill="none" stroke="#c68b44" stroke-miterlimit="10" stroke-width="1"/>
      <g id="Grupo_141950" data-name="Grupo 141950" transform="translate(63.596 121.928)">
        <line id="Línea_254" data-name="Línea 254" x2="6.695" y2="8.997" transform="translate(0 2.302)" fill="none" stroke="#c68b44" stroke-miterlimit="10" stroke-width="1"/>
        <path id="Trazado_202062" data-name="Trazado 202062" d="M117.54,214.369c.209.627,7.532,10.671,7.532,10.671" transform="translate(-115.03 -213.95)" fill="none" stroke="#c68b44" stroke-miterlimit="10" stroke-width="1"/>
        <line id="Línea_255" data-name="Línea 255" x2="5.022" y2="7.741" transform="translate(5.858)" fill="none" stroke="#c68b44" stroke-miterlimit="10" stroke-width="1"/>
      </g>
      <g id="Grupo_141951" data-name="Grupo 141951" transform="translate(55.91 1.195)">
        <line id="Línea_256" data-name="Línea 256" x1="4.896" y2="19.798" transform="translate(0 1.032)" fill="none" stroke="#8c8987" stroke-miterlimit="10" stroke-width="1"/>
        <line id="Línea_257" data-name="Línea 257" x1="5.714" y2="22.857" transform="translate(9.954 0)" fill="none" stroke="#8c8987" stroke-miterlimit="10" stroke-width="1"/>
        <path id="Trazado_202063" data-name="Trazado 202063" d="M122.977,70.786s-8.848-2.212-13.456,20.276" transform="translate(-98.645 -67.837)" fill="none" stroke="#8c8987" stroke-miterlimit="10" stroke-width="1"/>
      </g>
    </g>
  </g>
</svg>
