<svg xmlns="http://www.w3.org/2000/svg" width="311.015" height="323.001" viewBox="0 0 311.015 323.001">
  <g id="Grupo_131963" data-name="Grupo 131963" transform="translate(405.91 25.173)">
    <g id="Grupo_131939" data-name="Grupo 131939" transform="translate(-401.56 -8.581)">
      <g id="Grupo_131938" data-name="Grupo 131938" transform="translate(0 0)">
        <path id="Trazado_191687" data-name="Trazado 191687" d="M-228.178,31.226c-2,.589-19.631,6-11.109,9.314-3.794.322-7.093,1.146-10.733,1.732-4.181.67-15.906,1.106-14.632,8.116-2.578-.084-5.237-2.787-7.881-3.617-8.711-2.73-18.874-2.191-27.68-.407-15.74,3.187-23.4,12.624-24.208,28.562-4.129,1.271-9.7,5.6-7.406,10.731-5.086,1.939-10.8,2.2-10.42,9.315-6.85.352-13.338-.119-20.126,1.677a80.132,80.132,0,0,0-32.114,16.822c-6.52,5.707-6.221,9.7,2.841,10.726,10.022,1.145,19.988-1.062,29.895-.9-2.88,2.455-3.674,3.283-1.009,5.591,4.284,3.706,16.426,2.369,21.712,2.569,7.839.3,14.362,1.669,22.127,2.737a85.794,85.794,0,0,0,14.056.511c3.348-.086,7.723-1.271,11-.335,2.739.78,4.842,2.878,7.476,4.017,5.321,2.3,10.913,2.047,16.557,2.047,12.857,0,24.884-3.1,37.048-7.273,5.531-1.893,9.411-7.546,14.91-8.71,7.4-1.566,32.814,9.861,37.277.51,6.379-.283,13.458,1.992,20.123,1.973,9.35-.03,19.591,1.318,28.453-2.463,5.585-2.386,8.81-6.942,13.9-9.693,6.98-3.775,13.275-10.791,11.422-19.825-1.439-6.987-10.536-13.8-16.455-16.312-7.3-3.095-16.387-3.967-24.205-4.123.2-2.757,3.876-4.965,5.1-7.7,2.247-5.01.893-10.941-1.171-15.859-4.66-11.074-16.669-10.882-26.5-9.982,3.956-8.41-4.938-16-11.1-20.4-7.6-5.413-18.547-7.079-27.648-5.739-8.264,1.215-19.123,8.512-18.751,18.047a1.355,1.355,0,0,1-.738-1.257Z" transform="translate(398.971 -6.189)" fill="#a7c9d8"/>
        <path id="Trazado_191688" data-name="Trazado 191688" d="M-187.315,92.348c7.832-7.816-10.107-19.679-13.405-9.092,4.515-8.784-5.082-15.19-12.649-14.638-7.392.54-19.581,12.873-14.858,21.122-3.851-.876-8.838.739-9.362,5.346,1.576-10.379-21.683-8.11-21.033,3.743a10.855,10.855,0,0,0-11.411,11.811c-2.177-7.489-7.068-9.7-14.988-7.694-8.51,2.149-18.241,10.715-16.057,20.613-2.757,1.467-3.745,5.036-3.872,8.014-10.561-6.094-9.748,6.016-11.475,12.671-2.951-.664-9.315-1.456-7.751,3.68.148.149.162.137.032-.03-3.208-2.112-5.507.876-8.349,2.142-6.358,2.831-14.4,3.462-21.114,5.335-3.478.969-11.51,3.309-3.544,5.319,10.05,2.529,21.177-2.829,31.21-2.9-5.82.576-11.926,2.465-17.643,3.779-3.678.842-14.14,1.338-15.867,5.243,7.677,2.813,18.417,1.215,26.442,1.209q17.628-.012,35.268,0c14.587,0,28.615-1.372,43.129-2.565,10.472-.862,21.275-.2,31.587-2.435,5.232-1.133,12.512-2.813,17.921-1.973,2.307.355,4.61,2.193,7.472,2.594a67.936,67.936,0,0,0,13.086.286c3.851-.225,5.771-1.421,9.126-3.176,2.813-1.477,3.115-1.016,6.02-1.322,2.542-.268,3.911-1.4,6.228-1.961,3.134-.763,6.411.828,9.481,1.254,7.241,1.006,14.865.239,22.109-.42,3.362-.3,13.082.079,14.281-3.708-7.561-2.256-16.577-1.335-24.483-2.425s-14.921-4.227-21.757-7.78c5.018-.4,12.948-.1,13.916-6.728.953-6.5-6.738-9.411-11.919-9.786,1.207-3.206,4.9-4.753,6.014-8.237.942-2.915.506-7.32-1.277-9.8-4.61-6.421-14.485-7.582-21.262-5.687,5.366-6.305-.925-13.736-8.06-10.576Z" transform="translate(384.637 -26.407)" fill="#8ab7ca"/>
        <path id="Trazado_191689" data-name="Trazado 191689" d="M-101.02,173.009c7.558-5.722,7.43-19.389,14.58-4.847,2.166,4.4,4.051,8.811,6.34,13.148,3.151,5.97,2.564,5.158,8.395,5.725,5.6.545,4.442-1.916,7.5,3.273.8,1.35-.732,3.993.109,5.4.809,1.349,4.086,1.934,5.275,3.076,5.687,5.47,7.941,13.787,14.172,19.1,5.873-1.892,16.356-3.526,20.453,1.489,5.363,6.552.847,14.429,7.508,20.583C-7.747,248.2-.566,255.9,5.479,267.122c2.722,5.065,8.25,12.568,7.231,18.559-7.224.155-10.814-.6-17.981-3.182-7.853-2.83-14.3-2.6-22.665-3.043.4-12.882-13.887-25.307-22.176-33.952-7.444-7.756-25.077-14.624-28.189-25.449-1.568-5.42,1.723-10.32-1.944-15.253-2.94-3.956-9.189-4.269-12.607-7.768-5.848-5.983-6.414-19.011-10.849-25.409Z" transform="translate(288.786 -61.147)" fill="#151b1e"/>
        <path id="Trazado_191690" data-name="Trazado 191690" d="M-357.929,247.426c6.763-8.88,10.775-21.477,15.263-32,3.34-7.826,5.668-7.895,13-11.422,10.793-5.186,17.931-18.542,24.616-28.537,1.84-2.755,5.549-4.432,6.89-7.559,1.519-3.552-1.048-8.673.559-12.006,2.581-5.372,13.416-8.048,18.04-10.881,6.689-4.1,8.331-6.014,10.684-12.957,2.05-6.053,5.616-10.861,8.042-16.792,2.473-6.04,3.5-12.662,6-18.714,1.909-4.635,4.4-16.142,8.907-18.628,4.59-2.531,10.659,5,13.036,9.822,1.435,2.882,1.165,5.272,3.507,7.642,3.26,3.309,9.428,4.595,13.237,7.425,7.293,5.419,4.487,9.236,6.85,16.755,2.867,9.119,12.154,14.255,14.573,24.082,2.114,8.572-.668,13.239,8,17.972,11.313,6.163,17.027,5.184,21.128,18.649,3.774,12.377,9.544,15.722,17.927,23.541,3.376,3.145,5.092,8.287,7.822,11.932,4.723,6.286,11.123,10.68,16.465,16.272,3.925,4.115,4.934,8.321,7.677,12.8,1.962,3.211,6.3,5.465,6.091,9.392-14.942,5.395-31.791.125-47.408.125-27.525-.008-55.708.8-83.1,3.476-24.43,2.386-49.314-1.047-73.452-3.476-14.007-1.409-28.689-1.331-41.518-5.708-.707-.243-1.382-.317-2.17-.52Z" transform="translate(383.655 -29.707)" fill="#2b2e31"/>
        <path id="Trazado_191691" data-name="Trazado 191691" d="M-85.616,351.759a8.887,8.887,0,0,1-9.109,8.647H-371.938a8.886,8.886,0,0,1-9.1-8.647h0a8.886,8.886,0,0,1,9.1-8.648H-94.724a8.887,8.887,0,0,1,9.109,8.648Z" transform="translate(392.281 -128.851)" fill="#1c2022"/>
        <path id="Trazado_191692" data-name="Trazado 191692" d="M-249.545,82.618c-7.49.281-8.331,17.823-9.874,23.563-1.716,6.39-4.99,12.243-6.186,18.64-.728,3.881.267,4.7-2.015,7.818-1.853,2.539-4.41,2.509-6.006,6.02-3.056,6.743-1.413,11.535-10.061,13.182-5.588,1.066-11.418-1.024-14.9,5.484-1.931,3.612.169,4.679.014,7.8-.176,3.666-.042,3.543-1.709,7.437-1.3,3.056-.77,3.907-2.979,6.075-1.874,1.837-4.343.994-6.379,3.6-4.083,5.222-2.215,12.2-7.5,16.792-4.719,4.11-12.414,5.5-17.287,9.706-3.925,3.387-9.794,7.1-11.57,12.28-2.781,8.1-2.327,11.717-8.148,18.628-3.622,4.3-7.388,8.6-11.183,12.352,4.575.809,9.295-1.036,13.807-1.763,7.4-1.189,14.808-.867,22.278-.867,9.748,0,19.725.526,29.428-.141-5.926-6.275-11.591-8.728-10.022-19.4,1.115-7.593,2.749-20.02,6.562-26.621,2.3-3.963,6.555-5.936,8.907-10.033,2.216-3.86,1.154-7.719,2.624-11.587,2.845-7.477,11.348-8.9,15.4-15.933,4.5-7.812,7.136-17.289,10.582-25.632,3.087-7.489,7.722-14.35,10.373-22.1,2.279-6.676,1.938-11.9,2.494-18.853.461-5.765,3.4-10.27,4.019-15.744Z" transform="translate(386.414 -31.643)" fill="#2b2e31" opacity="0.6" style="mix-blend-mode: multiply;isolation: isolate"/>
        <path id="Trazado_191693" data-name="Trazado 191693" d="M-174.2,85.861c5.282,5.463,12.765,11.313,15.614,18.695,2.069,5.359-1.016,9.491-.088,14.386s7.413,7.645,10.1,11.545a24.7,24.7,0,0,1,4.02,11.408c.963,8.289,1.909,15.938,4.491,24.021,1.843,5.8,5.915,18.452,11.067,22.207,3.633,2.65,11.1,2.573,15.913,5.127,5.637,3,12.888,10.081,19.654,9.288.812-5.919-4.315-11.881-5.838-17.45-1.421-5.2-2.286-8.1-7.142-11.139-9.1-5.694-19.926-5.029-21.1-17.5-.482-5.027-.419-9.258-3.116-13.478-2.746-4.284-7.35-7.466-10.546-11.47-3.615-4.531-3.091-7.294-3.9-12.947-.711-4.932-2.317-5.456-6.031-8.821-3.984-3.619-6.931-7.784-10.405-12.077-3-3.7-7.53-12.461-12.111-13.3a8.265,8.265,0,0,0-.078,2.024Z" transform="translate(315.092 -32.292)" fill="#404548"/>
        <path id="Trazado_191694" data-name="Trazado 191694" d="M-40.408,216.727c2.349,6.856,8.025,12.36,11.436,18.677,2.17,4.021,5.229,17.049,9.192,18.109.626-1.783,1.734-9.187,4.076-9.7,2.725-.589,4.59,6.658,6.956,8.269,1.319-2.409,1.811-5.725,3.5-8.273,1.234-1.867,2.957-2.421,3.449-4.684-7.7-.463-13.834-.285-20.941,1.4-1.786-4.854-5.11-8.159-8.015-12.418-1.72-2.539-7.279-11.612-8.144-10.87Z" transform="translate(265.167 -81.688)" fill="#404548"/>
        <path id="Trazado_191695" data-name="Trazado 191695" d="M-120.524,40.243c4.793-10.04,1.691-20.316-5.542-28.315-6.08-6.722-23.273-15.268-31.273-7.622-3.208-5.514-13.307-2.238-17.513.352-7.955,4.892-8.324,9.4-9.871,17.967-2.581-3.244-8.31-.915-11.057,1.343-3.372,2.782-4.206,6.659-4.4,10.914-6.305-4.19-16.6-.955-17.8,7.784-5.346-7.34-18.512-5.06-26.361-2.5-9.488,3.089-19.388,8.009-21.03,19.183,5.809-5.607,9.8-11.571,18.572-12.475,5.391-.553,11.7-.011,16.567,2.657,2.336,1.287,4.98,7.55,6.674,8.027,2.227.614,2.719-3.031,4.864-3.931,3-1.268,4.523,1.807,7.037,1.343,4.828-.9,2.244-8.66,5.311-11.969,3.619-3.9,7.923-2.254,12.193-2.047,3.787.179,5.588-1.468,9.087-3.56,5.082-3.038,8.989-6.451,15.15-7.371,8.658-1.291,18.666,1,24.462,8.18a36.436,36.436,0,0,1,4.843,7.687c1.016,2.291,2.553,1.8-.879,2.947-1.583.524-6.685-1.31-6.379,2.066.215,2.364,10.789,2.7,12.671,3.336-3.337,5.862,8.992,4.554,12.639,4.353.851-4.081-4.044-5.458,1.132-7.321,4.878-1.751,12.08,1.19,15.969-4.071,6.992-9.448-11.236-10.585-15.937-7.74.211.369.506.359.876-.032Z" transform="translate(349.116 -1.297)" fill="#b8dcea"/>
        <rect id="Rectángulo_41228" data-name="Rectángulo 41228" width="51.727" height="70.653" transform="translate(124.882 158.27)" fill="#2b2e31" opacity="0.6" style="mix-blend-mode: multiply;isolation: isolate"/>
        <g id="Grupo_131937" data-name="Grupo 131937" transform="translate(118.503 153.097)">
          <g id="Grupo_131932" data-name="Grupo 131932" transform="translate(2.817 4.174)">
            <path id="Trazado_191696" data-name="Trazado 191696" d="M-188.174,256.123l-13.412,22.03-3.84-3.5,13.412-22.033Z" transform="translate(205.427 -252.353)" fill="#b88b38"/>
            <path id="Trazado_191697" data-name="Trazado 191697" d="M-191.838,252.661c.271.021.527.742.563,1.015.088.642-.292,1-.384,1.536-.07.421.12.9.053,1.34a8.383,8.383,0,0,1-.566,1.869,19.1,19.1,0,0,1-1.966,3.816c-.264.4-2.17,3.622-2.732,3.123-.436-.387.291-1.41-.668-1.126-.5.146-.827.747-1.143,1.126-.253.286-.724.585-.658,1.091.036.234.2.542.236.811a3.277,3.277,0,0,1-.039,1.106,10.054,10.054,0,0,1-1.944,3.705c-.249.35-.682.968-1.273.7-.622-.29-.19-.78-.6-1.058-.439-.286-1.227,1.577-1.452,1.853-.133.165-.52.478-.478.772.071.415.742.8,1.048,1.018.841.617,1.568,1.454,2.359,2.151.866-1.066,1.294-2.675,2-3.9,1.16-2.015,2.423-3.888,3.686-5.809,1.062-1.611,2.145-3.195,3.147-4.849.384-.628.647-1.341,1.059-1.947a21.594,21.594,0,0,0,1.291-2.039,24.829,24.829,0,0,1,1.484-2.1c.12-.177.387-.394.359-.682s-.39-.619-.651-.855a24.956,24.956,0,0,0-2.912-2.861c.014-.068-.011-.2.007-.258Z" transform="translate(205.23 -252.195)" fill="#b88b38" opacity="0.5" style="mix-blend-mode: multiply;isolation: isolate"/>
            <path id="Trazado_191698" data-name="Trazado 191698" d="M-189.639,253.887c-.233.036-.563-.111-.742.077-.288.313.172,1,.165,1.461-.014.624-.521.768-.831,1.113a3.567,3.567,0,0,0-.671,1.331c-.278.837-.795.973-1.407,1.474a4.122,4.122,0,0,0-1.537,2.4,2.464,2.464,0,0,1-.291.976c-.222.318-.6.451-.854.74a15.156,15.156,0,0,0-1.365,1.847c-.267.407-1.828,2.322-.957,2.841.246.142.831-.13,1.045.241.257.436-.5.81-.665.946a1.841,1.841,0,0,0-.647.932,4.175,4.175,0,0,0,.056.9c.007.76-.57,1.162-.911,1.64a17.24,17.24,0,0,0-1.006,1.686c-.232.411-.394,1.017-.784,1.259a3.457,3.457,0,0,1,.387-1.326,11.631,11.631,0,0,1,.608-1.516,11.767,11.767,0,0,0,.946-2.492c.063-.251.253-.6.123-.92-.271-.644-.412.066-.587.232-.2.195-.4.315-.486-.116-.063-.354.373-.76.5-1,1.555-2.937,3.31-5.7,5.029-8.477.96-1.544,1.92-3.07,2.87-4.612.341-.564.626-1.175.938-1.748.211-.389.876-.7,1.126.051a.23.23,0,0,0,0-.169Z" transform="translate(203.791 -252.631)" fill="#b88b38" opacity="0.5" style="mix-blend-mode: multiply;isolation: isolate"/>
            <path id="Trazado_191699" data-name="Trazado 191699" d="M-190.985,253.077c.415-.19.56-.056.848.447.333.584.925.948,1.276,1.552.5.857-.007,1.6-.159,2.248-.352,1.424-1.245,2.324-1.9,3.5a14.24,14.24,0,0,0-.615,1.7,9.061,9.061,0,0,1-1.143,1.859c-.372.512-.594,1.146-.988,1.629a4.084,4.084,0,0,1-1.133.8,2.439,2.439,0,0,0-1.136,2.092c-.049.387-.232.427-.443.67-.246.3-.225.788-.391,1.162a5.932,5.932,0,0,1-.982,1.312,9.279,9.279,0,0,0-.7,1.245,11.711,11.711,0,0,1-.534,1.1c-.222.343-.542.587-.781.927s-.647.94-1.255.522c-.194-.137-.3-.549-.563-.626-.2-.06-.58.3-.559.52.028.379.481.607.749.849.179.164.678.91.861.962.458.136,1.006-1.687,1.178-2.02a44.844,44.844,0,0,1,3.14-5.267c1.1-1.621,2.219-3.276,3.271-4.946.51-.811.908-1.733,1.393-2.56.433-.74.97-1.352,1.347-2.139.362-.739.738-1.432,1.132-2.137.362-.64.826-1.183,1.16-1.844.552-1.064-.475-1.583-1.35-2.384-.218-.2-1.031-.94-.978-1.106Z" transform="translate(204.2 -252.493)" fill="#b88b38" opacity="0.5" style="mix-blend-mode: multiply;isolation: isolate"/>
          </g>
          <g id="Grupo_131933" data-name="Grupo 131933" transform="translate(2.75 12.722)">
            <rect id="Rectángulo_41229" data-name="Rectángulo 41229" width="6.198" height="63.388" transform="translate(0.369 0.232)" fill="#b88b38"/>
            <path id="Trazado_191700" data-name="Trazado 191700" d="M-205.062,266.511c.3-.429,1.012.484,1.23.928.5,1.036.331,2.33.57,3.487.186.9.7,1.463.907,2.383a34.337,34.337,0,0,1,.591,4.42,91.187,91.187,0,0,1,.369,10.376c-.024,1.175.028,10.363-.869,10.383-.7.021-.594-3.093-1.407-.952a16.7,16.7,0,0,0-.482,4.016c-.073.955-.365,2.3.018,3.121.182.384.545.664.756,1.1a9.8,9.8,0,0,1,.664,2.108,47.542,47.542,0,0,1,.313,10.142c-.038,1.073-.095,2.949-.883,3.433-.819.51-.693-1.126-1.294-.934-.64.2-.281,4.981-.337,5.868a6.3,6.3,0,0,0,0,2.238c.331.65,1.266.233,1.723.13a19.947,19.947,0,0,1,3.805-.009c.236-3.434-.334-7.137-.377-10.6-.073-5.685.053-11.285.155-16.973.088-4.766.2-9.527.2-14.285,0-1.8-.172-3.574-.12-5.386.053-1.962.1-3.989.053-5.948-.06-2.166.158-4.28.207-6.4a5.223,5.223,0,0,0-.056-1.86c-.218-.5-.805-.485-1.22-.493-1.632-.026-3.253-.907-4.832-.374-.032-.15-.141-.359-.155-.5Z" transform="translate(205.533 -265.87)" fill="#b88b38" opacity="0.5" style="mix-blend-mode: multiply;isolation: isolate"/>
            <path id="Trazado_191701" data-name="Trazado 191701" d="M-203.432,266.822c-.225.459-.654.742-.714,1.391-.105,1.062.812,1.565,1.09,2.428.376,1.175-.056,2.293-.158,3.461a17.005,17.005,0,0,0,.144,3.6c.243,2.013-.211,3.133-.528,5.085a20.233,20.233,0,0,0-.088,7.026,9.8,9.8,0,0,1,.32,2.3c-.032.965-.345,1.853-.426,2.816-.162,1.859-.222,3.846-.25,5.717-.021,1.213-.429,7.376.809,6.864.337-.141.77-1.63,1.234-1.31.538.378-.017,2.351-.091,2.87a8.968,8.968,0,0,0-.085,2.811,8.171,8.171,0,0,0,.629,1.572c.482,1.4.141,3.123.078,4.59-.067,1.594,0,3.2.031,4.8a16.259,16.259,0,0,1-.028,3.656,14.628,14.628,0,0,1-.436-3.107c-.144-1.266-.264-2.546-.32-3.831a50.378,50.378,0,0,0-.59-6.207c-.1-.566-.12-1.533-.454-1.9-.686-.749-.387.8-.457,1.4-.088.7-.225,1.268-.58.614a8.828,8.828,0,0,1-.116-2.693c-.239-8.059-.166-16.126-.134-24.178.021-4.467.042-8.909.056-13.363.006-1.63-.085-3.236-.12-4.823-.025-1.079.468-2.764,1.2-1.811a.562.562,0,0,0-.109-.315Z" transform="translate(205.19 -266.002)" fill="#b88b38" opacity="0.5" style="mix-blend-mode: multiply;isolation: isolate"/>
            <path id="Trazado_191702" data-name="Trazado 191702" d="M-204.944,266.982c.306-1.05.538-1.041,1.153-.6.721.519,1.565.192,2.314.716,1.062.746,1.009,2.952,1.255,4.429.535,3.228.176,6.4.232,9.681.021,1.437.324,2.774.436,4.19a45.553,45.553,0,0,1-.014,5.363c-.06,1.563.105,3.125,0,4.688a20.494,20.494,0,0,1-.672,3.369,11.34,11.34,0,0,0,.148,5.789,5.047,5.047,0,0,1-.039,1.986,18.539,18.539,0,0,0,.334,2.8,32.415,32.415,0,0,1-.19,4.085c-.06,1.167.018,2.312.056,3.481.035.972.158,1.962.14,2.932-.01,1.013-.193,2-.218,3.028-.029,1.009-.081,2.84-.982,3.095-.3.079-.658-.515-.981-.214a3.01,3.01,0,0,0-.249,1.913c.267.645.883.308,1.311.31.288,0,1.28.536,1.505.323.563-.531-.021-4.832-.06-5.723-.214-5.029-.186-10.01-.056-15.045.116-4.864.236-9.807.271-14.673.011-2.358-.158-4.735-.176-7.086-.021-2.1.158-4.137.049-6.233-.092-1.971-.137-3.888-.172-5.865-.031-1.8.1-3.572.043-5.358-.106-2.9-1.488-2.142-2.912-2.14-.355,0-1.671.006-1.716-.4Z" transform="translate(205.313 -265.831)" fill="#b88b38" opacity="0.5" style="mix-blend-mode: multiply;isolation: isolate"/>
          </g>
          <g id="Grupo_131934" data-name="Grupo 131934" transform="translate(55.222 12.839)">
            <rect id="Rectángulo_41230" data-name="Rectángulo 41230" width="6.2" height="63.388" transform="translate(0.377 0.23)" fill="#b88b38"/>
            <path id="Trazado_191703" data-name="Trazado 191703" d="M-121.346,266.7c.3-.432,1.02.484,1.231.925.5,1.039.323,2.333.57,3.488.186.9.7,1.463.907,2.383a35.068,35.068,0,0,1,.591,4.419,91.2,91.2,0,0,1,.369,10.378c-.028,1.175.032,10.362-.869,10.383-.693.021-.59-3.093-1.4-.951a16,16,0,0,0-.481,4.014c-.074.953-.373,2.3.01,3.122.183.382.549.665.757,1.106a9.17,9.17,0,0,1,.658,2.108,47.5,47.5,0,0,1,.323,10.138c-.039,1.073-.1,2.951-.886,3.433-.822.512-.689-1.124-1.294-.932-.637.2-.275,4.981-.338,5.866a6.383,6.383,0,0,0,0,2.242c.333.645,1.266.228,1.723.125a20.408,20.408,0,0,1,3.8-.009c.236-3.432-.338-7.131-.377-10.6-.074-5.682.056-11.282.159-16.973.081-4.765.2-9.523.2-14.279,0-1.8-.176-3.577-.134-5.386.056-1.964.105-3.992.056-5.952-.06-2.168.162-4.276.207-6.406a5.044,5.044,0,0,0-.06-1.857c-.207-.5-.795-.485-1.206-.49-1.632-.03-3.26-.908-4.835-.376-.035-.152-.144-.359-.165-.5Z" transform="translate(121.824 -266.055)" fill="#b88b38" opacity="0.5" style="mix-blend-mode: multiply;isolation: isolate"/>
            <path id="Trazado_191704" data-name="Trazado 191704" d="M-119.71,267.008c-.221.459-.658.741-.717,1.393-.1,1.058.809,1.558,1.087,2.425.379,1.175-.046,2.292-.152,3.462a16.631,16.631,0,0,0,.14,3.6c.246,2.015-.207,3.134-.527,5.085a20.166,20.166,0,0,0-.088,7.027,9.287,9.287,0,0,1,.317,2.3c-.028.962-.338,1.848-.429,2.816-.158,1.857-.211,3.844-.243,5.715-.021,1.212-.426,7.376.812,6.863.334-.139.774-1.628,1.231-1.306.542.376-.014,2.351-.092,2.866a9.006,9.006,0,0,0-.085,2.815,7.967,7.967,0,0,0,.626,1.57c.482,1.4.144,3.121.084,4.588-.07,1.595,0,3.205.032,4.8a16.93,16.93,0,0,1-.024,3.658,13.844,13.844,0,0,1-.44-3.111c-.147-1.262-.271-2.541-.323-3.827a49,49,0,0,0-.587-6.205c-.1-.568-.12-1.537-.454-1.9-.7-.749-.384.8-.464,1.407-.084.7-.225,1.267-.58.612a8.829,8.829,0,0,1-.113-2.693c-.243-8.06-.162-16.126-.134-24.178.018-4.466.046-8.909.063-13.361.007-1.63-.092-3.239-.13-4.827-.018-1.076.468-2.764,1.21-1.809a.563.563,0,0,0-.113-.313Z" transform="translate(121.479 -266.189)" fill="#b88b38" opacity="0.5" style="mix-blend-mode: multiply;isolation: isolate"/>
            <path id="Trazado_191705" data-name="Trazado 191705" d="M-121.218,267.166c.3-1.048.542-1.037,1.154-.6.71.517,1.565.191,2.307.714,1.066.746,1.009,2.954,1.256,4.433.538,3.223.179,6.395.236,9.678.028,1.439.323,2.776.433,4.189a44.205,44.205,0,0,1-.008,5.368c-.066,1.561.109,3.12,0,4.686a21.105,21.105,0,0,1-.665,3.369,11.266,11.266,0,0,0,.141,5.787,5.331,5.331,0,0,1-.039,1.988,18.522,18.522,0,0,0,.338,2.8,33.13,33.13,0,0,1-.194,4.085c-.06,1.169.018,2.312.06,3.483.031.968.154,1.959.144,2.933-.018,1.009-.2,2-.225,3.024s-.081,2.841-.981,3.093c-.291.085-.658-.512-.977-.213a2.992,2.992,0,0,0-.257,1.914c.271.644.886.3,1.315.31.288,0,1.277.536,1.506.325.559-.532-.018-4.834-.053-5.725-.225-5.027-.19-10.01-.06-15.046.116-4.862.235-9.808.267-14.675.014-2.355-.154-4.732-.179-7.083-.018-2.1.162-4.138.053-6.234-.095-1.969-.14-3.893-.169-5.864-.035-1.8.1-3.574.035-5.359-.1-2.9-1.481-2.141-2.908-2.137-.355,0-1.674,0-1.713-.4Z" transform="translate(121.598 -266.018)" fill="#b88b38" opacity="0.5" style="mix-blend-mode: multiply;isolation: isolate"/>
          </g>
          <g id="Grupo_131935" data-name="Grupo 131935" transform="translate(46.142 7.835)">
            <path id="Trazado_191706" data-name="Trazado 191706" d="M-136.309,261.389l11.928,18.8,3.418-2.989-11.929-18.8Z" transform="translate(136.309 -258.171)" fill="#b88b38"/>
            <path id="Trazado_191707" data-name="Trazado 191707" d="M-132.617,258.434c-.249.018-.471.633-.5.867-.081.547.253.852.341,1.308.063.362-.106.772-.053,1.146a7.3,7.3,0,0,0,.507,1.595,16.079,16.079,0,0,0,1.748,3.253c.232.338,1.938,3.09,2.43,2.664.391-.327-.253-1.2.6-.96.432.125.731.639,1.016.962.218.246.64.5.577.932-.024.2-.176.461-.2.691a2.964,2.964,0,0,0,.028.945A8.459,8.459,0,0,0-124.392,275c.221.3.612.828,1.129.594.552-.25.172-.668.545-.9.384-.249,1.083,1.34,1.284,1.577.12.141.471.41.426.661-.063.355-.654.677-.928.868-.756.525-1.4,1.24-2.1,1.834a24.567,24.567,0,0,1-1.783-3.328c-1.027-1.719-2.149-3.323-3.278-4.96-.942-1.372-1.909-2.725-2.8-4.137-.341-.535-.58-1.145-.946-1.66a20.492,20.492,0,0,1-1.15-1.741,20.488,20.488,0,0,0-1.319-1.8c-.109-.151-.344-.336-.32-.58s.351-.531.577-.73a21.7,21.7,0,0,1,2.6-2.439c-.011-.061.007-.174-.007-.225Z" transform="translate(136.057 -258.035)" fill="#b88b38" opacity="0.5" style="mix-blend-mode: multiply;isolation: isolate"/>
            <path id="Trazado_191708" data-name="Trazado 191708" d="M-131.943,259.478c.2.033.5-.091.654.071.256.265-.151.855-.144,1.244.014.533.458.658.745.953a3.143,3.143,0,0,1,.591,1.135c.249.715.7.829,1.249,1.255a3.514,3.514,0,0,1,1.368,2.04,2.1,2.1,0,0,0,.253.839c.2.271.542.38.767.626a14.914,14.914,0,0,1,1.22,1.577c.233.35,1.618,1.983.841,2.426-.214.123-.738-.109-.925.207-.225.373.45.691.591.805a1.517,1.517,0,0,1,.573.795,3.209,3.209,0,0,1-.053.768c0,.647.513.992.822,1.4a14.2,14.2,0,0,1,.886,1.439c.207.35.355.869.7,1.073a3.193,3.193,0,0,0-.348-1.134,9.8,9.8,0,0,0-.545-1.289,9.863,9.863,0,0,1-.841-2.126c-.057-.211-.225-.508-.106-.782.239-.552.362.055.513.2.187.167.366.269.436-.1.063-.3-.331-.647-.443-.849-1.386-2.509-2.94-4.865-4.473-7.237-.851-1.314-1.7-2.621-2.546-3.935-.313-.478-.559-1-.841-1.492-.19-.327-.777-.595-1.005.047a.178.178,0,0,1,0-.148Z" transform="translate(134.707 -258.409)" fill="#b88b38" opacity="0.5" style="mix-blend-mode: multiply;isolation: isolate"/>
            <path id="Trazado_191709" data-name="Trazado 191709" d="M-132.287,258.791c-.373-.16-.5-.046-.753.38-.3.5-.83.812-1.14,1.324-.443.735,0,1.363.144,1.918a11.259,11.259,0,0,0,1.688,2.984,12.261,12.261,0,0,1,.548,1.456,7.825,7.825,0,0,0,1.016,1.583c.328.434.532.981.886,1.389a3.471,3.471,0,0,0,1,.679,2.087,2.087,0,0,1,1.009,1.783c.039.332.207.369.391.575.222.253.2.669.345.995a5.29,5.29,0,0,0,.879,1.116,7.246,7.246,0,0,1,.619,1.061c.169.308.281.659.468.939s.489.5.7.789.584.8,1.122.446c.179-.116.267-.468.5-.536.176-.05.517.257.5.448-.028.32-.426.517-.661.723-.162.139-.6.777-.774.823-.4.112-.9-1.442-1.044-1.725a37.4,37.4,0,0,0-2.8-4.494c-.981-1.385-1.973-2.792-2.909-4.22-.454-.693-.809-1.479-1.241-2.184-.38-.633-.858-1.153-1.2-1.825-.317-.632-.651-1.224-1.01-1.823-.32-.547-.731-1.01-1.023-1.573-.493-.909.415-1.349,1.2-2.034.2-.169.918-.805.862-.941Z" transform="translate(135.882 -258.291)" fill="#b88b38" opacity="0.5" style="mix-blend-mode: multiply;isolation: isolate"/>
          </g>
          <g id="Grupo_131936" data-name="Grupo 131936">
            <rect id="Rectángulo_41231" data-name="Rectángulo 41231" width="64.251" height="12.615" transform="translate(0 0.734)" fill="#b88b38"/>
            <path id="Trazado_191710" data-name="Trazado 191710" d="M-145.784,246.5c.436.614-.489,2.066-.939,2.5-1.051,1.016-2.367.673-3.535,1.163-.918.385-1.484,1.412-2.416,1.842a18.822,18.822,0,0,1-4.48,1.2,46.319,46.319,0,0,1-10.514.749c-1.192-.056-10.508.05-10.533-1.776-.014-1.412,3.14-1.192.974-2.852-1.118-.858-2.813-.782-4.073-.979-.97-.153-2.328-.76-3.161.026-.391.364-.679,1.113-1.129,1.528a6.581,6.581,0,0,1-2.135,1.354c-3.119,1.231-7.04.881-10.276.64-1.086-.079-2.992-.2-3.478-1.793-.517-1.681,1.14-1.408.95-2.643-.207-1.3-5.05-.559-5.947-.684-.552-.074-1.8-.494-2.275-.009-.661.677-.236,2.576-.127,3.5.3,2.588-.046,5.183.008,7.751,3.478.475,7.23-.686,10.74-.772,5.757-.141,11.437.116,17.2.327,4.832.174,9.653.424,14.478.422,1.822,0,3.626-.354,5.455-.253a58.754,58.754,0,0,0,6.031.105,64.333,64.333,0,0,1,6.5.431c.535.024,1.4.31,1.882-.118.51-.436.5-1.623.507-2.465.028-3.32.914-6.625.372-9.834.152-.068.362-.285.51-.318Z" transform="translate(209.619 -245.536)" fill="#b88b38" opacity="0.5" style="mix-blend-mode: multiply;isolation: isolate"/>
            <path id="Trazado_191711" data-name="Trazado 191711" d="M-144.388,249.816c-.461-.451-.746-1.331-1.4-1.462-1.076-.213-1.59,1.653-2.462,2.217-1.192.772-2.325-.1-3.51-.325a8.716,8.716,0,0,0-3.647.3c-2.036.485-3.172-.429-5.152-1.076a10.426,10.426,0,0,0-7.118-.181,5.349,5.349,0,0,1-2.332.647c-.98-.063-1.878-.7-2.855-.87a42.917,42.917,0,0,0-5.8-.506c-1.224-.04-7.477-.868-6.957,1.642.145.695,1.653,1.575,1.33,2.513-.387,1.093-2.384-.034-2.908-.19a4.705,4.705,0,0,0-2.852-.172c-.718.26-.971.839-1.6,1.274-1.414.989-3.162.289-4.645.164a43.539,43.539,0,0,0-4.878.056c-1.156.035-2.581.469-3.7-.049.851-.669,2.163-.656,3.154-.884a27.482,27.482,0,0,1,3.883-.654,25.969,25.969,0,0,0,6.291-1.2c.574-.192,1.551-.23,1.928-.926.759-1.4-.812-.77-1.424-.925-.707-.178-1.288-.466-.619-1.183.545-.6,2.064-.194,2.725-.234,8.166-.488,16.345-.33,24.5-.255,4.529.042,9.031.1,13.546.13,1.65.012,3.278-.187,4.889-.257,1.093-.046,2.8.951,1.832,2.453a.422.422,0,0,0,.316-.221Z" transform="translate(208.036 -246.232)" fill="#b88b38" opacity="0.5" style="mix-blend-mode: multiply;isolation: isolate"/>
            <path id="Trazado_191712" data-name="Trazado 191712" d="M-145.96,246.728c1.058.633,1.048,1.109.6,2.356-.527,1.456-.2,3.182-.731,4.7-.757,2.161-2.993,2.045-4.491,2.544-3.274,1.093-6.481.364-9.807.474a35.9,35.9,0,0,0-4.249.881,22.411,22.411,0,0,1-5.433-.021c-1.593-.129-3.166.221-4.751-.007a12.274,12.274,0,0,1-3.418-1.36c-2.223-1.032-3.774-.728-5.866.286-.809.4-1.2.055-2.012-.068-.981-.151-1.87.52-2.845.673a16.556,16.556,0,0,1-4.14-.394,20.578,20.578,0,0,0-3.53.114,29.774,29.774,0,0,1-2.976.294c-1.023-.032-2.022-.4-3.066-.459-1.019-.056-2.877-.162-3.134-1.992-.084-.6.525-1.336.215-2a1.752,1.752,0,0,0-1.934-.51c-.658.545-.317,1.8-.32,2.671,0,.584-.541,2.6-.33,3.06.538,1.141,4.9-.032,5.806-.11a111.609,111.609,0,0,1,15.248-.118c4.931.246,9.938.487,14.868.557,2.4.038,4.8-.311,7.189-.348,2.117-.037,4.192.32,6.312.107,2-.2,3.946-.285,5.947-.354,1.818-.058,3.622.209,5.43.083,2.944-.206,2.17-3.019,2.17-5.915,0-.723,0-3.4.4-3.488Z" transform="translate(209.288 -245.981)" fill="#b88b38" opacity="0.5" style="mix-blend-mode: multiply;isolation: isolate"/>
          </g>
        </g>
        <path id="Trazado_191713" data-name="Trazado 191713" d="M-157.641,270.194c-1.375,2.6-4.182,2.729-5.968,4.765-1.853,2.126-.577,3.779-1.691,6.036-1.86,3.8-7.79,4.714-9.78,8.918-1.263,2.683-1.66,6.2-2.645,9.052a78.145,78.145,0,0,0-3.763,18.63c-.317,3.74-1.762,9.674-.721,13.164-4.115-.1-8.5-.508-12.217,1.583.074-9.919,1.294-19.933,1.632-29.886.137-4.131.664-8.047.664-12.215,0-2.921-.686-6.839,0-9.669,1.22-5.008,6.189-9.549,10.807-10.451,7.43-1.454,14.949.01,22.358-.617.323-.028.661.085.96.074-.609.577-.834-.148-1.649-.422Z" transform="translate(322.641 -101.253)" fill="#2b2e31" opacity="0.6" style="mix-blend-mode: multiply;isolation: isolate"/>
        <path id="Trazado_191714" data-name="Trazado 191714" d="M-202.617,86.145c0,11.051-.232,23.689-.338,35.291-.014,2.963.7,6.221-.992,8.391-1.73,2.219-5.616,2.247-6.323,5.8-.995,5.006,6.161,5.892,1.214,9.584-1.97,1.477-5.085,1.727-6.555,4.313-2.139,3.777,1.055,4.645,2.222,7.8,1.61,4.338-2.989,3.214-6.288,4.906-3.889,2-7.041,4.973-10.729,7.207-1.625.981-3.559,1.428-5.011,2.581-3.348,2.673-2.775,6.663-1.009,10.636.879,1.994,2.848,4.278,2.676,6.574-.151,1.98-1.892,3.2-2.933,5.08-1.083,1.964-4.026,6.392-3.777,8.764.218,2.124,1.667,2.814,2.94,4.477,4.54,5.943,5.377,13.3,8.806,19.627-.152-8.287-1.118-16.524-1.365-24.822-.134-4.61.612-8.559,1.273-13.056.271-1.813-.323-5.41.4-7.007,1.667-3.691,10.642-3.76,14-3.789,6.576-.058,15.22-1.424,21.465.658-.748-1.97-3.383-2.9-4.909-4.454a13.008,13.008,0,0,1-4.1-9.265c-.387-6.16.7-12.254,1.009-18.341.169-3.471.06-7.179.992-10.466.7-2.472,2.912-4.029,3.355-6.562.563-3.228-.795-6.908-.925-10.128a95.33,95.33,0,0,0-2.015-14.521c-.742-3.8-1.185-7.548-1.727-11.348-.429-2.986-.492-7.358-1.667-10.014-.124-.118-.243-.232-.365-.346Z" transform="translate(339.825 -32.056)" fill="#2b2e31" opacity="0.6" style="mix-blend-mode: multiply;isolation: isolate"/>
        <path id="Trazado_191715" data-name="Trazado 191715" d="M-225.887,335.44c-1.822.018-3.365-.159-5.018.607-2.163,1-2.809,3.5-4.691,4.511-1.509.821-3.063-.028-4.614.419-1.758.51-2.363,1.744-3.752,3.112-4.621,4.522-12.47,6.145-16.708,10.731,5.813,2.926,15.867,1.031,22.408,1.031,6.319,0,12.73.278,19.018-.053.7-4.475-1.115-9.528-1.284-14.132-.085-2.181.732-5.127-1.006-6.5-1.533-1.207-5.064-.339-5.693,1.308Z" transform="translate(347.361 -125.677)" fill="#d0ba94"/>
        <path id="Trazado_191716" data-name="Trazado 191716" d="M-230.228,335.88c2.258-.263,2.806,1.581,3.017,3.459.025.241-.278,5.127-.323,5.208-1.906,3.186-5.711-2.667-6.78,2.36-2.944-1.44-4.677,3.448-1.969,4.445-2.378,1.083-5.3-.033-7.674-.251-1.322-.119-2.3-.522-3.685-.005-1.445.54-2.022,2.139-3.689,2.089-3.084-.1-3.011-2.769-6.78-1.132a10.26,10.26,0,0,0-5.23,4.879c6.523-1.931,15.551-.633,22.4-.987,6.691-.35,13.131,1,20.037.64.732-4.7-.38-10.752-.619-15.515-.105-2.047.647-4.7-1.33-5.9-1.171-.712-6.133-.044-7.04.362Z" transform="translate(348.358 -125.771)" fill="#d0ba94" style="mix-blend-mode: multiply;isolation: isolate"/>
        <path id="Trazado_191717" data-name="Trazado 191717" d="M-121.514,328.865c2.378,6.659-.626,16.092-.281,23.127,9.766.51,19.493.55,29.076,1.089,4.987.283,9.79-.44,14.717-.69,5.311-.274,10.149,1,15.716.619-.735-4.276-1.323-3.365-5-4.417-1.354-.392-6.7-1.981-7.456-3.028-1.741-2.417,2.036-5.64-1.906-7.291-2.662-1.109-6.34,2.929-8.725,1.333-1.161-.779-.323-2.233-1.059-3.4-1.108-1.734-2.269-1.287-3.619-2.4-1.14-.931-1.59-2.5-3-3.147-1.365-.624-3.542.1-5.025-.07a9.047,9.047,0,0,1-4.012-1.132c-2.159-1.305-1.188-.795-2.346-3.019-1.723-3.312-2.827-4.2-6.7-3.8-1.963.2-12.389,5.86-9.706,7.264Z" transform="translate(295.548 -121.179)" fill="#d0ba94"/>
        <path id="Trazado_191718" data-name="Trazado 191718" d="M-114.135,336.885c1.519,2.1-.6,5.8,2.789,6.414,2.69.492,4.761-3.842,7.986-3.4,3.928.545,3.674,2.757,3.738,6.522,4.54.245,6.995,1.363,11.011,2.472a11.633,11.633,0,0,0,4.005.788c1.466-.072,3-2.038,4.621-1.408,1.456.568,1.695,2.14,3.418,2.7,1.3.422,3,.259,4.332.6,2.965.751,7.783,1.991,10.026,3.487-10.152.74-20.312-2.177-30.433-1.664-9.551.489-18.757,1.146-28.411.644-.236-4.892-.855-9.616-.4-14.552.25-2.675-1.142-10.983,2.307-12.2,2.363-.835,1.284,1.393,1.568,3.244C-117.079,333.7-115.838,334.529-114.135,336.885Z" transform="translate(295.47 -122.876)" fill="#d0ba94" style="mix-blend-mode: multiply;isolation: isolate"/>
        <path id="Trazado_191719" data-name="Trazado 191719" d="M-88.579,368.9c0,3.517-66.274,6.367-148.026,6.367s-148.034-2.85-148.034-6.367,66.278-6.369,148.034-6.369S-88.579,365.38-88.579,368.9Z" transform="translate(393.623 -136.097)" fill="#d0ba94"/>
        <path id="Trazado_191720" data-name="Trazado 191720" d="M-372.3,339.246c3.7-10.471,21.656-4.561,29.4-4.5,5.458.048,10.536-2.3,16.135-2.421,6.71-.146,10.078-5.064,16.078-6.919a12.2,12.2,0,0,0,5.356-2.682c1.1-1,2.722-4.289,4.353-3.833,1.164.32,1.836,3.531,2.652,4.442,1.621,1.8,2.8,1.885,5.029,2.073,6.917.579,13.121-3.256,19.1,2.339a20.383,20.383,0,0,1,1.889,1.9c-2.437,1.24-4.108,4.261-6.242,5.114-2.827,1.13-5.25-.864-7.965,1.375-2.233,1.836-3.352,4.556-6.087,5.88-1.242.6-2.634.58-3.784,1.3-1.087.691-1.674,2.031-2.845,2.592-2.209,1.055-6.359-.172-8.7-.51-5.405-.78-9.643-.322-15.08.086-5.388.4-11.148,1.86-16.5,1.73a133.053,133.053,0,0,1-14.615-1.672c-4.726-.669-9.083,1.085-13.83.626-4.593-.445-7.663-8.509-2.332-7.264Z" transform="translate(389.322 -119.797)" fill="#2b2e31" opacity="0.6" style="mix-blend-mode: multiply;isolation: isolate"/>
        <path id="Trazado_191721" data-name="Trazado 191721" d="M-94.284,328.262c1.445-.8,4.2,1.387,6.358,1.059,2.933-.447,4.691-3.135,7.438-4.1,5.584-1.969,5.672,1.432,8.232,5.134,4.175,6.033,13.142-2.1,16.222,6.117,1.719,4.595,1.9,3.872,6.527,4.245,4.107.332,7.913,1.039,12.135,1.039,4.709,0,8.521,1.185,10.638-3.8,1.428-3.359.911-8.31,3.411-11.063,3.211,2.957,6.006,7.293,9.386,10.1,2.8,2.328,6.7,2.275,10.363,3.119,6.742,1.547,11.429,3.469,15.716,9.186-20.027,1.433-40.037-1.607-60.153-1.662-4.328-.013-14.587,3.333-16.145-2.769-.784-3.088,1.639-4.994-2.416-6.149-2.673-.758-4.916.737-7.224,1.6-1.273-2.771.725-4.551-2.078-5.831-1.146-.519-2.557.5-3.693-.415-1.266-1.025-.337-2.775-1.241-3.752-1.709-1.862-4.61-.784-6.787-.675-3.26.167-4.431-.582-7.033-2.077Z" transform="translate(285.399 -121.958)" fill="#2b2e31" opacity="0.6" style="mix-blend-mode: multiply;isolation: isolate"/>
      </g>
    </g>
    <g id="Grupo_131962" data-name="Grupo 131962" transform="translate(-405.91 -25.173)">
      <g id="Grupo_131955" data-name="Grupo 131955">
        <g id="Grupo_131946" data-name="Grupo 131946" transform="translate(50.935)">
          <path id="Trazado_191722" data-name="Trazado 191722" d="M-320.207,21.559a15.506,15.506,0,0,0,.052,7.326,2.632,2.632,0,0,1,.04,1.9c-.305.565-1.009.8-1.4,1.308-.75.968.006,2.5,1.13,2.974a6.085,6.085,0,0,0,3.614-.023,2.9,2.9,0,0,0,1.049,2.986,2.4,2.4,0,0,0,3.061-.259c1.009-1.107.594-2.842.225-4.289a32.653,32.653,0,0,1-1.015-8.969c.018-.68-.011-1.5-.588-1.862a2.191,2.191,0,0,0-1.366-.133A8.962,8.962,0,0,1-320.207,21.559Z" transform="translate(323.594 7.734)" fill="#24223f"/>
          <g id="Grupo_131940" data-name="Grupo 131940" transform="translate(0.925 37.749)">
            <path id="Trazado_191723" data-name="Trazado 191723" d="M-323.176,48.9c2.687,6.45,7.292,11.286,12.675,15.638a6.167,6.167,0,0,0,2.981,1.545,5.747,5.747,0,0,0,4.069-1.677,23.563,23.563,0,0,0,7.176-10.283l-3.8-1.349c-.018-.49-.029-.986-.018-1.47a26.506,26.506,0,0,1,.842-6.485A133.96,133.96,0,0,1-314.08,35.9c-.409-.276-.813-.565-1.21-.852A23.207,23.207,0,0,1-317.9,48.2C-318.927,48.554-320.38,48.5-323.176,48.9Z" transform="translate(323.176 -35.049)" fill="#f6ac99"/>
            <path id="Trazado_191724" data-name="Trazado 191724" d="M-308.665,36.409a17.838,17.838,0,0,0,5.4,10.652,19.838,19.838,0,0,0,8.583,4.75,26.51,26.51,0,0,1,.842-6.485A133.96,133.96,0,0,1-308.665,36.409Z" transform="translate(317.761 -35.557)" fill="#d57774"/>
          </g>
          <g id="Grupo_131941" data-name="Grupo 131941" transform="translate(33.667 29.867)">
            <path id="Trazado_191725" data-name="Trazado 191725" d="M-266.483,22.621c2.875-.594,5.566.673,6.013,2.83s-1.523,4.388-4.4,4.982-5.566-.673-6.012-2.83S-269.357,23.215-266.483,22.621Z" transform="translate(270.943 -22.474)" fill="#d57774"/>
          </g>
          <g id="Grupo_131942" data-name="Grupo 131942" transform="translate(5.993 2.175)">
            <path id="Trazado_191726" data-name="Trazado 191726" d="M-296.479,25.238c11.027.68,14.37-8.7,15.742-21.794.006-.087.017-.173.029-.26a34.147,34.147,0,0,0-.052-7.54c-1.245-10.145-7.447-16.716-16.358-17.309-7.649-.513-12.877,4.225-15.661,11.551-.248.657-.478,1.343-.686,2.04A40.509,40.509,0,0,0-315.034.913C-315.9,14.038-306.5,24.615-296.479,25.238Z" transform="translate(315.09 21.702)" fill="#f6ac99"/>
            <path id="Trazado_191727" data-name="Trazado 191727" d="M-312.49-1.17c.386,1.452.853,3.066,1.562,5.136A94.759,94.759,0,0,0-289.4,9.759a34.609,34.609,0,0,0,9.661.334,34.14,34.14,0,0,0-.052-7.539C-290.379.236-301.072-1.683-311.8-3.2-312.052-2.554-312.283-1.867-312.49-1.17Z" transform="translate(314.12 14.8)" fill="#d57774"/>
          </g>
          <path id="Trazado_191728" data-name="Trazado 191728" d="M-316.254,17.216c3.9-1.758,6.905-5.51,8.588-13.107a30.436,30.436,0,0,0-10.4.294c-1.176,1.775-2.438,2.737-2.928,6.023-.461,3.083,1.037,6.225,1.827,6.479,2.237.72.375.352,1.089.639S-316.364,17.556-316.254,17.216Z" transform="translate(323.319 14.359)" fill="#24223f"/>
          <ellipse id="Elipse_4781" data-name="Elipse 4781" cx="4.265" cy="5.407" rx="4.265" ry="5.407" transform="matrix(0.403, -0.915, 0.915, 0.403, 0, 32.993)" fill="#f6ac99"/>
          <g id="Grupo_131943" data-name="Grupo 131943" transform="translate(2.828)">
            <path id="Trazado_191729" data-name="Trazado 191729" d="M-320.141-1.541l39.858.167c.052-.594-1.291-19.869-17.188-20.912C-311.028-23.174-318.781-16.453-320.141-1.541Z" transform="translate(320.141 24.124)" fill="#ffcb00"/>
            <path id="Trazado_191730" data-name="Trazado 191730" d="M-295.516,1.636C-296.773-6.4-302.79-11.27-305.678-12.93a8.164,8.164,0,0,0-7.3-.859,3.146,3.146,0,0,0-2.121,3.574,8.777,8.777,0,0,1,8.7.213C-300.069-6.243-296.6-.191-295.516,1.636Z" transform="translate(318.278 21.115)" fill="#e69f00"/>
            <path id="Trazado_191731" data-name="Trazado 191731" d="M-276.824-4.088c-.139-4.432-.934-8.98-3.32-12.721s-6.606-6.531-11.05-6.537c.7-1.7,3.528-2.4,6.2-1.286a15.475,15.475,0,0,1,6.421,6.3A19.8,19.8,0,0,1-276.824-4.088Z" transform="translate(309.339 25.173)" fill="#e69f00"/>
            <path id="Trazado_191732" data-name="Trazado 191732" d="M-261.6,3.344a12.417,12.417,0,0,0-1.262-12.416,7.048,7.048,0,0,1,3.948,5.983C-258.672-.524-259.559,2.128-261.6,3.344Z" transform="translate(298.766 19.164)" fill="#e69f00"/>
            <path id="Trazado_191733" data-name="Trazado 191733" d="M-301.2,7.51s14.664-5.62,21-5.62c4.836,0,11.788,5.008,12.537,7.153S-301.2,7.51-301.2,7.51Z" transform="translate(313.072 15.074)" fill="#ffe24a"/>
          </g>
          <g id="Grupo_131944" data-name="Grupo 131944" transform="translate(19.388 26.487)">
            <path id="Trazado_191734" data-name="Trazado 191734" d="M-269.99,29.17c.154-.82.645-1.415,1.1-1.331s.691.818.537,1.638-.645,1.415-1.1,1.33S-270.144,29.989-269.99,29.17Z" transform="translate(284.883 -21.093)" fill="#162133"/>
            <path id="Trazado_191735" data-name="Trazado 191735" d="M-289.1,27.9c.154-.82.644-1.415,1.1-1.331s.691.818.536,1.638-.644,1.415-1.1,1.33S-289.257,28.72-289.1,27.9Z" transform="translate(292.016 -20.62)" fill="#162133"/>
            <path id="Trazado_191736" data-name="Trazado 191736" d="M-287.8,18.286a5.291,5.291,0,0,0-5.92-.542" transform="translate(293.722 -17.082)" fill="none"/>
            <path id="Trazado_191737" data-name="Trazado 191737" d="M-265.5,19.161a5.038,5.038,0,0,0-5.211-.08" transform="translate(285.137 -17.572)" fill="none"/>
            <path id="Trazado_191738" data-name="Trazado 191738" d="M-274.135,26.892a5.979,5.979,0,0,1-.663,4.15" transform="translate(286.66 -20.743)" fill="none"/>
          </g>
          <g id="Grupo_131945" data-name="Grupo 131945" transform="translate(8.564 26.492)">
            <path id="Trazado_191739" data-name="Trazado 191739" d="M-280.038,24.284A35.314,35.314,0,0,1-282.4,35.748a11.472,11.472,0,0,1-5.3,6.191c-2.652,1.2-6.738.9-9.5.046-1.965-.611-9.943-4.75-12.237-11.326-1.429-4.093-2.006-7.309-1.164-13.568.392.029,2.709.259,3.107.282a16.687,16.687,0,0,0,.75,10.018,16.792,16.792,0,0,0,4.242,6.081,14.3,14.3,0,0,1,4.714-4.5c2.087-.986,9.1-.622,13.327-.4.957.052,1.3,2.144,1.13,3.695A31.146,31.146,0,0,0-280.038,24.284Z" transform="translate(310.99 -17.09)" fill="#24223f"/>
            <path id="Trazado_191740" data-name="Trazado 191740" d="M-278.844,39.049a28.2,28.2,0,0,1-8.49-1.5,3.3,3.3,0,0,0,.75,4.156,5.331,5.331,0,0,0,4.986.9A3.759,3.759,0,0,0-278.844,39.049Z" transform="translate(302.326 -24.725)" fill="#fff"/>
          </g>
        </g>
        <g id="Grupo_131954" data-name="Grupo 131954" transform="translate(0 50.297)">
          <g id="Grupo_131947" data-name="Grupo 131947" transform="translate(83.125 10.254)">
            <path id="Trazado_191741" data-name="Trazado 191741" d="M-272.913,153.289c2.692-2.358,11.275-7.712,12.722-15.885-2.271-6.047-6.785-15.246-8.969-21.788,5.62-3.073,11.586-6.617,16.889-9.476,2.064,8.208,10.007,30.849,9.159,34.873-1.407,6.675-15.753,17.257-24.78,24.561C-271.264,164.241-274.417,159.013-272.913,153.289Z" transform="translate(273.298 -84.38)" fill="#d57774"/>
            <path id="Trazado_191742" data-name="Trazado 191742" d="M-269.966,89.053a79.81,79.81,0,0,1,5.141-17.627c2.6,1.528,5.482,2.732,7.729,4.98,3.8,3.8,11.269,21.483,13.482,33.616-7.925,2.358-15.943,4.346-24.191,4.928C-269.35,106.852-271.7,98.488-269.966,89.053Z" transform="translate(272.283 -71.426)" fill="#7487c3"/>
          </g>
          <path id="Trazado_191743" data-name="Trazado 191743" d="M-288.461,285.078c-4.45-27.535-11.05-54.81-13.343-82.61-.968-11.69.334-23.356.063-34.965-18.952-.294-38.85-1.032-57.341-2.669a165.135,165.135,0,0,0-7.355,32.279c-1.977,14.427.622,66.027,4.8,100.024,8.623-.207,20.215.242,29.1-.323.034-25.327.063-50.661.6-76.432q6.943,36.21,13.892,72.425C-308.63,289.856-298.716,288.5-288.461,285.078Z" transform="translate(391.432 -96.028)" fill="#161212"/>
          <g id="Grupo_131948" data-name="Grupo 131948" transform="translate(29.796 0.842)">
            <path id="Trazado_191744" data-name="Trazado 191744" d="M-293.277,69.033c-2.87,14.283-5.983,30.941-9,46.585-1.2,6.254-2.392,12.335-3.533,18.036-8.213,6.485-43.957,1.891-52.568-2.127,6.444-11.142,5.2-24.192,3.822-36.2-.214-1.827-.364-3.62-.473-5.384a79.969,79.969,0,0,1,3.752-30.013,41.1,41.1,0,0,1,17-3.522c3.314,10.294,7.528,15.488,14.94,15.764,5.413.2,7.822-4.939,7.822-11.637A88.21,88.21,0,0,1-293.277,69.033Z" transform="translate(358.376 -56.41)" fill="#99aedb"/>
            <path id="Trazado_191745" data-name="Trazado 191745" d="M-302.274,131.9c-1.2,5.608-2.392,11.067-3.533,16.18-8.213,5.816-43.957,1.7-52.568-1.908,6.444-9.995,5.2-21.707,3.822-32.474-.214-1.637-.364-3.251-.473-4.83a153.072,153.072,0,0,1,18-14.681c-.058,5.182-.121,10.4.888,15.493a26.658,26.658,0,0,0,7.049,13.972c4.854,4.807,12.047,7.343,19.235,8.053A53.774,53.774,0,0,0-302.274,131.9Z" transform="translate(358.376 -70.506)" fill="#7487c3"/>
          </g>
          <g id="Grupo_131949" data-name="Grupo 131949" transform="translate(75.605 4.237)">
            <path id="Trazado_191746" data-name="Trazado 191746" d="M-268.04,136.8a59.624,59.624,0,0,0,1.1,6.317q-8.344,2.559-16.687,5.107c-.467-2.945-.813-5.949-1.061-8.986-.254-2.974-.409-6-.508-9.05-.155-5.136-.115-10.352.012-15.6.046-1.994.1-4,.173-6v-.006c.011-.306.017-.617.034-.923l.052-1.608c.127-3.539.265-7.09.386-10.617q.13-3.727.213-7.43a206.679,206.679,0,0,0-.75-26.175c2.859.836,5.6,1.758,8.249,2.789.842.323,1.683.663,2.507,1.015s1.672.732,2.49,1.106q1.107.511,2.179,1.055c1.262.622,2.507,1.291,3.729,1.989,1.061,10.513-.127,22-1.251,33.495-.294,2.968-.577,5.937-.819,8.9v.006c-.433,5.193-.715,10.352-.646,15.367A85.155,85.155,0,0,0-268.04,136.8Z" transform="translate(285.295 -61.826)" fill="#f27b1b"/>
            <path id="Trazado_191747" data-name="Trazado 191747" d="M-267.1,127.969c-.294,2.969-.577,5.937-.819,8.9v.006a129.855,129.855,0,0,1-17.194,2.392c.046-1.994.1-4,.173-6v-.006c.011-.306.017-.617.034-.923l.052-1.608c.438-.006.87-.018,1.308-.034,1-.041,2.006-.092,3.009-.173A56.772,56.772,0,0,0-267.1,127.969Z" transform="translate(285.228 -86.508)" fill="#ffc700"/>
            <path id="Trazado_191748" data-name="Trazado 191748" d="M-267.98,175.932a131.982,131.982,0,0,1-16.646,2.438c-.254-2.974-.409-6-.508-9.05a113.37,113.37,0,0,0,16.56-2.628A85.122,85.122,0,0,0-267.98,175.932Z" transform="translate(285.235 -100.959)" fill="#ffc700"/>
            <path id="Trazado_191749" data-name="Trazado 191749" d="M-271.657,68.409a110.2,110.2,0,0,1-11.142,38c-.213.426-.427.853-.646,1.268-.449.864-.916,1.712-1.395,2.565.011-.306.017-.617.034-.923l.052-1.608c.127-3.539.265-7.09.386-10.617q.13-3.727.213-7.43a128.809,128.809,0,0,0,7.5-23.385c.842.322,1.683.663,2.507,1.014C-273.311,67.66-272.475,68.029-271.657,68.409Z" transform="translate(285.125 -63.487)" fill="#ffc700"/>
          </g>
          <g id="Grupo_131950" data-name="Grupo 131950" transform="translate(24.989 0)">
            <path id="Trazado_191750" data-name="Trazado 191750" d="M-333.27,86.965q-.061,3.683-.225,7.4c-.121,2.663-.271,5.332-.473,8.007-.04.518-.075,1.037-.127,1.556-.139,1.879-.306,3.764-.49,5.638-.075.8-.161,1.613-.248,2.421-.559,5.228-1.251,10.415-2.075,15.517-.49,3.061-1.032,6.093-1.613,9.073q-.995,5.075-2.144,9.943c-9.286-1.251-25.379-6.45-25.379-6.45.155-2.859.334-5.833.525-8.888.207-3.28.432-6.658.663-10.087v-.006c.34-4.865.7-9.833,1.055-14.808.219-3.1.438-6.191.657-9.263.611-8.68,1.182-17.148,1.6-24.791a38.036,38.036,0,0,1,2.8-10.934c.444-.876,2.7-1.9,5.717-2.865.957-.305,1.995-.606,3.066-.888,1.257-.334,2.565-.646,3.885-.928,1.055-.23,2.121-.444,3.165-.628a49.5,49.5,0,0,1,8.006-.911A217.365,217.365,0,0,1-333.27,86.965Z" transform="translate(366.045 -55.067)" fill="#f27b1b"/>
            <path id="Trazado_191751" data-name="Trazado 191751" d="M-332.63,127.341c-1.741-.214-3.481-.438-5.216-.692a241.773,241.773,0,0,1-23.955-4.657c-.219,3.066-.438,6.167-.658,9.263a128.54,128.54,0,0,0,28.965,5.7c.086-.8.173-1.614.248-2.421Z" transform="translate(364.707 -80.041)" fill="#ffc700"/>
            <path id="Trazado_191752" data-name="Trazado 191752" d="M-364.536,160.4a115.145,115.145,0,0,0,27.95,6.4c-.49,3.061-1.032,6.093-1.614,9.073a133.533,133.533,0,0,1-27-5.4C-364.992,167.2-364.766,163.826-364.536,160.4Z" transform="translate(365.729 -94.375)" fill="#ffc700"/>
            <path id="Trazado_191753" data-name="Trazado 191753" d="M-323.69,87.511q-.061,3.683-.225,7.4c-.121,2.663-.271,5.332-.473,8.007-.04.518-.075,1.037-.127,1.556a.02.02,0,0,0-.006-.011c-.323-.559-.646-1.118-.957-1.683-.386-.692-.767-1.389-1.135-2.092a127.316,127.316,0,0,1-13.759-42.6c1.256-.334,2.565-.646,3.885-.928,1.054-.231,2.121-.444,3.164-.629A138.79,138.79,0,0,0-323.69,87.511Z" transform="translate(356.464 -55.613)" fill="#ffc700"/>
          </g>
          <g id="Grupo_131953" data-name="Grupo 131953" transform="translate(0 5.487)">
            <g id="Grupo_131952" data-name="Grupo 131952">
              <g id="Grupo_131951" data-name="Grupo 131951" transform="translate(0 17.593)">
                <path id="Trazado_191754" data-name="Trazado 191754" d="M-383.936,119.213c-1.1,1.424-2.191,2.877-3.292,4.392,1.568,9.574,6.548,20.872,11.113,29.437-2.8,1.511-5.925,4.018-8.49,5.4-9.753-11.539-22.221-34.826-21.252-40.313.478-2.692,5.43-8.68,10.635-15.01,2.017-2.444,4.069-4.94,5.914-7.315,1.054-1.355,2.046-2.669,2.916-3.914,4.652,5.332,7.315,9.338,12.543,15.114-.559.657-1.118,1.3-1.66,1.943C-378.489,112.429-381.244,115.726-383.936,119.213Z" transform="translate(405.91 -91.886)" fill="#f6ac99"/>
                <path id="Trazado_191755" data-name="Trazado 191755" d="M-369.146,111.272c-2.981,3.487-5.736,6.784-8.433,10.271a57,57,0,0,1-11.28-16.1c2.017-2.444,4.069-4.94,5.914-7.315A86.567,86.567,0,0,0-369.146,111.272Z" transform="translate(399.547 -94.216)" fill="#d57774"/>
              </g>
              <path id="Trazado_191756" data-name="Trazado 191756" d="M-360.28,86.11c1.874-7.141.923-23.212-6.611-22.249-5.262.674-15.7,16.254-23.632,27.593a127.7,127.7,0,0,0,19.574,18.641C-365.219,102.959-362.591,94.912-360.28,86.11Z" transform="translate(400.168 -63.82)" fill="#99aedb"/>
            </g>
            <path id="Trazado_191757" data-name="Trazado 191757" d="M-366.386,187.171c3.723-.392,8.848-1.879,11.4-2.144,1.718-.179,3.43.444,5.142.669a2.072,2.072,0,0,1,1,.311,2.037,2.037,0,0,1,.611,1.234c.513,2.173,1.112,6.035.876,6.681-.328.9-1.049.663-1.815.1-1.464-1.078-1.625-3.228-2.375-4.928a5.028,5.028,0,0,0-2.778.294,34.414,34.414,0,0,1,4.046,4.923c.807,1.775.063,5.257-.507,6.167-.8,1.274-1.718,1.089-2.121.242-.49-1.014.357-3-.231-4.467a8.141,8.141,0,0,0-3.384-3.28,12.783,12.783,0,0,1,2.225,5.418c.242,1.28.622,6.248-1.735,6.468-1.58.144-.674-3.759-1.1-5.228-.346-1.187-.934-1.919-2.22-3.764a19.558,19.558,0,0,1,1.147,5.355c.173,1.568-.72,5.7-2.1,5.413-1.493-.317-.444-4.185-.657-4.813a15.69,15.69,0,0,0-1.493-3.781,10.282,10.282,0,0,1-10.5-6.092C-370.772,190.255-369,187.448-366.386,187.171Z" transform="translate(393.611 -109.039)" fill="#f6ac99"/>
          </g>
        </g>
      </g>
      <g id="Grupo_131958" data-name="Grupo 131958" transform="translate(25.157 236.665)">
        <g id="Grupo_131957" data-name="Grupo 131957">
          <g id="Grupo_131956" data-name="Grupo 131956">
            <path id="Trazado_191758" data-name="Trazado 191758" d="M-309.515,486.136l-56.261-.334.14-6.355,56.261.334Z" transform="translate(365.776 -399.8)" fill="#8b3226"/>
            <path id="Trazado_191759" data-name="Trazado 191759" d="M-365.556,432.03l10.763.073,2.186.014,43.312.256a3.727,3.727,0,0,0-1.728-3.088c-.248-.138-.552-.3-.886-.469-4.466-2.323-16.021-7.846-19.243-10.974-2.27-2.176-4.194-6.428-5.265-9.134-.21-.521-.381-1-.518-1.372l.135-1.192,3.37-28.769,1.667-14.15,1.018-8.69s-11.008-1.44-20.986-1.964a78.717,78.717,0,0,0-11.633.053l1.492,55.294C-363.644,415.136-365.238,429.1-365.556,432.03Z" transform="translate(365.694 -352.385)" fill="#dc533b"/>
          </g>
        </g>
        <path id="Trazado_191760" data-name="Trazado 191760" d="M-365.556,432.03l10.763.073,2.186.014,43.312.256a3.727,3.727,0,0,0-1.728-3.088c-.248-.138-.552-.3-.886-.469l-44.822-13.429,5-62.817a78.717,78.717,0,0,0-11.633.053l1.492,55.294C-363.644,415.136-365.238,429.1-365.556,432.03Z" transform="translate(365.694 -352.385)" fill="#dc533b" opacity="0.49" style="mix-blend-mode: multiply;isolation: isolate"/>
      </g>
      <g id="Grupo_131961" data-name="Grupo 131961" transform="translate(71.096 232.246)">
        <g id="Grupo_131960" data-name="Grupo 131960">
          <g id="Grupo_131959" data-name="Grupo 131959">
            <path id="Trazado_191761" data-name="Trazado 191761" d="M-213.745,466.152l-55.145,11.157-1.16-6.25,55.145-11.157Z" transform="translate(284.116 -388.088)" fill="#8b3226"/>
            <path id="Trazado_191762" data-name="Trazado 191762" d="M-278.426,428.305l10.551-2.126,2.143-.432,42.452-8.591a3.728,3.728,0,0,0-2.321-2.67c-.271-.085-.6-.178-.964-.278-4.845-1.363-17.285-4.41-21.077-6.815-2.667-1.667-5.418-5.436-7.019-7.867-.312-.468-.577-.9-.787-1.238l-.111-1.195-2.574-28.851-1.256-14.193-.777-8.715s-11.07.837-20.946,2.36a78.677,78.677,0,0,0-11.378,2.426l12.747,53.825C-280,411.377-278.712,425.375-278.426,428.305Z" transform="translate(292.489 -345.335)" fill="#dc533b"/>
          </g>
        </g>
        <path id="Trazado_191763" data-name="Trazado 191763" d="M-274.426,429.71l10.551-2.126,2.143-.432,42.452-8.591a3.728,3.728,0,0,0-2.321-2.67c-.271-.085-.6-.178-.964-.278l-46.619-4-7.927-62.516a78.677,78.677,0,0,0-11.378,2.426l12.747,53.825C-276,412.782-274.712,426.78-274.426,429.71Z" transform="translate(290.996 -346.74)" fill="#dc533b" opacity="0.49" style="mix-blend-mode: multiply;isolation: isolate"/>
      </g>
    </g>
  </g>
</svg>
