<svg id="Grupo_142501" data-name="Grupo 142501" xmlns="http://www.w3.org/2000/svg" xmlns:xlink="http://www.w3.org/1999/xlink" width="293.119" height="358.008" viewBox="0 0 293.119 358.008">
  <defs>
    <clipPath id="clip-path">
      <path id="Trazado_202450" data-name="Trazado 202450" d="M735.974,1087.057s27.035,56.773,30.393,80.48-13.585,88.463-15.2,98.88-2.682,33.133-2.682,33.133H610.541l83.906-195.535Z" transform="translate(-610.541 -1087.057)" fill="none"/>
    </clipPath>
  </defs>
  <g id="Grupo_142499" data-name="Grupo 142499" transform="translate(0 0)">
    <path id="Trazado_202421" data-name="Trazado 202421" d="M748.985,948.143c-4.054-.646-8.146,1.91-10.238,5.442a14.006,14.006,0,0,0,1.625,16.081,5.972,5.972,0,0,0,2.338,1.976,11.64,11.64,0,0,1,2.47-10.778,8.229,8.229,0,0,0,.95,7.124,6.574,6.574,0,0,0,6.561,3.045,8.34,8.34,0,0,0,3.72-1.978,14.119,14.119,0,0,0,4.871-8.657,11.988,11.988,0,0,0-2.722-9.461C756.328,948.395,752.336,947.666,748.985,948.143Z" transform="translate(-599.332 -907.512)" fill="#9b2825"/>
    <g id="Grupo_142489" data-name="Grupo 142489" transform="translate(137.784 47.695)">
      <path id="Trazado_202422" data-name="Trazado 202422" d="M652.306,1021.6a15.7,15.7,0,0,0,7.5-16.533,11.466,11.466,0,0,0-4.183-6.973,7.541,7.541,0,0,0-7.843-.787,8.489,8.489,0,0,0-3.922,5.961,23.2,23.2,0,0,0-.339,7.053q-3-.467-5.962-1.116a81.837,81.837,0,0,0-7.073-18.867,26.212,26.212,0,0,0-.77,9.067,32,32,0,0,1-7-36.908c26.9,6.22,75.605,19.283,74.708,32.165-1.238,17.778-22.641,35.034-25.081,44.271a21.892,21.892,0,0,0-.612,5.839A33.24,33.24,0,0,1,652.306,1021.6Z" transform="translate(-584.596 -958.752)" fill="#9b2825"/>
      <path id="Trazado_202423" data-name="Trazado 202423" d="M648.734,1009.829l12.627-17.081s-.166-5.621,0-17.255,7.669-17.778,8.192-17.953c0,0,7.08,1.378,17.3,3.741a32.005,32.005,0,0,0,7,36.908,26.214,26.214,0,0,1,.77-9.067,81.834,81.834,0,0,1,7.073,18.867q2.964.649,5.962,1.116a23.205,23.205,0,0,1,.339-7.053,8.489,8.489,0,0,1,3.922-5.961,7.541,7.541,0,0,1,7.843.787,11.465,11.465,0,0,1,4.183,6.973,15.7,15.7,0,0,1-7.5,16.533,33.24,33.24,0,0,0,19.428,23.172c.122,8.608,3.759,18.329,3.759,18.329l-45.676,17.935s3.041-8.71,3.312-14.738-1.689-15.542-1.689-15.542-20.8-.493-28.813-4.85-5.578-30.154-5.578-30.154Z" transform="translate(-648.734 -957.54)" fill="#f9b390"/>
    </g>
    <g id="Grupo_142491" data-name="Grupo 142491" transform="translate(149.574 68.261)">
      <path id="Trazado_202424" data-name="Trazado 202424" d="M674.247,1029.167a28.789,28.789,0,0,0,3.494-2.915.6.6,0,0,0-.035-1.065,20.912,20.912,0,0,0-3.516-2.433,2.642,2.642,0,0,1-.88-.644,2.387,2.387,0,0,1-.375-1.134,13.009,13.009,0,0,1,.135-5.247,6.408,6.408,0,0,1,3.1-4.094,4.3,4.3,0,0,1,4.9.622,10.019,10.019,0,0,1,1.122,10.5C679.451,1028.9,674.247,1029.167,674.247,1029.167Z" transform="translate(-622.191 -991.226)" fill="#e75a55"/>
      <path id="Trazado_202425" data-name="Trazado 202425" d="M740.978,1003.214c0,2.085,1.06,3.775,2.366,3.775s2.367-1.69,2.367-3.775-1.06-3.775-2.367-3.775S740.978,1001.129,740.978,1003.214Z" transform="translate(-736.273 -988.36)" fill="#003343"/>
      <path id="Trazado_202426" data-name="Trazado 202426" d="M747.309,995.907a11.4,11.4,0,0,0-1.569-5.058,13.55,13.55,0,0,0-1.662-2.231,13.4,13.4,0,0,0-2.193-1.833,19.187,19.187,0,0,0-2.556-1.482,5.993,5.993,0,0,0-2.9-.517,6.537,6.537,0,0,0-5.121,2.807l.159.446c1.951.7,3.309,1.089,4.641,1.476a8.388,8.388,0,0,0,1.978.311,6.945,6.945,0,0,1,2.055.323,9.927,9.927,0,0,1,1.936.9,10.764,10.764,0,0,1,1.823,1.288,12.7,12.7,0,0,1,2.955,3.693Z" transform="translate(-730.565 -984.77)" fill="#9b2825"/>
      <g id="Grupo_142490" data-name="Grupo 142490" transform="translate(0.398 36.429)">
        <path id="Trazado_202427" data-name="Trazado 202427" d="M742.727,1035.45c1.6,1.716,5.606,22.261,5.262,23.37-.219.71-3.9,3.582-6.53,5.559a19.481,19.481,0,0,1-2.844-1.221,7.173,7.173,0,0,1-2.623-2.691l7.765-6.025s-2.173-12.357-4.316-14.645c-1.426-1.523-4.66-2.19-6.668-2.467.1-2.611.264-4.326.264-4.326S741.126,1033.734,742.727,1035.45Z" transform="translate(-732.772 -1033.004)" fill="#9b2825"/>
      </g>
      <path id="Trazado_202428" data-name="Trazado 202428" d="M743.959,1051.468a25.144,25.144,0,0,0,2.089-1.687,22.9,22.9,0,0,0,4.744-6.3,22.333,22.333,0,0,1-3.483,3.8,21.738,21.738,0,0,1-4.188,2.847Z" transform="translate(-742.973 -999.138)" fill="#003343"/>
      <path id="Trazado_202429" data-name="Trazado 202429" d="M748.176,1027.952a14.239,14.239,0,0,0,1.712.686c.579.192,1.163.366,1.754.511l.407.1.062-.43a7.234,7.234,0,0,0-.089-2.46,5.963,5.963,0,0,0-.963-2.235,21.958,21.958,0,0,1,.305,2.33,13.892,13.892,0,0,1-.018,2.277l.469-.332c-.594-.13-1.194-.229-1.8-.311A14.273,14.273,0,0,0,748.176,1027.952Z" transform="translate(-748.176 -994.401)" fill="#003343"/>
      <path id="Trazado_202430" data-name="Trazado 202430" d="M684.242,1012.2a4.056,4.056,0,0,0-3.259-1.281,5.063,5.063,0,0,0-3.292,1.526,7.155,7.155,0,0,0-1.818,3.182,11.407,11.407,0,0,0-.331,3.624c.037.6.107,1.2.2,1.791a3.207,3.207,0,0,0,.27.962,1.9,1.9,0,0,0,.745.773,26.858,26.858,0,0,1,2.992,1.828q.355.251.7.52c.224.178.492.367.525.5.062.1-.088.3-.308.512l-.619.622a34.431,34.431,0,0,1-2.62,2.357,24.735,24.735,0,0,0,2.881-2.071c.227-.19.448-.389.668-.588a2.459,2.459,0,0,0,.339-.348.723.723,0,0,0,.14-.617,1.061,1.061,0,0,0-.315-.483l-.338-.305q-.335-.3-.685-.578a21.337,21.337,0,0,0-2.957-1.974,1.211,1.211,0,0,1-.464-.483,2.5,2.5,0,0,1-.189-.736c-.08-.572-.141-1.149-.172-1.722a8.467,8.467,0,0,1,1.8-6.342,4.6,4.6,0,0,1,2.89-1.56A4.031,4.031,0,0,1,684.242,1012.2Z" transform="translate(-625.366 -991.169)" fill="#003343"/>
    </g>
    <path id="Trazado_202431" data-name="Trazado 202431" d="M691.621,1079.193l11.662-.488-10.365,8.67Z" transform="translate(-506.993 -939.498)" fill="#e75a55"/>
    <g id="Grupo_142492" data-name="Grupo 142492" transform="translate(144.842)">
      <path id="Trazado_202432" data-name="Trazado 202432" d="M638.2,894.39l72.727,29.933-1.934,32.337c-33.245-7.8-65.844-20.1-93.546-39.42Z" transform="translate(-601.939 -894.39)" fill="#e75a55"/>
      <path id="Trazado_202433" data-name="Trazado 202433" d="M725.052,964.064l-1.276,21.33-42.165-12.986L618,938.2l13.5-13.561C659.208,943.964,691.807,956.262,725.052,964.064Z" transform="translate(-618.003 -901.794)" fill="#124125"/>
    </g>
    <path id="Trazado_202434" data-name="Trazado 202434" d="M766.114,993.248s-56.893-8.189-108.491-34.868-94.207-53.986-94.207-53.986l5.068-3.2a926.885,926.885,0,0,0,89.139,48.378c47.862,22.4,108.188,36.988,108.188,36.988Z" transform="translate(-472.996 -896.055)" fill="#e75a55"/>
    <path id="Trazado_202435" data-name="Trazado 202435" d="M644.718,924.039c-20.8-8.273-29.276-29.649-29.276-29.649l72.727,29.933S665.1,932.147,644.718,924.039Z" transform="translate(-434.344 -894.39)" fill="#9b2825"/>
    <path id="Trazado_202436" data-name="Trazado 202436" d="M735.974,1087.057s27.035,56.773,30.393,80.48-13.585,88.463-15.2,98.88-2.682,33.133-2.682,33.133H610.541l83.906-195.535Z" transform="translate(-509.279 -941.542)" fill="#fff"/>
    <path id="Trazado_202437" data-name="Trazado 202437" d="M648.734,1140.987a62.785,62.785,0,0,1,4.7-7.162,71.41,71.41,0,0,1,5.5-6.5,56.846,56.846,0,0,1,6.343-5.617c.545-.448,1.141-.825,1.719-1.227s1.149-.816,1.755-1.171a39.286,39.286,0,0,1,3.7-2.008,60.454,60.454,0,0,1,16.147-5.01,67.1,67.1,0,0,1,8.476-.835,50.972,50.972,0,0,1,8.552.341,49.438,49.438,0,0,0-17.2-.725,59.768,59.768,0,0,0-8.514,1.725c-1.378.448-2.782.829-4.127,1.38l-2.034.776-1.986.928a44.909,44.909,0,0,0-13.729,10.607A54.957,54.957,0,0,0,648.734,1140.987Z" transform="translate(-476.954 -947.315)" fill="#003343"/>
    <g id="Grupo_142495" data-name="Grupo 142495" transform="translate(101.262 145.515)" opacity="0.17">
      <g id="Grupo_142494" data-name="Grupo 142494" clip-path="url(#clip-path)">
        <g id="Grupo_142493" data-name="Grupo 142493" transform="translate(-7.338 -10.284)">
          <path id="Trazado_202438" data-name="Trazado 202438" d="M637.419,1335.284A412.511,412.511,0,0,0,677.038,1203.5c3.263-26.006,3.4-47.363.443-67.213-3.6-24.165-12.218-45.9-24.912-62.849l-6.322,4.735c11.911,15.907,20.012,36.4,23.423,59.279,2.851,19.118,2.7,39.793-.469,65.064a404.639,404.639,0,0,1-38.862,129.263Z" transform="translate(-530.949 -1073.44)" fill="#e75a55"/>
          <path id="Trazado_202439" data-name="Trazado 202439" d="M658.267,1326.244c23.045-45.082,36.581-82.985,42.6-119.287,7.64-46.059,2.673-89.482-14.36-125.573l-7.144,3.372c20.65,43.752,18.854,89.9,13.711,120.909-5.883,35.475-19.178,72.647-41.841,116.984Z" transform="translate(-571.485 -1075.384)" fill="#e75a55"/>
          <path id="Trazado_202440" data-name="Trazado 202440" d="M687.682,1326.387c20.616-38.3,34.554-76.646,41.426-113.976,7.712-41.885,6.547-83.809-3.37-121.239L718.1,1093.2c9.62,36.311,10.74,77.04,3.238,117.786-6.724,36.519-20.388,74.088-40.614,111.662Z" transform="translate(-623.548 -1077.78)" fill="#e75a55"/>
          <path id="Trazado_202441" data-name="Trazado 202441" d="M709.811,1328.988c.123-.282,12.405-28.751,24.431-70.2,11.109-38.282,24.291-95.851,24-152.707l-7.9.04c.546,107.029-47.3,218.605-47.78,219.72Z" transform="translate(-664.146 -1081.429)" fill="#e75a55"/>
          <path id="Trazado_202442" data-name="Trazado 202442" d="M731.948,1326.6c.474-1,47.443-101.291,54.7-175.814l-7.862-.766c-7.124,73.15-53.517,172.219-53.984,173.21Z" transform="translate(-709.346 -1092.183)" fill="#e75a55"/>
          <path id="Trazado_202443" data-name="Trazado 202443" d="M633.224,1148.529A137.618,137.618,0,0,0,722.67,1115.1l-5.188-5.956a129.446,129.446,0,0,1-87.447,31.448l-.205,7.9Q631.526,1148.528,633.224,1148.529Z" transform="translate(-573.635 -1082.177)" fill="#e75a55"/>
          <path id="Trazado_202444" data-name="Trazado 202444" d="M618.075,1173.282a134.7,134.7,0,0,0,95.506-40l-5.645-5.526a126.539,126.539,0,0,1-100.212,37.188l-.674,7.87C610.721,1173.126,614.4,1173.282,618.075,1173.282Z" transform="translate(-547.34 -1086.732)" fill="#e75a55"/>
          <path id="Trazado_202445" data-name="Trazado 202445" d="M617.078,1207.819c39.272,0,78.6-13.09,109.606-37.234l-4.853-6.232c-37.624,29.3-88.069,41.559-134.945,32.8l-1.452,7.766A172.348,172.348,0,0,0,617.078,1207.819Z" transform="translate(-544.119 -1095.69)" fill="#e75a55"/>
          <path id="Trazado_202446" data-name="Trazado 202446" d="M664.149,1249.04a251.377,251.377,0,0,0,77.653-12.2l-2.446-7.511a245.022,245.022,0,0,1-143.3,2.15l-2.22,7.581A250.778,250.778,0,0,0,664.149,1249.04Z" transform="translate(-565.577 -1111.591)" fill="#e75a55"/>
          <path id="Trazado_202447" data-name="Trazado 202447" d="M685.784,1284.935a254.825,254.825,0,0,0,69.646-9.654l-2.162-7.6a248.68,248.68,0,0,1-157.333-7.415l-2.866,7.361A255.973,255.973,0,0,0,685.784,1284.935Z" transform="translate(-578.631 -1119.163)" fill="#e75a55"/>
          <path id="Trazado_202448" data-name="Trazado 202448" d="M697.937,1323.09c27.193,0,51.981-4.321,73.837-12.885l-2.883-7.355c-23.969,9.392-51.726,13.455-82.51,12.078-30.472-1.363-60.709-7.98-83.647-13.593l-1.878,7.672c23.289,5.7,54.015,12.42,85.172,13.813Q692.056,1323.09,697.937,1323.09Z" transform="translate(-600.857 -1129.214)" fill="#e75a55"/>
          <path id="Trazado_202449" data-name="Trazado 202449" d="M694.919,1356.621a398.224,398.224,0,0,0,78.014-7.664l-1.55-7.746a392.89,392.89,0,0,1-153.027-.02l-1.553,7.744A398.146,398.146,0,0,0,694.919,1356.621Z" transform="translate(-614.059 -1138.968)" fill="#e75a55"/>
        </g>
      </g>
    </g>
    <path id="Trazado_202451" data-name="Trazado 202451" d="M674.182,1272.64l33.884-57.9-37.233,55.8Z" transform="translate(-496.077 -972.792)" fill="#003343"/>
    <g id="Grupo_142496" data-name="Grupo 142496" transform="translate(0 256.193)">
      <path id="Trazado_202452" data-name="Trazado 202452" d="M882.375,1267.432l-89.1-4.3s1.615-7.679-6.306-13.119a142.9,142.9,0,0,1-15.077-12.214s-2.576,1.336-1.24,4.867,3.721,4.331,3.721,4.331l1.336,5.115a34.248,34.248,0,0,1-6.68-5.115,14.328,14.328,0,0,1-3.054-4.714V1233.6a12.752,12.752,0,0,0-6.393,3.817c-2.862,3.149-.954,7.443-.954,7.443a6.328,6.328,0,0,0-3.6,2.137c-1.464,1.809,0,5.075,0,5.075a7.389,7.389,0,0,0-2.984,4.617c-.675,3.209,2.2,5.686,2.2,5.686s-3.041,2.928-1.464,6.363,9.322,10.133,19.53,13.779,15.312,2.77,28.873,6.416,45.06,11.9,61.976,15.649,39.519,4.329,39.519,4.329Z" transform="translate(-751.941 -1233.6)" fill="#f9b390"/>
      <path id="Trazado_202453" data-name="Trazado 202453" d="M927.391,1248.427a30.407,30.407,0,0,0,11.75,15.172,60.659,60.659,0,0,1-11.75-15.172Z" transform="translate(-920.92 -1237.229)" fill="#003343"/>
      <path id="Trazado_202454" data-name="Trazado 202454" d="M929.044,1257.76a23.641,23.641,0,0,0,13.987,13.725,36.582,36.582,0,0,1-13.987-13.725Z" transform="translate(-926.058 -1239.513)" fill="#003343"/>
      <path id="Trazado_202455" data-name="Trazado 202455" d="M932.154,1271.292a19.225,19.225,0,0,0,12.657,8.379,37.674,37.674,0,0,1-12.657-8.379Z" transform="translate(-930.187 -1242.824)" fill="#003343"/>
    </g>
    <g id="Grupo_142497" data-name="Grupo 142497" transform="translate(129.135 270.89)">
      <path id="Trazado_202456" data-name="Trazado 202456" d="M720.614,1253.06S738.8,1268.5,747,1273.457s15.095,10.215,15.095,10.215,2.443.942.978,6.745-12.271,11.206-12.271,11.206.6,8.933-2,11.371-16.1.679-16.1.679-4.8-4.329-12.244-21.675c-5.827-13.577-7.123-15.918-8.9-21.956s2.163-7.531,3.178-9.863S716.7,1252.994,720.614,1253.06Z" transform="translate(-711.105 -1253.059)" fill="#e75a55"/>
      <path id="Trazado_202457" data-name="Trazado 202457" d="M727.972,1262.668a58.559,58.559,0,0,0,6.764,12.127,105.794,105.794,0,0,0,8.922,10.677c1.6,1.677,3.248,3.31,4.871,4.952s3.235,3.311,4.921,4.9,3.387,3.171,5.185,4.638a49.9,49.9,0,0,0,5.677,4.009,75.208,75.208,0,0,1-10.436-9.078l-4.832-4.973c-1.612-1.666-3.234-3.308-4.81-4.994a117.246,117.246,0,0,1-9.007-10.492q-2.093-2.752-3.905-5.7A64.51,64.51,0,0,1,727.972,1262.668Z" transform="translate(-724.611 -1255.411)" fill="#003343"/>
    </g>
    <g id="Grupo_142498" data-name="Grupo 142498" transform="translate(140.515 42.74)" opacity="0.47">
      <path id="Trazado_202458" data-name="Trazado 202458" d="M713.517,1001.919c-.181-.551-.367-1.1-.562-1.64l-.5-1.653-.461-1.662-.39-1.677a48.433,48.433,0,0,1-.946-13.661l.154-1.714.227-1.709.268-1.707q.177-.845.329-1.7-.278.821-.533,1.654l-.445,1.683-.34,1.709-.264,1.725a35.912,35.912,0,0,0,.963,13.864l.5,1.672.573,1.646.674,1.606Q713.127,1001.143,713.517,1001.919Z" transform="translate(-671.45 -956.807)" fill="#fecfa7"/>
      <path id="Trazado_202459" data-name="Trazado 202459" d="M688.878,978.357c.02.554.046,1.11.083,1.666l.169,1.663.271,1.65.341,1.64a35.376,35.376,0,0,0,5.45,12.179l1,1.347,1.051,1.3,1.128,1.233q.586.6,1.188,1.171-.508-.664-1.029-1.307l-.983-1.337-.95-1.354-.893-1.39a48.928,48.928,0,0,1-5.373-12l-.441-1.592-.377-1.611L689.167,980Q689.036,979.177,688.878,978.357Z" transform="translate(-641.709 -957.679)" fill="#fecfa7"/>
      <path id="Trazado_202460" data-name="Trazado 202460" d="M623.473,986.621A44.85,44.85,0,0,0,627.036,993a48.566,48.566,0,0,0,4.564,5.737,46.229,46.229,0,0,0,25.314,14.008,48.558,48.558,0,0,0,7.286.819,44.8,44.8,0,0,0,7.3-.373,50.711,50.711,0,0,1-7.281-.014,49.845,49.845,0,0,1-36.868-20.4A50.578,50.578,0,0,1,623.473,986.621Z" transform="translate(-564.255 -959.702)" fill="#fecfa7"/>
      <path id="Trazado_202461" data-name="Trazado 202461" d="M632.163,1029.554a7.322,7.322,0,0,1,3.319,1.561,22.586,22.586,0,0,0,3.359,1.729,27.06,27.06,0,0,0,7.327,1.808,41.514,41.514,0,0,0,7.527.086c1.248-.094,2.492-.22,3.733-.366,1.238-.172,2.475-.334,3.706-.548l-3.739.163c-1.243.067-2.486.125-3.728.144a56.492,56.492,0,0,1-7.411-.264,32.108,32.108,0,0,1-7.2-1.588,22.83,22.83,0,0,1-3.38-1.5A6.976,6.976,0,0,0,632.163,1029.554Z" transform="translate(-560.453 -970.207)" fill="#fecfa7"/>
      <path id="Trazado_202462" data-name="Trazado 202462" d="M758.558,971.635a36.413,36.413,0,0,1-1.547-5.682,18.461,18.461,0,0,1-.159-5.776,13.265,13.265,0,0,1,1.992-5.353,10.6,10.6,0,0,1,4.29-3.844,9.28,9.28,0,0,0-4.8,3.492,12.426,12.426,0,0,0-2.268,5.595,16.352,16.352,0,0,0,.339,6.01A22.68,22.68,0,0,0,758.558,971.635Z" transform="translate(-755.932 -950.979)" fill="#fecfa7"/>
      <path id="Trazado_202463" data-name="Trazado 202463" d="M751.452,971.981a16.335,16.335,0,0,1,2.092-17.179,11.365,11.365,0,0,0-2.912,3.665,13.682,13.682,0,0,0-1.126,9.257A11.38,11.38,0,0,0,751.452,971.981Z" transform="translate(-741.224 -951.915)" fill="#fecfa7"/>
    </g>
  </g>
  <g id="Grupo_142500" data-name="Grupo 142500" transform="translate(205.531 22.862)" opacity="0.2" style="mix-blend-mode: multiply;isolation: isolate">
    <path id="Trazado_202464" data-name="Trazado 202464" d="M587.944,1123.918c-2.945-34.377-16.99-67.777-20.563-102.1,22.323-26.532,32.247-62.928,27.148-97.163l17.181,7.072-1.934,32.337-.979,16.355c24.018,7.555,41.9,11.88,41.9,11.88l.3,6.688a371.527,371.527,0,0,1-43.107-9.655,37.359,37.359,0,0,1-3.036,8.261l.784.434c-.347.036-.7.058-1.043.086a77.275,77.275,0,0,1-6.209,9.935l.689.1-.823.082c-6.334,8.753-13.49,16.323-14.84,21.434a21.894,21.894,0,0,0-.612,5.839,52.774,52.774,0,0,0,1.773,11.8h0s27.036,56.773,30.393,80.48-13.585,88.463-15.2,98.879-2.682,33.133-2.682,33.133H563.416C579.163,1215.679,591.908,1170.2,587.944,1123.918Z" transform="translate(-563.416 -924.66)" fill="#003343"/>
  </g>
</svg>
