<svg xmlns="http://www.w3.org/2000/svg" width="96.667" height="84.797" viewBox="0 0 96.667 84.797">
  <g id="carbon" transform="translate(0 -19.031)">
    <path id="Trazado_202872" data-name="Trazado 202872" d="M96.436,83.347,81.9,38.768a4.744,4.744,0,0,0-2.58-2.839L41.413,19.42a4.681,4.681,0,0,0-4.556.462L1.989,44.378A4.677,4.677,0,0,0,0,48.205V86.37a4.677,4.677,0,0,0,3.035,4.38l34.082,12.781a4.762,4.762,0,0,0,.593.174,4.592,4.592,0,0,0,2.266-.038l53.23-14.355a4.678,4.678,0,0,0,3.23-5.966Z" fill="#222224"/>
    <path id="Trazado_202873" data-name="Trazado 202873" d="M164.866,35.929,126.955,19.42A4.674,4.674,0,0,0,124.3,19.1L132.93,64.01l33.726-26.7A4.676,4.676,0,0,0,164.866,35.929Z" transform="translate(-85.542)" fill="#403f44"/>
    <path id="Trazado_202874" data-name="Trazado 202874" d="M179.66,123.689,165.127,79.11a4.672,4.672,0,0,0-.789-1.456l-33.726,26.7-9.678,39.694a4.591,4.591,0,0,0,2.266-.038l53.23-14.355a4.678,4.678,0,0,0,3.23-5.965Z" transform="translate(-83.223 -40.342)" fill="#313133"/>
  </g>
</svg>
