<svg xmlns="http://www.w3.org/2000/svg" width="555.334" height="674.14" viewBox="0 0 555.334 674.14">
  <g id="Grupo_142506" data-name="Grupo 142506" transform="translate(-495 -4413)">
    <g id="Requiere" transform="translate(512.027 4423.095)" style="isolation: isolate">
      <text id="Caña_recolectada" data-name="Caña
recolectada" transform="translate(39 14)" fill="#0c1d30" font-size="15" font-family="SegoeUI, Segoe UI" style="isolation: isolate"><tspan x="-16.52" y="0">Caña</tspan><tspan x="-38.181" y="18">recolectada</tspan></text>
    </g>
    <g id="Requiere-2" data-name="Requiere" transform="translate(714.583 4422.548)" style="isolation: isolate">
      <text id="Modeladora_de_caña_de_azúcar" data-name="Modeladora
de caña de azúcar" transform="translate(61 14)" fill="#0c1d30" font-size="15" font-family="SegoeUI, Segoe UI" style="isolation: isolate"><tspan x="-40.334" y="0">Modeladora</tspan><tspan x="-59.52" y="18">de caña de azúcar</tspan></text>
    </g>
    <g id="Requiere-3" data-name="Requiere" transform="translate(838.417 4622.053)" style="isolation: isolate">
      <text id="Evaporación_de_3_a_4_horas" data-name="Evaporación de
3 a 4 horas" transform="translate(51 14)" fill="#0c1d30" font-size="15" font-family="SegoeUI, Segoe UI" style="isolation: isolate"><tspan x="-50.742" y="0">Evaporación de</tspan><tspan x="-36.31" y="18">3 a 4 horas</tspan></text>
    </g>
    <g id="Requiere-4" data-name="Requiere" transform="translate(831.825 4720.847)" style="isolation: isolate">
      <text id="Pasta_semisolida_formada" data-name="Pasta semisolida
formada" transform="translate(57 14)" fill="#0c1d30" font-size="15" font-family="SegoeUI, Segoe UI" style="isolation: isolate"><tspan x="-54.177" y="0">Pasta semisolida</tspan><tspan x="-27.858" y="18">formada</tspan></text>
    </g>
    <g id="Requiere-5" data-name="Requiere" transform="translate(770.306 4821.639)" style="isolation: isolate">
      <text id="Adición_de_carbonato_de_sodio_como_aglutinante_para_hacer_bolas_de_panela_" data-name="Adición de carbonato de
sodio (como aglutinante para hacer
bolas de panela)" transform="translate(118 14)" fill="#0c1d30" font-size="15" font-family="SegoeUI, Segoe UI" style="isolation: isolate"><tspan x="-81.519" y="0">Adición de carbonato de</tspan><tspan x="-117.521" y="18">sodio (como aglutinante para hacer</tspan><tspan x="-54.353" y="36">bolas de panela)</tspan></text>
    </g>
    <g id="Requiere-6" data-name="Requiere" transform="translate(846.106 4939.296)" style="isolation: isolate">
      <text id="Alimentación_de_batea" data-name="Alimentación
de batea" transform="translate(44 14)" fill="#0c1d30" font-size="15" font-family="SegoeUI, Segoe UI" style="isolation: isolate"><tspan x="-43.374" y="0">Alimentación</tspan><tspan x="-28.898" y="18">de batea</tspan></text>
    </g>
    <g id="Requiere-7" data-name="Requiere" transform="translate(846.106 5038.001)" style="isolation: isolate">
      <text id="Obtención_de_panela" data-name="Obtención de
panela" transform="translate(44 14)" fill="#0c1d30" font-size="15" font-family="SegoeUI, Segoe UI" style="isolation: isolate"><tspan x="-45.084" y="0">Obtención de</tspan><tspan x="-22.024" y="18">panela</tspan></text>
    </g>
    <g id="Requiere-8" data-name="Requiere" transform="translate(956.408 4422.548)" style="isolation: isolate">
      <text id="Extracción_de_jugos" data-name="Extracción
de jugos" transform="translate(35 14)" fill="#0c1d30" font-size="15" font-family="SegoeUI, Segoe UI" style="isolation: isolate"><tspan x="-33.585" y="0">Extracción</tspan><tspan x="-28.447" y="18">de jugos</tspan></text>
    </g>
    <g id="Requiere-9" data-name="Requiere" transform="translate(755.528 4532.939)" style="isolation: isolate">
      <text id="Bagazo" transform="translate(25 14)" fill="#0c1d30" font-size="15" font-family="SegoeUI, Segoe UI" style="isolation: isolate"><tspan x="-24.133" y="0">Bagazo</tspan></text>
    </g>
    <g id="Requiere-10" data-name="Requiere" transform="translate(636.444 4586.65)" style="isolation: isolate">
      <text id="Usado_como_combustible" data-name="Usado como
combustible" transform="translate(42 14)" fill="#0c1d30" font-size="15" font-family="SegoeUI, Segoe UI" style="isolation: isolate"><tspan x="-41.73" y="0">Usado como</tspan><tspan x="-40.66" y="18">combustible</tspan></text>
    </g>
    <g id="Requiere-11" data-name="Requiere" transform="translate(960.802 4522.604)" style="isolation: isolate">
      <text id="Filtración_de_jugos" data-name="Filtración
de jugos" transform="translate(31 14)" fill="#0c1d30" font-size="15" font-family="SegoeUI, Segoe UI" style="isolation: isolate"><tspan x="-30.179" y="0">Filtración</tspan><tspan x="-28.447" y="18">de jugos</tspan></text>
    </g>
    <g id="Rectángulo_40446" data-name="Rectángulo 40446" transform="translate(495 4413.547)">
      <rect id="Rectángulo_41411" data-name="Rectángulo 41411" width="115.348" height="57.125" rx="13" fill="none"/>
      <rect id="Rectángulo_41412" data-name="Rectángulo 41412" width="114.249" height="56.026" rx="12.5" transform="translate(0.549 0.549)" fill="none" stroke="#dc1f27" stroke-width="1"/>
    </g>
    <g id="Rectángulo_40446-2" data-name="Rectángulo 40446" transform="translate(934.986 4413)">
      <rect id="Rectángulo_41413" data-name="Rectángulo 41413" width="115.348" height="57.125" rx="13" fill="none"/>
      <rect id="Rectángulo_41414" data-name="Rectángulo 41414" width="114.249" height="56.026" rx="12.5" transform="translate(0.549 0.549)" fill="none" stroke="#dc1f27" stroke-width="1"/>
    </g>
    <g id="Rectángulo_40446-3" data-name="Rectángulo 40446" transform="translate(934.986 4513.056)">
      <rect id="Rectángulo_41415" data-name="Rectángulo 41415" width="115.348" height="57.125" rx="13" fill="none"/>
      <rect id="Rectángulo_41416" data-name="Rectángulo 41416" width="114.249" height="56.026" rx="12.5" transform="translate(0.549 0.549)" fill="none" stroke="#dc1f27" stroke-width="1"/>
    </g>
    <g id="Rectángulo_40446-4" data-name="Rectángulo 40446" transform="translate(723.121 4513.056)">
      <rect id="Rectángulo_41417" data-name="Rectángulo 41417" width="115.348" height="57.125" rx="13" fill="none"/>
      <rect id="Rectángulo_41418" data-name="Rectángulo 41418" width="114.249" height="56.026" rx="12.5" transform="translate(0.549 0.549)" fill="none" stroke="#dc1f27" stroke-width="1"/>
    </g>
    <g id="Rectángulo_40446-5" data-name="Rectángulo 40446" transform="translate(685 4413)">
      <path id="Trazado_202124" data-name="Trazado 202124" d="M-4420.633-6345.2H-4275.4c8.592,0,15.558,6.394,15.558,14.281v28.562c0,7.888-6.966,14.281-15.558,14.281h-145.229c-8.593,0-15.558-6.394-15.558-14.281v-28.562C-4436.191-6338.806-4429.227-6345.2-4420.633-6345.2Z" transform="translate(4436.191 6345.2)" fill="none"/>
      <path id="Trazado_202125" data-name="Trazado 202125" d="M-4420.725-6344.7h145.314c8.267,0,14.968,6.147,14.968,13.731v28.563c0,7.585-6.7,13.731-14.968,13.731h-145.314c-8.268,0-14.97-6.146-14.97-13.731v-28.562C-4435.694-6338.552-4428.992-6344.7-4420.725-6344.7Z" transform="translate(4436.24 6345.249)" fill="none" stroke="#dc1f27" stroke-width="1"/>
    </g>
    <g id="Rectángulo_40446-6" data-name="Rectángulo 40446" transform="translate(810.596 4612.506)">
      <path id="Trazado_202126" data-name="Trazado 202126" d="M-4338.2-6163.591h132.675a14.247,14.247,0,0,1,14.213,14.281v28.562a14.248,14.248,0,0,1-14.213,14.281H-4338.2a14.248,14.248,0,0,1-14.213-14.281v-28.562A14.247,14.247,0,0,1-4338.2-6163.591Z" transform="translate(4352.414 6163.591)" fill="none"/>
      <path id="Trazado_202127" data-name="Trazado 202127" d="M-4338.25-6163.091h132.675a13.7,13.7,0,0,1,13.666,13.731v28.563a13.7,13.7,0,0,1-13.666,13.731H-4338.25a13.7,13.7,0,0,1-13.666-13.731v-28.562A13.7,13.7,0,0,1-4338.25-6163.091Z" transform="translate(4352.462 6163.64)" fill="none" stroke="#dc1f27" stroke-width="1"/>
    </g>
    <g id="Rectángulo_40446-7" data-name="Rectángulo 40446" transform="translate(810.596 4711.299)">
      <path id="Trazado_202128" data-name="Trazado 202128" d="M-4338.2-6073.66h132.675a14.247,14.247,0,0,1,14.213,14.281v28.563a14.247,14.247,0,0,1-14.213,14.281H-4338.2a14.247,14.247,0,0,1-14.213-14.281v-28.562A14.247,14.247,0,0,1-4338.2-6073.66Z" transform="translate(4352.414 6073.66)" fill="none"/>
      <path id="Trazado_202129" data-name="Trazado 202129" d="M-4338.25-6073.16h132.675a13.7,13.7,0,0,1,13.666,13.731v28.563a13.7,13.7,0,0,1-13.666,13.732H-4338.25a13.7,13.7,0,0,1-13.666-13.732v-28.562A13.7,13.7,0,0,1-4338.25-6073.16Z" transform="translate(4352.462 6073.709)" fill="none" stroke="#dc1f27" stroke-width="1"/>
    </g>
    <g id="Rectángulo_40446-8" data-name="Rectángulo 40446" transform="translate(752.611 4811.202)">
      <path id="Trazado_202130" data-name="Trazado 202130" d="M-4390.983-5982.72h248.645a14.249,14.249,0,0,1,14.213,14.281v45.223a14.247,14.247,0,0,1-14.213,14.281h-248.645a14.247,14.247,0,0,1-14.213-14.281v-45.223A14.248,14.248,0,0,1-4390.983-5982.72Z" transform="translate(4405.196 5982.72)" fill="none"/>
      <path id="Trazado_202131" data-name="Trazado 202131" d="M-4391.032-5982.22h248.645a13.7,13.7,0,0,1,13.666,13.732v45.223a13.7,13.7,0,0,1-13.666,13.732h-248.645a13.7,13.7,0,0,1-13.667-13.732v-45.223A13.7,13.7,0,0,1-4391.032-5982.22Z" transform="translate(4405.245 5982.769)" fill="none" stroke="#dc1f27" stroke-width="1"/>
    </g>
    <g id="Rectángulo_40446-9" data-name="Rectángulo 40446" transform="translate(810.596 4929.088)">
      <path id="Trazado_202132" data-name="Trazado 202132" d="M-4338.2-5875.409h132.675a14.247,14.247,0,0,1,14.213,14.281v28.563a14.248,14.248,0,0,1-14.213,14.281H-4338.2a14.248,14.248,0,0,1-14.213-14.281v-28.562A14.247,14.247,0,0,1-4338.2-5875.409Z" transform="translate(4352.414 5875.409)" fill="none"/>
      <path id="Trazado_202133" data-name="Trazado 202133" d="M-4338.25-5874.909h132.675a13.7,13.7,0,0,1,13.666,13.731v28.563a13.7,13.7,0,0,1-13.666,13.732H-4338.25a13.7,13.7,0,0,1-13.666-13.732v-28.562A13.7,13.7,0,0,1-4338.25-5874.909Z" transform="translate(4352.462 5875.458)" fill="none" stroke="#dc1f27" stroke-width="1"/>
    </g>
    <g id="Rectángulo_40446-10" data-name="Rectángulo 40446" transform="translate(810.596 5030.015)">
      <path id="Trazado_202134" data-name="Trazado 202134" d="M-4338.2-5783.537h132.675a14.248,14.248,0,0,1,14.213,14.281v28.563a14.248,14.248,0,0,1-14.213,14.281H-4338.2a14.248,14.248,0,0,1-14.213-14.281v-28.562A14.248,14.248,0,0,1-4338.2-5783.537Z" transform="translate(4352.414 5783.537)" fill="none"/>
      <path id="Trazado_202135" data-name="Trazado 202135" d="M-4338.25-5783.037h132.675a13.7,13.7,0,0,1,13.666,13.732v28.563a13.7,13.7,0,0,1-13.666,13.732H-4338.25a13.7,13.7,0,0,1-13.666-13.732V-5769.3A13.7,13.7,0,0,1-4338.25-5783.037Z" transform="translate(4352.462 5783.586)" fill="none" stroke="#dc1f27" stroke-width="1"/>
    </g>
    <g id="Grupo_141990" data-name="Grupo 141990" transform="translate(631.379 4432.361)">
      <path id="Trazado_183774-10" data-name="Trazado 183774-10" d="M-4486.045-6319.2h63.893" transform="translate(4465.667 6328.4)" fill="none" stroke="#5d5d5d" stroke-width="1"/>
      <path id="Trazado_202136" data-name="Trazado 202136" d="M-4435.8-6318.376l-15.932-9.2v18.4Z" transform="translate(4489.426 6327.575)" fill="#5d5d5d"/>
    </g>
    <g id="Grupo_142505" data-name="Grupo 142505" transform="translate(881.724 4432.361)">
      <path id="Trazado_183774-10-2" data-name="Trazado 183774-10" d="M-4486.045-6319.2h63.893" transform="translate(4465.667 6328.4)" fill="none" stroke="#5d5d5d" stroke-width="1"/>
      <path id="Trazado_202136-2" data-name="Trazado 202136" d="M-4435.8-6318.376l-15.932-9.2v18.4Z" transform="translate(4489.426 6327.575)" fill="#5d5d5d"/>
    </g>
    <g id="Grupo_141991" data-name="Grupo 141991" transform="translate(762.432 4627.136)">
      <path id="Trazado_183774-10-3" data-name="Trazado 183774-10" d="M-4398.958-6141.9h37.459" transform="translate(4398.958 6151.099)" fill="none" stroke="#5d5d5d" stroke-width="1"/>
      <path id="Trazado_202137" data-name="Trazado 202137" d="M-4354.228-6141.075l-15.932-9.2v18.4Z" transform="translate(4401.796 6150.273)" fill="#5d5d5d"/>
    </g>
    <g id="Grupo_141993" data-name="Grupo 141993" transform="translate(983.461 4469.575)">
      <path id="Trazado_183774-10-4" data-name="Trazado 183774-10" d="M-4186.682-6293.7v34.272" transform="translate(4195.881 6293.7)" fill="none" stroke="#5d5d5d" stroke-width="1"/>
      <path id="Trazado_202139" data-name="Trazado 202139" d="M-4185.857-6251.872l9.2-15.932h-18.4Z" transform="translate(4195.056 6296.251)" fill="#5d5d5d"/>
    </g>
    <g id="Grupo_141994" data-name="Grupo 141994" transform="translate(939.912 4568.997)">
      <path id="Trazado_183774-10-5" data-name="Trazado 183774-10" d="M-4226.325-6203.2v34.271" transform="translate(4235.523 6203.197)" fill="none" stroke="#5d5d5d" stroke-width="1"/>
      <path id="Trazado_202140" data-name="Trazado 202140" d="M-4225.5-6161.37l9.2-15.932h-18.4Z" transform="translate(4234.698 6205.749)" fill="#5d5d5d"/>
    </g>
    <g id="Grupo_141995" data-name="Grupo 141995" transform="translate(881.948 4668.274)">
      <path id="Trazado_183774-10-6" data-name="Trazado 183774-10" d="M-4279.088-6112.826v34.272" transform="translate(4288.288 6112.826)" fill="none" stroke="#5d5d5d" stroke-width="1"/>
      <path id="Trazado_202141" data-name="Trazado 202141" d="M-4278.264-6071l9.2-15.932h-18.4Z" transform="translate(4287.462 6115.377)" fill="#5d5d5d"/>
    </g>
    <g id="Grupo_141996" data-name="Grupo 141996" transform="translate(881.948 4766.97)">
      <path id="Trazado_183774-10-7" data-name="Trazado 183774-10" d="M-4279.088-6022.984v34.271" transform="translate(4288.288 6022.984)" fill="none" stroke="#5d5d5d" stroke-width="1"/>
      <path id="Trazado_202142" data-name="Trazado 202142" d="M-4278.264-5981.158l9.2-15.932h-18.4Z" transform="translate(4287.462 6025.536)" fill="#5d5d5d"/>
    </g>
    <g id="Grupo_141997" data-name="Grupo 141997" transform="translate(881.948 4882.847)">
      <path id="Trazado_183774-10-8" data-name="Trazado 183774-10" d="M-4279.088-5917.5v34.271" transform="translate(4288.288 5917.502)" fill="none" stroke="#5d5d5d" stroke-width="1"/>
      <path id="Trazado_202143" data-name="Trazado 202143" d="M-4278.264-5875.674l9.2-15.932h-18.4Z" transform="translate(4287.462 5920.054)" fill="#5d5d5d"/>
    </g>
    <g id="Grupo_141998" data-name="Grupo 141998" transform="translate(881.948 4984.737)">
      <path id="Trazado_183774-10-9" data-name="Trazado 183774-10" d="M-4279.088-5824.752v34.271" transform="translate(4288.288 5824.752)" fill="none" stroke="#5d5d5d" stroke-width="1"/>
      <path id="Trazado_202144" data-name="Trazado 202144" d="M-4278.264-5782.925l9.2-15.932h-18.4Z" transform="translate(4287.462 5827.304)" fill="#5d5d5d"/>
    </g>
    <g id="Grupo_141999" data-name="Grupo 141999" transform="translate(771.596 4469.575)">
      <path id="Trazado_183774-10-10" data-name="Trazado 183774-10" d="M-4362.867-6293.7v34.272" transform="translate(4372.065 6293.7)" fill="none" stroke="#5d5d5d" stroke-width="1"/>
      <path id="Trazado_202145" data-name="Trazado 202145" d="M-4362.042-6251.872l9.2-15.932h-18.4Z" transform="translate(4371.241 6296.251)" fill="#5d5d5d"/>
    </g>
    <path id="Trazado_202146" data-name="Trazado 202146" d="M-4367.611-6202.619" transform="translate(5143.193 10772.25)" fill="none" stroke="#5d5d5d" stroke-width="1"/>
    <path id="Trazado_202147" data-name="Trazado 202147" d="M-4402.367-6202.619v66.7h49" transform="translate(5139.768 10772.25)" fill="none" stroke="#5d5d5d" stroke-width="1"/>
  </g>
</svg>
