<svg xmlns="http://www.w3.org/2000/svg" width="1105" height="657.666" viewBox="0 0 1105 657.666">
  <rect id="Rectángulo_41428" data-name="Rectángulo 41428" width="175" height="134" rx="38" transform="translate(509)" fill="#81af1d"/>
  <rect id="Rectángulo_41429" data-name="Rectángulo 41429" width="159" height="134" rx="38" transform="translate(736)" fill="#81af1d"/>
  <rect id="Rectángulo_41430" data-name="Rectángulo 41430" width="159" height="134" rx="38" transform="translate(946)" fill="#81af1d"/>
  <rect id="Rectángulo_41431" data-name="Rectángulo 41431" width="159" height="134" rx="38" transform="translate(946 168)" fill="#81af1d"/>
  <rect id="Rectángulo_41432" data-name="Rectángulo 41432" width="159" height="134" rx="38" transform="translate(946 335)" fill="#81af1d"/>
  <rect id="Rectángulo_41433" data-name="Rectángulo 41433" width="159" height="134" rx="38" transform="translate(946 502)" fill="#81af1d"/>
  <text id="Se_realiza" data-name="Se realiza" transform="translate(288 161)" fill="#12263f" font-size="16" font-family="SegoeUI-Bold, Segoe UI" font-weight="700"><tspan x="0" y="17">Se realiza</tspan></text>
  <g id="Grupo_81819" data-name="Grupo 81819" transform="translate(475.333 63.334)">
    <path id="Trazado_183774" data-name="Trazado 183774" d="M0,70.333V0" transform="translate(30.667 3.5) rotate(90)" fill="none" stroke="#707070" stroke-width="1"/>
    <circle id="Elipse_4730" data-name="Elipse 4730" cx="3.5" cy="3.5" r="3.5" transform="translate(26.667)" fill="#707070"/>
  </g>
  <path id="Trazado_183774-2" data-name="Trazado 183774" d="M0,102V0" transform="translate(506 259.5) rotate(90)" fill="none" stroke="#707070" stroke-width="1"/>
  <circle id="Elipse_4730-2" data-name="Elipse 4730" cx="3.5" cy="3.5" r="3.5" transform="translate(502 256)" fill="#707070"/>
  <circle id="Elipse_5184" data-name="Elipse 5184" cx="3.5" cy="3.5" r="3.5" transform="translate(683 76)" fill="#707070"/>
  <circle id="Elipse_5183" data-name="Elipse 5183" cx="3.5" cy="3.5" r="3.5" transform="translate(239 373)" fill="#707070"/>
  <circle id="Elipse_5182" data-name="Elipse 5182" cx="3.5" cy="3.5" r="3.5" transform="translate(502 267)" fill="#707070"/>
  <g id="Grupo_142072" data-name="Grupo 142072" transform="translate(162 256)">
    <path id="Trazado_183774-3" data-name="Trazado 183774" d="M0,0V82" transform="translate(85 3.5) rotate(90)" fill="none" stroke="#707070" stroke-width="1"/>
    <circle id="Elipse_4730-3" data-name="Elipse 4730" cx="3.5" cy="3.5" r="3.5" fill="#707070"/>
  </g>
  <g id="Grupo_142066" data-name="Grupo 142066" transform="translate(699.667 63.334)">
    <path id="Trazado_183774-4" data-name="Trazado 183774" d="M0,47.667V0" transform="translate(30.667 3.5) rotate(90)" fill="none" stroke="#707070" stroke-width="1"/>
    <circle id="Elipse_4730-4" data-name="Elipse 4730" cx="3.5" cy="3.5" r="3.5" transform="translate(30)" fill="#707070"/>
  </g>
  <g id="Grupo_142067" data-name="Grupo 142067" transform="translate(912.333 63.334)">
    <path id="Trazado_183774-5" data-name="Trazado 183774" d="M0,48.5V0" transform="translate(30.667 3.5) rotate(90)" fill="none" stroke="#707070" stroke-width="1"/>
    <circle id="Elipse_4730-5" data-name="Elipse 4730" cx="3.5" cy="3.5" r="3.5" transform="translate(26.667)" fill="#707070"/>
  </g>
  <path id="Trazado_183767" data-name="Trazado 183767" d="M27.979,0H192.021C207.473,0,220,23.207,220,51.833s-12.527,51.833-27.979,51.833H27.979C12.527,103.667,0,80.46,0,51.833S12.527,0,27.979,0Z" transform="translate(214 15)" fill="#300077"/>
  <text id="Efectos_de_la_temperatura_en_la_producción_panelera" data-name="Efectos de la temperatura en la producción panelera" transform="translate(226 45)" fill="#fff" font-size="16" font-family="SegoeUI-Bold, Segoe UI" font-weight="700"><tspan x="-96.422" y="17">Efectos de la temperatura </tspan><tspan x="-97.289" y="41">en la producción panelera</tspan></text>
  <g id="Grupo_81821" data-name="Grupo 81821" transform="translate(-321.5 800.667) rotate(-90)">
    <path id="Trazado_183774-6" data-name="Trazado 183774" d="M0,0V30.667" transform="translate(498.667 646.5) rotate(90)" fill="none" stroke="#707070" stroke-width="1"/>
    <circle id="Elipse_4730-6" data-name="Elipse 4730" cx="3.5" cy="3.5" r="3.5" transform="translate(465 643)" fill="#707070"/>
  </g>
  <g id="Grupo_142062" data-name="Grupo 142062" transform="translate(-563.5 800.667) rotate(-90)">
    <path id="Trazado_183774-7" data-name="Trazado 183774" d="M0,0V30.667" transform="translate(498.667 646.5) rotate(90)" fill="none" stroke="#707070" stroke-width="1"/>
    <circle id="Elipse_4730-7" data-name="Elipse 4730" cx="3.5" cy="3.5" r="3.5" transform="translate(465 643)" fill="#707070"/>
  </g>
  <g id="Grupo_142068" data-name="Grupo 142068" transform="translate(379 632.667) rotate(-90)">
    <path id="Trazado_183774-8" data-name="Trazado 183774" d="M0,0V30.667" transform="translate(498.667 646.5) rotate(90)" fill="none" stroke="#707070" stroke-width="1"/>
    <circle id="Elipse_4730-8" data-name="Elipse 4730" cx="3.5" cy="3.5" r="3.5" transform="translate(465 643)" fill="#707070"/>
  </g>
  <g id="Grupo_142059" data-name="Grupo 142059" transform="translate(-321.5 687) rotate(-90)">
    <path id="Trazado_183774-9" data-name="Trazado 183774" d="M0,0V30.667" transform="translate(498.667 646.5) rotate(90)" fill="none" stroke="#707070" stroke-width="1"/>
    <circle id="Elipse_4730-9" data-name="Elipse 4730" cx="3.5" cy="3.5" r="3.5" transform="translate(465 643)" fill="#707070"/>
  </g>
  <g id="Grupo_81822" data-name="Grupo 81822" transform="translate(-321.5 914.334) rotate(-90)">
    <path id="Trazado_183774-10" data-name="Trazado 183774" d="M0,0V30.667" transform="translate(498.667 646.5) rotate(90)" fill="none" stroke="#707070" stroke-width="1"/>
    <circle id="Elipse_4730-10" data-name="Elipse 4730" cx="3.5" cy="3.5" r="3.5" transform="translate(465 643)" fill="#707070"/>
  </g>
  <g id="Grupo_142061" data-name="Grupo 142061" transform="translate(-563.5 914.334) rotate(-90)">
    <path id="Trazado_183774-11" data-name="Trazado 183774" d="M0,0V30.667" transform="translate(498.667 646.5) rotate(90)" fill="none" stroke="#707070" stroke-width="1"/>
    <circle id="Elipse_4730-11" data-name="Elipse 4730" cx="3.5" cy="3.5" r="3.5" transform="translate(465 643)" fill="#707070"/>
  </g>
  <g id="Grupo_142069" data-name="Grupo 142069" transform="translate(379 800.667) rotate(-90)">
    <path id="Trazado_183774-12" data-name="Trazado 183774" d="M0,0V30.667" transform="translate(498.667 646.5) rotate(90)" fill="none" stroke="#707070" stroke-width="1"/>
    <circle id="Elipse_4730-12" data-name="Elipse 4730" cx="3.5" cy="3.5" r="3.5" transform="translate(465 643)" fill="#707070"/>
  </g>
  <g id="Grupo_81823" data-name="Grupo 81823" transform="translate(-321.5 1028.001) rotate(-90)">
    <path id="Trazado_183774-13" data-name="Trazado 183774" d="M0,0V30.667" transform="translate(498.667 646.5) rotate(90)" fill="none" stroke="#707070" stroke-width="1"/>
    <circle id="Elipse_4730-13" data-name="Elipse 4730" cx="3.5" cy="3.5" r="3.5" transform="translate(465 643)" fill="#707070"/>
  </g>
  <g id="Grupo_142060" data-name="Grupo 142060" transform="translate(-563.5 1028.001) rotate(-90)">
    <path id="Trazado_183774-14" data-name="Trazado 183774" d="M0,0V30.667" transform="translate(498.667 646.5) rotate(90)" fill="none" stroke="#707070" stroke-width="1"/>
    <circle id="Elipse_4730-14" data-name="Elipse 4730" cx="3.5" cy="3.5" r="3.5" transform="translate(465 643)" fill="#707070"/>
  </g>
  <g id="Grupo_142070" data-name="Grupo 142070" transform="translate(379 967.667) rotate(-90)">
    <path id="Trazado_183774-15" data-name="Trazado 183774" d="M0,0V30.667" transform="translate(498.667 646.5) rotate(90)" fill="none" stroke="#707070" stroke-width="1"/>
    <circle id="Elipse_4730-15" data-name="Elipse 4730" cx="3.5" cy="3.5" r="3.5" transform="translate(465 643)" fill="#707070"/>
  </g>
  <g id="Grupo_81824" data-name="Grupo 81824" transform="translate(-322.5 617) rotate(-90)">
    <path id="Trazado_183774-16" data-name="Trazado 183774" d="M0,0V30.667" transform="translate(498.667 646.5) rotate(90)" fill="none" stroke="#707070" stroke-width="1"/>
  </g>
  <path id="Trazado_183776" data-name="Trazado 183776" d="M34.348,0h89.3C142.622,0,158,17.909,158,40s-15.378,40-34.348,40h-89.3C15.378,80,0,62.091,0,40S15.378,0,34.348,0Z" transform="translate(246 222)" fill="#e53935"/>
  <path id="Trazado_183776-2" data-name="Trazado 183776" d="M36.522,0h94.957C151.649,0,168,17.909,168,40s-16.351,40-36.522,40H36.522C16.351,80,0,62.091,0,40S16.351,0,36.522,0Z" transform="translate(0 222)" fill="#e53935"/>
  <path id="Trazado_183776-3" data-name="Trazado 183776" d="M34.348,0h89.3C142.622,0,158,17.909,158,40s-15.378,40-34.348,40h-89.3C15.378,80,0,62.091,0,40S15.378,0,34.348,0Z" transform="translate(509 222)" fill="#e53935"/>
  <path id="Trazado_183776-4" data-name="Trazado 183776" d="M34.348,0h89.3C142.622,0,158,17.909,158,40s-15.378,40-34.348,40h-89.3C15.378,80,0,62.091,0,40S15.378,0,34.348,0Z" transform="translate(246 335.667)" fill="#e53935"/>
  <path id="Trazado_183776-5" data-name="Trazado 183776" d="M36.522,0h94.957C151.649,0,168,17.909,168,40s-16.351,40-36.522,40H36.522C16.351,80,0,62.091,0,40S16.351,0,36.522,0Z" transform="translate(0 335.667)" fill="#e53935"/>
  <path id="Trazado_183776-6" data-name="Trazado 183776" d="M34.348,0h89.3C142.622,0,158,17.909,158,40s-15.378,40-34.348,40h-89.3C15.378,80,0,62.091,0,40S15.378,0,34.348,0Z" transform="translate(509 335.667)" fill="#e53935"/>
  <path id="Trazado_183776-7" data-name="Trazado 183776" d="M34.348,0h89.3C142.622,0,158,17.909,158,40s-15.378,40-34.348,40h-89.3C15.378,80,0,62.091,0,40S15.378,0,34.348,0Z" transform="translate(246 449.334)" fill="#e53935"/>
  <path id="Trazado_183776-8" data-name="Trazado 183776" d="M36.522,0h94.957C151.649,0,168,17.909,168,40s-16.351,40-36.522,40H36.522C16.351,80,0,62.091,0,40S16.351,0,36.522,0Z" transform="translate(0 449.334)" fill="#e53935"/>
  <path id="Trazado_183776-9" data-name="Trazado 183776" d="M34.348,0h89.3C142.622,0,158,17.909,158,40s-15.378,40-34.348,40h-89.3C15.378,80,0,62.091,0,40S15.378,0,34.348,0Z" transform="translate(509 449.334)" fill="#e53935"/>
  <path id="Trazado_183776-10" data-name="Trazado 183776" d="M34.348,0h89.3C142.622,0,158,17.909,158,40s-15.378,40-34.348,40h-89.3C15.378,80,0,62.091,0,40S15.378,0,34.348,0Z" transform="translate(246 563.001)" fill="#e53935"/>
  <path id="Trazado_183776-11" data-name="Trazado 183776" d="M36.522,0h94.957C151.649,0,168,17.909,168,40s-16.351,40-36.522,40H36.522C16.351,80,0,62.091,0,40S16.351,0,36.522,0Z" transform="translate(0 563.001)" fill="#e53935"/>
  <path id="Trazado_183776-12" data-name="Trazado 183776" d="M34.348,0h89.3C142.622,0,158,17.909,158,40s-15.378,40-34.348,40h-89.3C15.378,80,0,62.091,0,40S15.378,0,34.348,0Z" transform="translate(509 563.001)" fill="#e53935"/>
  <text id="Tres_procesos_de_hornillas" data-name="Tres procesos de hornillas" transform="translate(265 244)" fill="#fff" font-size="16" font-family="SegoeUI-Bold, Segoe UI" font-weight="700"><tspan x="-50.395" y="17">Tres procesos </tspan><tspan x="-43.887" y="36">de hornillas</tspan></text>
  <text id="Hornilla_de_clarificación" data-name="Hornilla de clarificación" transform="translate(23 244)" fill="#fff" font-size="16" font-family="SegoeUI-Bold, Segoe UI" font-weight="700"><tspan x="-41.68" y="17">Hornilla de </tspan><tspan x="-45.23" y="36">clarificación</tspan></text>
  <text id="Hornillas_de_concentración" data-name="Hornillas de concentración" transform="translate(528 244)" fill="#fff" font-size="16" font-family="SegoeUI-Bold, Segoe UI" font-weight="700"><tspan x="-45.199" y="17">Hornillas de </tspan><tspan x="-53.02" y="36">concentración</tspan></text>
  <text id="Hornillas_de_evaporación" data-name="Hornillas de evaporación" transform="translate(265 357.667)" fill="#fff" font-size="16" font-family="SegoeUI-Bold, Segoe UI" font-weight="700"><tspan x="-45.199" y="17">Hornillas de </tspan><tspan x="-46.027" y="36">evaporación</tspan></text>
  <text id="Jugos_en_el_tanque_de_almacenamiento" data-name="Jugos en el tanque de almacenamiento" transform="translate(8 356.667)" fill="#fff" font-size="16" font-family="SegoeUI-Bold, Segoe UI" font-weight="700"><tspan x="-70.535" y="17">Jugos en el tanque </tspan><tspan x="-73.754" y="36">de almacenamiento</tspan></text>
  <text id="Elimina_agua_residua_del_jugo" data-name="Elimina agua residua del jugo" transform="translate(528 357.667)" fill="#fff" font-size="16" font-family="SegoeUI-Bold, Segoe UI" font-weight="700"><tspan x="-48.16" y="17">Elimina agua </tspan><tspan x="-41.133" y="36">residua del </tspan><tspan x="-16.957" y="55">jugo</tspan></text>
  <text id="Jugos" transform="translate(265 480.334)" fill="#fff" font-size="16" font-family="SegoeUI-Bold, Segoe UI" font-weight="700"><tspan x="-21.766" y="17">Jugos</tspan></text>
  <text id="Prelimpieza" transform="translate(23 480.334)" fill="#fff" font-size="16" font-family="SegoeUI-Bold, Segoe UI" font-weight="700"><tspan x="-43.969" y="17">Prelimpieza</tspan></text>
  <text id="Concentración_de_las_mieles" data-name="Concentración de las mieles" transform="translate(528 471.083)" fill="#fff" font-size="16" font-family="SegoeUI-Bold, Segoe UI" font-weight="700"><tspan x="-54.172" y="17">Concentración </tspan><tspan x="-47.844" y="36">de las mieles</tspan></text>
  <text id="_30_minutos" data-name="30 minutos" transform="translate(265 594.001)" fill="#fff" font-size="16" font-family="SegoeUI-Bold, Segoe UI" font-weight="700"><tspan x="-42.184" y="17">30 minutos</tspan></text>
  <text id="Proceso_de_evaporación" data-name="Proceso de evaporación" transform="translate(23 584.001)" fill="#fff" font-size="16" font-family="SegoeUI-Bold, Segoe UI" font-weight="700"><tspan x="-41.023" y="17">Proceso de </tspan><tspan x="-46.027" y="36">evaporación</tspan></text>
  <text id="Panela" transform="translate(528 594.001)" fill="#fff" font-size="16" font-family="SegoeUI-Bold, Segoe UI" font-weight="700"><tspan x="-24.766" y="17">Panela</tspan></text>
  <text id="En_Colombia_la_producción_de_panela_es_una_actividad_de_las_más_importantes" data-name="En Colombia la producción de panela es una actividad de las más importantes" transform="translate(522 21)" fill="#fff" font-size="16" font-family="SegoeUI-Bold, Segoe UI" font-weight="700"><tspan x="-56.004" y="17">En Colombia la </tspan><tspan x="-53.965" y="36">producción de </tspan><tspan x="-51.18" y="55">panela es una </tspan><tspan x="-58.145" y="74">actividad de las </tspan><tspan x="-63.414" y="93">más importantes</tspan></text>
  <text id="No_logra_la_eficiencia_energética" data-name="No logra la eficiencia energética" transform="translate(755 39)" fill="#fff" font-size="16" font-family="SegoeUI-Bold, Segoe UI" font-weight="700"><tspan x="-41.809" y="17">No logra la </tspan><tspan x="-35.367" y="36">eficiencia </tspan><tspan x="-39.461" y="55">energética</tspan></text>
  <text id="Uso_combustible_adionales_como_el_bagazo_madera_y_llantas" data-name="Uso combustible adionales como el bagazo, madera y llantas" transform="translate(964 16)" fill="#fff" font-size="16" font-family="SegoeUI-Bold, Segoe UI" font-weight="700"><tspan x="-14.195" y="17">Uso </tspan><tspan x="-46.328" y="36">combustible </tspan><tspan x="-58.844" y="55">adionales como </tspan><tspan x="-38.145" y="74">el bagazo, </tspan><tspan x="-34.914" y="93">madera y </tspan><tspan x="-24.629" y="112">llantas</tspan></text>
  <text id="Evaluar_técnicos_de_gestión_de_la_producción_panelera" data-name="Evaluar técnicos de gestión de la producción panelera" transform="translate(965 197)" fill="#fff" font-size="16" font-family="SegoeUI-Bold, Segoe UI" font-weight="700"><tspan x="-27.379" y="17">Evaluar </tspan><tspan x="-42.102" y="36">técnicos de </tspan><tspan x="-48.188" y="55">gestión de la </tspan><tspan x="-42.477" y="74">producción </tspan><tspan x="-32.445" y="93">panelera</tspan></text>
  <text id="Identificar_efectos_generados_en_cada_etapa_del_proceso_de_producción" data-name="Identificar efectos generados en cada etapa del proceso de producción" transform="translate(965 345)" fill="#fff" font-size="16" font-family="SegoeUI-Bold, Segoe UI" font-weight="700"><tspan x="-38.711" y="17">Identificar </tspan><tspan x="-27.055" y="36">efectos </tspan><tspan x="-50.676" y="55">generados en </tspan><tspan x="-54.305" y="74">cada etapa del </tspan><tspan x="-41.07" y="93">proceso de </tspan><tspan x="-42.477" y="112">producción</tspan></text>
  <text id="Genera_residuos_que_impactan_de_manera_negativa_al_medio_ambiente" data-name="Genera residuos que impactan de manera negativa al medio ambiente" transform="translate(965 522.666)" fill="#fff" font-size="16" font-family="SegoeUI-Bold, Segoe UI" font-weight="700"><tspan x="-26.672" y="17">Genera </tspan><tspan x="-47.805" y="36">residuos que </tspan><tspan x="-46.375" y="55">impactan de </tspan><tspan x="-28.289" y="74">manera </tspan><tspan x="-41.117" y="93">negativa al </tspan><tspan x="-23.773" y="112">medio </tspan><tspan x="-35.445" y="131">ambiente</tspan></text>
  <path id="Trazado_202246" data-name="Trazado 202246" d="M-10271-7410.5h57.667v-218.834h43.242" transform="translate(10675 7899.834)" fill="none" stroke="#707070" stroke-width="1"/>
  <path id="Trazado_202247" data-name="Trazado 202247" d="M-10271-7402.5h46.134v-226.834H-10187" transform="translate(10433 8006)" fill="none" stroke="#707070" stroke-width="1"/>
  <path id="Trazado_202248" data-name="Trazado 202248" d="M-10008-7307.5h48V-7832h-30.25" transform="translate(10675 7911)" fill="none" stroke="#707070" stroke-width="1"/>
</svg>
