<svg xmlns="http://www.w3.org/2000/svg" xmlns:xlink="http://www.w3.org/1999/xlink" width="41.222" height="152.01" viewBox="0 0 41.222 152.01">
  <defs>
    <linearGradient id="linear-gradient" x1="0.5" y1="-0.195" x2="0.5" y2="0.817" gradientUnits="objectBoundingBox">
      <stop offset="0" stop-color="#940c22"/>
      <stop offset="0.249" stop-color="#e3051a"/>
      <stop offset="0.316" stop-color="#b91435"/>
      <stop offset="0.432" stop-color="#762c61"/>
      <stop offset="0.529" stop-color="#463e81"/>
      <stop offset="0.603" stop-color="#284995"/>
      <stop offset="0.644" stop-color="#1d4e9d"/>
      <stop offset="1" stop-color="#0096d0"/>
    </linearGradient>
    <linearGradient id="linear-gradient-2" x1="0.5" y1="-0.195" x2="0.5" y2="0.817" gradientUnits="objectBoundingBox">
      <stop offset="0" stop-color="#940c22"/>
      <stop offset="0.368" stop-color="#e3051a"/>
      <stop offset="0.442" stop-color="#be1232"/>
      <stop offset="0.606" stop-color="#63346e"/>
      <stop offset="0.726" stop-color="#1d4e9d"/>
      <stop offset="1" stop-color="#0096d0"/>
    </linearGradient>
    <linearGradient id="linear-gradient-3" x1="0.217" y1="-0.147" x2="0.483" y2="0.481" gradientUnits="objectBoundingBox">
      <stop offset="0" stop-color="#fff"/>
      <stop offset="1" stop-color="#0096d0"/>
    </linearGradient>
    <linearGradient id="linear-gradient-4" x1="0.5" y1="0.008" x2="0.5" y2="0.881" xlink:href="#linear-gradient-3"/>
  </defs>
  <g id="Grupo_131735" data-name="Grupo 131735" transform="translate(-7.542 -9.733)">
    <g id="Grupo_131715" data-name="Grupo 131715" transform="translate(7.542 9.733)">
      <path id="Rectángulo_40453" data-name="Rectángulo 40453" d="M14.082,0H26.761A14.083,14.083,0,0,1,40.844,14.083V137.548a14.083,14.083,0,0,1-14.083,14.083H14.083A14.083,14.083,0,0,1,0,137.548V14.082A14.082,14.082,0,0,1,14.082,0Z" transform="translate(0.189 0.19)" fill="#e7e7e7"/>
      <path id="Trazado_191277" data-name="Trazado 191277" d="M37.23,161.743H19.075A11.546,11.546,0,0,1,7.542,150.21V21.268A11.547,11.547,0,0,1,19.075,9.733H37.23A11.547,11.547,0,0,1,48.764,21.268V150.21A11.546,11.546,0,0,1,37.23,161.743ZM19.075,10.112A11.168,11.168,0,0,0,7.92,21.268V150.21a11.168,11.168,0,0,0,11.155,11.156H37.23A11.169,11.169,0,0,0,48.386,150.21V21.268A11.169,11.169,0,0,0,37.23,10.112Z" transform="translate(-7.542 -9.733)" fill="#d0d0d0"/>
    </g>
    <path id="Trazado_191278" data-name="Trazado 191278" d="M46.715,149.331c0,6.115-4.546,11.075-10.153,11.075H20.314c-5.608,0-10.154-4.96-10.154-11.075V23.455c0-6.117,4.547-11.075,10.154-11.075H36.562c5.607,0,10.153,4.958,10.153,11.075Z" transform="translate(-0.509 -0.515)" fill="#fff"/>
    <g id="Grupo_131719" data-name="Grupo 131719" transform="translate(12.564 17.783)">
      <g id="Grupo_131716" data-name="Grupo 131716">
        <path id="Trazado_191279" data-name="Trazado 191279" d="M38.108,131.457V28.658a8.7,8.7,0,1,0-17.395,0v102.8a15.4,15.4,0,1,0,17.395,0Z" transform="translate(-13.822 -19.771)" fill="#fff"/>
        <path id="Trazado_191280" data-name="Trazado 191280" d="M29.365,159.707a15.587,15.587,0,0,1-8.886-28.395V28.612a8.887,8.887,0,0,1,17.773,0v102.7a15.588,15.588,0,0,1-8.887,28.395Zm0-139.6a8.519,8.519,0,0,0-8.508,8.509v102.8a.194.194,0,0,1-.081.158,15.21,15.21,0,1,0,17.18,0,.2.2,0,0,1-.082-.158V28.612A8.519,8.519,0,0,0,29.365,20.1Z" transform="translate(-13.776 -19.726)" fill="#d0d0d0"/>
      </g>
      <g id="Grupo_131717" data-name="Grupo 131717" transform="translate(2.194 1.899)">
        <path id="Trazado_191281" data-name="Trazado 191281" d="M36.475,133.15V30.864c0-7.108-2.409-8.547-6.535-8.547-3.61,0-6.534,1.692-6.534,8.131v102.7a13.205,13.205,0,1,0,13.069,0Z" transform="translate(-16.546 -22.128)" fill="#e7e7e7"/>
        <path id="Trazado_191282" data-name="Trazado 191282" d="M29.894,157.972A13.393,13.393,0,0,1,23.17,133V30.4c0-5.6,2.2-8.32,6.724-8.32,4.151,0,6.725,1.462,6.725,8.736V133a13.393,13.393,0,0,1-6.725,24.976Zm0-135.512c-4.329,0-6.345,2.524-6.345,7.942V133.215l-.1.055a13.015,13.015,0,1,0,12.882,0l-.1-.055V30.819C36.24,23.828,33.913,22.461,29.894,22.461Z" transform="translate(-16.5 -22.083)" fill="#fff"/>
      </g>
      <g id="Grupo_131718" data-name="Grupo 131718" transform="translate(3.433 9.945)">
        <path id="Trazado_191283" data-name="Trazado 191283" d="M36.161,135.984V32.405l-11.844-.1V135.984a11.966,11.966,0,1,0,11.844,0Z" transform="translate(-18.084 -32.117)" fill="url(#linear-gradient)"/>
        <path id="Trazado_191284" data-name="Trazado 191284" d="M30.193,158.489a12.154,12.154,0,0,1-6.111-22.661V32.071l12.222.1V135.827a12.154,12.154,0,0,1-6.111,22.661ZM24.461,32.453V136.046l-.1.055a11.777,11.777,0,1,0,11.656,0l-.1-.055V32.546Z" transform="translate(-18.038 -32.071)" fill="#777776"/>
      </g>
      <path id="Trazado_191285" data-name="Trazado 191285" d="M36.161,135.984V32.405l-11.844-.1V135.984a11.966,11.966,0,1,0,11.844,0Z" transform="translate(-14.65 -22.172)" fill="url(#linear-gradient-2)"/>
      <path id="Trazado_191286" data-name="Trazado 191286" d="M41.284,175.758c-1.665,3.884-4.667,6.776-8.972,7.465a11.7,11.7,0,0,1-11.178-4.114,12.154,12.154,0,0,1-2.411-5.581,8.841,8.841,0,0,1-.071-3.31,11.965,11.965,0,1,0,23.554,2.975c0-.081-.006-.157-.008-.238A15.952,15.952,0,0,1,41.284,175.758Z" transform="translate(-14.65 -48.987)" fill="#58a6ba" opacity="0.5" style="mix-blend-mode: multiply;isolation: isolate"/>
      <path id="Trazado_191287" data-name="Trazado 191287" d="M30.114,162.413s-5.608-.114-7.279,6.9c0,0-.094,2.213,1.04,1.911s1.324-3.517,5.1-4.841,5.566-1.073,5.2-2.741C33.895,162.353,30.114,162.413,30.114,162.413Z" transform="translate(-15.537 -47.469)" opacity="0.7" fill="url(#linear-gradient-3)" style="mix-blend-mode: screen;isolation: isolate"/>
      <path id="Trazado_191288" data-name="Trazado 191288" d="M36.475,133.15V30.864c0-7.108-2.409-8.547-6.535-8.547-3.61,0-6.534,1.692-6.534,8.131v102.7a13.205,13.205,0,1,0,13.069,0ZM38.9,143.985c-1.191,5.464-15.929,8.189-18.245-.445C19.024,137.458,26,134.792,26,134.792S25.9,33.073,26,29.292s2.458-4.437,2.458-4.437.851-.9,3.215-.151,2.647,4.9,2.647,4.9V134.792C38.335,136.4,39.772,139.994,38.9,143.985Z" transform="translate(-14.351 -20.23)" fill="#a9aaaa" opacity="0.5" style="mix-blend-mode: multiply;isolation: isolate"/>
    </g>
    <g id="Grupo_131721" data-name="Grupo 131721" transform="translate(35.44 14.185)">
      <g id="Grupo_131720" data-name="Grupo 131720" transform="translate(1.699 0.563)">
        <path id="Trazado_191289" data-name="Trazado 191289" d="M48.837,19.9l1.756.531a3.236,3.236,0,0,1-.557,1.235,2.427,2.427,0,0,1-.946.748,3.543,3.543,0,0,1-1.436.252,4.163,4.163,0,0,1-1.729-.308A2.739,2.739,0,0,1,44.77,21.28a3.658,3.658,0,0,1-.488-1.982,3.363,3.363,0,0,1,.858-2.475,3.256,3.256,0,0,1,2.422-.865,3.294,3.294,0,0,1,1.928.5,2.918,2.918,0,0,1,1.042,1.523l-1.771.393a1.5,1.5,0,0,0-.194-.433,1.14,1.14,0,0,0-.412-.354,1.166,1.166,0,0,0-.545-.125,1.178,1.178,0,0,0-1.044.548,2.33,2.33,0,0,0-.275,1.278,2.421,2.421,0,0,0,.328,1.478,1.292,1.292,0,0,0,1.79.077A2,2,0,0,0,48.837,19.9Z" transform="translate(-44.282 -15.958)"/>
      </g>
      <path id="Trazado_191290" data-name="Trazado 191290" d="M43.1,17.12a.93.93,0,1,1,.931-.93A.931.931,0,0,1,43.1,17.12Zm0-1.537a.607.607,0,1,0,.607.607A.608.608,0,0,0,43.1,15.583Z" transform="translate(-42.173 -15.259)"/>
    </g>
    <path id="Trazado_191291" data-name="Trazado 191291" d="M31.631,133.469c0,.9-.389,1.631-.868,1.631h0c-.479,0-.868-.731-.868-1.631V32.551c0-.9.389-1.63.868-1.63h0c.479,0,.868.731.868,1.63Z" transform="translate(-4.346 -4.12)" opacity="0.7" fill="url(#linear-gradient-4)" style="mix-blend-mode: screen;isolation: isolate"/>
    <g id="Grupo_131734" data-name="Grupo 131734" transform="translate(34.704 27.102)">
      <g id="Grupo_131722" data-name="Grupo 131722" transform="translate(0 0.9)">
        <path id="Trazado_191292" data-name="Trazado 191292" d="M41.583,156.329h2.3a.428.428,0,0,1,0,.831h-2.3a.428.428,0,0,1,0-.831Z" transform="translate(-41.26 -56.505)" fill="#1d1d1b"/>
        <path id="Trazado_191293" data-name="Trazado 191293" d="M43.115,154.527h-1.5a.217.217,0,0,1,0-.425h1.5a.217.217,0,0,1,0,.425Z" transform="translate(-41.296 -56.072)" fill="#1d1d1b"/>
        <path id="Trazado_191294" data-name="Trazado 191294" d="M43.115,152.049h-1.5a.216.216,0,0,1,0-.425h1.5a.216.216,0,0,1,0,.425Z" transform="translate(-41.296 -55.59)" fill="#1d1d1b"/>
        <path id="Trazado_191295" data-name="Trazado 191295" d="M43.115,149.571h-1.5a.216.216,0,0,1,0-.425h1.5a.216.216,0,0,1,0,.425Z" transform="translate(-41.296 -55.108)" fill="#1d1d1b"/>
        <path id="Trazado_191296" data-name="Trazado 191296" d="M43.115,147.092h-1.5a.216.216,0,0,1,0-.425h1.5a.216.216,0,0,1,0,.425Z" transform="translate(-41.296 -54.626)" fill="#1d1d1b"/>
        <path id="Trazado_191297" data-name="Trazado 191297" d="M41.583,143.939h2.3a.427.427,0,0,1,0,.829h-2.3a.427.427,0,0,1,0-.829Z" transform="translate(-41.26 -54.096)" fill="#1d1d1b"/>
        <path id="Trazado_191298" data-name="Trazado 191298" d="M43.115,142.135h-1.5a.216.216,0,0,1,0-.425h1.5a.216.216,0,0,1,0,.425Z" transform="translate(-41.296 -53.662)" fill="#1d1d1b"/>
        <path id="Trazado_191299" data-name="Trazado 191299" d="M43.115,139.658h-1.5a.218.218,0,0,1,0-.427h1.5a.218.218,0,0,1,0,.427Z" transform="translate(-41.296 -53.18)" fill="#1d1d1b"/>
        <path id="Trazado_191300" data-name="Trazado 191300" d="M43.115,137.18h-1.5a.216.216,0,0,1,0-.425h1.5a.216.216,0,0,1,0,.425Z" transform="translate(-41.296 -52.699)" fill="#1d1d1b"/>
        <path id="Trazado_191301" data-name="Trazado 191301" d="M43.115,134.7h-1.5a.218.218,0,0,1,0-.427h1.5a.218.218,0,0,1,0,.427Z" transform="translate(-41.296 -52.217)" fill="#1d1d1b"/>
        <path id="Trazado_191302" data-name="Trazado 191302" d="M41.583,131.546h2.3a.428.428,0,0,1,0,.831h-2.3a.428.428,0,0,1,0-.831Z" transform="translate(-41.26 -51.686)" fill="#1d1d1b"/>
        <path id="Trazado_191303" data-name="Trazado 191303" d="M43.115,129.744h-1.5a.2.2,0,0,1-.175-.214.2.2,0,0,1,.175-.211h1.5a.2.2,0,0,1,.174.211A.2.2,0,0,1,43.115,129.744Z" transform="translate(-41.296 -51.253)" fill="#1d1d1b"/>
        <path id="Trazado_191304" data-name="Trazado 191304" d="M43.115,127.266h-1.5a.216.216,0,0,1,0-.425h1.5a.216.216,0,0,1,0,.425Z" transform="translate(-41.296 -50.771)" fill="#1d1d1b"/>
        <path id="Trazado_191305" data-name="Trazado 191305" d="M43.115,124.787h-1.5a.217.217,0,0,1,0-.425h1.5a.217.217,0,0,1,0,.425Z" transform="translate(-41.296 -50.289)" fill="#1d1d1b"/>
        <path id="Trazado_191306" data-name="Trazado 191306" d="M43.115,122.309h-1.5a.216.216,0,0,1,0-.425h1.5a.216.216,0,0,1,0,.425Z" transform="translate(-41.296 -49.807)" fill="#1d1d1b"/>
        <path id="Trazado_191307" data-name="Trazado 191307" d="M41.583,119.153h2.3a.429.429,0,0,1,0,.831h-2.3a.429.429,0,0,1,0-.831Z" transform="translate(-41.26 -49.277)" fill="#1d1d1b"/>
        <path id="Trazado_191308" data-name="Trazado 191308" d="M43.115,117.352h-1.5a.216.216,0,0,1,0-.425h1.5a.216.216,0,0,1,0,.425Z" transform="translate(-41.296 -48.844)" fill="#1d1d1b"/>
        <path id="Trazado_191309" data-name="Trazado 191309" d="M43.115,114.874h-1.5a.217.217,0,0,1,0-.426h1.5a.217.217,0,0,1,0,.426Z" transform="translate(-41.296 -48.362)" fill="#1d1d1b"/>
        <path id="Trazado_191310" data-name="Trazado 191310" d="M43.115,112.395h-1.5a.216.216,0,0,1,0-.425h1.5a.216.216,0,0,1,0,.425Z" transform="translate(-41.296 -47.88)" fill="#1d1d1b"/>
        <path id="Trazado_191311" data-name="Trazado 191311" d="M43.115,109.916h-1.5a.217.217,0,0,1,0-.425h1.5a.217.217,0,0,1,0,.425Z" transform="translate(-41.296 -47.398)" fill="#1d1d1b"/>
        <path id="Trazado_191312" data-name="Trazado 191312" d="M41.583,106.762h2.3a.428.428,0,0,1,0,.831h-2.3a.428.428,0,0,1,0-.831Z" transform="translate(-41.26 -46.867)" fill="#1d1d1b"/>
        <path id="Trazado_191313" data-name="Trazado 191313" d="M43.115,104.96h-1.5a.217.217,0,0,1,0-.426h1.5a.217.217,0,0,1,0,.426Z" transform="translate(-41.296 -46.434)" fill="#1d1d1b"/>
        <path id="Trazado_191314" data-name="Trazado 191314" d="M43.115,102.483h-1.5a.216.216,0,0,1,0-.425h1.5a.216.216,0,0,1,0,.425Z" transform="translate(-41.296 -45.953)" fill="#1d1d1b"/>
        <path id="Trazado_191315" data-name="Trazado 191315" d="M43.115,100h-1.5a.217.217,0,0,1,0-.426h1.5a.217.217,0,0,1,0,.426Z" transform="translate(-41.296 -45.47)" fill="#1d1d1b"/>
        <path id="Trazado_191316" data-name="Trazado 191316" d="M43.115,97.525h-1.5a.217.217,0,0,1,0-.426h1.5a.217.217,0,0,1,0,.426Z" transform="translate(-41.296 -44.988)" fill="#1d1d1b"/>
        <path id="Trazado_191317" data-name="Trazado 191317" d="M41.583,94.37h2.3a.428.428,0,0,1,0,.831h-2.3a.428.428,0,0,1,0-.831Z" transform="translate(-41.26 -44.458)" fill="#1d1d1b"/>
        <path id="Trazado_191318" data-name="Trazado 191318" d="M43.115,92.569h-1.5a.216.216,0,0,1,0-.425h1.5a.216.216,0,0,1,0,.425Z" transform="translate(-41.296 -44.025)" fill="#1d1d1b"/>
        <path id="Trazado_191319" data-name="Trazado 191319" d="M43.115,90.089h-1.5a.217.217,0,0,1,0-.425h1.5a.217.217,0,0,1,0,.425Z" transform="translate(-41.296 -43.543)" fill="#1d1d1b"/>
        <path id="Trazado_191320" data-name="Trazado 191320" d="M43.115,87.611h-1.5a.217.217,0,0,1,0-.425h1.5a.217.217,0,0,1,0,.425Z" transform="translate(-41.296 -43.061)" fill="#1d1d1b"/>
        <path id="Trazado_191321" data-name="Trazado 191321" d="M43.115,85.133h-1.5a.216.216,0,0,1,0-.425h1.5a.216.216,0,0,1,0,.425Z" transform="translate(-41.296 -42.579)" fill="#1d1d1b"/>
        <path id="Trazado_191322" data-name="Trazado 191322" d="M41.583,81.977h2.3a.429.429,0,0,1,0,.831h-2.3a.429.429,0,0,1,0-.831Z" transform="translate(-41.26 -42.048)" fill="#1d1d1b"/>
        <path id="Trazado_191323" data-name="Trazado 191323" d="M41.619,79.752h1.5a.216.216,0,0,1,0,.424h-1.5a.216.216,0,0,1,0-.424Z" transform="translate(-41.296 -41.616)" fill="#1d1d1b"/>
        <path id="Trazado_191324" data-name="Trazado 191324" d="M41.619,77.273h1.5a.216.216,0,0,1,0,.425h-1.5a.216.216,0,0,1,0-.425Z" transform="translate(-41.296 -41.134)" fill="#1d1d1b"/>
        <path id="Trazado_191325" data-name="Trazado 191325" d="M41.619,74.794h1.5a.216.216,0,0,1,0,.425h-1.5a.216.216,0,0,1,0-.425Z" transform="translate(-41.296 -40.652)" fill="#1d1d1b"/>
        <path id="Trazado_191326" data-name="Trazado 191326" d="M41.619,72.315h1.5a.2.2,0,0,1,.174.213.2.2,0,0,1-.174.212h-1.5a.2.2,0,0,1-.175-.212A.2.2,0,0,1,41.619,72.315Z" transform="translate(-41.296 -40.17)" fill="#1d1d1b"/>
        <path id="Trazado_191327" data-name="Trazado 191327" d="M43.115,67.784h-1.5a.216.216,0,0,1,0-.424h1.5a.216.216,0,0,1,0,.424Z" transform="translate(-41.296 -39.206)" fill="#1d1d1b"/>
        <path id="Trazado_191328" data-name="Trazado 191328" d="M43.115,65.307h-1.5a.216.216,0,0,1,0-.425h1.5a.216.216,0,0,1,0,.425Z" transform="translate(-41.296 -38.724)" fill="#1d1d1b"/>
        <path id="Trazado_191329" data-name="Trazado 191329" d="M43.115,62.828h-1.5a.2.2,0,0,1-.175-.213.2.2,0,0,1,.175-.212h1.5a.2.2,0,0,1,.174.212A.2.2,0,0,1,43.115,62.828Z" transform="translate(-41.296 -38.242)" fill="#1d1d1b"/>
        <path id="Trazado_191330" data-name="Trazado 191330" d="M43.115,60.35h-1.5a.216.216,0,0,1,0-.425h1.5a.216.216,0,0,1,0,.425Z" transform="translate(-41.296 -37.761)" fill="#1d1d1b"/>
        <path id="Trazado_191331" data-name="Trazado 191331" d="M41.583,57.194h2.3a.429.429,0,0,1,0,.831h-2.3a.429.429,0,0,1,0-.831Z" transform="translate(-41.26 -37.23)" fill="#1d1d1b"/>
        <path id="Trazado_191332" data-name="Trazado 191332" d="M41.583,69.585h2.3a.428.428,0,0,1,0,.831h-2.3a.428.428,0,0,1,0-.831Z" transform="translate(-41.26 -39.639)" fill="#1d1d1b"/>
        <path id="Trazado_191333" data-name="Trazado 191333" d="M43.115,55.392h-1.5a.217.217,0,0,1,0-.425h1.5a.217.217,0,0,1,0,.425Z" transform="translate(-41.296 -36.797)" fill="#1d1d1b"/>
        <path id="Trazado_191334" data-name="Trazado 191334" d="M43.115,52.915h-1.5a.217.217,0,0,1,0-.426h1.5a.217.217,0,0,1,0,.426Z" transform="translate(-41.296 -36.315)" fill="#1d1d1b"/>
        <path id="Trazado_191335" data-name="Trazado 191335" d="M43.115,50.436h-1.5a.216.216,0,0,1,0-.425h1.5a.216.216,0,0,1,0,.425Z" transform="translate(-41.296 -35.833)" fill="#1d1d1b"/>
        <path id="Trazado_191336" data-name="Trazado 191336" d="M43.115,47.957h-1.5a.217.217,0,0,1,0-.425h1.5a.217.217,0,0,1,0,.425Z" transform="translate(-41.296 -35.351)" fill="#1d1d1b"/>
        <path id="Trazado_191337" data-name="Trazado 191337" d="M43.115,40.523h-1.5a.217.217,0,0,1,0-.426h1.5a.217.217,0,0,1,0,.426Z" transform="translate(-41.296 -33.905)" fill="#1d1d1b"/>
        <path id="Trazado_191338" data-name="Trazado 191338" d="M43.115,35.565h-1.5a.216.216,0,0,1,0-.425h1.5a.216.216,0,0,1,0,.425Z" transform="translate(-41.296 -32.942)" fill="#1d1d1b"/>
        <path id="Trazado_191339" data-name="Trazado 191339" d="M41.583,44.8h2.3a.428.428,0,0,1,0,.831h-2.3a.428.428,0,0,1,0-.831Z" transform="translate(-41.26 -34.82)" fill="#1d1d1b"/>
        <path id="Trazado_191340" data-name="Trazado 191340" d="M41.583,32.411h2.3a.428.428,0,0,1,0,.83h-2.3a.428.428,0,0,1,0-.83Z" transform="translate(-41.26 -32.411)" fill="#1d1d1b"/>
        <path id="Trazado_191341" data-name="Trazado 191341" d="M43.115,43h-1.5a.216.216,0,0,1,0-.425h1.5a.216.216,0,0,1,0,.425Z" transform="translate(-41.296 -34.387)" fill="#1d1d1b"/>
        <path id="Trazado_191342" data-name="Trazado 191342" d="M43.115,38.045h-1.5a.218.218,0,0,1,0-.427h1.5a.218.218,0,0,1,0,.427Z" transform="translate(-41.296 -33.423)" fill="#1d1d1b"/>
      </g>
      <g id="Grupo_131723" data-name="Grupo 131723" transform="translate(6.048 98.964)">
        <path id="Trazado_191343" data-name="Trazado 191343" d="M49.8,154.144a.808.808,0,0,1,.493.146,1.06,1.06,0,0,1,.319.379,1.862,1.862,0,0,1,.172.535,3.65,3.65,0,0,1,0,1.213,1.824,1.824,0,0,1-.172.532,1.06,1.06,0,0,1-.319.379.939.939,0,0,1-.99,0,1.062,1.062,0,0,1-.32-.379,1.776,1.776,0,0,1-.169-.532,3.831,3.831,0,0,1,0-1.213,1.812,1.812,0,0,1,.169-.535,1.062,1.062,0,0,1,.32-.379A.815.815,0,0,1,49.8,154.144Zm0,.271a.492.492,0,0,0-.35.131.9.9,0,0,0-.22.332,1.8,1.8,0,0,0-.112.448,3.865,3.865,0,0,0-.031.485,3.811,3.811,0,0,0,.031.483,1.789,1.789,0,0,0,.112.445.9.9,0,0,0,.22.326.538.538,0,0,0,.7,0,.886.886,0,0,0,.219-.326,1.861,1.861,0,0,0,.114-.445,3.422,3.422,0,0,0,.035-.483,3.47,3.47,0,0,0-.035-.485,1.869,1.869,0,0,0-.114-.448.889.889,0,0,0-.219-.332A.487.487,0,0,0,49.8,154.415Z" transform="translate(-48.768 -154.144)"/>
      </g>
      <g id="Grupo_131724" data-name="Grupo 131724" transform="translate(5.55 89.067)">
        <path id="Trazado_191344" data-name="Trazado 191344" d="M48.948,144.249h-.235v-2.025l-.419.355-.143-.164.588-.483h.209Z" transform="translate(-48.15 -141.873)"/>
        <path id="Trazado_191345" data-name="Trazado 191345" d="M50.832,141.858a.6.6,0,0,1,.361.107.778.778,0,0,1,.234.279,1.351,1.351,0,0,1,.125.39,2.63,2.63,0,0,1,0,.889,1.373,1.373,0,0,1-.125.388.759.759,0,0,1-.234.277.674.674,0,0,1-.724,0,.751.751,0,0,1-.234-.277,1.3,1.3,0,0,1-.125-.388,2.789,2.789,0,0,1-.036-.444,2.817,2.817,0,0,1,.036-.445,1.281,1.281,0,0,1,.125-.39.77.77,0,0,1,.234-.279A.6.6,0,0,1,50.832,141.858Zm0,.2a.362.362,0,0,0-.256.1.68.68,0,0,0-.161.242,1.333,1.333,0,0,0-.082.329,2.994,2.994,0,0,0-.023.355,2.9,2.9,0,0,0,.023.352,1.273,1.273,0,0,0,.082.326.649.649,0,0,0,.161.239.361.361,0,0,0,.256.093.355.355,0,0,0,.252-.093.631.631,0,0,0,.161-.239,1.341,1.341,0,0,0,.084-.326,2.614,2.614,0,0,0,.025-.352,2.7,2.7,0,0,0-.025-.355,1.408,1.408,0,0,0-.084-.329.66.66,0,0,0-.161-.242A.357.357,0,0,0,50.832,142.058Z" transform="translate(-48.524 -141.858)"/>
      </g>
      <g id="Grupo_131725" data-name="Grupo 131725" transform="translate(5.446 79.17)">
        <path id="Trazado_191346" data-name="Trazado 191346" d="M49.5,131.949h-1.48V131.7l.949-.959c.035-.035.069-.072.1-.113a1.036,1.036,0,0,0,.09-.126.661.661,0,0,0,.062-.138.523.523,0,0,0,.023-.153.45.45,0,0,0-.037-.184.4.4,0,0,0-.1-.139.471.471,0,0,0-.147-.089.512.512,0,0,0-.175-.031.449.449,0,0,0-.314.117.526.526,0,0,0-.164.3l-.233-.046a.694.694,0,0,1,.243-.406.738.738,0,0,1,.467-.16.884.884,0,0,1,.267.041.662.662,0,0,1,.22.121.606.606,0,0,1,.151.2.64.64,0,0,1,.056.277.708.708,0,0,1-.031.206.931.931,0,0,1-.083.18.985.985,0,0,1-.119.162c-.046.052-.093.1-.143.152l-.835.828H49.5Z" transform="translate(-48.021 -129.573)"/>
        <path id="Trazado_191347" data-name="Trazado 191347" d="M50.96,129.573a.6.6,0,0,1,.361.107.768.768,0,0,1,.233.279,1.335,1.335,0,0,1,.126.39,2.63,2.63,0,0,1,0,.889,1.34,1.34,0,0,1-.126.388.749.749,0,0,1-.233.277.607.607,0,0,1-.361.106.616.616,0,0,1-.365-.106.766.766,0,0,1-.234-.277,1.315,1.315,0,0,1-.123-.388,2.745,2.745,0,0,1,0-.889,1.31,1.31,0,0,1,.123-.39.786.786,0,0,1,.234-.279A.606.606,0,0,1,50.96,129.573Zm0,.2a.356.356,0,0,0-.256.1.653.653,0,0,0-.161.242,1.271,1.271,0,0,0-.081.327,2.714,2.714,0,0,0-.023.356,2.661,2.661,0,0,0,.023.354,1.253,1.253,0,0,0,.081.325.631.631,0,0,0,.161.238.359.359,0,0,0,.256.1.353.353,0,0,0,.252-.1.63.63,0,0,0,.161-.238,1.357,1.357,0,0,0,.084-.325,2.665,2.665,0,0,0,.025-.354,2.721,2.721,0,0,0-.025-.356,1.377,1.377,0,0,0-.084-.327.653.653,0,0,0-.161-.242A.35.35,0,0,0,50.96,129.773Z" transform="translate(-48.445 -129.573)"/>
      </g>
      <g id="Grupo_131726" data-name="Grupo 131726" transform="translate(5.443 69.274)">
        <path id="Trazado_191348" data-name="Trazado 191348" d="M48.558,118.348h.1a.872.872,0,0,0,.209-.023.478.478,0,0,0,.172-.073.369.369,0,0,0,.117-.132.426.426,0,0,0,.042-.2.434.434,0,0,0-.035-.18.415.415,0,0,0-.1-.136.471.471,0,0,0-.147-.089.509.509,0,0,0-.175-.031.491.491,0,0,0-.26.069.5.5,0,0,0-.182.2l-.2-.106a.721.721,0,0,1,.275-.277.79.79,0,0,1,.379-.089.838.838,0,0,1,.26.041.69.69,0,0,1,.217.119.567.567,0,0,1,.149.195.611.611,0,0,1,.055.267.524.524,0,0,1-.114.346.54.54,0,0,1-.288.184v.006a.6.6,0,0,1,.333.192.555.555,0,0,1,.133.383.7.7,0,0,1-.061.3.675.675,0,0,1-.162.218.7.7,0,0,1-.238.137.863.863,0,0,1-.286.048.784.784,0,0,1-.445-.124.748.748,0,0,1-.288-.35l.222-.082a.505.505,0,0,0,.2.259.536.536,0,0,0,.314.1.575.575,0,0,0,.191-.035.514.514,0,0,0,.164-.1.474.474,0,0,0,.114-.156.488.488,0,0,0,.043-.209.442.442,0,0,0-.051-.22.413.413,0,0,0-.136-.145.545.545,0,0,0-.193-.08.92.92,0,0,0-.222-.026h-.1Z" transform="translate(-48.017 -117.288)"/>
        <path id="Trazado_191349" data-name="Trazado 191349" d="M50.963,117.288a.6.6,0,0,1,.362.107.776.776,0,0,1,.233.277,1.322,1.322,0,0,1,.126.392,2.724,2.724,0,0,1,.037.445,2.681,2.681,0,0,1-.037.443,1.33,1.33,0,0,1-.126.389.755.755,0,0,1-.233.277.606.606,0,0,1-.362.1.614.614,0,0,1-.364-.1.779.779,0,0,1-.233-.277,1.3,1.3,0,0,1-.124-.389,2.771,2.771,0,0,1-.036-.443,2.817,2.817,0,0,1,.036-.445,1.3,1.3,0,0,1,.124-.392.8.8,0,0,1,.233-.277A.6.6,0,0,1,50.963,117.288Zm0,.2a.363.363,0,0,0-.255.094.661.661,0,0,0-.16.242,1.336,1.336,0,0,0-.083.329,3,3,0,0,0-.023.356,2.958,2.958,0,0,0,.023.354,1.3,1.3,0,0,0,.083.325.623.623,0,0,0,.16.238.388.388,0,0,0,.509,0,.642.642,0,0,0,.16-.238,1.375,1.375,0,0,0,.084-.325,2.665,2.665,0,0,0,.025-.354,2.7,2.7,0,0,0-.025-.356,1.412,1.412,0,0,0-.084-.329.682.682,0,0,0-.16-.242A.361.361,0,0,0,50.963,117.488Z" transform="translate(-48.443 -117.288)"/>
      </g>
      <g id="Grupo_131727" data-name="Grupo 131727" transform="translate(5.432 59.378)">
        <path id="Trazado_191350" data-name="Trazado 191350" d="M49.293,106.625h.339v.209h-.339v.558h-.23v-.558H48v-.23l.982-1.528h.308Zm-.23-1.283h-.006l-.808,1.283h.814Z" transform="translate(-48.003 -105.018)"/>
        <path id="Trazado_191351" data-name="Trazado 191351" d="M50.978,105a.6.6,0,0,1,.361.106.782.782,0,0,1,.234.278,1.341,1.341,0,0,1,.126.391,2.646,2.646,0,0,1,.038.445,2.6,2.6,0,0,1-.038.443,1.351,1.351,0,0,1-.126.39.769.769,0,0,1-.234.276.605.605,0,0,1-.361.1.612.612,0,0,1-.364-.1.769.769,0,0,1-.234-.276,1.325,1.325,0,0,1-.123-.39,2.6,2.6,0,0,1-.036-.443,2.645,2.645,0,0,1,.036-.445,1.316,1.316,0,0,1,.123-.391.782.782,0,0,1,.234-.278A.6.6,0,0,1,50.978,105Zm0,.2a.361.361,0,0,0-.256.1.645.645,0,0,0-.16.242,1.32,1.32,0,0,0-.082.328,2.827,2.827,0,0,0-.023.355,2.782,2.782,0,0,0,.023.354,1.31,1.31,0,0,0,.082.325.648.648,0,0,0,.16.238.366.366,0,0,0,.256.093.36.36,0,0,0,.253-.093.638.638,0,0,0,.16-.238,1.31,1.31,0,0,0,.084-.325,2.519,2.519,0,0,0,.025-.354,2.559,2.559,0,0,0-.025-.355,1.32,1.32,0,0,0-.084-.328.635.635,0,0,0-.16-.242A.356.356,0,0,0,50.978,105.2Z" transform="translate(-48.434 -105.004)"/>
      </g>
      <g id="Grupo_131728" data-name="Grupo 131728" transform="translate(5.454 49.483)">
        <path id="Trazado_191352" data-name="Trazado 191352" d="M49.4,93h-.965l-.016.717a.766.766,0,0,1,.158-.039.933.933,0,0,1,.161-.014.82.82,0,0,1,.3.052.7.7,0,0,1,.238.148.68.68,0,0,1,.157.231.774.774,0,0,1,.055.294.869.869,0,0,1-.055.31.7.7,0,0,1-.4.407.8.8,0,0,1-.312.059.73.73,0,0,1-.694-.421l.213-.1a.523.523,0,0,0,.189.23.49.49,0,0,0,.28.085.578.578,0,0,0,.218-.04.514.514,0,0,0,.284-.29.58.58,0,0,0,.042-.219.589.589,0,0,0-.044-.231.513.513,0,0,0-.3-.286.638.638,0,0,0-.229-.039.894.894,0,0,0-.247.035,1.257,1.257,0,0,0-.234.093l.023-1.194H49.4Z" transform="translate(-48.031 -92.734)"/>
        <path id="Trazado_191353" data-name="Trazado 191353" d="M50.95,92.72a.592.592,0,0,1,.36.106.774.774,0,0,1,.234.278,1.362,1.362,0,0,1,.126.392,2.553,2.553,0,0,1,.037.444,2.527,2.527,0,0,1-.037.444,1.356,1.356,0,0,1-.126.391.756.756,0,0,1-.234.275.592.592,0,0,1-.36.106.6.6,0,0,1-.364-.106.764.764,0,0,1-.234-.275,1.332,1.332,0,0,1-.125-.391,2.781,2.781,0,0,1-.035-.444,2.811,2.811,0,0,1,.035-.444,1.337,1.337,0,0,1,.125-.392.782.782,0,0,1,.234-.278A.6.6,0,0,1,50.95,92.72Zm0,.2a.364.364,0,0,0-.257.1.671.671,0,0,0-.16.242,1.318,1.318,0,0,0-.082.329,2.695,2.695,0,0,0,0,.708,1.31,1.31,0,0,0,.082.325.672.672,0,0,0,.16.239.373.373,0,0,0,.257.093.362.362,0,0,0,.252-.093.642.642,0,0,0,.16-.239,1.31,1.31,0,0,0,.085-.325,2.606,2.606,0,0,0,0-.708,1.317,1.317,0,0,0-.085-.329.642.642,0,0,0-.16-.242A.353.353,0,0,0,50.95,92.919Z" transform="translate(-48.451 -92.72)"/>
      </g>
      <g id="Grupo_131729" data-name="Grupo 131729" transform="translate(5.461 39.586)">
        <path id="Trazado_191354" data-name="Trazado 191354" d="M48.5,81.519l.006.006a.414.414,0,0,1,.147-.062.828.828,0,0,1,.183-.023.718.718,0,0,1,.28.053.688.688,0,0,1,.224.145.668.668,0,0,1,.149.226.76.76,0,0,1,.054.289.775.775,0,0,1-.056.3.642.642,0,0,1-.157.228.749.749,0,0,1-.238.15.88.88,0,0,1-.6,0,.74.74,0,0,1-.238-.15.644.644,0,0,1-.158-.228.79.79,0,0,1-.056-.3.875.875,0,0,1,.063-.334,2.142,2.142,0,0,1,.147-.295l.631-1.017h.272Zm-.226.634a.568.568,0,0,0,.038.21.484.484,0,0,0,.106.168.531.531,0,0,0,.746,0,.494.494,0,0,0,.106-.168.552.552,0,0,0,.038-.21.575.575,0,0,0-.035-.206.486.486,0,0,0-.1-.168.466.466,0,0,0-.164-.109.6.6,0,0,0-.428,0,.457.457,0,0,0-.267.277A.575.575,0,0,0,48.275,82.153Z" transform="translate(-48.039 -80.449)"/>
        <path id="Trazado_191355" data-name="Trazado 191355" d="M50.942,80.435a.592.592,0,0,1,.36.106.775.775,0,0,1,.234.278,1.322,1.322,0,0,1,.126.392,2.677,2.677,0,0,1,0,.888,1.314,1.314,0,0,1-.126.389.772.772,0,0,1-.234.277.683.683,0,0,1-.724,0,.772.772,0,0,1-.234-.277,1.29,1.29,0,0,1-.124-.389,2.8,2.8,0,0,1,0-.888,1.3,1.3,0,0,1,.124-.392.775.775,0,0,1,.234-.278A.6.6,0,0,1,50.942,80.435Zm0,.2a.362.362,0,0,0-.256.1.658.658,0,0,0-.16.242,1.317,1.317,0,0,0-.083.329,2.823,2.823,0,0,0-.023.355,2.786,2.786,0,0,0,.023.353,1.292,1.292,0,0,0,.083.325.638.638,0,0,0,.16.239.4.4,0,0,0,.509,0,.648.648,0,0,0,.16-.239,1.292,1.292,0,0,0,.083-.325,2.528,2.528,0,0,0,.026-.353,2.562,2.562,0,0,0-.026-.355,1.318,1.318,0,0,0-.083-.329.668.668,0,0,0-.16-.242A.361.361,0,0,0,50.942,80.634Z" transform="translate(-48.456 -80.435)"/>
      </g>
      <g id="Grupo_131730" data-name="Grupo 131730" transform="translate(5.491 29.689)">
        <path id="Trazado_191356" data-name="Trazado 191356" d="M49.45,68.439l-.933,2.1h-.265l.959-2.107H48.076v-.209H49.45Z" transform="translate(-48.076 -68.163)"/>
        <path id="Trazado_191357" data-name="Trazado 191357" d="M50.905,68.149a.588.588,0,0,1,.361.107.768.768,0,0,1,.233.279,1.336,1.336,0,0,1,.126.39,2.687,2.687,0,0,1,0,.889,1.349,1.349,0,0,1-.126.388.756.756,0,0,1-.233.277.6.6,0,0,1-.361.1.6.6,0,0,1-.364-.1.755.755,0,0,1-.233-.277,1.324,1.324,0,0,1-.125-.388,2.807,2.807,0,0,1,0-.889,1.311,1.311,0,0,1,.125-.39.768.768,0,0,1,.233-.279A.6.6,0,0,1,50.905,68.149Zm0,.2a.36.36,0,0,0-.256.094.68.68,0,0,0-.161.242,1.314,1.314,0,0,0-.081.33,2.694,2.694,0,0,0,0,.708,1.259,1.259,0,0,0,.081.325.653.653,0,0,0,.161.238.363.363,0,0,0,.256.093.355.355,0,0,0,.252-.093.655.655,0,0,0,.162-.238,1.364,1.364,0,0,0,.083-.325,2.606,2.606,0,0,0,0-.708,1.426,1.426,0,0,0-.083-.33.682.682,0,0,0-.162-.242A.353.353,0,0,0,50.905,68.35Z" transform="translate(-48.479 -68.149)"/>
      </g>
      <g id="Grupo_131731" data-name="Grupo 131731" transform="translate(5.466 19.793)">
        <path id="Trazado_191358" data-name="Trazado 191358" d="M49.093,57.013a.6.6,0,0,1,.313.22.637.637,0,0,1,.125.4.616.616,0,0,1-.061.276.629.629,0,0,1-.162.209.714.714,0,0,1-.238.134.85.85,0,0,1-.282.048.863.863,0,0,1-.284-.048.718.718,0,0,1-.237-.134.652.652,0,0,1-.163-.209.616.616,0,0,1-.06-.276.716.716,0,0,1,.033-.217.647.647,0,0,1,.092-.18.6.6,0,0,1,.139-.136.675.675,0,0,1,.175-.085v-.006a.438.438,0,0,1-.143-.077.477.477,0,0,1-.11-.121.6.6,0,0,1-.072-.153.567.567,0,0,1-.027-.172.593.593,0,0,1,.194-.45.7.7,0,0,1,.208-.124.729.729,0,0,1,.253-.044.721.721,0,0,1,.25.044.656.656,0,0,1,.209.124.592.592,0,0,1,.143.195.613.613,0,0,1,.052.255.543.543,0,0,1-.027.172.6.6,0,0,1-.072.153.5.5,0,0,1-.11.121.431.431,0,0,1-.141.077Zm-.812.592a.532.532,0,0,0,.036.2.434.434,0,0,0,.1.157.486.486,0,0,0,.16.1.589.589,0,0,0,.416,0,.494.494,0,0,0,.16-.1.456.456,0,0,0,.1-.157.55.55,0,0,0,.036-.2.515.515,0,0,0-.036-.193A.45.45,0,0,0,49,57.158a.614.614,0,0,0-.416,0,.445.445,0,0,0-.16.1.428.428,0,0,0-.1.154A.5.5,0,0,0,48.281,57.6Zm.081-1.109a.4.4,0,0,0,.034.168.381.381,0,0,0,.091.131.426.426,0,0,0,.136.086.45.45,0,0,0,.33,0,.454.454,0,0,0,.136-.086.4.4,0,0,0,.124-.3.437.437,0,0,0-.033-.172.394.394,0,0,0-.09-.137.426.426,0,0,0-.134-.09.429.429,0,0,0-.471.09.392.392,0,0,0-.089.137A.438.438,0,0,0,48.362,56.5Z" transform="translate(-48.045 -55.864)"/>
        <path id="Trazado_191359" data-name="Trazado 191359" d="M50.935,55.864a.588.588,0,0,1,.361.107.774.774,0,0,1,.234.278,1.309,1.309,0,0,1,.126.391,2.63,2.63,0,0,1,0,.889,1.332,1.332,0,0,1-.126.388.757.757,0,0,1-.234.277.6.6,0,0,1-.361.1.614.614,0,0,1-.364-.1.763.763,0,0,1-.233-.277,1.307,1.307,0,0,1-.124-.388,2.745,2.745,0,0,1,0-.889,1.286,1.286,0,0,1,.124-.391.78.78,0,0,1,.233-.278A.6.6,0,0,1,50.935,55.864Zm0,.2a.36.36,0,0,0-.255.094.661.661,0,0,0-.16.242,1.3,1.3,0,0,0-.083.329,2.974,2.974,0,0,0-.023.355,2.921,2.921,0,0,0,.023.352,1.263,1.263,0,0,0,.083.327.639.639,0,0,0,.16.238.393.393,0,0,0,.509,0,.668.668,0,0,0,.16-.238,1.331,1.331,0,0,0,.083-.327,2.505,2.505,0,0,0,.025-.352,2.551,2.551,0,0,0-.025-.355,1.37,1.37,0,0,0-.083-.329.693.693,0,0,0-.16-.242A.361.361,0,0,0,50.935,56.064Z" transform="translate(-48.46 -55.864)"/>
      </g>
      <g id="Grupo_131732" data-name="Grupo 131732" transform="translate(5.465 9.896)">
        <path id="Trazado_191360" data-name="Trazado 191360" d="M49.087,44.944l-.006-.006a.409.409,0,0,1-.147.063.826.826,0,0,1-.184.022.748.748,0,0,1-.28-.052.69.69,0,0,1-.224-.146A.676.676,0,0,1,48.1,44.6a.774.774,0,0,1-.053-.29.759.759,0,0,1,.056-.3.634.634,0,0,1,.157-.23.749.749,0,0,1,.239-.15.838.838,0,0,1,.3-.053.848.848,0,0,1,.3.053.776.776,0,0,1,.239.15.652.652,0,0,1,.156.23.774.774,0,0,1,.056.3.884.884,0,0,1-.062.333,2.1,2.1,0,0,1-.147.295l-.632,1.017h-.271Zm.226-.635a.577.577,0,0,0-.037-.209.461.461,0,0,0-.107-.168.481.481,0,0,0-.163-.112.525.525,0,0,0-.209-.041.52.52,0,0,0-.209.041.477.477,0,0,0-.164.112.459.459,0,0,0-.106.168.578.578,0,0,0-.038.209.587.587,0,0,0,.036.208.466.466,0,0,0,.1.167.446.446,0,0,0,.164.11.567.567,0,0,0,.214.039.573.573,0,0,0,.214-.039.453.453,0,0,0,.164-.11.476.476,0,0,0,.1-.167A.57.57,0,0,0,49.313,44.309Z" transform="translate(-48.044 -43.579)"/>
        <path id="Trazado_191361" data-name="Trazado 191361" d="M50.937,43.579a.6.6,0,0,1,.361.106.783.783,0,0,1,.234.279,1.333,1.333,0,0,1,.126.391,2.639,2.639,0,0,1,.038.445,2.6,2.6,0,0,1-.038.442,1.351,1.351,0,0,1-.126.39.764.764,0,0,1-.234.277.605.605,0,0,1-.361.1.612.612,0,0,1-.364-.1.77.77,0,0,1-.233-.277,1.3,1.3,0,0,1-.124-.39,2.685,2.685,0,0,1-.035-.442,2.725,2.725,0,0,1,.035-.445,1.286,1.286,0,0,1,.124-.391.789.789,0,0,1,.233-.279A.6.6,0,0,1,50.937,43.579Zm0,.2a.36.36,0,0,0-.255.094.666.666,0,0,0-.161.242,1.336,1.336,0,0,0-.082.329,2.837,2.837,0,0,0-.023.356,2.774,2.774,0,0,0,.023.352,1.275,1.275,0,0,0,.082.325.634.634,0,0,0,.161.239.392.392,0,0,0,.508,0,.634.634,0,0,0,.161-.239,1.274,1.274,0,0,0,.083-.325,2.517,2.517,0,0,0,.026-.352,2.573,2.573,0,0,0-.026-.356,1.336,1.336,0,0,0-.083-.329.666.666,0,0,0-.161-.242A.358.358,0,0,0,50.937,43.779Z" transform="translate(-48.46 -43.579)"/>
      </g>
      <g id="Grupo_131733" data-name="Grupo 131733" transform="translate(4.682 0)">
        <path id="Trazado_191362" data-name="Trazado 191362" d="M47.871,33.684h-.236V31.659l-.419.357-.144-.164.59-.483h.209Z" transform="translate(-47.072 -31.308)"/>
        <path id="Trazado_191363" data-name="Trazado 191363" d="M49.756,31.294a.6.6,0,0,1,.361.106.791.791,0,0,1,.233.277,1.359,1.359,0,0,1,.126.392,2.639,2.639,0,0,1,.038.445,2.594,2.594,0,0,1-.038.442,1.351,1.351,0,0,1-.126.39.761.761,0,0,1-.233.276.6.6,0,0,1-.361.1.609.609,0,0,1-.365-.1.771.771,0,0,1-.234-.276,1.325,1.325,0,0,1-.123-.39A2.769,2.769,0,0,1,49,32.515a2.817,2.817,0,0,1,.036-.445,1.334,1.334,0,0,1,.123-.392.8.8,0,0,1,.234-.277A.6.6,0,0,1,49.756,31.294Zm0,.2a.365.365,0,0,0-.257.094.668.668,0,0,0-.16.242,1.327,1.327,0,0,0-.082.329,2.84,2.84,0,0,0-.023.356,2.777,2.777,0,0,0,.023.352,1.3,1.3,0,0,0,.082.326.638.638,0,0,0,.16.238.368.368,0,0,0,.257.093.359.359,0,0,0,.252-.093.62.62,0,0,0,.16-.238,1.334,1.334,0,0,0,.085-.326,2.639,2.639,0,0,0,.024-.352,2.7,2.7,0,0,0-.024-.356,1.363,1.363,0,0,0-.085-.329.648.648,0,0,0-.16-.242A.356.356,0,0,0,49.756,31.494Z" transform="translate(-47.446 -31.294)"/>
        <path id="Trazado_191364" data-name="Trazado 191364" d="M51.908,31.294a.593.593,0,0,1,.361.106.783.783,0,0,1,.233.277,1.312,1.312,0,0,1,.126.392,2.558,2.558,0,0,1,.038.445,2.515,2.515,0,0,1-.038.442,1.3,1.3,0,0,1-.126.39.753.753,0,0,1-.233.276.6.6,0,0,1-.361.1.606.606,0,0,1-.364-.1.753.753,0,0,1-.233-.276,1.3,1.3,0,0,1-.125-.39,2.678,2.678,0,0,1-.036-.442,2.725,2.725,0,0,1,.036-.445,1.311,1.311,0,0,1,.125-.392.783.783,0,0,1,.233-.277A.6.6,0,0,1,51.908,31.294Zm0,.2a.361.361,0,0,0-.255.094.661.661,0,0,0-.162.242,1.364,1.364,0,0,0-.081.329,2.84,2.84,0,0,0-.023.356,2.777,2.777,0,0,0,.023.352,1.334,1.334,0,0,0,.081.326.632.632,0,0,0,.162.238.392.392,0,0,0,.508,0,.64.64,0,0,0,.161-.238,1.41,1.41,0,0,0,.084-.326,2.636,2.636,0,0,0,.023-.352,2.7,2.7,0,0,0-.023-.356,1.442,1.442,0,0,0-.084-.329.67.67,0,0,0-.161-.242A.359.359,0,0,0,51.908,31.494Z" transform="translate(-47.865 -31.294)"/>
      </g>
    </g>
  </g>
</svg>
