<svg xmlns="http://www.w3.org/2000/svg" xmlns:xlink="http://www.w3.org/1999/xlink" width="41.222" height="152.01" viewBox="0 0 41.222 152.01">
  <defs>
    <linearGradient id="linear-gradient" x1="0.5" y1="-1.413" x2="0.5" y2="0.631" gradientUnits="objectBoundingBox">
      <stop offset="0" stop-color="#940c22"/>
      <stop offset="0.322" stop-color="#e3051a"/>
      <stop offset="0.388" stop-color="#b91435"/>
      <stop offset="0.502" stop-color="#762c61"/>
      <stop offset="0.598" stop-color="#463e81"/>
      <stop offset="0.671" stop-color="#284995"/>
      <stop offset="0.713" stop-color="#1d4e9d"/>
      <stop offset="1" stop-color="#0096d0"/>
    </linearGradient>
    <linearGradient id="linear-gradient-2" x1="0.217" y1="-0.147" x2="0.483" y2="0.481" gradientUnits="objectBoundingBox">
      <stop offset="0" stop-color="#fff"/>
      <stop offset="1" stop-color="#0096d0"/>
    </linearGradient>
    <linearGradient id="linear-gradient-3" x1="0.5" y1="0.008" x2="0.5" y2="0.881" xlink:href="#linear-gradient-2"/>
  </defs>
  <g id="Grupo_131755" data-name="Grupo 131755" transform="translate(-79.014 -9.733)">
    <g id="Grupo_131736" data-name="Grupo 131736" transform="translate(79.014 9.733)">
      <path id="Rectángulo_40454" data-name="Rectángulo 40454" d="M14.082,0h12.68A14.082,14.082,0,0,1,40.844,14.082V137.548a14.083,14.083,0,0,1-14.083,14.083H14.083A14.083,14.083,0,0,1,0,137.548V14.082A14.082,14.082,0,0,1,14.082,0Z" transform="translate(0.189 0.19)" fill="#e7e7e7"/>
      <path id="Trazado_191365" data-name="Trazado 191365" d="M108.7,161.743H90.547A11.546,11.546,0,0,1,79.014,150.21V21.268A11.548,11.548,0,0,1,90.547,9.733H108.7a11.548,11.548,0,0,1,11.534,11.535V150.21A11.546,11.546,0,0,1,108.7,161.743ZM90.547,10.112A11.168,11.168,0,0,0,79.392,21.268V150.21a11.168,11.168,0,0,0,11.155,11.155H108.7a11.168,11.168,0,0,0,11.155-11.155V21.268A11.168,11.168,0,0,0,108.7,10.112Z" transform="translate(-79.014 -9.733)" fill="#d0d0d0"/>
    </g>
    <path id="Trazado_191366" data-name="Trazado 191366" d="M118.188,149.331c0,6.115-4.547,11.075-10.154,11.075H91.786c-5.608,0-10.153-4.96-10.153-11.075V23.455c0-6.117,4.545-11.075,10.153-11.075h16.248c5.608,0,10.154,4.958,10.154,11.075Z" transform="translate(-0.509 -0.515)" fill="#fff"/>
    <g id="Grupo_131739" data-name="Grupo 131739" transform="translate(84.037 17.783)">
      <g id="Grupo_131737" data-name="Grupo 131737" transform="translate(0)">
        <path id="Trazado_191367" data-name="Trazado 191367" d="M109.58,131.456V28.658a8.7,8.7,0,1,0-17.395,0v102.8a15.4,15.4,0,1,0,17.395,0Z" transform="translate(-85.294 -19.771)" fill="#fff"/>
        <path id="Trazado_191368" data-name="Trazado 191368" d="M100.837,159.706a15.588,15.588,0,0,1-8.887-28.394V28.612a8.887,8.887,0,0,1,17.773,0v102.7a15.588,15.588,0,0,1-8.886,28.394Zm0-139.6a8.518,8.518,0,0,0-8.508,8.509v102.8a.193.193,0,0,1-.082.158,15.21,15.21,0,1,0,17.181,0,.193.193,0,0,1-.082-.158V28.612A8.519,8.519,0,0,0,100.837,20.1Z" transform="translate(-85.249 -19.726)" fill="#d0d0d0"/>
      </g>
      <g id="Grupo_131738" data-name="Grupo 131738" transform="translate(2.194 1.899)">
        <path id="Trazado_191369" data-name="Trazado 191369" d="M107.948,133.15V30.864c0-7.107-2.41-8.547-6.535-8.547-3.61,0-6.536,1.692-6.536,8.131v102.7a13.2,13.2,0,1,0,13.07,0Z" transform="translate(-88.019 -22.128)" fill="#e7e7e7"/>
        <path id="Trazado_191370" data-name="Trazado 191370" d="M101.367,157.972A13.393,13.393,0,0,1,94.643,133V30.4c0-5.6,2.2-8.32,6.724-8.32,4.151,0,6.723,1.462,6.723,8.736V133a13.392,13.392,0,0,1-6.723,24.976Zm0-135.511c-4.329,0-6.345,2.524-6.345,7.942V133.214l-.1.055a13.015,13.015,0,1,0,12.883,0l-.1-.055V30.819C107.713,23.828,105.386,22.461,101.367,22.461Z" transform="translate(-87.973 -22.083)" fill="#fff"/>
      </g>
      <path id="Trazado_191371" data-name="Trazado 191371" d="M107.633,151.335v-40.07H95.789v40.07a11.966,11.966,0,1,0,11.844,0Z" transform="translate(-86.123 -37.525)" fill="url(#linear-gradient)"/>
      <path id="Trazado_191372" data-name="Trazado 191372" d="M112.757,175.758c-1.665,3.884-4.667,6.776-8.972,7.465a11.7,11.7,0,0,1-11.178-4.114,12.156,12.156,0,0,1-2.412-5.581,8.84,8.84,0,0,1-.07-3.31,11.965,11.965,0,1,0,23.553,2.975c0-.081-.006-.157-.009-.238A15.819,15.819,0,0,1,112.757,175.758Z" transform="translate(-86.123 -48.987)" fill="#58a6ba" opacity="0.5" style="mix-blend-mode: multiply;isolation: isolate"/>
      <path id="Trazado_191373" data-name="Trazado 191373" d="M101.587,162.413s-5.608-.114-7.279,6.9c0,0-.1,2.213,1.039,1.911s1.324-3.517,5.106-4.841,5.566-1.073,5.2-2.741C105.368,162.353,101.587,162.413,101.587,162.413Z" transform="translate(-87.01 -47.47)" opacity="0.7" fill="url(#linear-gradient-2)" style="mix-blend-mode: screen;isolation: isolate"/>
      <path id="Trazado_191374" data-name="Trazado 191374" d="M107.948,133.15V30.864c0-7.107-2.41-8.547-6.535-8.547-3.61,0-6.536,1.692-6.536,8.131v102.7a13.2,13.2,0,1,0,13.07,0Zm2.427,10.835c-1.191,5.464-15.93,8.189-18.246-.445-1.631-6.081,5.341-8.748,5.341-8.748s-.094-101.718,0-105.5,2.459-4.437,2.459-4.437.851-.9,3.214-.151,2.647,4.9,2.647,4.9V134.791C109.807,136.4,111.245,139.994,110.375,143.984Z" transform="translate(-85.824 -20.23)" fill="#a9aaaa" opacity="0.5" style="mix-blend-mode: multiply;isolation: isolate"/>
    </g>
    <g id="Grupo_131741" data-name="Grupo 131741" transform="translate(106.911 14.185)">
      <g id="Grupo_131740" data-name="Grupo 131740" transform="translate(1.7 0.563)">
        <path id="Trazado_191375" data-name="Trazado 191375" d="M120.31,19.9l1.757.531a3.249,3.249,0,0,1-.557,1.235,2.43,2.43,0,0,1-.945.748,3.549,3.549,0,0,1-1.437.252,4.157,4.157,0,0,1-1.727-.308,2.747,2.747,0,0,1-1.158-1.081,3.672,3.672,0,0,1-.487-1.982,3.366,3.366,0,0,1,.856-2.475,3.9,3.9,0,0,1,4.351-.37A2.914,2.914,0,0,1,122,17.977l-1.771.393a1.5,1.5,0,0,0-.195-.433,1.129,1.129,0,0,0-.411-.354,1.264,1.264,0,0,0-1.589.423,2.331,2.331,0,0,0-.274,1.278,2.427,2.427,0,0,0,.327,1.478,1.293,1.293,0,0,0,1.791.077A2,2,0,0,0,120.31,19.9Z" transform="translate(-115.755 -15.958)"/>
      </g>
      <path id="Trazado_191376" data-name="Trazado 191376" d="M114.576,17.12a.93.93,0,1,1,.93-.93A.931.931,0,0,1,114.576,17.12Zm0-1.537a.607.607,0,1,0,.607.607A.608.608,0,0,0,114.576,15.583Z" transform="translate(-113.645 -15.259)"/>
    </g>
    <path id="Trazado_191377" data-name="Trazado 191377" d="M103.1,133.468c0,.9-.388,1.631-.868,1.631h0c-.479,0-.868-.731-.868-1.631V32.551c0-.9.389-1.63.868-1.63h0c.479,0,.868.731.868,1.63Z" transform="translate(-4.346 -4.12)" opacity="0.7" fill="url(#linear-gradient-3)" style="mix-blend-mode: screen;isolation: isolate"/>
    <g id="Grupo_131754" data-name="Grupo 131754" transform="translate(106.176 27.102)">
      <g id="Grupo_131742" data-name="Grupo 131742" transform="translate(0 0.9)">
        <path id="Trazado_191378" data-name="Trazado 191378" d="M113.056,156.329h2.3a.428.428,0,0,1,0,.831h-2.3a.428.428,0,0,1,0-.831Z" transform="translate(-112.732 -56.505)" fill="#1d1d1b"/>
        <path id="Trazado_191379" data-name="Trazado 191379" d="M114.587,154.527h-1.5a.217.217,0,0,1,0-.425h1.5a.217.217,0,0,1,0,.425Z" transform="translate(-112.768 -56.072)" fill="#1d1d1b"/>
        <path id="Trazado_191380" data-name="Trazado 191380" d="M114.587,152.049h-1.5a.216.216,0,0,1,0-.425h1.5a.216.216,0,0,1,0,.425Z" transform="translate(-112.768 -55.59)" fill="#1d1d1b"/>
        <path id="Trazado_191381" data-name="Trazado 191381" d="M114.587,149.571h-1.5a.216.216,0,0,1,0-.425h1.5a.216.216,0,0,1,0,.425Z" transform="translate(-112.768 -55.109)" fill="#1d1d1b"/>
        <path id="Trazado_191382" data-name="Trazado 191382" d="M114.587,147.092h-1.5a.216.216,0,0,1,0-.425h1.5a.216.216,0,0,1,0,.425Z" transform="translate(-112.768 -54.627)" fill="#1d1d1b"/>
        <path id="Trazado_191383" data-name="Trazado 191383" d="M113.056,143.939h2.3a.427.427,0,0,1,0,.829h-2.3a.427.427,0,0,1,0-.829Z" transform="translate(-112.732 -54.096)" fill="#1d1d1b"/>
        <path id="Trazado_191384" data-name="Trazado 191384" d="M114.587,142.135h-1.5a.216.216,0,0,1,0-.425h1.5a.216.216,0,0,1,0,.425Z" transform="translate(-112.768 -53.663)" fill="#1d1d1b"/>
        <path id="Trazado_191385" data-name="Trazado 191385" d="M114.587,139.658h-1.5a.218.218,0,0,1,0-.427h1.5a.218.218,0,0,1,0,.427Z" transform="translate(-112.768 -53.181)" fill="#1d1d1b"/>
        <path id="Trazado_191386" data-name="Trazado 191386" d="M114.587,137.18h-1.5a.216.216,0,0,1,0-.425h1.5a.216.216,0,0,1,0,.425Z" transform="translate(-112.768 -52.699)" fill="#1d1d1b"/>
        <path id="Trazado_191387" data-name="Trazado 191387" d="M114.587,134.7h-1.5a.218.218,0,0,1,0-.427h1.5a.218.218,0,0,1,0,.427Z" transform="translate(-112.768 -52.217)" fill="#1d1d1b"/>
        <path id="Trazado_191388" data-name="Trazado 191388" d="M113.056,131.546h2.3a.428.428,0,0,1,0,.831h-2.3a.428.428,0,0,1,0-.831Z" transform="translate(-112.732 -51.686)" fill="#1d1d1b"/>
        <path id="Trazado_191389" data-name="Trazado 191389" d="M114.587,129.744h-1.5a.2.2,0,0,1-.175-.214.2.2,0,0,1,.175-.211h1.5a.2.2,0,0,1,.175.211A.2.2,0,0,1,114.587,129.744Z" transform="translate(-112.768 -51.253)" fill="#1d1d1b"/>
        <path id="Trazado_191390" data-name="Trazado 191390" d="M114.587,127.266h-1.5a.216.216,0,0,1,0-.425h1.5a.216.216,0,0,1,0,.425Z" transform="translate(-112.768 -50.772)" fill="#1d1d1b"/>
        <path id="Trazado_191391" data-name="Trazado 191391" d="M114.587,124.787h-1.5a.217.217,0,0,1,0-.425h1.5a.217.217,0,0,1,0,.425Z" transform="translate(-112.768 -50.29)" fill="#1d1d1b"/>
        <path id="Trazado_191392" data-name="Trazado 191392" d="M114.587,122.309h-1.5a.216.216,0,0,1,0-.425h1.5a.216.216,0,0,1,0,.425Z" transform="translate(-112.768 -49.808)" fill="#1d1d1b"/>
        <path id="Trazado_191393" data-name="Trazado 191393" d="M113.056,119.153h2.3a.429.429,0,0,1,0,.831h-2.3a.429.429,0,0,1,0-.831Z" transform="translate(-112.732 -49.277)" fill="#1d1d1b"/>
        <path id="Trazado_191394" data-name="Trazado 191394" d="M114.587,117.352h-1.5a.216.216,0,0,1,0-.425h1.5a.216.216,0,0,1,0,.425Z" transform="translate(-112.768 -48.844)" fill="#1d1d1b"/>
        <path id="Trazado_191395" data-name="Trazado 191395" d="M114.587,114.874h-1.5a.217.217,0,0,1,0-.426h1.5a.217.217,0,0,1,0,.426Z" transform="translate(-112.768 -48.362)" fill="#1d1d1b"/>
        <path id="Trazado_191396" data-name="Trazado 191396" d="M114.587,112.395h-1.5a.216.216,0,0,1,0-.425h1.5a.216.216,0,0,1,0,.425Z" transform="translate(-112.768 -47.88)" fill="#1d1d1b"/>
        <path id="Trazado_191397" data-name="Trazado 191397" d="M114.587,109.916h-1.5a.217.217,0,0,1,0-.425h1.5a.217.217,0,0,1,0,.425Z" transform="translate(-112.768 -47.398)" fill="#1d1d1b"/>
        <path id="Trazado_191398" data-name="Trazado 191398" d="M113.056,106.762h2.3a.428.428,0,0,1,0,.831h-2.3a.428.428,0,0,1,0-.831Z" transform="translate(-112.732 -46.868)" fill="#1d1d1b"/>
        <path id="Trazado_191399" data-name="Trazado 191399" d="M114.587,104.96h-1.5a.217.217,0,0,1,0-.426h1.5a.217.217,0,0,1,0,.426Z" transform="translate(-112.768 -46.434)" fill="#1d1d1b"/>
        <path id="Trazado_191400" data-name="Trazado 191400" d="M114.587,102.483h-1.5a.216.216,0,0,1,0-.425h1.5a.216.216,0,0,1,0,.425Z" transform="translate(-112.768 -45.953)" fill="#1d1d1b"/>
        <path id="Trazado_191401" data-name="Trazado 191401" d="M114.587,100h-1.5a.217.217,0,0,1,0-.426h1.5a.217.217,0,0,1,0,.426Z" transform="translate(-112.768 -45.471)" fill="#1d1d1b"/>
        <path id="Trazado_191402" data-name="Trazado 191402" d="M114.587,97.525h-1.5a.217.217,0,0,1,0-.426h1.5a.217.217,0,0,1,0,.426Z" transform="translate(-112.768 -44.989)" fill="#1d1d1b"/>
        <path id="Trazado_191403" data-name="Trazado 191403" d="M113.056,94.37h2.3a.428.428,0,0,1,0,.831h-2.3a.428.428,0,0,1,0-.831Z" transform="translate(-112.732 -44.458)" fill="#1d1d1b"/>
        <path id="Trazado_191404" data-name="Trazado 191404" d="M114.587,92.569h-1.5a.216.216,0,0,1,0-.425h1.5a.216.216,0,0,1,0,.425Z" transform="translate(-112.768 -44.025)" fill="#1d1d1b"/>
        <path id="Trazado_191405" data-name="Trazado 191405" d="M114.587,90.089h-1.5a.217.217,0,0,1,0-.425h1.5a.217.217,0,0,1,0,.425Z" transform="translate(-112.768 -43.543)" fill="#1d1d1b"/>
        <path id="Trazado_191406" data-name="Trazado 191406" d="M114.587,87.611h-1.5a.217.217,0,0,1,0-.425h1.5a.217.217,0,0,1,0,.425Z" transform="translate(-112.768 -43.061)" fill="#1d1d1b"/>
        <path id="Trazado_191407" data-name="Trazado 191407" d="M114.587,85.133h-1.5a.216.216,0,0,1,0-.425h1.5a.216.216,0,0,1,0,.425Z" transform="translate(-112.768 -42.579)" fill="#1d1d1b"/>
        <path id="Trazado_191408" data-name="Trazado 191408" d="M113.056,81.977h2.3a.429.429,0,0,1,0,.831h-2.3a.429.429,0,0,1,0-.831Z" transform="translate(-112.732 -42.048)" fill="#1d1d1b"/>
        <path id="Trazado_191409" data-name="Trazado 191409" d="M113.092,79.752h1.5a.216.216,0,0,1,0,.424h-1.5a.216.216,0,0,1,0-.424Z" transform="translate(-112.768 -41.616)" fill="#1d1d1b"/>
        <path id="Trazado_191410" data-name="Trazado 191410" d="M113.092,77.273h1.5a.216.216,0,0,1,0,.425h-1.5a.216.216,0,0,1,0-.425Z" transform="translate(-112.768 -41.134)" fill="#1d1d1b"/>
        <path id="Trazado_191411" data-name="Trazado 191411" d="M113.092,74.794h1.5a.216.216,0,0,1,0,.425h-1.5a.216.216,0,0,1,0-.425Z" transform="translate(-112.768 -40.652)" fill="#1d1d1b"/>
        <path id="Trazado_191412" data-name="Trazado 191412" d="M113.092,72.315h1.5a.2.2,0,0,1,.175.213.2.2,0,0,1-.175.212h-1.5a.2.2,0,0,1-.175-.212A.2.2,0,0,1,113.092,72.315Z" transform="translate(-112.768 -40.17)" fill="#1d1d1b"/>
        <path id="Trazado_191413" data-name="Trazado 191413" d="M114.587,67.784h-1.5a.216.216,0,0,1,0-.424h1.5a.216.216,0,0,1,0,.424Z" transform="translate(-112.768 -39.206)" fill="#1d1d1b"/>
        <path id="Trazado_191414" data-name="Trazado 191414" d="M114.587,65.307h-1.5a.216.216,0,0,1,0-.425h1.5a.216.216,0,0,1,0,.425Z" transform="translate(-112.768 -38.725)" fill="#1d1d1b"/>
        <path id="Trazado_191415" data-name="Trazado 191415" d="M114.587,62.828h-1.5a.2.2,0,0,1-.175-.213.2.2,0,0,1,.175-.212h1.5a.2.2,0,0,1,.175.212A.2.2,0,0,1,114.587,62.828Z" transform="translate(-112.768 -38.243)" fill="#1d1d1b"/>
        <path id="Trazado_191416" data-name="Trazado 191416" d="M114.587,60.35h-1.5a.216.216,0,0,1,0-.425h1.5a.216.216,0,0,1,0,.425Z" transform="translate(-112.768 -37.761)" fill="#1d1d1b"/>
        <path id="Trazado_191417" data-name="Trazado 191417" d="M113.056,57.194h2.3a.429.429,0,0,1,0,.831h-2.3a.429.429,0,0,1,0-.831Z" transform="translate(-112.732 -37.23)" fill="#1d1d1b"/>
        <path id="Trazado_191418" data-name="Trazado 191418" d="M113.056,69.585h2.3a.428.428,0,0,1,0,.831h-2.3a.428.428,0,0,1,0-.831Z" transform="translate(-112.732 -39.639)" fill="#1d1d1b"/>
        <path id="Trazado_191419" data-name="Trazado 191419" d="M114.587,55.392h-1.5a.217.217,0,0,1,0-.425h1.5a.217.217,0,0,1,0,.425Z" transform="translate(-112.768 -36.797)" fill="#1d1d1b"/>
        <path id="Trazado_191420" data-name="Trazado 191420" d="M114.587,52.915h-1.5a.217.217,0,0,1,0-.426h1.5a.217.217,0,0,1,0,.426Z" transform="translate(-112.768 -36.315)" fill="#1d1d1b"/>
        <path id="Trazado_191421" data-name="Trazado 191421" d="M114.587,50.436h-1.5a.216.216,0,0,1,0-.425h1.5a.216.216,0,0,1,0,.425Z" transform="translate(-112.768 -35.833)" fill="#1d1d1b"/>
        <path id="Trazado_191422" data-name="Trazado 191422" d="M114.587,47.957h-1.5a.217.217,0,0,1,0-.425h1.5a.217.217,0,0,1,0,.425Z" transform="translate(-112.768 -35.351)" fill="#1d1d1b"/>
        <path id="Trazado_191423" data-name="Trazado 191423" d="M114.587,40.523h-1.5a.217.217,0,0,1,0-.426h1.5a.217.217,0,0,1,0,.426Z" transform="translate(-112.768 -33.905)" fill="#1d1d1b"/>
        <path id="Trazado_191424" data-name="Trazado 191424" d="M114.587,35.565h-1.5a.216.216,0,0,1,0-.425h1.5a.216.216,0,0,1,0,.425Z" transform="translate(-112.768 -32.942)" fill="#1d1d1b"/>
        <path id="Trazado_191425" data-name="Trazado 191425" d="M113.056,44.8h2.3a.428.428,0,0,1,0,.831h-2.3a.428.428,0,0,1,0-.831Z" transform="translate(-112.732 -34.82)" fill="#1d1d1b"/>
        <path id="Trazado_191426" data-name="Trazado 191426" d="M113.056,32.411h2.3a.428.428,0,0,1,0,.83h-2.3a.428.428,0,0,1,0-.83Z" transform="translate(-112.732 -32.411)" fill="#1d1d1b"/>
        <path id="Trazado_191427" data-name="Trazado 191427" d="M114.587,43h-1.5a.216.216,0,0,1,0-.425h1.5a.216.216,0,0,1,0,.425Z" transform="translate(-112.768 -34.387)" fill="#1d1d1b"/>
        <path id="Trazado_191428" data-name="Trazado 191428" d="M114.587,38.045h-1.5a.218.218,0,0,1,0-.427h1.5a.218.218,0,0,1,0,.427Z" transform="translate(-112.768 -33.423)" fill="#1d1d1b"/>
      </g>
      <g id="Grupo_131743" data-name="Grupo 131743" transform="translate(6.047 98.963)">
        <path id="Trazado_191429" data-name="Trazado 191429" d="M121.275,154.144a.811.811,0,0,1,.493.146,1.05,1.05,0,0,1,.318.379,1.836,1.836,0,0,1,.172.535,3.594,3.594,0,0,1,0,1.213,1.8,1.8,0,0,1-.172.532,1.05,1.05,0,0,1-.318.379.83.83,0,0,1-.493.141.84.84,0,0,1-.5-.141,1.05,1.05,0,0,1-.318-.379,1.753,1.753,0,0,1-.169-.532,3.709,3.709,0,0,1,0-1.213,1.788,1.788,0,0,1,.169-.535,1.05,1.05,0,0,1,.318-.379A.82.82,0,0,1,121.275,154.144Zm0,.271a.492.492,0,0,0-.35.131.9.9,0,0,0-.22.332,1.832,1.832,0,0,0-.112.448,3.864,3.864,0,0,0-.031.485,3.811,3.811,0,0,0,.031.483,1.825,1.825,0,0,0,.112.445.9.9,0,0,0,.22.326.5.5,0,0,0,.35.127.493.493,0,0,0,.345-.127.9.9,0,0,0,.22-.326,1.824,1.824,0,0,0,.114-.445,3.542,3.542,0,0,0,.034-.483,3.592,3.592,0,0,0-.034-.485,1.831,1.831,0,0,0-.114-.448.9.9,0,0,0-.22-.332A.485.485,0,0,0,121.275,154.415Z" transform="translate(-120.239 -154.144)"/>
      </g>
      <g id="Grupo_131744" data-name="Grupo 131744" transform="translate(5.55 89.066)">
        <path id="Trazado_191430" data-name="Trazado 191430" d="M120.419,144.249h-.235v-2.025l-.418.355-.145-.164.59-.483h.209Z" transform="translate(-119.621 -141.873)"/>
        <path id="Trazado_191431" data-name="Trazado 191431" d="M122.3,141.858a.6.6,0,0,1,.362.107.784.784,0,0,1,.233.279,1.327,1.327,0,0,1,.126.39,2.63,2.63,0,0,1,0,.889,1.348,1.348,0,0,1-.126.388.764.764,0,0,1-.233.277.677.677,0,0,1-.726,0,.759.759,0,0,1-.234-.277,1.3,1.3,0,0,1-.123-.388,2.745,2.745,0,0,1,0-.889,1.28,1.28,0,0,1,.123-.39.777.777,0,0,1,.234-.279A.6.6,0,0,1,122.3,141.858Zm0,.2a.364.364,0,0,0-.256.1.679.679,0,0,0-.16.242,1.334,1.334,0,0,0-.082.329,2.84,2.84,0,0,0-.023.355,2.752,2.752,0,0,0,.023.352,1.273,1.273,0,0,0,.082.326.648.648,0,0,0,.16.239.362.362,0,0,0,.256.093.357.357,0,0,0,.253-.093.648.648,0,0,0,.16-.239,1.34,1.34,0,0,0,.085-.326,2.612,2.612,0,0,0,.024-.352,2.7,2.7,0,0,0-.024-.355,1.407,1.407,0,0,0-.085-.329.679.679,0,0,0-.16-.242A.359.359,0,0,0,122.3,142.058Z" transform="translate(-119.995 -141.858)"/>
      </g>
      <g id="Grupo_131745" data-name="Grupo 131745" transform="translate(5.446 79.17)">
        <path id="Trazado_191432" data-name="Trazado 191432" d="M120.973,131.949h-1.48V131.7l.95-.959c.035-.035.069-.072.1-.113a1.03,1.03,0,0,0,.089-.126.662.662,0,0,0,.062-.138.522.522,0,0,0,.023-.153.45.45,0,0,0-.036-.184.429.429,0,0,0-.1-.139.47.47,0,0,0-.147-.089.505.505,0,0,0-.175-.031.452.452,0,0,0-.314.117.521.521,0,0,0-.163.3l-.234-.046a.683.683,0,0,1,.087-.225.7.7,0,0,1,.157-.181.719.719,0,0,1,.211-.118.752.752,0,0,1,.255-.043.879.879,0,0,1,.267.041.666.666,0,0,1,.221.121.6.6,0,0,1,.15.2.64.64,0,0,1,.056.277.658.658,0,0,1-.031.206.879.879,0,0,1-.081.18,1.038,1.038,0,0,1-.12.162c-.045.052-.093.1-.143.152l-.834.828h1.227Z" transform="translate(-119.493 -129.573)"/>
        <path id="Trazado_191433" data-name="Trazado 191433" d="M122.432,129.573a.6.6,0,0,1,.361.107.778.778,0,0,1,.234.279,1.335,1.335,0,0,1,.126.39,2.63,2.63,0,0,1,0,.889,1.341,1.341,0,0,1-.126.388.759.759,0,0,1-.234.277.675.675,0,0,1-.725,0,.759.759,0,0,1-.234-.277,1.315,1.315,0,0,1-.124-.388,2.807,2.807,0,0,1,0-.889,1.311,1.311,0,0,1,.124-.39.778.778,0,0,1,.234-.279A.6.6,0,0,1,122.432,129.573Zm0,.2a.356.356,0,0,0-.256.1.651.651,0,0,0-.16.242,1.34,1.34,0,0,0-.083.327,3.02,3.02,0,0,0-.023.356,2.958,2.958,0,0,0,.023.354,1.321,1.321,0,0,0,.083.325.629.629,0,0,0,.16.238.359.359,0,0,0,.256.1.355.355,0,0,0,.253-.1.629.629,0,0,0,.16-.238,1.32,1.32,0,0,0,.084-.325,2.538,2.538,0,0,0,.025-.354,2.59,2.59,0,0,0-.025-.356,1.34,1.34,0,0,0-.084-.327.651.651,0,0,0-.16-.242A.352.352,0,0,0,122.432,129.773Z" transform="translate(-119.917 -129.573)"/>
      </g>
      <g id="Grupo_131746" data-name="Grupo 131746" transform="translate(5.443 69.274)">
        <path id="Trazado_191434" data-name="Trazado 191434" d="M120.03,118.348h.1a.868.868,0,0,0,.209-.023.488.488,0,0,0,.172-.072.383.383,0,0,0,.116-.132.416.416,0,0,0,.043-.2.434.434,0,0,0-.036-.18.393.393,0,0,0-.1-.136.466.466,0,0,0-.147-.089.517.517,0,0,0-.176-.031.472.472,0,0,0-.441.272l-.2-.106a.726.726,0,0,1,.275-.277.792.792,0,0,1,.379-.089.843.843,0,0,1,.261.041.7.7,0,0,1,.216.119.58.58,0,0,1,.15.195.623.623,0,0,1,.054.267.528.528,0,0,1-.114.346.546.546,0,0,1-.288.184v.006a.6.6,0,0,1,.332.192.559.559,0,0,1,.133.383.7.7,0,0,1-.061.3.674.674,0,0,1-.162.218.705.705,0,0,1-.237.137.866.866,0,0,1-.286.048.788.788,0,0,1-.445-.124.748.748,0,0,1-.288-.35l.223-.082a.493.493,0,0,0,.2.259.534.534,0,0,0,.314.1.575.575,0,0,0,.191-.035.542.542,0,0,0,.164-.1.475.475,0,0,0,.155-.366.442.442,0,0,0-.051-.22.411.411,0,0,0-.135-.145.551.551,0,0,0-.193-.08.924.924,0,0,0-.223-.026h-.1Z" transform="translate(-119.489 -117.288)"/>
        <path id="Trazado_191435" data-name="Trazado 191435" d="M122.436,117.288a.591.591,0,0,1,.36.107.772.772,0,0,1,.234.277,1.346,1.346,0,0,1,.126.392,2.64,2.64,0,0,1,.038.445,2.6,2.6,0,0,1-.038.443,1.354,1.354,0,0,1-.126.389.752.752,0,0,1-.234.277.6.6,0,0,1-.36.1.612.612,0,0,1-.364-.1.765.765,0,0,1-.234-.277,1.328,1.328,0,0,1-.123-.389,2.6,2.6,0,0,1-.036-.443,2.639,2.639,0,0,1,.036-.445,1.32,1.32,0,0,1,.123-.392.786.786,0,0,1,.234-.277A.6.6,0,0,1,122.436,117.288Zm0,.2a.363.363,0,0,0-.256.094.672.672,0,0,0-.16.242,1.336,1.336,0,0,0-.082.329,2.84,2.84,0,0,0-.023.356,2.8,2.8,0,0,0,.023.354,1.3,1.3,0,0,0,.082.325.632.632,0,0,0,.16.238.36.36,0,0,0,.256.1.355.355,0,0,0,.253-.1.633.633,0,0,0,.161-.238,1.337,1.337,0,0,0,.083-.325,2.536,2.536,0,0,0,.025-.354,2.57,2.57,0,0,0-.025-.356,1.373,1.373,0,0,0-.083-.329.673.673,0,0,0-.161-.242A.358.358,0,0,0,122.436,117.488Z" transform="translate(-119.915 -117.288)"/>
      </g>
      <g id="Grupo_131747" data-name="Grupo 131747" transform="translate(5.433 59.378)">
        <path id="Trazado_191436" data-name="Trazado 191436" d="M120.764,106.625h.341v.209h-.341v.558h-.229v-.558h-1.059v-.23l.981-1.528h.307Zm-.229-1.283h-.006l-.808,1.283h.814Z" transform="translate(-119.476 -105.018)"/>
        <path id="Trazado_191437" data-name="Trazado 191437" d="M122.451,105a.592.592,0,0,1,.36.106.782.782,0,0,1,.234.278,1.341,1.341,0,0,1,.126.391,2.645,2.645,0,0,1,.037.445,2.6,2.6,0,0,1-.037.443,1.351,1.351,0,0,1-.126.39.769.769,0,0,1-.234.276.678.678,0,0,1-.724,0,.769.769,0,0,1-.234-.276,1.3,1.3,0,0,1-.124-.39,2.679,2.679,0,0,1-.036-.443,2.73,2.73,0,0,1,.036-.445,1.294,1.294,0,0,1,.124-.391.781.781,0,0,1,.234-.278A.6.6,0,0,1,122.451,105Zm0,.2a.363.363,0,0,0-.257.1.664.664,0,0,0-.16.242,1.286,1.286,0,0,0-.081.328,2.689,2.689,0,0,0-.024.355,2.647,2.647,0,0,0,.024.354,1.275,1.275,0,0,0,.081.325.668.668,0,0,0,.16.238.368.368,0,0,0,.257.093.358.358,0,0,0,.252-.093.648.648,0,0,0,.16-.238,1.345,1.345,0,0,0,.085-.325,2.785,2.785,0,0,0,.024-.354,2.831,2.831,0,0,0-.024-.355,1.355,1.355,0,0,0-.085-.328.645.645,0,0,0-.16-.242A.354.354,0,0,0,122.451,105.2Z" transform="translate(-119.907 -105.004)"/>
      </g>
      <g id="Grupo_131748" data-name="Grupo 131748" transform="translate(5.455 49.483)">
        <path id="Trazado_191438" data-name="Trazado 191438" d="M120.874,93h-.965l-.016.717a.761.761,0,0,1,.159-.039.92.92,0,0,1,.161-.014.826.826,0,0,1,.3.052.694.694,0,0,1,.238.148.667.667,0,0,1,.156.231.759.759,0,0,1,.056.294.852.852,0,0,1-.055.31.725.725,0,0,1-.155.245.739.739,0,0,1-.243.162.806.806,0,0,1-.313.059.73.73,0,0,1-.694-.421l.213-.1a.511.511,0,0,0,.188.23.5.5,0,0,0,.28.085.584.584,0,0,0,.217-.04.514.514,0,0,0,.284-.29.615.615,0,0,0,0-.45.5.5,0,0,0-.122-.175.519.519,0,0,0-.181-.111.635.635,0,0,0-.229-.039.9.9,0,0,0-.247.035,1.25,1.25,0,0,0-.234.093l.023-1.194h1.181Z" transform="translate(-119.504 -92.734)"/>
        <path id="Trazado_191439" data-name="Trazado 191439" d="M122.422,92.72a.6.6,0,0,1,.361.106.782.782,0,0,1,.234.278,1.337,1.337,0,0,1,.125.392,2.634,2.634,0,0,1,.038.444,2.605,2.605,0,0,1-.038.444,1.332,1.332,0,0,1-.125.391.764.764,0,0,1-.234.275.6.6,0,0,1-.361.106.6.6,0,0,1-.364-.106.764.764,0,0,1-.234-.275,1.308,1.308,0,0,1-.124-.391,2.781,2.781,0,0,1-.036-.444,2.812,2.812,0,0,1,.036-.444,1.313,1.313,0,0,1,.124-.392.782.782,0,0,1,.234-.278A.6.6,0,0,1,122.422,92.72Zm0,.2a.36.36,0,0,0-.256.1.661.661,0,0,0-.16.242,1.318,1.318,0,0,0-.083.329,2.79,2.79,0,0,0,0,.708,1.31,1.31,0,0,0,.083.325.662.662,0,0,0,.16.239.369.369,0,0,0,.256.093.365.365,0,0,0,.253-.093.661.661,0,0,0,.16-.239,1.384,1.384,0,0,0,.084-.325,2.523,2.523,0,0,0,0-.708,1.391,1.391,0,0,0-.084-.329.661.661,0,0,0-.16-.242A.356.356,0,0,0,122.422,92.919Z" transform="translate(-119.924 -92.72)"/>
      </g>
      <g id="Grupo_131749" data-name="Grupo 131749" transform="translate(5.462 39.586)">
        <path id="Trazado_191440" data-name="Trazado 191440" d="M119.973,81.519l.007.006a.409.409,0,0,1,.147-.062.829.829,0,0,1,.184-.023.721.721,0,0,1,.28.053.688.688,0,0,1,.224.145.668.668,0,0,1,.149.226.776.776,0,0,1,.053.289.79.79,0,0,1-.055.3.654.654,0,0,1-.158.228.735.735,0,0,1-.239.15.878.878,0,0,1-.6,0,.752.752,0,0,1-.239-.15.64.64,0,0,1-.156-.228.775.775,0,0,1-.056-.3.875.875,0,0,1,.062-.334,2.231,2.231,0,0,1,.147-.295l.632-1.017h.271Zm-.225.634a.552.552,0,0,0,.037.21.494.494,0,0,0,.106.168.517.517,0,0,0,.164.11.53.53,0,0,0,.582-.11.484.484,0,0,0,.106-.168.568.568,0,0,0,.038-.21.593.593,0,0,0-.036-.206.457.457,0,0,0-.267-.277.6.6,0,0,0-.429,0,.466.466,0,0,0-.164.109.484.484,0,0,0-.1.168A.575.575,0,0,0,119.748,82.153Z" transform="translate(-119.512 -80.449)"/>
        <path id="Trazado_191441" data-name="Trazado 191441" d="M122.414,80.435a.6.6,0,0,1,.361.106.765.765,0,0,1,.233.278,1.346,1.346,0,0,1,.126.391,2.62,2.62,0,0,1,0,.888,1.338,1.338,0,0,1-.126.389.762.762,0,0,1-.233.277.684.684,0,0,1-.725,0,.762.762,0,0,1-.233-.277,1.291,1.291,0,0,1-.125-.389,2.735,2.735,0,0,1,0-.888,1.3,1.3,0,0,1,.125-.391.765.765,0,0,1,.233-.278A.6.6,0,0,1,122.414,80.435Zm0,.2a.362.362,0,0,0-.256.1.66.66,0,0,0-.161.242,1.284,1.284,0,0,0-.081.329,2.683,2.683,0,0,0-.023.355,2.648,2.648,0,0,0,.023.353,1.258,1.258,0,0,0,.081.325.64.64,0,0,0,.161.239.368.368,0,0,0,.256.093.362.362,0,0,0,.252-.093.631.631,0,0,0,.161-.239,1.365,1.365,0,0,0,.084-.325,2.651,2.651,0,0,0,.024-.353,2.686,2.686,0,0,0-.024-.355,1.392,1.392,0,0,0-.084-.329.65.65,0,0,0-.161-.242A.357.357,0,0,0,122.414,80.634Z" transform="translate(-119.929 -80.435)"/>
      </g>
      <g id="Grupo_131750" data-name="Grupo 131750" transform="translate(5.491 29.689)">
        <path id="Trazado_191442" data-name="Trazado 191442" d="M120.922,68.439l-.932,2.1h-.265l.959-2.107h-1.136v-.209h1.374Z" transform="translate(-119.548 -68.163)"/>
        <path id="Trazado_191443" data-name="Trazado 191443" d="M122.378,68.149a.589.589,0,0,1,.36.107.778.778,0,0,1,.234.279,1.311,1.311,0,0,1,.125.39,2.63,2.63,0,0,1,0,.889,1.324,1.324,0,0,1-.125.388.765.765,0,0,1-.234.277.6.6,0,0,1-.36.1.607.607,0,0,1-.365-.1.773.773,0,0,1-.234-.277,1.323,1.323,0,0,1-.124-.388,2.807,2.807,0,0,1,0-.889,1.311,1.311,0,0,1,.124-.39.786.786,0,0,1,.234-.279A.6.6,0,0,1,122.378,68.149Zm0,.2a.36.36,0,0,0-.257.094.679.679,0,0,0-.16.242,1.386,1.386,0,0,0-.083.33,2.79,2.79,0,0,0,0,.708,1.327,1.327,0,0,0,.083.325.651.651,0,0,0,.16.238.363.363,0,0,0,.257.093.355.355,0,0,0,.252-.093.642.642,0,0,0,.16-.238,1.364,1.364,0,0,0,.085-.325,2.607,2.607,0,0,0,0-.708,1.426,1.426,0,0,0-.085-.33.668.668,0,0,0-.16-.242A.352.352,0,0,0,122.378,68.35Z" transform="translate(-119.951 -68.149)"/>
      </g>
      <g id="Grupo_131751" data-name="Grupo 131751" transform="translate(5.467 19.793)">
        <path id="Trazado_191444" data-name="Trazado 191444" d="M120.564,57.013a.6.6,0,0,1,.315.22.636.636,0,0,1,.123.4.616.616,0,0,1-.06.276.65.65,0,0,1-.162.209.73.73,0,0,1-.238.134.854.854,0,0,1-.566,0,.735.735,0,0,1-.237-.134.65.65,0,0,1-.162-.209.616.616,0,0,1-.06-.276.669.669,0,0,1,.033-.218.644.644,0,0,1,.091-.18.6.6,0,0,1,.139-.136.656.656,0,0,1,.176-.085v-.006a.43.43,0,0,1-.143-.077.5.5,0,0,1-.11-.121.666.666,0,0,1-.072-.153.592.592,0,0,1-.026-.172.626.626,0,0,1,.052-.255.6.6,0,0,1,.143-.195.657.657,0,0,1,.208-.124.723.723,0,0,1,.251-.044.734.734,0,0,1,.251.044.665.665,0,0,1,.209.124.585.585,0,0,1,.194.45.592.592,0,0,1-.026.172.666.666,0,0,1-.072.153.512.512,0,0,1-.11.121.43.43,0,0,1-.143.077Zm-.81.592a.517.517,0,0,0,.036.2.452.452,0,0,0,.1.157.5.5,0,0,0,.161.1.587.587,0,0,0,.415,0,.477.477,0,0,0,.16-.1.446.446,0,0,0,.1-.157.532.532,0,0,0,.035-.2.5.5,0,0,0-.035-.193.454.454,0,0,0-.264-.255.612.612,0,0,0-.415,0,.455.455,0,0,0-.161.1.446.446,0,0,0-.1.154A.485.485,0,0,0,119.754,57.6Zm.081-1.109a.432.432,0,0,0,.032.168.419.419,0,0,0,.092.131.44.44,0,0,0,.135.086.452.452,0,0,0,.331,0,.435.435,0,0,0,.136-.086.42.42,0,0,0,.092-.131.432.432,0,0,0,.032-.168.468.468,0,0,0-.032-.172.408.408,0,0,0-.091-.137.413.413,0,0,0-.133-.09.435.435,0,0,0-.17-.033.423.423,0,0,0-.3.123.418.418,0,0,0-.09.137A.468.468,0,0,0,119.835,56.5Z" transform="translate(-119.518 -55.864)"/>
        <path id="Trazado_191445" data-name="Trazado 191445" d="M122.408,55.864a.588.588,0,0,1,.36.107.774.774,0,0,1,.234.278,1.333,1.333,0,0,1,.126.391,2.63,2.63,0,0,1,0,.889,1.357,1.357,0,0,1-.126.388.757.757,0,0,1-.234.277.678.678,0,0,1-.724,0,.765.765,0,0,1-.234-.277,1.308,1.308,0,0,1-.124-.388,2.746,2.746,0,0,1,0-.889,1.286,1.286,0,0,1,.124-.391.782.782,0,0,1,.234-.278A.593.593,0,0,1,122.408,55.864Zm0,.2a.362.362,0,0,0-.256.094.684.684,0,0,0-.161.242,1.334,1.334,0,0,0-.081.329,2.677,2.677,0,0,0-.023.355,2.629,2.629,0,0,0,.023.352,1.3,1.3,0,0,0,.081.327.66.66,0,0,0,.161.238.361.361,0,0,0,.256.093A.355.355,0,0,0,122.66,58a.66.66,0,0,0,.161-.238,1.331,1.331,0,0,0,.084-.327,2.5,2.5,0,0,0,.024-.352,2.55,2.55,0,0,0-.024-.355,1.37,1.37,0,0,0-.084-.329.683.683,0,0,0-.161-.242A.356.356,0,0,0,122.408,56.064Z" transform="translate(-119.933 -55.864)"/>
      </g>
      <g id="Grupo_131752" data-name="Grupo 131752" transform="translate(5.465 9.896)">
        <path id="Trazado_191446" data-name="Trazado 191446" d="M120.56,44.944l-.006-.006a.418.418,0,0,1-.148.063.813.813,0,0,1-.182.022.742.742,0,0,1-.28-.052.673.673,0,0,1-.224-.146.653.653,0,0,1-.149-.226.758.758,0,0,1-.054-.29.774.774,0,0,1,.056-.3.642.642,0,0,1,.156-.23.767.767,0,0,1,.239-.15.878.878,0,0,1,.6,0,.748.748,0,0,1,.239.15.644.644,0,0,1,.157.23.774.774,0,0,1,.056.3.884.884,0,0,1-.063.334,2.1,2.1,0,0,1-.147.295l-.632,1.017h-.271Zm.226-.635a.578.578,0,0,0-.038-.209.47.47,0,0,0-.106-.168.485.485,0,0,0-.164-.112.522.522,0,0,0-.209-.041.532.532,0,0,0-.21.041.49.49,0,0,0-.163.112.468.468,0,0,0-.106.168.561.561,0,0,0-.038.209.587.587,0,0,0,.035.208.489.489,0,0,0,.1.167.443.443,0,0,0,.164.11.6.6,0,0,0,.428,0,.453.453,0,0,0,.164-.11.466.466,0,0,0,.1-.167A.587.587,0,0,0,120.786,44.309Z" transform="translate(-119.516 -43.579)"/>
        <path id="Trazado_191447" data-name="Trazado 191447" d="M122.41,43.579a.6.6,0,0,1,.361.106.8.8,0,0,1,.233.279,1.333,1.333,0,0,1,.126.391,2.557,2.557,0,0,1,.038.445,2.521,2.521,0,0,1-.038.442,1.351,1.351,0,0,1-.126.39.778.778,0,0,1-.233.277.68.68,0,0,1-.725,0,.764.764,0,0,1-.234-.277,1.326,1.326,0,0,1-.124-.39,2.685,2.685,0,0,1-.036-.442,2.724,2.724,0,0,1,.036-.445,1.309,1.309,0,0,1,.124-.391.783.783,0,0,1,.234-.279A.6.6,0,0,1,122.41,43.579Zm0,.2a.362.362,0,0,0-.256.094.666.666,0,0,0-.161.242,1.3,1.3,0,0,0-.081.329,2.7,2.7,0,0,0-.023.356,2.636,2.636,0,0,0,.023.352,1.242,1.242,0,0,0,.081.325.634.634,0,0,0,.161.239.365.365,0,0,0,.256.093.359.359,0,0,0,.252-.093.643.643,0,0,0,.161-.239,1.382,1.382,0,0,0,.084-.325,2.51,2.51,0,0,0,.024-.352,2.567,2.567,0,0,0-.024-.356,1.453,1.453,0,0,0-.084-.329.676.676,0,0,0-.161-.242A.356.356,0,0,0,122.41,43.779Z" transform="translate(-119.931 -43.579)"/>
      </g>
      <g id="Grupo_131753" data-name="Grupo 131753" transform="translate(4.683)">
        <path id="Trazado_191448" data-name="Trazado 191448" d="M119.343,33.684h-.235V31.659l-.419.357-.144-.164.589-.483h.209Z" transform="translate(-118.545 -31.308)"/>
        <path id="Trazado_191449" data-name="Trazado 191449" d="M121.228,31.294a.592.592,0,0,1,.36.106.8.8,0,0,1,.234.277,1.359,1.359,0,0,1,.126.392,2.637,2.637,0,0,1,.038.445,2.592,2.592,0,0,1-.038.442,1.351,1.351,0,0,1-.126.39.764.764,0,0,1-.234.276.6.6,0,0,1-.36.1.6.6,0,0,1-.364-.1.762.762,0,0,1-.234-.276,1.326,1.326,0,0,1-.124-.39,2.68,2.68,0,0,1-.035-.442,2.726,2.726,0,0,1,.035-.445,1.334,1.334,0,0,1,.124-.392.793.793,0,0,1,.234-.277A.6.6,0,0,1,121.228,31.294Zm0,.2a.362.362,0,0,0-.256.094.658.658,0,0,0-.16.242,1.326,1.326,0,0,0-.082.329,2.84,2.84,0,0,0-.023.356,2.777,2.777,0,0,0,.023.352,1.3,1.3,0,0,0,.082.326.629.629,0,0,0,.16.238.365.365,0,0,0,.256.093.361.361,0,0,0,.253-.093.638.638,0,0,0,.16-.238,1.332,1.332,0,0,0,.084-.326,2.639,2.639,0,0,0,.025-.352,2.7,2.7,0,0,0-.025-.356,1.362,1.362,0,0,0-.084-.329.668.668,0,0,0-.16-.242A.358.358,0,0,0,121.228,31.494Z" transform="translate(-118.919 -31.294)"/>
        <path id="Trazado_191450" data-name="Trazado 191450" d="M123.381,31.294a.6.6,0,0,1,.361.106.791.791,0,0,1,.233.277,1.359,1.359,0,0,1,.126.392,2.638,2.638,0,0,1,.038.445,2.593,2.593,0,0,1-.038.442,1.351,1.351,0,0,1-.126.39.761.761,0,0,1-.233.276.681.681,0,0,1-.726,0,.77.77,0,0,1-.234-.276,1.3,1.3,0,0,1-.123-.39,2.678,2.678,0,0,1-.036-.442,2.724,2.724,0,0,1,.036-.445,1.31,1.31,0,0,1,.123-.392.8.8,0,0,1,.234-.277A.6.6,0,0,1,123.381,31.294Zm0,.2a.365.365,0,0,0-.257.094.668.668,0,0,0-.16.242,1.327,1.327,0,0,0-.082.329,2.84,2.84,0,0,0-.023.356,2.777,2.777,0,0,0,.023.352,1.3,1.3,0,0,0,.082.326.638.638,0,0,0,.16.238.368.368,0,0,0,.257.093.359.359,0,0,0,.252-.093.638.638,0,0,0,.16-.238,1.334,1.334,0,0,0,.085-.326,2.641,2.641,0,0,0,.024-.352,2.7,2.7,0,0,0-.024-.356,1.364,1.364,0,0,0-.085-.329.668.668,0,0,0-.16-.242A.356.356,0,0,0,123.381,31.494Z" transform="translate(-119.338 -31.294)"/>
      </g>
    </g>
  </g>
</svg>
