<svg xmlns="http://www.w3.org/2000/svg" xmlns:xlink="http://www.w3.org/1999/xlink" width="41.222" height="152.009" viewBox="0 0 41.222 152.009">
  <defs>
    <linearGradient id="linear-gradient" x1="0.5" y1="-5.215" x2="0.5" y2="0.049" gradientUnits="objectBoundingBox">
      <stop offset="0" stop-color="#940c22"/>
      <stop offset="0.249" stop-color="#e3051a"/>
      <stop offset="0.316" stop-color="#b91435"/>
      <stop offset="0.432" stop-color="#762c61"/>
      <stop offset="0.529" stop-color="#463e81"/>
      <stop offset="0.603" stop-color="#284995"/>
      <stop offset="0.644" stop-color="#1d4e9d"/>
      <stop offset="1" stop-color="#0096d0"/>
    </linearGradient>
    <linearGradient id="linear-gradient-2" x1="0.217" y1="-0.147" x2="0.483" y2="0.481" gradientUnits="objectBoundingBox">
      <stop offset="0" stop-color="#fff"/>
      <stop offset="1" stop-color="#0096d0"/>
    </linearGradient>
    <linearGradient id="linear-gradient-3" x1="0.5" y1="0.008" x2="0.5" y2="0.881" xlink:href="#linear-gradient-2"/>
  </defs>
  <g id="Grupo_131782" data-name="Grupo 131782" transform="translate(-150.486 -9.733)">
    <g id="Grupo_131756" data-name="Grupo 131756" transform="translate(150.486 9.733)">
      <path id="Rectángulo_40455" data-name="Rectángulo 40455" d="M14.082,0H26.761A14.082,14.082,0,0,1,40.843,14.082V137.548A14.082,14.082,0,0,1,26.761,151.63H14.083A14.083,14.083,0,0,1,0,137.547V14.082A14.082,14.082,0,0,1,14.082,0Z" transform="translate(0.19 0.19)" fill="#e7e7e7"/>
      <path id="Trazado_191451" data-name="Trazado 191451" d="M180.175,161.742H162.02a11.546,11.546,0,0,1-11.534-11.533V21.268A11.548,11.548,0,0,1,162.02,9.733h18.155a11.548,11.548,0,0,1,11.533,11.535V150.209A11.546,11.546,0,0,1,180.175,161.742ZM162.02,10.112a11.168,11.168,0,0,0-11.155,11.156V150.209a11.168,11.168,0,0,0,11.155,11.155h18.155a11.168,11.168,0,0,0,11.155-11.155V21.268a11.168,11.168,0,0,0-11.155-11.156Z" transform="translate(-150.486 -9.733)" fill="#d0d0d0"/>
    </g>
    <path id="Trazado_191452" data-name="Trazado 191452" d="M189.66,149.33c0,6.115-4.546,11.075-10.153,11.075H163.258c-5.607,0-10.152-4.96-10.152-11.075V23.455c0-6.117,4.545-11.075,10.152-11.075h16.248c5.607,0,10.153,4.958,10.153,11.075Z" transform="translate(-0.509 -0.515)" fill="#fff"/>
    <g id="Grupo_131759" data-name="Grupo 131759" transform="translate(155.509 17.783)">
      <g id="Grupo_131757" data-name="Grupo 131757" transform="translate(0)">
        <path id="Trazado_191453" data-name="Trazado 191453" d="M181.053,131.456V28.658a8.7,8.7,0,1,0-17.4,0v102.8a15.4,15.4,0,1,0,17.4,0Z" transform="translate(-156.767 -19.771)" fill="#fff"/>
        <path id="Trazado_191454" data-name="Trazado 191454" d="M172.31,159.705a15.588,15.588,0,0,1-8.886-28.394V28.612a8.887,8.887,0,0,1,17.773,0v102.7a15.588,15.588,0,0,1-8.887,28.394Zm0-139.6a8.519,8.519,0,0,0-8.508,8.509v102.8a.193.193,0,0,1-.082.158,15.21,15.21,0,1,0,17.181,0,.193.193,0,0,1-.082-.158V28.612A8.519,8.519,0,0,0,172.31,20.1Z" transform="translate(-156.722 -19.726)" fill="#d0d0d0"/>
      </g>
      <g id="Grupo_131758" data-name="Grupo 131758" transform="translate(2.194 1.899)">
        <path id="Trazado_191455" data-name="Trazado 191455" d="M179.42,133.149V30.864c0-7.107-2.411-8.547-6.535-8.547-3.609,0-6.535,1.692-6.535,8.131v102.7a13.2,13.2,0,1,0,13.07,0Z" transform="translate(-159.491 -22.128)" fill="#e7e7e7"/>
        <path id="Trazado_191456" data-name="Trazado 191456" d="M172.839,157.971A13.392,13.392,0,0,1,166.116,133V30.4c0-5.6,2.2-8.32,6.723-8.32,4.152,0,6.724,1.462,6.724,8.735V133a13.392,13.392,0,0,1-6.724,24.976Zm0-135.51c-4.33,0-6.346,2.524-6.346,7.942V133.214l-.1.055a13.016,13.016,0,1,0,12.882,0l-.1-.055V30.818C179.184,23.828,176.859,22.461,172.839,22.461Z" transform="translate(-159.445 -22.083)" fill="#fff"/>
      </g>
      <path id="Trazado_191457" data-name="Trazado 191457" d="M179.106,160.554v-1.877H167.262v1.877a11.966,11.966,0,1,0,11.844,0Z" transform="translate(-157.596 -46.744)" fill="url(#linear-gradient)"/>
      <path id="Trazado_191458" data-name="Trazado 191458" d="M184.229,175.758c-1.665,3.884-4.668,6.776-8.972,7.465a11.7,11.7,0,0,1-11.177-4.114,12.157,12.157,0,0,1-2.413-5.581,8.823,8.823,0,0,1-.069-3.31,11.965,11.965,0,1,0,23.553,2.975c0-.081-.007-.157-.009-.238A15.952,15.952,0,0,1,184.229,175.758Z" transform="translate(-157.596 -48.988)" fill="#58a6ba" opacity="0.5" style="mix-blend-mode: multiply;isolation: isolate"/>
      <path id="Trazado_191459" data-name="Trazado 191459" d="M173.058,162.413s-5.608-.114-7.28,6.9c0,0-.094,2.213,1.04,1.911s1.324-3.517,5.106-4.841,5.566-1.073,5.2-2.741C176.84,162.353,173.058,162.413,173.058,162.413Z" transform="translate(-158.483 -47.47)" opacity="0.7" fill="url(#linear-gradient-2)" style="mix-blend-mode: screen;isolation: isolate"/>
      <path id="Trazado_191460" data-name="Trazado 191460" d="M179.42,133.149V30.864c0-7.107-2.411-8.547-6.535-8.547-3.609,0-6.535,1.692-6.535,8.131v102.7a13.2,13.2,0,1,0,13.07,0Zm2.426,10.835c-1.191,5.464-15.929,8.189-18.246-.445-1.632-6.081,5.342-8.748,5.342-8.748s-.094-101.718,0-105.5,2.459-4.437,2.459-4.437.85-.9,3.214-.151,2.646,4.9,2.646,4.9V134.791C181.279,136.4,182.716,139.993,181.847,143.984Z" transform="translate(-157.297 -20.23)" fill="#a9aaaa" opacity="0.5" style="mix-blend-mode: multiply;isolation: isolate"/>
    </g>
    <g id="Grupo_131761" data-name="Grupo 131761" transform="translate(178.384 14.185)">
      <g id="Grupo_131760" data-name="Grupo 131760" transform="translate(1.7 0.563)">
        <path id="Trazado_191461" data-name="Trazado 191461" d="M191.782,19.9l1.758.531a3.238,3.238,0,0,1-.558,1.235,2.424,2.424,0,0,1-.945.748,3.542,3.542,0,0,1-1.436.252,4.159,4.159,0,0,1-1.728-.308,2.745,2.745,0,0,1-1.158-1.081,3.665,3.665,0,0,1-.487-1.982,3.365,3.365,0,0,1,.856-2.475,3.9,3.9,0,0,1,4.35-.37,2.909,2.909,0,0,1,1.042,1.523l-1.77.393a1.5,1.5,0,0,0-.195-.433,1.144,1.144,0,0,0-.412-.354,1.263,1.263,0,0,0-1.589.423,2.33,2.33,0,0,0-.275,1.278,2.421,2.421,0,0,0,.328,1.478,1.293,1.293,0,0,0,1.791.077A2,2,0,0,0,191.782,19.9Z" transform="translate(-187.228 -15.958)"/>
      </g>
      <path id="Trazado_191462" data-name="Trazado 191462" d="M186.049,17.12a.93.93,0,1,1,.93-.93A.931.931,0,0,1,186.049,17.12Zm0-1.537a.607.607,0,1,0,.606.607A.607.607,0,0,0,186.049,15.583Z" transform="translate(-185.118 -15.259)"/>
    </g>
    <path id="Trazado_191463" data-name="Trazado 191463" d="M174.575,133.468c0,.9-.388,1.631-.868,1.631h0c-.48,0-.868-.731-.868-1.631V32.551c0-.9.388-1.63.868-1.63h0c.479,0,.868.731.868,1.63Z" transform="translate(-4.346 -4.12)" opacity="0.7" fill="url(#linear-gradient-3)" style="mix-blend-mode: screen;isolation: isolate"/>
    <g id="Grupo_131774" data-name="Grupo 131774" transform="translate(177.648 27.102)">
      <g id="Grupo_131762" data-name="Grupo 131762" transform="translate(0 0.9)">
        <path id="Trazado_191464" data-name="Trazado 191464" d="M184.529,156.329h2.3a.428.428,0,0,1,0,.831h-2.3a.428.428,0,0,1,0-.831Z" transform="translate(-184.204 -56.506)" fill="#1d1d1b"/>
        <path id="Trazado_191465" data-name="Trazado 191465" d="M186.06,154.527h-1.5a.217.217,0,0,1,0-.425h1.5a.217.217,0,0,1,0,.425Z" transform="translate(-184.24 -56.073)" fill="#1d1d1b"/>
        <path id="Trazado_191466" data-name="Trazado 191466" d="M186.06,152.049h-1.5a.216.216,0,0,1,0-.425h1.5a.216.216,0,0,1,0,.425Z" transform="translate(-184.24 -55.591)" fill="#1d1d1b"/>
        <path id="Trazado_191467" data-name="Trazado 191467" d="M186.06,149.571h-1.5a.216.216,0,0,1,0-.425h1.5a.216.216,0,0,1,0,.425Z" transform="translate(-184.24 -55.109)" fill="#1d1d1b"/>
        <path id="Trazado_191468" data-name="Trazado 191468" d="M186.06,147.092h-1.5a.216.216,0,0,1,0-.425h1.5a.216.216,0,0,1,0,.425Z" transform="translate(-184.24 -54.627)" fill="#1d1d1b"/>
        <path id="Trazado_191469" data-name="Trazado 191469" d="M184.529,143.939h2.3a.427.427,0,0,1,0,.829h-2.3a.427.427,0,0,1,0-.829Z" transform="translate(-184.204 -54.097)" fill="#1d1d1b"/>
        <path id="Trazado_191470" data-name="Trazado 191470" d="M186.06,142.135h-1.5a.216.216,0,0,1,0-.425h1.5a.216.216,0,0,1,0,.425Z" transform="translate(-184.24 -53.663)" fill="#1d1d1b"/>
        <path id="Trazado_191471" data-name="Trazado 191471" d="M186.06,139.658h-1.5a.218.218,0,0,1,0-.427h1.5a.218.218,0,0,1,0,.427Z" transform="translate(-184.24 -53.181)" fill="#1d1d1b"/>
        <path id="Trazado_191472" data-name="Trazado 191472" d="M186.06,137.18h-1.5a.216.216,0,0,1,0-.425h1.5a.216.216,0,0,1,0,.425Z" transform="translate(-184.24 -52.7)" fill="#1d1d1b"/>
        <path id="Trazado_191473" data-name="Trazado 191473" d="M186.06,134.7h-1.5a.218.218,0,0,1,0-.427h1.5a.218.218,0,0,1,0,.427Z" transform="translate(-184.24 -52.217)" fill="#1d1d1b"/>
        <path id="Trazado_191474" data-name="Trazado 191474" d="M184.529,131.546h2.3a.428.428,0,0,1,0,.831h-2.3a.428.428,0,0,1,0-.831Z" transform="translate(-184.204 -51.687)" fill="#1d1d1b"/>
        <path id="Trazado_191475" data-name="Trazado 191475" d="M186.06,129.744h-1.5a.2.2,0,0,1-.175-.214.2.2,0,0,1,.175-.211h1.5a.2.2,0,0,1,.175.211A.2.2,0,0,1,186.06,129.744Z" transform="translate(-184.24 -51.254)" fill="#1d1d1b"/>
        <path id="Trazado_191476" data-name="Trazado 191476" d="M186.06,127.266h-1.5a.216.216,0,0,1,0-.425h1.5a.216.216,0,0,1,0,.425Z" transform="translate(-184.24 -50.772)" fill="#1d1d1b"/>
        <path id="Trazado_191477" data-name="Trazado 191477" d="M186.06,124.787h-1.5a.217.217,0,0,1,0-.425h1.5a.217.217,0,0,1,0,.425Z" transform="translate(-184.24 -50.29)" fill="#1d1d1b"/>
        <path id="Trazado_191478" data-name="Trazado 191478" d="M186.06,122.309h-1.5a.216.216,0,0,1,0-.425h1.5a.216.216,0,0,1,0,.425Z" transform="translate(-184.24 -49.808)" fill="#1d1d1b"/>
        <path id="Trazado_191479" data-name="Trazado 191479" d="M184.529,119.153h2.3a.429.429,0,0,1,0,.831h-2.3a.428.428,0,0,1,0-.831Z" transform="translate(-184.204 -49.277)" fill="#1d1d1b"/>
        <path id="Trazado_191480" data-name="Trazado 191480" d="M186.06,117.352h-1.5a.216.216,0,0,1,0-.425h1.5a.216.216,0,0,1,0,.425Z" transform="translate(-184.24 -48.844)" fill="#1d1d1b"/>
        <path id="Trazado_191481" data-name="Trazado 191481" d="M186.06,114.874h-1.5a.217.217,0,0,1,0-.426h1.5a.217.217,0,0,1,0,.426Z" transform="translate(-184.24 -48.362)" fill="#1d1d1b"/>
        <path id="Trazado_191482" data-name="Trazado 191482" d="M186.06,112.395h-1.5a.216.216,0,0,1,0-.425h1.5a.216.216,0,0,1,0,.425Z" transform="translate(-184.24 -47.881)" fill="#1d1d1b"/>
        <path id="Trazado_191483" data-name="Trazado 191483" d="M186.06,109.916h-1.5a.217.217,0,0,1,0-.425h1.5a.217.217,0,0,1,0,.425Z" transform="translate(-184.24 -47.399)" fill="#1d1d1b"/>
        <path id="Trazado_191484" data-name="Trazado 191484" d="M184.529,106.762h2.3a.428.428,0,0,1,0,.831h-2.3a.428.428,0,0,1,0-.831Z" transform="translate(-184.204 -46.868)" fill="#1d1d1b"/>
        <path id="Trazado_191485" data-name="Trazado 191485" d="M186.06,104.96h-1.5a.217.217,0,0,1,0-.426h1.5a.217.217,0,0,1,0,.426Z" transform="translate(-184.24 -46.435)" fill="#1d1d1b"/>
        <path id="Trazado_191486" data-name="Trazado 191486" d="M186.06,102.483h-1.5a.216.216,0,0,1,0-.425h1.5a.216.216,0,0,1,0,.425Z" transform="translate(-184.24 -45.953)" fill="#1d1d1b"/>
        <path id="Trazado_191487" data-name="Trazado 191487" d="M186.06,100h-1.5a.217.217,0,0,1,0-.426h1.5a.217.217,0,0,1,0,.426Z" transform="translate(-184.24 -45.471)" fill="#1d1d1b"/>
        <path id="Trazado_191488" data-name="Trazado 191488" d="M186.06,97.525h-1.5a.217.217,0,0,1,0-.426h1.5a.217.217,0,0,1,0,.426Z" transform="translate(-184.24 -44.989)" fill="#1d1d1b"/>
        <path id="Trazado_191489" data-name="Trazado 191489" d="M184.529,94.37h2.3a.428.428,0,0,1,0,.831h-2.3a.428.428,0,0,1,0-.831Z" transform="translate(-184.204 -44.458)" fill="#1d1d1b"/>
        <path id="Trazado_191490" data-name="Trazado 191490" d="M186.06,92.569h-1.5a.216.216,0,0,1,0-.425h1.5a.216.216,0,0,1,0,.425Z" transform="translate(-184.24 -44.026)" fill="#1d1d1b"/>
        <path id="Trazado_191491" data-name="Trazado 191491" d="M186.06,90.089h-1.5a.217.217,0,0,1,0-.425h1.5a.217.217,0,0,1,0,.425Z" transform="translate(-184.24 -43.543)" fill="#1d1d1b"/>
        <path id="Trazado_191492" data-name="Trazado 191492" d="M186.06,87.611h-1.5a.217.217,0,0,1,0-.425h1.5a.217.217,0,0,1,0,.425Z" transform="translate(-184.24 -43.062)" fill="#1d1d1b"/>
        <path id="Trazado_191493" data-name="Trazado 191493" d="M186.06,85.133h-1.5a.216.216,0,0,1,0-.425h1.5a.216.216,0,0,1,0,.425Z" transform="translate(-184.24 -42.58)" fill="#1d1d1b"/>
        <path id="Trazado_191494" data-name="Trazado 191494" d="M184.529,81.977h2.3a.429.429,0,0,1,0,.831h-2.3a.428.428,0,0,1,0-.831Z" transform="translate(-184.204 -42.049)" fill="#1d1d1b"/>
        <path id="Trazado_191495" data-name="Trazado 191495" d="M184.565,79.752h1.5a.216.216,0,0,1,0,.424h-1.5a.216.216,0,0,1,0-.424Z" transform="translate(-184.24 -41.616)" fill="#1d1d1b"/>
        <path id="Trazado_191496" data-name="Trazado 191496" d="M184.565,77.273h1.5a.216.216,0,0,1,0,.425h-1.5a.216.216,0,0,1,0-.425Z" transform="translate(-184.24 -41.134)" fill="#1d1d1b"/>
        <path id="Trazado_191497" data-name="Trazado 191497" d="M184.565,74.794h1.5a.216.216,0,0,1,0,.425h-1.5a.216.216,0,0,1,0-.425Z" transform="translate(-184.24 -40.652)" fill="#1d1d1b"/>
        <path id="Trazado_191498" data-name="Trazado 191498" d="M184.565,72.315h1.5a.2.2,0,0,1,.175.213.2.2,0,0,1-.175.212h-1.5a.2.2,0,0,1-.175-.212A.2.2,0,0,1,184.565,72.315Z" transform="translate(-184.24 -40.17)" fill="#1d1d1b"/>
        <path id="Trazado_191499" data-name="Trazado 191499" d="M186.06,67.784h-1.5a.216.216,0,0,1,0-.424h1.5a.216.216,0,0,1,0,.424Z" transform="translate(-184.24 -39.207)" fill="#1d1d1b"/>
        <path id="Trazado_191500" data-name="Trazado 191500" d="M186.06,65.307h-1.5a.216.216,0,0,1,0-.425h1.5a.216.216,0,0,1,0,.425Z" transform="translate(-184.24 -38.725)" fill="#1d1d1b"/>
        <path id="Trazado_191501" data-name="Trazado 191501" d="M186.06,62.828h-1.5a.2.2,0,0,1-.175-.213.2.2,0,0,1,.175-.212h1.5a.2.2,0,0,1,.175.212A.2.2,0,0,1,186.06,62.828Z" transform="translate(-184.24 -38.243)" fill="#1d1d1b"/>
        <path id="Trazado_191502" data-name="Trazado 191502" d="M186.06,60.35h-1.5a.216.216,0,0,1,0-.425h1.5a.216.216,0,0,1,0,.425Z" transform="translate(-184.24 -37.761)" fill="#1d1d1b"/>
        <path id="Trazado_191503" data-name="Trazado 191503" d="M184.529,57.194h2.3a.429.429,0,0,1,0,.831h-2.3a.428.428,0,0,1,0-.831Z" transform="translate(-184.204 -37.23)" fill="#1d1d1b"/>
        <path id="Trazado_191504" data-name="Trazado 191504" d="M184.529,69.585h2.3a.428.428,0,0,1,0,.831h-2.3a.428.428,0,0,1,0-.831Z" transform="translate(-184.204 -39.639)" fill="#1d1d1b"/>
        <path id="Trazado_191505" data-name="Trazado 191505" d="M186.06,55.392h-1.5a.217.217,0,0,1,0-.425h1.5a.217.217,0,0,1,0,.425Z" transform="translate(-184.24 -36.797)" fill="#1d1d1b"/>
        <path id="Trazado_191506" data-name="Trazado 191506" d="M186.06,52.915h-1.5a.217.217,0,0,1,0-.426h1.5a.217.217,0,0,1,0,.426Z" transform="translate(-184.24 -36.315)" fill="#1d1d1b"/>
        <path id="Trazado_191507" data-name="Trazado 191507" d="M186.06,50.436h-1.5a.216.216,0,0,1,0-.425h1.5a.216.216,0,0,1,0,.425Z" transform="translate(-184.24 -35.833)" fill="#1d1d1b"/>
        <path id="Trazado_191508" data-name="Trazado 191508" d="M186.06,47.957h-1.5a.217.217,0,0,1,0-.425h1.5a.217.217,0,0,1,0,.425Z" transform="translate(-184.24 -35.351)" fill="#1d1d1b"/>
        <path id="Trazado_191509" data-name="Trazado 191509" d="M186.06,40.523h-1.5a.217.217,0,0,1,0-.426h1.5a.217.217,0,0,1,0,.426Z" transform="translate(-184.24 -33.905)" fill="#1d1d1b"/>
        <path id="Trazado_191510" data-name="Trazado 191510" d="M186.06,35.565h-1.5a.216.216,0,0,1,0-.425h1.5a.216.216,0,0,1,0,.425Z" transform="translate(-184.24 -32.942)" fill="#1d1d1b"/>
        <path id="Trazado_191511" data-name="Trazado 191511" d="M184.529,44.8h2.3a.428.428,0,0,1,0,.831h-2.3a.428.428,0,0,1,0-.831Z" transform="translate(-184.204 -34.82)" fill="#1d1d1b"/>
        <path id="Trazado_191512" data-name="Trazado 191512" d="M184.529,32.411h2.3a.428.428,0,0,1,0,.83h-2.3a.427.427,0,0,1,0-.83Z" transform="translate(-184.204 -32.411)" fill="#1d1d1b"/>
        <path id="Trazado_191513" data-name="Trazado 191513" d="M186.06,43h-1.5a.216.216,0,0,1,0-.425h1.5a.216.216,0,0,1,0,.425Z" transform="translate(-184.24 -34.387)" fill="#1d1d1b"/>
        <path id="Trazado_191514" data-name="Trazado 191514" d="M186.06,38.045h-1.5a.218.218,0,0,1,0-.427h1.5a.218.218,0,0,1,0,.427Z" transform="translate(-184.24 -33.423)" fill="#1d1d1b"/>
      </g>
      <g id="Grupo_131763" data-name="Grupo 131763" transform="translate(6.048 98.963)">
        <path id="Trazado_191515" data-name="Trazado 191515" d="M192.747,154.144a.807.807,0,0,1,.492.146,1.046,1.046,0,0,1,.32.379,1.836,1.836,0,0,1,.172.535,3.65,3.65,0,0,1,0,1.213,1.8,1.8,0,0,1-.172.532,1.046,1.046,0,0,1-.32.379.826.826,0,0,1-.492.141.837.837,0,0,1-.5-.141,1.06,1.06,0,0,1-.319-.379,1.8,1.8,0,0,1-.169-.532,3.769,3.769,0,0,1,0-1.213,1.836,1.836,0,0,1,.169-.535,1.06,1.06,0,0,1,.319-.379A.817.817,0,0,1,192.747,154.144Zm0,.271a.49.49,0,0,0-.35.131.89.89,0,0,0-.22.332,1.833,1.833,0,0,0-.113.448,3.867,3.867,0,0,0-.031.485,3.813,3.813,0,0,0,.031.483,1.826,1.826,0,0,0,.113.445.887.887,0,0,0,.22.326.538.538,0,0,0,.7,0,.885.885,0,0,0,.219-.326,1.824,1.824,0,0,0,.114-.445,3.546,3.546,0,0,0,.034-.483,3.6,3.6,0,0,0-.034-.485,1.832,1.832,0,0,0-.114-.448.889.889,0,0,0-.219-.332A.486.486,0,0,0,192.747,154.415Z" transform="translate(-191.712 -154.144)"/>
      </g>
      <g id="Grupo_131764" data-name="Grupo 131764" transform="translate(5.55 89.066)">
        <path id="Trazado_191516" data-name="Trazado 191516" d="M191.892,144.249h-.235v-2.025l-.419.355-.144-.164.589-.483h.209Z" transform="translate(-191.094 -141.873)"/>
        <path id="Trazado_191517" data-name="Trazado 191517" d="M193.777,141.858a.593.593,0,0,1,.36.107.778.778,0,0,1,.234.279,1.352,1.352,0,0,1,.126.39,2.687,2.687,0,0,1,0,.889,1.374,1.374,0,0,1-.126.388.759.759,0,0,1-.234.277.674.674,0,0,1-.724,0,.759.759,0,0,1-.234-.277,1.324,1.324,0,0,1-.124-.388,2.808,2.808,0,0,1,0-.889,1.3,1.3,0,0,1,.124-.39.778.778,0,0,1,.234-.279A.6.6,0,0,1,193.777,141.858Zm0,.2a.362.362,0,0,0-.256.1.68.68,0,0,0-.161.242,1.37,1.37,0,0,0-.082.329,2.833,2.833,0,0,0-.023.355,2.746,2.746,0,0,0,.023.352,1.306,1.306,0,0,0,.082.326.649.649,0,0,0,.161.239.4.4,0,0,0,.509,0,.658.658,0,0,0,.16-.239,1.342,1.342,0,0,0,.084-.326,2.612,2.612,0,0,0,.024-.352,2.7,2.7,0,0,0-.024-.355,1.409,1.409,0,0,0-.084-.329.69.69,0,0,0-.16-.242A.36.36,0,0,0,193.777,142.058Z" transform="translate(-191.468 -141.858)"/>
      </g>
      <g id="Grupo_131765" data-name="Grupo 131765" transform="translate(5.447 79.169)">
        <path id="Trazado_191518" data-name="Trazado 191518" d="M192.445,131.949h-1.479V131.7l.949-.959a1.4,1.4,0,0,0,.1-.113.892.892,0,0,0,.091-.126.706.706,0,0,0,.062-.138.522.522,0,0,0,.023-.153.437.437,0,0,0-.036-.184.419.419,0,0,0-.1-.139.458.458,0,0,0-.147-.089.517.517,0,0,0-.176-.031.453.453,0,0,0-.314.117.531.531,0,0,0-.164.3l-.232-.046a.681.681,0,0,1,.086-.225.7.7,0,0,1,.158-.181.72.72,0,0,1,.211-.118.747.747,0,0,1,.255-.043.872.872,0,0,1,.267.041.666.666,0,0,1,.221.121.6.6,0,0,1,.151.2.652.652,0,0,1,.056.277.659.659,0,0,1-.031.206.924.924,0,0,1-.081.18,1.038,1.038,0,0,1-.12.162c-.045.052-.093.1-.144.152l-.834.828h1.227Z" transform="translate(-190.966 -129.573)"/>
        <path id="Trazado_191519" data-name="Trazado 191519" d="M193.9,129.573a.594.594,0,0,1,.361.107.778.778,0,0,1,.234.279,1.335,1.335,0,0,1,.126.39,2.745,2.745,0,0,1,0,.889,1.34,1.34,0,0,1-.126.388.758.758,0,0,1-.234.277.674.674,0,0,1-.724,0,.759.759,0,0,1-.234-.277,1.341,1.341,0,0,1-.125-.388,2.873,2.873,0,0,1,0-.889,1.336,1.336,0,0,1,.125-.39.778.778,0,0,1,.234-.279A.6.6,0,0,1,193.9,129.573Zm0,.2a.355.355,0,0,0-.255.1.663.663,0,0,0-.161.242,1.271,1.271,0,0,0-.082.327,2.86,2.86,0,0,0-.023.356,2.8,2.8,0,0,0,.023.354,1.252,1.252,0,0,0,.082.325.64.64,0,0,0,.161.238.387.387,0,0,0,.508,0,.64.64,0,0,0,.161-.238,1.321,1.321,0,0,0,.084-.325,2.662,2.662,0,0,0,.024-.354,2.717,2.717,0,0,0-.024-.356,1.341,1.341,0,0,0-.084-.327.663.663,0,0,0-.161-.242A.352.352,0,0,0,193.9,129.773Z" transform="translate(-191.39 -129.573)"/>
      </g>
      <g id="Grupo_131766" data-name="Grupo 131766" transform="translate(5.444 69.273)">
        <path id="Trazado_191520" data-name="Trazado 191520" d="M191.5,118.348h.1a.874.874,0,0,0,.209-.023.488.488,0,0,0,.172-.073.372.372,0,0,0,.115-.132.426.426,0,0,0,.043-.2.447.447,0,0,0-.035-.18.393.393,0,0,0-.1-.136.48.48,0,0,0-.147-.089.51.51,0,0,0-.176-.031.472.472,0,0,0-.441.272l-.2-.106a.719.719,0,0,1,.274-.277.793.793,0,0,1,.38-.089.838.838,0,0,1,.26.041.7.7,0,0,1,.217.119.565.565,0,0,1,.148.195.612.612,0,0,1,.056.267.52.52,0,0,1-.115.346.541.541,0,0,1-.288.184v.006a.6.6,0,0,1,.332.192.555.555,0,0,1,.133.383.7.7,0,0,1-.06.3.665.665,0,0,1-.163.218.69.69,0,0,1-.237.137.867.867,0,0,1-.286.048.79.79,0,0,1-.445-.124.751.751,0,0,1-.288-.35l.222-.082a.5.5,0,0,0,.2.259.538.538,0,0,0,.314.1.575.575,0,0,0,.191-.035.536.536,0,0,0,.164-.1.509.509,0,0,0,.113-.156.5.5,0,0,0,.043-.209.442.442,0,0,0-.052-.22.41.41,0,0,0-.135-.145.551.551,0,0,0-.193-.08.922.922,0,0,0-.222-.026h-.1Z" transform="translate(-190.962 -117.288)"/>
        <path id="Trazado_191521" data-name="Trazado 191521" d="M193.909,117.288a.593.593,0,0,1,.36.107.778.778,0,0,1,.234.277,1.347,1.347,0,0,1,.126.391,2.559,2.559,0,0,1,.038.445,2.518,2.518,0,0,1-.038.443,1.355,1.355,0,0,1-.126.389.758.758,0,0,1-.234.277.678.678,0,0,1-.724,0,.765.765,0,0,1-.234-.277,1.328,1.328,0,0,1-.124-.389,2.681,2.681,0,0,1-.036-.443,2.724,2.724,0,0,1,.036-.445,1.321,1.321,0,0,1,.124-.391.785.785,0,0,1,.234-.277A.6.6,0,0,1,193.909,117.288Zm0,.2a.36.36,0,0,0-.256.094.673.673,0,0,0-.161.242,1.3,1.3,0,0,0-.081.329,2.7,2.7,0,0,0-.024.356,2.66,2.66,0,0,0,.024.354,1.266,1.266,0,0,0,.081.325.633.633,0,0,0,.161.238.357.357,0,0,0,.256.1.353.353,0,0,0,.252-.1.644.644,0,0,0,.161-.238,1.373,1.373,0,0,0,.084-.325,2.533,2.533,0,0,0,.024-.354,2.567,2.567,0,0,0-.024-.356,1.411,1.411,0,0,0-.084-.329.684.684,0,0,0-.161-.242A.356.356,0,0,0,193.909,117.488Z" transform="translate(-191.388 -117.288)"/>
      </g>
      <g id="Grupo_131767" data-name="Grupo 131767" transform="translate(5.432 59.378)">
        <path id="Trazado_191522" data-name="Trazado 191522" d="M192.237,106.625h.341v.209h-.341v.558h-.229v-.558h-1.061v-.23l.982-1.528h.308Zm-.229-1.283H192l-.809,1.283h.815Z" transform="translate(-190.947 -105.018)"/>
        <path id="Trazado_191523" data-name="Trazado 191523" d="M193.923,105a.6.6,0,0,1,.361.106.79.79,0,0,1,.234.278,1.341,1.341,0,0,1,.125.391,2.647,2.647,0,0,1,.038.445,2.6,2.6,0,0,1-.038.443,1.351,1.351,0,0,1-.125.39.778.778,0,0,1-.234.276.605.605,0,0,1-.361.1.612.612,0,0,1-.364-.1.777.777,0,0,1-.234-.276,1.326,1.326,0,0,1-.124-.39,2.769,2.769,0,0,1-.036-.443,2.823,2.823,0,0,1,.036-.445,1.316,1.316,0,0,1,.124-.391.79.79,0,0,1,.234-.278A.6.6,0,0,1,193.923,105Zm0,.2a.361.361,0,0,0-.256.1.656.656,0,0,0-.161.242,1.358,1.358,0,0,0-.082.328,2.985,2.985,0,0,0-.023.355,2.937,2.937,0,0,0,.023.354,1.347,1.347,0,0,0,.082.325.66.66,0,0,0,.161.238.366.366,0,0,0,.256.093.362.362,0,0,0,.253-.093.658.658,0,0,0,.16-.238,1.383,1.383,0,0,0,.084-.325,2.644,2.644,0,0,0,.025-.354,2.687,2.687,0,0,0-.025-.355,1.393,1.393,0,0,0-.084-.328.655.655,0,0,0-.16-.242A.357.357,0,0,0,193.923,105.2Z" transform="translate(-191.378 -105.004)"/>
      </g>
      <g id="Grupo_131768" data-name="Grupo 131768" transform="translate(5.456 49.482)">
        <path id="Trazado_191524" data-name="Trazado 191524" d="M192.347,93h-.965l-.017.717a.774.774,0,0,1,.159-.039.936.936,0,0,1,.162-.014.825.825,0,0,1,.3.052.713.713,0,0,1,.238.148.678.678,0,0,1,.156.231.758.758,0,0,1,.056.294.868.868,0,0,1-.055.31.728.728,0,0,1-.156.245.72.72,0,0,1-.242.162.806.806,0,0,1-.313.059.729.729,0,0,1-.693-.421l.212-.1a.512.512,0,0,0,.189.23.488.488,0,0,0,.28.085.581.581,0,0,0,.217-.04.522.522,0,0,0,.172-.115.551.551,0,0,0,.112-.175.564.564,0,0,0,.041-.219.575.575,0,0,0-.044-.231.511.511,0,0,0-.121-.175.522.522,0,0,0-.182-.111.635.635,0,0,0-.229-.039.892.892,0,0,0-.246.035,1.234,1.234,0,0,0-.234.093l.023-1.194h1.181Z" transform="translate(-190.977 -92.734)"/>
        <path id="Trazado_191525" data-name="Trazado 191525" d="M193.894,92.72a.593.593,0,0,1,.361.106.771.771,0,0,1,.233.278,1.363,1.363,0,0,1,.126.391,2.635,2.635,0,0,1,.038.444,2.607,2.607,0,0,1-.038.444,1.357,1.357,0,0,1-.126.391.754.754,0,0,1-.233.275.593.593,0,0,1-.361.106.6.6,0,0,1-.364-.106.754.754,0,0,1-.233-.275,1.308,1.308,0,0,1-.124-.391,2.688,2.688,0,0,1-.036-.444,2.718,2.718,0,0,1,.036-.444,1.313,1.313,0,0,1,.124-.391.772.772,0,0,1,.233-.278A.6.6,0,0,1,193.894,92.72Zm0,.2a.357.357,0,0,0-.255.1.643.643,0,0,0-.161.242,1.319,1.319,0,0,0-.082.329,2.792,2.792,0,0,0,0,.708,1.311,1.311,0,0,0,.082.325.644.644,0,0,0,.161.239.395.395,0,0,0,.508,0,.653.653,0,0,0,.161-.239,1.347,1.347,0,0,0,.083-.325,2.445,2.445,0,0,0,0-.708,1.354,1.354,0,0,0-.083-.329.653.653,0,0,0-.161-.242A.355.355,0,0,0,193.894,92.919Z" transform="translate(-191.397 -92.72)"/>
      </g>
      <g id="Grupo_131769" data-name="Grupo 131769" transform="translate(5.462 39.586)">
        <path id="Trazado_191526" data-name="Trazado 191526" d="M191.446,81.519l.006.006a.407.407,0,0,1,.147-.062.818.818,0,0,1,.184-.023.707.707,0,0,1,.279.053.667.667,0,0,1,.225.145.643.643,0,0,1,.148.226.805.805,0,0,1,0,.588.64.64,0,0,1-.156.228.752.752,0,0,1-.239.15.878.878,0,0,1-.6,0,.744.744,0,0,1-.239-.15.64.64,0,0,1-.156-.228.76.76,0,0,1-.056-.3.875.875,0,0,1,.063-.333,2.139,2.139,0,0,1,.147-.295l.632-1.017h.271Zm-.226.634a.568.568,0,0,0,.038.21.509.509,0,0,0,.106.168.529.529,0,0,0,.746,0,.486.486,0,0,0,.107-.168.568.568,0,0,0,.038-.21.593.593,0,0,0-.036-.206.509.509,0,0,0-.1-.168.473.473,0,0,0-.164-.109.6.6,0,0,0-.429,0,.473.473,0,0,0-.164.109.509.509,0,0,0-.1.168A.575.575,0,0,0,191.219,82.153Z" transform="translate(-190.984 -80.449)"/>
        <path id="Trazado_191527" data-name="Trazado 191527" d="M193.886,80.435a.6.6,0,0,1,.362.106.781.781,0,0,1,.233.278,1.345,1.345,0,0,1,.126.392,2.623,2.623,0,0,1,0,.888,1.337,1.337,0,0,1-.126.389.778.778,0,0,1-.233.277.686.686,0,0,1-.726,0,.772.772,0,0,1-.234-.277,1.289,1.289,0,0,1-.123-.389,2.735,2.735,0,0,1,0-.888,1.3,1.3,0,0,1,.123-.392.775.775,0,0,1,.234-.278A.6.6,0,0,1,193.886,80.435Zm0,.2a.364.364,0,0,0-.256.1.668.668,0,0,0-.16.242,1.32,1.32,0,0,0-.082.329,2.827,2.827,0,0,0-.023.355,2.79,2.79,0,0,0,.023.353,1.294,1.294,0,0,0,.082.325.648.648,0,0,0,.16.239.369.369,0,0,0,.256.093.364.364,0,0,0,.253-.093.648.648,0,0,0,.16-.239,1.362,1.362,0,0,0,.085-.325,2.648,2.648,0,0,0,.024-.353,2.683,2.683,0,0,0-.024-.355,1.389,1.389,0,0,0-.085-.329.668.668,0,0,0-.16-.242A.359.359,0,0,0,193.886,80.634Z" transform="translate(-191.401 -80.435)"/>
      </g>
      <g id="Grupo_131770" data-name="Grupo 131770" transform="translate(5.491 29.689)">
        <path id="Trazado_191528" data-name="Trazado 191528" d="M192.4,68.439l-.933,2.1H191.2l.959-2.107H191.02v-.209H192.4Z" transform="translate(-191.02 -68.163)"/>
        <path id="Trazado_191529" data-name="Trazado 191529" d="M193.849,68.149a.593.593,0,0,1,.362.107.776.776,0,0,1,.233.279,1.312,1.312,0,0,1,.126.39,2.629,2.629,0,0,1,0,.889,1.325,1.325,0,0,1-.126.388.764.764,0,0,1-.233.277.681.681,0,0,1-.726,0,.771.771,0,0,1-.233-.277,1.3,1.3,0,0,1-.124-.388,2.807,2.807,0,0,1,0-.889,1.288,1.288,0,0,1,.124-.39.784.784,0,0,1,.233-.279A.6.6,0,0,1,193.849,68.149Zm0,.2a.358.358,0,0,0-.255.094.68.68,0,0,0-.161.242,1.425,1.425,0,0,0-.082.33,2.788,2.788,0,0,0,0,.708,1.364,1.364,0,0,0,.082.325.653.653,0,0,0,.161.238.393.393,0,0,0,.509,0,.652.652,0,0,0,.16-.238,1.326,1.326,0,0,0,.084-.325,2.52,2.52,0,0,0,0-.708,1.385,1.385,0,0,0-.084-.33.679.679,0,0,0-.16-.242A.356.356,0,0,0,193.849,68.35Z" transform="translate(-191.423 -68.149)"/>
      </g>
      <g id="Grupo_131771" data-name="Grupo 131771" transform="translate(5.467 19.793)">
        <path id="Trazado_191530" data-name="Trazado 191530" d="M192.037,57.013a.6.6,0,0,1,.314.22.636.636,0,0,1,.124.4.606.606,0,0,1-.06.276.639.639,0,0,1-.162.209.718.718,0,0,1-.237.134.854.854,0,0,1-.566,0,.718.718,0,0,1-.237-.134.641.641,0,0,1-.163-.209.627.627,0,0,1-.06-.276.692.692,0,0,1,.033-.218.646.646,0,0,1,.092-.18.6.6,0,0,1,.139-.136.681.681,0,0,1,.176-.085v-.006a.43.43,0,0,1-.143-.077.492.492,0,0,1-.11-.121.606.606,0,0,1-.072-.153.543.543,0,0,1-.027-.172.589.589,0,0,1,.195-.45.657.657,0,0,1,.208-.124.717.717,0,0,1,.251-.044.737.737,0,0,1,.251.044.657.657,0,0,1,.208.124.581.581,0,0,1,.143.195.6.6,0,0,1,.053.255.566.566,0,0,1-.027.172.633.633,0,0,1-.072.153.508.508,0,0,1-.11.121.43.43,0,0,1-.143.077Zm-.811.592a.549.549,0,0,0,.035.2.456.456,0,0,0,.1.157.494.494,0,0,0,.16.1.589.589,0,0,0,.416,0,.486.486,0,0,0,.16-.1.434.434,0,0,0,.1-.157.533.533,0,0,0,.036-.2.5.5,0,0,0-.036-.193.428.428,0,0,0-.1-.154.445.445,0,0,0-.16-.1.614.614,0,0,0-.416,0,.45.45,0,0,0-.263.255A.515.515,0,0,0,191.226,57.6Zm.082-1.109a.417.417,0,0,0,.032.168.383.383,0,0,0,.092.131.431.431,0,0,0,.135.086.45.45,0,0,0,.33,0,.435.435,0,0,0,.136-.086.4.4,0,0,0,.092-.131.417.417,0,0,0,.032-.168.451.451,0,0,0-.032-.172.394.394,0,0,0-.09-.137.42.42,0,0,0-.135-.09.446.446,0,0,0-.337,0,.439.439,0,0,0-.135.09.4.4,0,0,0-.089.137A.452.452,0,0,0,191.308,56.5Z" transform="translate(-190.99 -55.864)"/>
        <path id="Trazado_191531" data-name="Trazado 191531" d="M193.881,55.864a.589.589,0,0,1,.36.107.782.782,0,0,1,.234.278,1.332,1.332,0,0,1,.126.391,2.686,2.686,0,0,1,0,.889,1.356,1.356,0,0,1-.126.388.765.765,0,0,1-.234.277.6.6,0,0,1-.36.1.613.613,0,0,1-.365-.1.773.773,0,0,1-.234-.277,1.331,1.331,0,0,1-.124-.388,2.807,2.807,0,0,1,0-.889,1.309,1.309,0,0,1,.124-.391.79.79,0,0,1,.234-.278A.6.6,0,0,1,193.881,55.864Zm0,.2a.364.364,0,0,0-.257.094.682.682,0,0,0-.16.242,1.369,1.369,0,0,0-.083.329,2.975,2.975,0,0,0-.023.355,2.922,2.922,0,0,0,.023.352,1.33,1.33,0,0,0,.083.327.659.659,0,0,0,.16.238.363.363,0,0,0,.257.093.357.357,0,0,0,.252-.093.658.658,0,0,0,.16-.238,1.368,1.368,0,0,0,.085-.327,2.773,2.773,0,0,0,.024-.352,2.824,2.824,0,0,0-.024-.355,1.409,1.409,0,0,0-.085-.329.682.682,0,0,0-.16-.242A.357.357,0,0,0,193.881,56.064Z" transform="translate(-191.405 -55.864)"/>
      </g>
      <g id="Grupo_131772" data-name="Grupo 131772" transform="translate(5.465 9.896)">
        <path id="Trazado_191532" data-name="Trazado 191532" d="M192.032,44.944l-.007-.006a.4.4,0,0,1-.147.063.816.816,0,0,1-.184.022.736.736,0,0,1-.279-.052.659.659,0,0,1-.374-.371.807.807,0,0,1,0-.586.642.642,0,0,1,.156-.23.767.767,0,0,1,.239-.15.878.878,0,0,1,.6,0,.758.758,0,0,1,.239.15.654.654,0,0,1,.157.23.774.774,0,0,1,.056.3.869.869,0,0,1-.063.333,2.093,2.093,0,0,1-.147.295l-.632,1.017h-.271Zm.226-.635a.577.577,0,0,0-.037-.209.492.492,0,0,0-.106-.168.5.5,0,0,0-.164-.112.556.556,0,0,0-.42,0,.5.5,0,0,0-.164.112.469.469,0,0,0-.106.168.578.578,0,0,0-.038.209.606.606,0,0,0,.036.208.5.5,0,0,0,.1.167.454.454,0,0,0,.164.11.6.6,0,0,0,.429,0,.453.453,0,0,0,.164-.11.5.5,0,0,0,.1-.167A.587.587,0,0,0,192.258,44.309Z" transform="translate(-190.988 -43.579)"/>
        <path id="Trazado_191533" data-name="Trazado 191533" d="M193.882,43.579a.6.6,0,0,1,.361.106.791.791,0,0,1,.234.279,1.332,1.332,0,0,1,.126.391,2.638,2.638,0,0,1,.038.445,2.6,2.6,0,0,1-.038.442,1.351,1.351,0,0,1-.126.39.772.772,0,0,1-.234.277.68.68,0,0,1-.725,0,.772.772,0,0,1-.234-.277,1.326,1.326,0,0,1-.124-.39,2.774,2.774,0,0,1-.035-.442,2.815,2.815,0,0,1,.035-.445,1.308,1.308,0,0,1,.124-.391.791.791,0,0,1,.234-.279A.6.6,0,0,1,193.882,43.579Zm0,.2a.363.363,0,0,0-.256.094.675.675,0,0,0-.16.242,1.372,1.372,0,0,0-.083.329,3,3,0,0,0-.023.356,2.932,2.932,0,0,0,.023.352,1.308,1.308,0,0,0,.083.325.641.641,0,0,0,.16.239.366.366,0,0,0,.256.093.361.361,0,0,0,.253-.093.642.642,0,0,0,.16-.239,1.344,1.344,0,0,0,.085-.325,2.781,2.781,0,0,0,.024-.352,2.844,2.844,0,0,0-.024-.356,1.412,1.412,0,0,0-.085-.329.675.675,0,0,0-.16-.242A.358.358,0,0,0,193.882,43.779Z" transform="translate(-191.403 -43.579)"/>
      </g>
      <g id="Grupo_131773" data-name="Grupo 131773" transform="translate(4.684)">
        <path id="Trazado_191534" data-name="Trazado 191534" d="M190.816,33.684h-.236V31.659l-.419.357-.143-.164.589-.483h.209Z" transform="translate(-190.018 -31.308)"/>
        <path id="Trazado_191535" data-name="Trazado 191535" d="M192.7,31.294a.592.592,0,0,1,.36.106.793.793,0,0,1,.234.277,1.359,1.359,0,0,1,.125.392,2.557,2.557,0,0,1,.038.445,2.514,2.514,0,0,1-.038.442,1.351,1.351,0,0,1-.125.39.763.763,0,0,1-.234.276.678.678,0,0,1-.724,0,.762.762,0,0,1-.234-.276,1.326,1.326,0,0,1-.125-.39,2.767,2.767,0,0,1-.035-.442,2.815,2.815,0,0,1,.035-.445,1.334,1.334,0,0,1,.125-.392.793.793,0,0,1,.234-.277A.6.6,0,0,1,192.7,31.294Zm0,.2a.365.365,0,0,0-.257.094.668.668,0,0,0-.16.242,1.327,1.327,0,0,0-.082.329,2.834,2.834,0,0,0-.023.356,2.772,2.772,0,0,0,.023.352,1.3,1.3,0,0,0,.082.326.638.638,0,0,0,.16.238.368.368,0,0,0,.257.093.362.362,0,0,0,.252-.093.629.629,0,0,0,.16-.238,1.3,1.3,0,0,0,.084-.326,2.642,2.642,0,0,0,.025-.352,2.7,2.7,0,0,0-.025-.356,1.325,1.325,0,0,0-.084-.329.658.658,0,0,0-.16-.242A.359.359,0,0,0,192.7,31.494Z" transform="translate(-190.392 -31.294)"/>
        <path id="Trazado_191536" data-name="Trazado 191536" d="M194.853,31.294a.592.592,0,0,1,.36.106.787.787,0,0,1,.234.277,1.359,1.359,0,0,1,.126.392,2.64,2.64,0,0,1,.038.445,2.6,2.6,0,0,1-.038.442,1.351,1.351,0,0,1-.126.39.757.757,0,0,1-.234.276.6.6,0,0,1-.36.1.6.6,0,0,1-.364-.1.762.762,0,0,1-.234-.276,1.326,1.326,0,0,1-.124-.39,2.678,2.678,0,0,1-.035-.442,2.724,2.724,0,0,1,.035-.445,1.334,1.334,0,0,1,.124-.392.793.793,0,0,1,.234-.277A.6.6,0,0,1,194.853,31.294Zm0,.2a.362.362,0,0,0-.256.094.658.658,0,0,0-.16.242,1.365,1.365,0,0,0-.083.329,3,3,0,0,0-.023.356,2.932,2.932,0,0,0,.023.352,1.335,1.335,0,0,0,.083.326.629.629,0,0,0,.16.238.365.365,0,0,0,.256.093.361.361,0,0,0,.253-.093.638.638,0,0,0,.16-.238,1.334,1.334,0,0,0,.084-.326,2.644,2.644,0,0,0,.025-.352,2.7,2.7,0,0,0-.025-.356,1.364,1.364,0,0,0-.084-.329.668.668,0,0,0-.16-.242A.358.358,0,0,0,194.853,31.494Z" transform="translate(-190.811 -31.294)"/>
      </g>
    </g>
  </g>
</svg>
