<svg xmlns="http://www.w3.org/2000/svg" width="63" height="63" viewBox="0 0 63 63">
  <g id="Grupo_142485" data-name="Grupo 142485" transform="translate(-815 -5261)">
    <circle id="Elipse_5187" data-name="Elipse 5187" cx="31.5" cy="31.5" r="31.5" transform="translate(815 5261)" fill="#5000c7"/>
    <g id="Grupo_142483" data-name="Grupo 142483" transform="translate(471.876 5016.286)">
      <path id="Trazado_202416" data-name="Trazado 202416" d="M368.6,278.035a47.342,47.342,0,0,0-19.185,6.868V297.92h49.767q.348-6.69.647-13.025a47.338,47.338,0,0,0-23.021-7.2l.205-.824,1.657-6.642.108.147,7.978-7.122,7.247,1.036,2.009,2.374-1.6-2.831-.043-.076-.136-.046-7.563-2.584L386.3,261l-.5.3-8.311,5-3.709-5.669,7.115-10.815,10.161,2.555-10.849-4.187-4.417,5.476-3.512-5.26-.191-.287-.264.079-6.348,1.886,6.184-1.027,2.631,6.468-3.592,4.453-4.422-5.545-.491-.616-.6.209-7.554,2.612-.161.055-.049.105-2.129,4.464,2.62-3.992,7.009-1.119,5.538,8.917-5.851-.979-.436-.073-.19.282-3.42,5.079,4.072-3.968,7.446,2.268,1.308,2.105-4.26,7.343Zm10.116,9.311c0,.026,0,.053,0,.078a3.729,3.729,0,0,1-.046.562,3.322,3.322,0,0,1-.452,1.444c-.518.8-1.318.874-1.824,1.6-.015.021-.024.041-.038.062a.1.1,0,0,1,.02.05v.367a.218.218,0,0,1-.065.144.175.175,0,0,1,.065.13v.359c.311-.045.548-.045.67.074.25.232-.072,1.366-1.4,2.022a3,3,0,0,1-3.249-.086c-1.194-.675-1.466-1.711-1.232-1.936.123-.119.359-.119.669-.075v-.358a.178.178,0,0,1,.065-.131.214.214,0,0,1-.065-.143v-.367a.106.106,0,0,1,.02-.05c-.013-.021-.023-.041-.038-.062-.507-.724-1.306-.8-1.823-1.6a3.311,3.311,0,0,1-.453-1.444,3.732,3.732,0,0,1-.047-.562c0-.026,0-.053,0-.078a4.339,4.339,0,0,1,3.754-4.184,4.934,4.934,0,0,1,.853-.075h0a4.973,4.973,0,0,1,.854.075,4.971,4.971,0,0,0-.853-.075h0a4.931,4.931,0,0,1,.852.075A4.337,4.337,0,0,1,378.717,287.346Z" fill="#fff"/>
      <path id="Trazado_202417" data-name="Trazado 202417" d="M376.455,293.834a.993.993,0,1,0,.954.992A.974.974,0,0,0,376.455,293.834Z" transform="translate(-4.318 -7.566)" fill="#fff"/>
      <path id="Trazado_202418" data-name="Trazado 202418" d="M381.183,293.834a.993.993,0,1,0,.953.992A.974.974,0,0,0,381.183,293.834Z" transform="translate(-5.1 -7.566)" fill="#fff"/>
      <path id="Trazado_202419" data-name="Trazado 202419" d="M380.722,299.546a.1.1,0,0,0-.1.1v.361a.262.262,0,0,1-.162.1c-.109.028-.22.058-.333.088l-.106.028-.112.031a.13.13,0,0,1-.111-.009.044.044,0,0,1-.017-.038v-.571a.1.1,0,0,0-.209,0v.571a.213.213,0,0,1-.178.165,4.214,4.214,0,0,1-.572.077.138.138,0,0,1-.119-.04.113.113,0,0,1-.038-.084v-.638a.1.1,0,0,0-.209,0v.638a.116.116,0,0,1-.038.084.127.127,0,0,1-.119.04,4.38,4.38,0,0,1-.573-.077.213.213,0,0,1-.177-.165v-.571a.1.1,0,0,0-.209,0v.571a.044.044,0,0,1-.018.038.132.132,0,0,1-.11.009l-.218-.059-.332-.088a.306.306,0,0,1-.163-.089v-.367a.1.1,0,0,0-.1-.1.1.1,0,0,0-.084.054.106.106,0,0,0-.02.05v.367a.214.214,0,0,0,.065.143.178.178,0,0,0-.065.131v.37a.1.1,0,0,0,.209,0l-.008-.347a.18.18,0,0,1,.119-.005c.112.028.224.058.34.09l.056.016.152.041h0a.229.229,0,0,1,.179.174v.572a.1.1,0,1,0,.209,0v-.572a.041.041,0,0,1,.015-.034.149.149,0,0,1,.122-.018,4.8,4.8,0,0,0,.6.08.167.167,0,0,1,.17.141v.64a.1.1,0,1,0,.209,0v-.64a.167.167,0,0,1,.171-.141,4.708,4.708,0,0,0,.6-.08.147.147,0,0,1,.123.018.04.04,0,0,1,.016.034v.572a.1.1,0,1,0,.209,0v-.572a.227.227,0,0,1,.181-.174l.219-.06c.111-.03.221-.06.327-.086.07-.017.11,0,.112-.016v.367a.1.1,0,0,0,.209,0v-.37a.175.175,0,0,0-.065-.13.218.218,0,0,0,.065-.144v-.367a.1.1,0,0,0-.02-.05A.1.1,0,0,0,380.722,299.546Zm-2.165,1.016h0v0Z" transform="translate(-4.448 -8.509)" fill="#fff"/>
      <path id="Trazado_202420" data-name="Trazado 202420" d="M379.5,297.386l-.418-.836a.229.229,0,0,0-.41,0l-.418.836a.23.23,0,0,0,.2.333h.836A.23.23,0,0,0,379.5,297.386Z" transform="translate(-4.77 -7.995)" fill="#fff"/>
    </g>
  </g>
</svg>
