<svg xmlns="http://www.w3.org/2000/svg" width="63" height="63" viewBox="0 0 63 63">
  <g id="Grupo_142486" data-name="Grupo 142486" transform="translate(-265 -5390)">
    <circle id="Elipse_5186" data-name="Elipse 5186" cx="31.5" cy="31.5" r="31.5" transform="translate(265 5390)" fill="#5000c7"/>
    <g id="Grupo_142473" data-name="Grupo 142473" transform="translate(-77.854 5366.123)">
      <path id="Trazado_202343" data-name="Trazado 202343" d="M397.655,43.906a6.35,6.35,0,0,1-4.941,1.915,6.819,6.819,0,0,1-4.88-1.713,6.815,6.815,0,0,1-4.88,1.713,7.414,7.414,0,0,1-4.3-1.219,11.6,11.6,0,0,1-1.432-2.134,7.113,7.113,0,0,1-.751-4.545c.723-4.5,5.5-4.377,5.5-4.377V32.214s-8.518-2.975-12.394,1.331c-2.219,2.463-2.122,7.177-3.134,9.965-.451,1.24-1.12,2.1-2.31,2.211a2.15,2.15,0,0,0-.529.094c-.06,0-.118.006-.179.006a6.815,6.815,0,0,1-4.88-1.713,6.819,6.819,0,0,1-4.88,1.713,6.583,6.583,0,0,1-4.756-1.7V77.156h48.739V43.906Zm-28.834,8.7c.86.067,1.679.179,2.467.32a1.764,1.764,0,0,1,.762-1.61,7.756,7.756,0,0,1,3.2-.091l-1.441,2.295a22.551,22.551,0,0,1,2.771,1.019,1.553,1.553,0,0,1,.923-.934c1.408-.521,4.673.7,4.673.7l-2.044,2.224h-.006a21.567,21.567,0,0,1,4.529,4.2,5.9,5.9,0,0,1,4.988-1.495l1.2.146,0,.038c-.254,2.113-.782,3.787-3.734,3.433,2.951.354,3.069,2.106,2.815,4.219l0,.039-1.2-.145a5.734,5.734,0,0,1-4.633-2.907,22.593,22.593,0,0,1-7.994,4.206l1.221,3.075s-4.032-.037-5.277-.877a5.394,5.394,0,0,1-1.462-1.514h-.022c-9.095-.334-13.146-8.41-13.146-8.41S360.745,51.978,368.821,52.609Z" transform="translate(0 -0.011)" fill="#fff"/>
      <path id="Trazado_202344" data-name="Trazado 202344" d="M367.408,69.018l1.766-1.388,1.387,1.767,1.257-.988-1.388-1.767,1.767-1.389L371.208,64l-1.766,1.388-1.387-1.767-1.258.988,1.388,1.767-1.767,1.389Z" transform="translate(-3.504 -6.498)" fill="#fff"/>
      <rect id="Rectángulo_41445" data-name="Rectángulo 41445" width="15.266" height="2.984" transform="translate(382.782 31.158)" fill="#fff"/>
    </g>
  </g>
</svg>
