<svg xmlns="http://www.w3.org/2000/svg" width="63" height="63" viewBox="0 0 63 63">
  <g id="Grupo_142484" data-name="Grupo 142484" transform="translate(-815 -5390)">
    <circle id="Elipse_5188" data-name="Elipse 5188" cx="31.5" cy="31.5" r="31.5" transform="translate(815 5390)" fill="#5000c7"/>
    <g id="Grupo_142471" data-name="Grupo 142471" transform="translate(789.571 5368.557)">
      <path id="Trazado_202333" data-name="Trazado 202333" d="M77.633,37.465a2.736,2.736,0,0,0,.647-1.738,3.272,3.272,0,0,0-2.592-2.96,3.6,3.6,0,0,0,.189-1.129c0-2.409-2.411-4.362-5.384-4.362a6.6,6.6,0,0,0-1.236.12,4.3,4.3,0,0,0-7.122.114,4.541,4.541,0,0,0-2.471-.7c-2.184,0-3.955,1.435-3.955,3.2,0,.083.008.164.015.245a5.484,5.484,0,0,0-3.118-.935,4.881,4.881,0,0,0-4.481,2.5,3.835,3.835,0,0,0-.847-.1c-1.764,0-3.2,1.159-3.2,2.588a2.074,2.074,0,0,0,.055.442,10.762,10.762,0,0,0-3.773,2.363c-1.281,1.293-2.642,4.251-2.544,4.72h1.467A4.171,4.171,0,0,1,41.4,40.089a4.078,4.078,0,0,1,2.338.831,5.169,5.169,0,0,0,1.295.9l0,0h0a6.175,6.175,0,0,0,2.619.63,5.854,5.854,0,0,0-1.4,2.067,12.5,12.5,0,0,0-.7,6.344h1.716s-.555-5.28,2.575-5.507a28.023,28.023,0,0,1,4.287.239,5.97,5.97,0,0,0,.833.791,11.558,11.558,0,0,0-.166,4.477h1.716a9.765,9.765,0,0,1,.314-3.443,8.053,8.053,0,0,0,2.826.507,8.318,8.318,0,0,0,1.352-.11,6.857,6.857,0,0,0,.758.165c.682,2.11,3.044,3.669,5.863,3.669a6.56,6.56,0,0,0,4.979-2.111c2.833-.366,5-2.35,5-4.748a3.961,3.961,0,0,0-.028-.447,3.885,3.885,0,0,0,2.58-3.45A3.875,3.875,0,0,0,77.633,37.465Z" transform="translate(-0.882)" fill="#fff"/>
      <path id="Trazado_202334" data-name="Trazado 202334" d="M72.679,66.207l-5.346,4.15v-4.15l-5.87,4.556H59.557L58.085,58.111h-6.4L50.217,70.763h-.17L48.574,58.111h-6.4L40.706,70.763h-.147l-.82-21.006h-4.2l-.82,21.006h-.147V82.144H78.025V66.207l-5.346,4.15Z" transform="translate(0 -6.583)" fill="#fff"/>
    </g>
  </g>
</svg>
