<svg xmlns="http://www.w3.org/2000/svg" width="221" height="276" viewBox="0 0 221 276">
  <g id="Grupo_131987" data-name="Grupo 131987" transform="translate(-265 -4081)">
    <text id="C_O2_12g_32g_1_2_67_H2_O_2g_16_g_1_8_S_O2_" data-name="C       +   O2                          
12g   +  32g                         
1       +   2,67                        

H2    +   O                             
2g    +   16 g	                      
1      +   8  	                      	
 
S      +   O2 	" transform="translate(265 4081)" fill="#12263f" font-size="16" font-family="SegoeUI, Segoe UI"><tspan x="0" y="17" xml:space="preserve">C       +   O</tspan><tspan y="17" xml:space="preserve" font-size="9.333" baseline-shift="-5.33279994943018">2  </tspan><tspan y="17" xml:space="preserve">                        </tspan><tspan y="17" font-size="9.333" baseline-shift="-5.33279994943018"></tspan><tspan x="0" y="42" xml:space="preserve">12g   +  32g                         </tspan><tspan x="0" y="67" xml:space="preserve">1       +   2,67                        </tspan><tspan x="0" y="92"></tspan><tspan x="0" y="117">H</tspan><tspan y="117" font-size="9.333" baseline-shift="-5.33279994943018">2 </tspan><tspan y="117" xml:space="preserve">   +   O                             </tspan><tspan x="0" y="142" xml:space="preserve">2g    +   16 g	                      </tspan><tspan x="0" y="167" xml:space="preserve">1      +   8  	                      	</tspan><tspan x="0" y="192"> </tspan><tspan x="0" y="217" xml:space="preserve">S      +   O</tspan><tspan y="217" font-size="9.333" baseline-shift="-5.33279994943018">2 </tspan><tspan y="217" xml:space="preserve">	  	         </tspan><tspan y="217" font-size="9.333" baseline-shift="-5.33279994943018"></tspan><tspan x="0" y="242" xml:space="preserve">32g  +  32g                         </tspan><tspan x="0" y="267" xml:space="preserve">1      +   1   </tspan></text>
    <text id="CO2_44g_3_67_H2O_18g_9_SO2_64g_2" data-name="CO2
44g
3,67

H2O
18g
9

SO2
64g
2" transform="translate(434 4081)" fill="#12263f" font-size="16" font-family="SegoeUI, Segoe UI"><tspan x="0" y="17">CO</tspan><tspan y="17" font-size="9.333" baseline-shift="-5.33279994943018">2</tspan><tspan x="0" y="42">44g</tspan><tspan x="0" y="67">3,67</tspan><tspan x="0" y="92"></tspan><tspan x="0" y="117">H</tspan><tspan y="117" font-size="9.333" baseline-shift="-5.33279994943018">2</tspan><tspan y="117">O</tspan><tspan x="0" y="142">18g</tspan><tspan x="0" y="167">9</tspan><tspan x="0" y="192"></tspan><tspan x="0" y="217">SO</tspan><tspan y="217" font-size="9.333" baseline-shift="-5.33279994943018">2</tspan><tspan x="0" y="242">64g</tspan><tspan x="0" y="267">2</tspan></text>
    <path id="Polígono_5" data-name="Polígono 5" d="M5,0l5,9H0Z" transform="translate(400 4094) rotate(180)" fill="#e53935"/>
    <path id="Polígono_10" data-name="Polígono 10" d="M5,0l5,9H0Z" transform="translate(400 4196) rotate(180)" fill="#e53935"/>
    <path id="Polígono_13" data-name="Polígono 13" d="M5,0l5,9H0Z" transform="translate(400 4295) rotate(180)" fill="#e53935"/>
    <path id="Polígono_6" data-name="Polígono 6" d="M5,0l5,9H0Z" transform="translate(400 4120) rotate(180)" fill="#e53935"/>
    <path id="Polígono_9" data-name="Polígono 9" d="M5,0l5,9H0Z" transform="translate(400 4222) rotate(180)" fill="#e53935"/>
    <path id="Polígono_12" data-name="Polígono 12" d="M5,0l5,9H0Z" transform="translate(400 4321) rotate(180)" fill="#e53935"/>
    <path id="Polígono_7" data-name="Polígono 7" d="M5,0l5,9H0Z" transform="translate(400 4146) rotate(180)" fill="#e53935"/>
    <path id="Polígono_8" data-name="Polígono 8" d="M5,0l5,9H0Z" transform="translate(400 4248) rotate(180)" fill="#e53935"/>
    <path id="Polígono_11" data-name="Polígono 11" d="M5,0l5,9H0Z" transform="translate(400 4347) rotate(180)" fill="#e53935"/>
  </g>
</svg>
