<svg xmlns="http://www.w3.org/2000/svg" width="221.889" height="226.025" viewBox="0 0 221.889 226.025">
  <g id="Grupo_131829" data-name="Grupo 131829" transform="translate(-225.5 -931.947)">
    <path id="Trazado_116145" data-name="Trazado 116145" d="M8049.287,1207.973c-6.775,47.053-155.253,83.895-202.087,21.972-25.673-33.942-29.37-81.379,9.99-118.828,45.007-42.822,113.176-36.726,140.44-17.757,3.771,2.624,23.293,16.206,20.986,29.057-1.076,5.988-6.05,7.141-6.457,12.915-.719,10.172,14.091,15.535,24.214,27.442C8049.954,1178.752,8050.307,1200.891,8049.287,1207.973Z" transform="translate(-7602.25 -138.891)" fill="#81af1d" opacity="0.24"/>
    <g id="Grupo_131828" data-name="Grupo 131828" transform="translate(410.122 1007.807) rotate(59)">
      <path id="Trazado_191658" data-name="Trazado 191658" d="M38.479,12.878a8.379,8.379,0,0,1-2.766,3.47c-.739.44-1.664.694-2.1,1.434a4.425,4.425,0,0,0-.3,2.132,10.983,10.983,0,0,1-1.147,3.961,72.294,72.294,0,0,1-9.475,15.651,12.518,12.518,0,0,0-1.37,1.946,12.331,12.331,0,0,0-.716,1.849,91.632,91.632,0,0,1-5,12.14,9.093,9.093,0,0,1-2.167,3.1c-.518.424-1.121.737-1.629,1.174-1.495,1.282-1.922,3.378-2.385,5.293A46.878,46.878,0,0,1,4.662,77.084C2.492,80.925-.326,84.846.031,89.242c.393,4.83,4.665,8.574,9.248,10.153a11.926,11.926,0,0,0,5.2.736,11.087,11.087,0,0,0,7.187-4.455,30.829,30.829,0,0,0,3.984-7.682A83.222,83.222,0,0,1,30.543,77.1a12.39,12.39,0,0,0,1.347-2.757,21,21,0,0,0,.391-3.291,21.4,21.4,0,0,1,2.189-6.424q2.892-6.222,5.822-12.423,3.69-7.843,7.379-15.685a23.473,23.473,0,0,1,3.223-5.495,11.848,11.848,0,0,0,1.442-1.781,9.853,9.853,0,0,0,.853-2.828c.917-4.179,3.117-7.947,5.284-11.635l7.936-13.5-13.753.192A14.106,14.106,0,0,1,47.52.319c-1.924-.642-2.034-.4-3.1,1.492C42.376,5.459,40.459,9.191,38.479,12.878Z" transform="translate(0.888 25.411)" fill="#88a046"/>
      <g id="Grupo_131826" data-name="Grupo 131826" transform="translate(14.513 26.691)">
        <path id="Trazado_191659" data-name="Trazado 191659" d="M0,9.81Q1.281,7.418,2.561,5.025A19.011,19.011,0,0,1,4.314,0,32.891,32.891,0,0,0,0,9.81Z" transform="translate(16.348 40.669)" fill="#758a3e"/>
        <path id="Trazado_191660" data-name="Trazado 191660" d="M2.091,0A19.326,19.326,0,0,0,0,7.283Z" transform="translate(1.59 79.612)" fill="#758a3e"/>
        <path id="Trazado_191661" data-name="Trazado 191661" d="M16.918,75.823a12.393,12.393,0,0,0,1.347-2.757,21,21,0,0,0,.391-3.291,21.4,21.4,0,0,1,2.189-6.424q2.892-6.222,5.822-12.423l7.379-15.685a23.474,23.474,0,0,1,3.223-5.495,11.853,11.853,0,0,0,1.442-1.781,9.856,9.856,0,0,0,.853-2.828c.917-4.179,3.117-7.947,5.284-11.635L52.782,0l-9.25.129c-.446,1.206-.855,2.382-1.3,3.326A194.485,194.485,0,0,1,31.491,23.206q4.03-4.5,8.063-9.007l-1.523,2.734,1.337-1.046Q33.29,26.469,27.213,37.053a43.778,43.778,0,0,1,3.713-9.835l-2.357,3.509q.79-3.015,1.578-6.03-5.618,10.5-11.238,21-.111.562-.188,1.129l4.988-5.711q-1.162,3.1-2.322,6.2l4.791-5.7Q18.863,56.5,11.549,71.389a69.568,69.568,0,0,1,4.535-15.856L10.789,66.321q1.156-7,2.774-13.919-2.121,4.03-4.245,8.061A106.167,106.167,0,0,1,20.31,36.142C14.378,42.62,11.779,51.388,9.356,59.829L3.681,79.612a19.161,19.161,0,0,1,3-4.283q-.014,2.395-.03,4.79l2.765-5.782Q7.887,80.959,6.026,87.5,9.96,79.259,13.9,71.019L7.659,86.387a34.54,34.54,0,0,1-4.07,7.967q-.127-3.279-.255-6.557L2.8,90.116q-.071-.848-.14-1.695A50.765,50.765,0,0,1,0,98.9a8.355,8.355,0,0,0,.858-.054A11.087,11.087,0,0,0,8.045,94.4a30.83,30.83,0,0,0,3.984-7.682A83.233,83.233,0,0,1,16.918,75.823Z" transform="translate(0 0)" fill="#758a3e"/>
      </g>
      <path id="Trazado_191662" data-name="Trazado 191662" d="M32.9,18.215q3.013-2.967,5.812-6.143a163.034,163.034,0,0,1-16.664,23.5,28.27,28.27,0,0,1,6.4-6.412l-2.574,3.83a9.958,9.958,0,0,1,2.676-2.8C22.552,38.473,16.515,46.835,12.339,56.17a28.005,28.005,0,0,1,3.944-5.945l-4.6,10.624,7.428-14.207C14.388,58.754,9.661,70.876,4.05,82.6c-.13-7.254,1.991-14.338,4.091-21.283A136.918,136.918,0,0,0,0,88.929q.828-1.2,1.653-2.4a41.2,41.2,0,0,0-.115,5.448A53.41,53.41,0,0,1,8.057,79.71a23.217,23.217,0,0,0-1.4,6.911C10,73.873,13.5,61,19.893,49.479c1.25-2.255,2.639-4.533,2.949-7.094l-3.217,2.829q4.276-4.755,8.092-9.895a16.069,16.069,0,0,0-2.88,3.278,40.415,40.415,0,0,0,7.693-12.739L29,29.4A135.764,135.764,0,0,0,44.634,3.549a43.206,43.206,0,0,0-7.96,7.545C39.424,7.726,44.811,4.968,45.21,0c-1.952.975-3.534,3.917-4.787,5.66A88.4,88.4,0,0,0,32.9,18.215Z" transform="translate(5.282 27.267)" fill="#bdcb53"/>
      <path id="Trazado_191663" data-name="Trazado 191663" d="M10.659,8.163C6.51,6.409,3.2,3.168,0,0A4.415,4.415,0,0,0,1.174,2.379a51.539,51.539,0,0,0,8.913,8.762c1.251.961,2.8,1.912,4.313,1.449,1.4-.43,2.9-1.909,1.558-3.036C14.991,8.742,11.96,8.712,10.659,8.163Z" transform="translate(35.753 44.121)" fill="#758a3e"/>
      <path id="Trazado_191664" data-name="Trazado 191664" d="M0,0Q6.909,4.88,13.815,9.762a1.926,1.926,0,0,0,1.464.509,1.707,1.707,0,0,0,.678-.393c1.814-1.521,2.138-2.128.047-2.8-1.861-.594-3.725-1.082-5.55-1.8A50.908,50.908,0,0,1,0,0Z" transform="translate(23.375 69.546)" fill="#758a3e"/>
      <path id="Trazado_191665" data-name="Trazado 191665" d="M12.033,8.516A53.246,53.246,0,0,1,0,0,16.339,16.339,0,0,0,2.242,3.777a34.49,34.49,0,0,0,13.476,10.69,3.361,3.361,0,0,0,1.2.353c2.044.086,3.9-3.424,1.977-4.686-.733-.478-2.433-.051-3.334-.228A13.642,13.642,0,0,1,12.033,8.516Z" transform="translate(11.764 88.07)" fill="#758a3e"/>
      <path id="Trazado_191667" data-name="Trazado 191667" d="M5.537,21.46c.716,7.431-3.244,14.622-.709,22.071,5.174-8.8,10.6-15.079,13.906-22.771.834-1.94,1.513-4.206.415-6.421a12.464,12.464,0,0,0-3.722-3.9C11.2,7.164,5.022,1.631.037,0c-.29,1.321,1.226,3.349,1.807,4.74a42.276,42.276,0,0,1,1.864,5.593A69.952,69.952,0,0,1,5.537,21.46Z" transform="translate(50.76 3.734)" fill="#446336"/>
      <path id="Trazado_191669" data-name="Trazado 191669" d="M46.078,11.679a8.377,8.377,0,0,1-3.107,3.169c-.78.361-1.725.52-2.24,1.21a4.426,4.426,0,0,0-.522,2.091,11.017,11.017,0,0,1-1.546,3.823,72.416,72.416,0,0,1-11.031,14.6,12.449,12.449,0,0,0-1.562,1.794,12.279,12.279,0,0,0-.9,1.766A91.652,91.652,0,0,1,18.95,51.693a9.088,9.088,0,0,1-2.475,2.865c-.559.369-1.191.618-1.74,1-1.619,1.124-2.258,3.164-2.915,5.022a46.879,46.879,0,0,1-5.965,11.5C3.3,75.676.1,79.288,0,83.7c-.1,4.845,3.761,9.007,8.157,11.047a11.893,11.893,0,0,0,5.1,1.266,11.082,11.082,0,0,0,7.605-3.7,30.821,30.821,0,0,0,4.752-7.232A83.229,83.229,0,0,1,31.6,74.752a12.421,12.421,0,0,0,1.623-2.6,20.879,20.879,0,0,0,.725-3.233,21.429,21.429,0,0,1,2.836-6.166q3.517-5.889,7.066-11.76,4.476-7.422,8.948-14.846a23.534,23.534,0,0,1,3.769-5.133,12.015,12.015,0,0,0,1.618-1.625,9.851,9.851,0,0,0,1.137-2.726c1.341-4.062,3.914-7.584,6.449-11.031q4.639-6.31,9.279-12.619l-13.7-1.219A14.122,14.122,0,0,1,56.359.114c-1.848-.835-.976,3.154-2.225,4.924C51.721,8.458,48.427,8.215,46.078,11.679Z" transform="translate(7.598 54.142)" fill="#8fae4b"/>
      <path id="Trazado_191670" data-name="Trazado 191670" d="M6.81,94.058q8.055-15.618,14.847-31.844c2.213-5.287,4.356-10.678,7.73-15.312,3.319-4.561,7.871-8.481,9.453-13.9a4.5,4.5,0,0,1,.736-1.724A5.266,5.266,0,0,1,41.5,30.166c2.392-1.109,3.984-3.395,5.461-5.578,4.87-7.205,10.566-14.6,14.082-22.6.03-.07.056-.137.085-.205A14.675,14.675,0,0,1,56.36.132C54.512-.7,55.349,2.639,54.1,4.409c-2.413,3.42-5.657,2.872-8.006,6.337-.842,1.241-1.764,3.49-3.123,4.12-.782.363-1.727.521-2.241,1.211a4.421,4.421,0,0,0-.522,2.089,10.991,10.991,0,0,1-1.546,3.823,72.327,72.327,0,0,1-11.031,14.6,12.612,12.612,0,0,0-1.562,1.794,12.288,12.288,0,0,0-.9,1.767A91.837,91.837,0,0,1,18.95,51.71a9.109,9.109,0,0,1-2.475,2.867c-.559.369-1.191.618-1.74,1-1.618,1.124-2.259,3.164-2.914,5.021A46.9,46.9,0,0,1,5.857,72.1C3.3,75.695.1,79.307,0,83.715-.092,88.058,3,91.85,6.81,94.058Z" transform="translate(7.465 54.319)" fill="#a6c256"/>
      <g id="Grupo_131827" data-name="Grupo 131827" transform="translate(20.32 55.742)">
        <path id="Trazado_191671" data-name="Trazado 191671" d="M0,9.233Q1.535,7,3.068,4.76A20.041,20.041,0,0,1,5.4,0,34.973,34.973,0,0,0,0,9.233Z" transform="translate(21.647 39.192)" fill="#758a3e"/>
        <path id="Trazado_191672" data-name="Trazado 191672" d="M2.945,0A20.311,20.311,0,0,0,0,6.93Z" transform="translate(2.814 75.853)" fill="#758a3e"/>
        <path id="Trazado_191673" data-name="Trazado 191673" d="M19.085,73.246a14.53,14.53,0,0,0,1.674-2.562,22.477,22.477,0,0,0,.9-3.083,24.435,24.435,0,0,1,3.047-5.987q3.646-5.783,7.32-11.547Q36.663,42.78,41.3,35.491A27.556,27.556,0,0,1,45.115,30.4a13.949,13.949,0,0,0,1.6-1.642,11.091,11.091,0,0,0,1.241-2.639c1.527-3.906,4.136-7.4,6.7-10.817,3.134-4.172,6.766-11.129,9.9-15.3-2.78-.027-6.057,2.733-8.836,2.707-.6,1.123-1.171,2.218-1.728,3.1q-6.016,9.457-12.973,18.324l8.763-8.288-1.829,2.535,1.379-.953Q42.09,27.231,34.848,37.044a50.309,50.309,0,0,1,4.99-9.159L37.129,31.13q1.216-2.816,2.43-5.632L25.932,44.982c-.129.349-.248.7-.358,1.057l5.444-5.257q-1.565,2.888-3.127,5.777l5.262-5.249Q24.078,55.137,15,68.963a78.513,78.513,0,0,1,6.738-14.8l-6.572,10.02Q17.385,57.631,20,51.168q-2.586,3.74-5.17,7.481A123.375,123.375,0,0,1,28.793,36.038c-6.419,5.957-10.228,14.14-13.823,22.018q-4.212,9.231-8.425,18.463a22.526,22.526,0,0,1,3.42-3.959q-.415,2.248-.831,4.5,1.728-2.685,3.458-5.371-2.49,6.19-5.26,12.293l9.841-15.314q-4.093,7.152-8.187,14.3a40.283,40.283,0,0,1-5,7.4q.437-3.084.871-6.166-.435,1.084-.871,2.167.081-.8.16-1.6A56.868,56.868,0,0,1,0,94.564a7.276,7.276,0,0,0,.78-.032A12.076,12.076,0,0,0,7.991,90.5a36.087,36.087,0,0,0,4.872-7.13A96.6,96.6,0,0,1,19.085,73.246Z" transform="translate(0 0)" fill="#758a3e"/>
      </g>
      <path id="Trazado_191674" data-name="Trazado 191674" d="M39.973,16.855q3.3-2.643,6.412-5.514A163.18,163.18,0,0,1,27.4,33.007a28.234,28.234,0,0,1,7.025-5.722L31.471,30.83a9.967,9.967,0,0,1,2.949-2.512C27.608,35.946,20.745,43.645,15.633,52.5a28.079,28.079,0,0,1,4.533-5.509q-2.834,5.05-5.667,10.1L23.346,43.72C17.407,55.282,11.461,66.856,4.677,77.943c.614-7.228,3.451-14.058,6.253-20.75A136.966,136.966,0,0,0,0,83.822L1.891,81.6a41.165,41.165,0,0,0-.674,5.409A53.442,53.442,0,0,1,8.959,75.479a23.193,23.193,0,0,0-2.1,6.73c4.635-12.337,9.432-24.781,16.975-35.589,1.476-2.114,3.091-4.239,3.66-6.753L24,42.351q4.739-4.292,9.064-9.014a16.066,16.066,0,0,0-3.2,2.966A40.407,40.407,0,0,0,38.825,24.42l-3.877,3.164A135.789,135.789,0,0,0,53.155,3.47a43.273,43.273,0,0,0-8.693,6.69C47.544,7.093,53.185,4.9,54.091,0c-2.042.769-3.917,3.533-5.342,5.138A88.5,88.5,0,0,0,39.973,16.855Z" transform="translate(11.783 56)" fill="#bdcb53"/>
      <path id="Trazado_191675" data-name="Trazado 191675" d="M9.769,9.213C5.821,7.044,2.863,3.48,0,0A4.42,4.42,0,0,0,.927,2.488a51.493,51.493,0,0,0,7.968,9.629c1.147,1.085,2.592,2.19,4.141,1.884,1.435-.285,3.08-1.6,1.86-2.861C14.017,10.235,11.007,9.894,9.769,9.213Z" transform="translate(49.482 71.252)" fill="#758a3e"/>
      <path id="Trazado_191676" data-name="Trazado 191676" d="M0,0,12.74,11.128a1.93,1.93,0,0,0,1.4.657,1.693,1.693,0,0,0,.716-.322c1.96-1.328,2.345-1.9.333-2.777C13.4,7.9,11.6,7.226,9.857,6.32A50.928,50.928,0,0,1,0,0Z" transform="translate(34.565 95.274)" fill="#758a3e"/>
      <path id="Trazado_191677" data-name="Trazado 191677" d="M11.1,9.7A53.265,53.265,0,0,1,0,0,16.38,16.38,0,0,0,1.844,3.987,34.513,34.513,0,0,0,14.153,16a3.371,3.371,0,0,0,1.157.474c2.024.3,4.235-3.005,2.447-4.458-.679-.553-2.414-.3-3.292-.571A13.6,13.6,0,0,1,11.1,9.7Z" transform="translate(21.114 112.51)" fill="#758a3e"/>
      <path id="Trazado_191678" data-name="Trazado 191678" d="M6.655,6.288A51.583,51.583,0,0,1,0,0C2.516,3.724,5.977,6.691,9.393,9.61c1.159.99,2.542,2.046,4.042,1.776a1.724,1.724,0,0,0,1.5-1.477c-1.288-.572-2.879-.662-4.234-1.247A20.563,20.563,0,0,1,6.655,6.288Z" transform="translate(51 73)" fill="#945b33"/>
      <path id="Trazado_191679" data-name="Trazado 191679" d="M0,0,10.123,7.881a20.368,20.368,0,0,0,5.189,3.258,3.288,3.288,0,0,0,1.476.266c1.844-.2,2.018-1.973.414-2.549-2.042-.734-4.134-1.237-6.145-2.091A44.047,44.047,0,0,1,0,0Z" transform="translate(33.31 94.352)" fill="#945b33"/>
      <path id="Trazado_191680" data-name="Trazado 191680" d="M6.474,6.167,0,0C2.856,2.447,4.591,5.945,7.169,8.681c1.857,1.97,4.206,3.624,5.252,6.12.32.761.665,1.72,1.484,1.826a1.7,1.7,0,0,0,.849-.16c.987-.4,2.89-1.746,2.917-2.981.024-1.1-2.335-1.049-3.329-1.466C11.3,10.742,8.829,8.413,6.474,6.167Z" transform="translate(22.341 113.966)" fill="#945b33"/>
      <path id="Trazado_191681" data-name="Trazado 191681" d="M9.876,19.5a69.689,69.689,0,0,0,9.088-3.174c4.674-2,9.434-4.843,11.431-9.519.388-.912,1.437-2.054,1.253-3.028-.324-1.713-2.743-2.733-4.4-3.274a10.275,10.275,0,0,0-4.055-.47,17.371,17.371,0,0,0-4.665,1.221A38.026,38.026,0,0,0,7.232,7.677a25.523,25.523,0,0,0-4.416,4.861C1.866,13.912-.053,16.525,0,18.277.1,21.685,8.019,20.011,9.876,19.5Z" transform="translate(53.098 48.672)" fill="#ebd38d"/>
      <path id="Trazado_191682" data-name="Trazado 191682" d="M32.432,6.061a3.063,3.063,0,0,0,.346-2.233C32.455,2.115,29.592.464,27.751.137a19.546,19.546,0,0,0-4.56,0,17.421,17.421,0,0,0-4.665,1.221A38.026,38.026,0,0,0,7.232,7.778a25.523,25.523,0,0,0-4.416,4.861C1.866,14.013-.053,16.626,0,18.378c.1,3.408,8.018,1.734,9.875,1.225a69.682,69.682,0,0,0,9.088-3.174C23.638,14.427,30.435,10.738,32.432,6.061Zm-6.706,4.4a88.711,88.711,0,0,1-11.513,6.188c-3.129,1.4-6.443,2.628-9.867,2.542a3.04,3.04,0,0,1-2.323-.82c-.889-1.065-.191-2.673.6-3.814A31.711,31.711,0,0,1,23.455,1.463c2.913-.462,7.561-.4,7.477,3.115C30.882,6.637,27.462,9.352,25.726,10.457Z" transform="translate(53.098 48.571)" fill="#cdd987"/>
      <path id="Trazado_191683" data-name="Trazado 191683" d="M15.635,5.205c.8-2.4,4.352-2.84,5.35-5.162A8.3,8.3,0,0,0,16.57,2.621c-1.092,1.227-1.858,2.817-3.29,3.621a1.8,1.8,0,0,1,.584-1.861c.489-.487,1.109-.839,1.551-1.37a1.564,1.564,0,0,0,.228-1.9,12.872,12.872,0,0,0-4.117,5.548c-.51-.545-.039-1.418.442-1.989s.988-1.407.522-1.99a2.771,2.771,0,0,0-1.654,1.781A8.224,8.224,0,0,0,10.5,6.951c-.368.125-.7-.336-.666-.724a7.118,7.118,0,0,1,.364-1.1c.1-.377-.035-.884-.419-.948a.83.83,0,0,0-.618.228A4.339,4.339,0,0,0,7.914,5.925a1.077,1.077,0,0,1,1.394.927c-.015.651-1.022,1.041-1.391.5-.192-.278-.175-.679-.423-.908-.344-.314-.888-.068-1.278.185Q5.035,7.4,3.858,8.162,5.07,8.08,6.285,8.049a1.069,1.069,0,0,1,.646.119.381.381,0,0,1,.093.569.575.575,0,0,1-.389.083,7.621,7.621,0,0,0-5.088,1.853,16.19,16.19,0,0,0,6.71-2,4.266,4.266,0,0,1,2.695-.866A7.086,7.086,0,0,1,7.795,9.7L1.231,12.2a2.152,2.152,0,0,0-1.1.708.744.744,0,0,0,.275,1.108,1.078,1.078,0,0,0,.808-.215L8.839,9.357l-7.3,5c-.333.228-.706.646-.469.972.17.234.528.2.8.11,2.138-.693,3.374-2.98,5.4-3.964L5.011,14A3.437,3.437,0,0,0,8.2,12.726c.81-.89,1.348-1.993,2.089-2.942a11.814,11.814,0,0,1,3.848-3.051,22.859,22.859,0,0,0-3.89,5.3,2.6,2.6,0,0,0,2.382-1.384c.521-.82.791-1.778,1.29-2.612a2.826,2.826,0,0,1-.454,1.391c-.2.454-.211,1.1.234,1.321a1.19,1.19,0,0,0,.889-.06,3.39,3.39,0,0,0,1.315-.677A1.161,1.161,0,0,0,16.2,8.662,3.042,3.042,0,0,0,15.473,8a.759.759,0,0,1-.3-.865,2.877,2.877,0,0,1,1.368,1.312,1.323,1.323,0,0,0,.415.591.94.94,0,0,0,.626.066A4.211,4.211,0,0,0,20.705,6.8,12.38,12.38,0,0,1,16.48,5.7a13.8,13.8,0,0,0,5.7-.251c.512-.172,1.09-.747.725-1.144a.866.866,0,0,0-.69-.176,25.256,25.256,0,0,0-4.016.5,7.307,7.307,0,0,1,3.087-.843c1.269-.161,2.781-.408,3.546-1.562.576-.869.423-2.279-.881-2.214-1.2.059-2.96,1.752-3.959,2.4Z" transform="translate(55.395 51.563)" fill="#f6e08a"/>
      <path id="Trazado_191685" data-name="Trazado 191685" d="M55.473,1.2A4.643,4.643,0,0,0,53.53.06,4.528,4.528,0,0,0,50.26,1c-4,2.549-7.034,6.32-10,10.023C24.73,30.45,8.962,50.273,0,73.475A98.135,98.135,0,0,1,10.65,63.238L26.494,49.465C33.478,43.4,40.47,37.319,47.9,31.807c5.9-4.372,12.383-8.5,19.685-9.238,1.55-.157,3.34-.271,4.254-1.531a3.385,3.385,0,0,0-.062-3.612,9.936,9.936,0,0,0-2.694-2.68c-2.511-1.926-5.6-3.711-7.518-6.229C59.6,5.929,58.041,3.354,55.473,1.2Z" transform="translate(0 0)" fill="#50783f"/>
      <path id="Trazado_191686" data-name="Trazado 191686" d="M39.526,1.923c-3.552,3.309-6.138,7.491-8.968,11.432C20.623,27.188,7.183,38.682,0,54.124A143.328,143.328,0,0,1,46.772,9.577a5.059,5.059,0,0,0,2.147-1.893c1-2.037-1.289-5.249-2.746-6.582C44-.888,41.5.081,39.526,1.923Z" transform="translate(9.628 4.32)" fill="#618e4b"/>
    </g>
    <g id="Grupo_131825" data-name="Grupo 131825" transform="translate(286.44 931.947)">
      <g id="Grupo_131784" data-name="Grupo 131784" transform="translate(92.945 70.795)">
        <path id="Trazado_191540" data-name="Trazado 191540" d="M287.9,224.13a2.6,2.6,0,0,1-.862.058l-.008,0a6.762,6.762,0,0,1-2.016-.581c-.725-.3-1.473-.568-2.223-.83-.629-.224-1.254-.442-1.869-.674-.365-.131-.715-.27-1.068-.415L277.4,221.4s-.634-.122-1.727-.346l.159-2.31.008,0,.19-2.766.107-1.534,2.137.287L280.2,215a20.367,20.367,0,0,1,6.27-4.9c.393-.187.8-.344,1.2-.508a.008.008,0,0,1,.01-.006,11.026,11.026,0,0,0,1.7-.8,19.957,19.957,0,0,0,2.678-2.294c.138-.121.283-.239.432-.353a1.316,1.316,0,0,1,.838-.364c.012,0,.031.008.044.007a.957.957,0,0,1,.753.777,1.446,1.446,0,0,1,.022.17,2.682,2.682,0,0,1-.182,1.009c-.015.042-.039.089-.052.122a8.455,8.455,0,0,1-3.408,4.19,1.2,1.2,0,0,0-.515.468,1.015,1.015,0,0,0,0,.625,5,5,0,0,0,1.284,2.2,8.333,8.333,0,0,0,.974.863s0,0,.01.007a2.941,2.941,0,0,1,1.084,1.138,1.653,1.653,0,0,1-.074,1.214.459.459,0,0,1-.025.067,4.724,4.724,0,0,1-.509.875c-.1.144-.2.282-.314.421a22.207,22.207,0,0,1-2.709,3.038A4.213,4.213,0,0,1,287.9,224.13Z" transform="translate(-275.677 -205.775)" fill="#e9635e"/>
        <path id="Trazado_191541" data-name="Trazado 191541" d="M293.346,205.777a1.324,1.324,0,0,0-.842.362c-.145.115-.291.236-.431.356a19.955,19.955,0,0,1-2.675,2.29,10.732,10.732,0,0,1-1.709.8.005.005,0,0,0-.005.006c-.4.163-.811.321-1.206.507a20.4,20.4,0,0,0-6.268,4.9l-4.067-.547-.107,1.533-.2,2.767-.158,2.307,4.425-1.387c1.41-2.13,4.1-6.394,6.546-8.429a6.333,6.333,0,0,1,1.272-.848c.478-.224.974-.437,1.463-.662a7.073,7.073,0,0,0,2.538-1.713c.037-.042.069-.083.106-.124.377-.427.875-.9,1.323-.744a.615.615,0,0,1,.162.081,1.819,1.819,0,0,1,.413.631c.015-.035.035-.081.05-.121a2.609,2.609,0,0,0,.18-1.014.839.839,0,0,0-.021-.168.945.945,0,0,0-.753-.775A.094.094,0,0,0,293.346,205.777Z" transform="translate(-275.682 -205.775)" fill="#f0886e"/>
        <path id="Trazado_191542" data-name="Trazado 191542" d="M291.2,227.8a9.039,9.039,0,0,1-3.473,2.4,7.214,7.214,0,0,0,3.819-1.533,4.286,4.286,0,0,0,1.567-3.686,1.915,1.915,0,0,0-.2-.756c-.348.371-.37,1.3-.583,1.79A6.922,6.922,0,0,1,291.2,227.8Z" transform="translate(-280.425 -215.397)" fill="#e34357"/>
      </g>
      <path id="Trazado_191543" data-name="Trazado 191543" d="M302.937,149.215l8.7,13.473,10.059,15.587,17.577,6.788,1.568-3.632,2.824-6.545L325.744,164.9s-11.334-28.7-12.917-30.245-5.548-.958-5.548-.958Z" transform="translate(-245.274 -97.324)" fill="#282e7f"/>
      <path id="Trazado_191544" data-name="Trazado 191544" d="M308.84,179.14l1.861,7.309,10.059,15.587,17.576,6.788,1.568-3.632-17.542-5.667Z" transform="translate(-244.339 -121.086)" fill="#192367"/>
      <g id="Grupo_131785" data-name="Grupo 131785" transform="translate(45.559 91.873)">
        <path id="Trazado_191545" data-name="Trazado 191545" d="M339.786,256.449s18.259,39.663,19.825,44.494l1.34,42.266h10.056s4.944-34.361,3.813-45.274c-.941-9.115-11.98-48.1-11.98-48.1l-17.484,5.016Z" transform="translate(-339.786 -249.837)" fill="#474343"/>
      </g>
      <path id="Trazado_191546" data-name="Trazado 191546" d="M363.182,261.919s18.259,39.663,19.825,44.494l1.34,42.266h2.55c.244-15.381.59-43.732-.167-44.381-.834-.715-13.1-31.633-17.979-43.976Z" transform="translate(-317.623 -163.434)" fill="#040405"/>
      <path id="Trazado_191547" data-name="Trazado 191547" d="M342.989,346a8.389,8.389,0,0,0,.794,4.9c.581,1.249,1.6,2.483,2.872,2.321a2.638,2.638,0,0,0,1.728-1.2,7.352,7.352,0,0,0,.909-2.1,11.141,11.141,0,0,0,.553-3.431,4.984,4.984,0,0,0-1.072-3.136C346.621,340.9,343.52,342.936,342.989,346Z" transform="translate(-270.572 -206.178)" fill="#040405"/>
      <g id="Grupo_131787" data-name="Grupo 131787" transform="translate(62.966 165.073)">
        <g id="Grupo_131786" data-name="Grupo 131786" transform="translate(0)">
          <path id="Trazado_191548" data-name="Trazado 191548" d="M344.141,483.756l-30.112-.19.005-2.968,30.111.19Z" transform="translate(-314.029 -443.41)" fill="#8b3226"/>
          <path id="Trazado_191549" data-name="Trazado 191549" d="M314.037,440.044l5.766.04,1.166,0,23.179.149a1.733,1.733,0,0,0-.958-1.439c-.67-.318-1.97-.878-3.454-1.533-2.774-1.226-6.208-2.8-7.443-3.821a13.685,13.685,0,0,1-2.918-4.273c-.119-.243-.213-.466-.293-.64l.065-.556,1.484-13.433.739-6.6.447-4.064s-7.295-.833-13.006-.992h0a39.037,39.037,0,0,0-4.466.084l1.4,25.819A102.13,102.13,0,0,0,314.037,440.044Z" transform="translate(-314.035 -402.858)" fill="#dc533b"/>
        </g>
      </g>
      <path id="Trazado_191550" data-name="Trazado 191550" d="M314.037,440.044l5.766.04,1.166,0,23.179.149a1.733,1.733,0,0,0-.958-1.439c-.67-.318-1.97-.878-3.454-1.533l-20.142.967,1.042-9.85-1.826-25.5h0a39.037,39.037,0,0,0-4.466.084l1.4,25.819A102.13,102.13,0,0,0,314.037,440.044Z" transform="translate(-251.069 -237.785)" fill="#dc533b" opacity="0.49" style="mix-blend-mode: multiply;isolation: isolate"/>
      <g id="Grupo_131788" data-name="Grupo 131788" transform="translate(12.32 89.153)">
        <path id="Trazado_191551" data-name="Trazado 191551" d="M390.138,326.75l3.588,2.637,5.693,4.183s26.46-28,30.631-38.982c2.9-7.654,4.444-39.56,4.444-39.56l-7.373-8.1-2.53-2.774-13.493,5.4,4.19,37.418Z" transform="translate(-390.138 -244.151)" fill="#474343"/>
      </g>
      <path id="Trazado_191552" data-name="Trazado 191552" d="M405.552,326.75l3.588,2.637c7.415-12.726,23.206-39.854,24.013-41.477,1.056-2.127-1.125-34.864-1.125-34.864l10.505-6.122L440,244.151l-13.493,5.4,4.19,37.418Z" transform="translate(-393.232 -154.998)" fill="#040405"/>
      <path id="Trazado_191553" data-name="Trazado 191553" d="M403.623,344a4.369,4.369,0,0,0,4.135.651c4.362-1.394,5.462-8.662.289-9.688C403.677,334.091,400.287,341.114,403.623,344Z" transform="translate(-360.628 -202.328)" fill="#040405"/>
      <g id="Grupo_131790" data-name="Grupo 131790" transform="translate(0 152.923)">
        <g id="Grupo_131789" data-name="Grupo 131789" transform="translate(0)">
          <path id="Trazado_191554" data-name="Trazado 191554" d="M478.089,460.74l-24.784-17.1,1.674-2.45,24.784,17.1Z" transform="translate(-453.305 -410.703)" fill="#8b3226"/>
          <path id="Trazado_191555" data-name="Trazado 191555" d="M431.849,407.944l4.739,3.275.963.665,19.08,13.165a1.754,1.754,0,0,0,.02-1.732c-.074-.129-.169-.283-.273-.452-1.385-2.258-5.092-7.91-5.722-10.108a13.526,13.526,0,0,1-.01-5.171c.04-.268.085-.506.119-.695l.363-.427,8.788-10.267,4.327-5.047,2.654-3.1s-4.5-3.886-8.778-7.1a48.288,48.288,0,0,0-5.156-3.489L439.6,399.6A100.5,100.5,0,0,0,431.849,407.944Z" transform="translate(-430.175 -377.46)" fill="#dc533b"/>
        </g>
      </g>
      <path id="Trazado_191556" data-name="Trazado 191556" d="M450.2,407.944l4.739,3.275.963.665,19.08,13.165a1.754,1.754,0,0,0,.02-1.732c-.074-.129-.169-.283-.273-.452l-16.405-18.787,18.147-23.129a48.291,48.291,0,0,0-5.156-3.489L457.945,399.6A100.5,100.5,0,0,0,450.2,407.944Z" transform="translate(-448.525 -224.537)" fill="#dc533b" opacity="0.49" style="mix-blend-mode: multiply;isolation: isolate"/>
      <path id="Trazado_191557" data-name="Trazado 191557" d="M359.753,134.813l4.6,53.742,1.082,9.672s25.194.442,36.85-3.007l-.343-2.2-4.694-30.295.243-32.077-15.4-2.828-4.218,1.747-4.749-2.357s-7.071,2.5-11.7,6.123A16.263,16.263,0,0,0,359.753,134.813Z" transform="translate(-331.079 -93.998)" fill="#282e7f"/>
      <path id="Trazado_191558" data-name="Trazado 191558" d="M359.753,141.491l4.6,53.742,1.082,9.672s25.194.442,36.85-3.007l-.343-2.2-31.674,1.831s-6.724-47.7-8.842-61.518A16.259,16.259,0,0,0,359.753,141.491Z" transform="translate(-331.079 -100.675)" fill="#192367"/>
      <g id="Grupo_131804" data-name="Grupo 131804" transform="translate(34.76 0)">
        <g id="Grupo_131803" data-name="Grupo 131803" transform="translate(0)">
          <g id="Grupo_131800" data-name="Grupo 131800" transform="translate(2.62 4.076)">
            <g id="Grupo_131793" data-name="Grupo 131793" transform="translate(3.839 21.955)">
              <g id="Grupo_131792" data-name="Grupo 131792" transform="translate(0)">
                <g id="Grupo_131791" data-name="Grupo 131791">
                  <path id="Trazado_191559" data-name="Trazado 191559" d="M402.432,121.359l7.184,5.62,1.8-5.587-.217-.96c-.142-.64-.244-1.1-.262-1.2-.147-.832-.076-4.561-.076-4.561l-9.558-2.477s.183,1.848.4,3.885C401.979,118.538,402.432,121.359,402.432,121.359Z" transform="translate(-401.308 -112.196)" fill="#f0886e"/>
                  <path id="Trazado_191560" data-name="Trazado 191560" d="M402.165,116.081c2.772,1.348,8.874,4.291,9.441,4.349a.434.434,0,0,0,.05,0c-.142-.64-.244-1.1-.262-1.2-.147-.832-.076-4.561-.076-4.561l-9.558-2.477S401.944,114.044,402.165,116.081Z" transform="translate(-401.761 -112.196)" fill="#e9635e"/>
                </g>
              </g>
            </g>
            <g id="Grupo_131799" data-name="Grupo 131799" transform="translate(0)">
              <g id="Grupo_131794" data-name="Grupo 131794">
                <path id="Trazado_191561" data-name="Trazado 191561" d="M391.365,88.779a4.269,4.269,0,0,0,1.477,1.3h0a8.965,8.965,0,0,0,.808.439c1.169.561,11.618,3,13.079,2.536s1.96-5.856,1.942-6.41c-.107-3.4-.889-15.513-.889-15.513-5.67-10.517-17.523-.774-18.826.588S391.365,88.779,391.365,88.779Z" transform="translate(-388.681 -66.301)" fill="#f0886e"/>
                <path id="Trazado_191562" data-name="Trazado 191562" d="M388.681,112.257a8.971,8.971,0,0,0,.808.439c1.169.561,11.618,3,13.079,2.536s1.96-5.856,1.942-6.41c-.531,2.423-1.031,5.732-2.108,5.82C400.779,114.775,389.97,112.669,388.681,112.257Z" transform="translate(-384.518 -88.481)" fill="#f9ac80"/>
              </g>
              <g id="Grupo_131798" data-name="Grupo 131798" transform="translate(4.349 8.067)">
                <g id="Grupo_131796" data-name="Grupo 131796" transform="translate(8.432 4.115)">
                  <path id="Trazado_191563" data-name="Trazado 191563" d="M400.588,102.3l-.488-.934a3.923,3.923,0,0,1-2.3-.89,2.986,2.986,0,0,0-.115.807,1.123,1.123,0,0,0,.283.747,1.4,1.4,0,0,0,.67.338A3.486,3.486,0,0,0,400.588,102.3Z" transform="translate(-397.684 -96.307)" fill="#e9635e"/>
                  <g id="Grupo_131795" data-name="Grupo 131795" transform="translate(0.145)">
                    <path id="Trazado_191564" data-name="Trazado 191564" d="M397.031,97.451a2.6,2.6,0,0,0,.3.205,3.1,3.1,0,0,0,.933.363,3.2,3.2,0,0,0,.7.072,3.144,3.144,0,0,0,1.006-.173l.092-.026c.013-.005.037-.007.041-.015l-.021-.037-.088-.149-.183-.31c-.037-.061-.055-.1-.068-.122l-.048-.094-.1-.188a8.606,8.606,0,0,1-.34-.817,8.109,8.109,0,0,1-.465-3.076,7.9,7.9,0,0,1,.1-.963l.066-.353-.141.332a5.7,5.7,0,0,0-.272.953,6.22,6.22,0,0,0,.243,3.273,6.341,6.341,0,0,0,.385.869l.213.356c.012.021.073.075.058.084a1.8,1.8,0,0,1-.5.117,3.412,3.412,0,0,1-.644.021,3.48,3.48,0,0,1-.935-.187C397.147,97.508,397.031,97.451,397.031,97.451Z" transform="translate(-397.031 -91.767)" fill="#e34357"/>
                  </g>
                </g>
                <path id="Trazado_191565" data-name="Trazado 191565" d="M394.957,85.255s-1.832-2.818-3.11-1.91-.762,1.071-.762,1.071Z" transform="translate(-380.415 -83.165)" fill="#333"/>
                <path id="Trazado_191566" data-name="Trazado 191566" d="M410.012,86.986s3.108-4.361,4.826-3.406c1,.558.472,1.193.472,1.193Z" transform="translate(-410.012 -83.31)" fill="#333"/>
                <path id="Trazado_191567" data-name="Trazado 191567" d="M412.115,93.544a2.366,2.366,0,0,0-2.535-1.017,3.567,3.567,0,0,0-2.321,1.716A6.091,6.091,0,0,1,412.115,93.544Z" transform="translate(-405.359 -88.023)" fill="#1c1d1d"/>
                <path id="Trazado_191568" data-name="Trazado 191568" d="M390.982,93.172a1.134,1.134,0,0,1,1.147-1.053,2.132,2.132,0,0,1,1.495,1A2.956,2.956,0,0,0,390.982,93.172Z" transform="translate(-379.082 -87.835)" fill="#1c1d1d"/>
                <g id="Grupo_131797" data-name="Grupo 131797" transform="translate(4.022 11.269)">
                  <path id="Trazado_191569" data-name="Trazado 191569" d="M405.89,107.127a4.873,4.873,0,0,1-6.5-.4,4,4,0,0,0,3.174,2.166A3.836,3.836,0,0,0,405.89,107.127Z" transform="translate(-399.395 -106.723)" fill="#e34357"/>
                  <path id="Trazado_191570" data-name="Trazado 191570" d="M404.766,112.078a2.066,2.066,0,0,1-2.8.569A5.4,5.4,0,0,0,404.766,112.078Z" transform="translate(-399.502 -109.516)" fill="#e34357"/>
                </g>
              </g>
            </g>
          </g>
          <g id="Grupo_131802" data-name="Grupo 131802">
            <path id="Trazado_191571" data-name="Trazado 191571" d="M427.853,104.786a6.188,6.188,0,0,1-4.65-1.587,4.967,4.967,0,0,1-.533-.554c-.755-.935-1.556-4.5-.233-5.594a1.6,1.6,0,0,1,2.284.445v0a3.535,3.535,0,0,1,.309.384Z" transform="translate(-421.05 -78.09)" fill="#f9ac80"/>
            <path id="Trazado_191572" data-name="Trazado 191572" d="M427.548,105.108a6.188,6.188,0,0,1-4.65-1.587c-.086-.089-.161-.176-.228-.258-.755-.935-1.556-4.5-.233-5.593a1.434,1.434,0,0,1,1.979.149v0a3.536,3.536,0,0,1,.309.384Z" transform="translate(-420.745 -78.412)" fill="#f0886e"/>
            <path id="Trazado_191573" data-name="Trazado 191573" d="M425.633,102.713a1.564,1.564,0,0,0,.221.858,7.2,7.2,0,0,0,3.286,2.491,3.075,3.075,0,0,1-.739-1.816c-.015-.228-.006-.459-.044-.684C428.207,102.657,425.768,100.937,425.633,102.713Z" transform="translate(-424.204 -80.816)" fill="#e9635e"/>
            <g id="Grupo_131801" data-name="Grupo 131801" transform="translate(1.661 21.081)">
              <path id="Trazado_191574" data-name="Trazado 191574" d="M428.208,106.254l-.072-.025c-.046-.018-.12-.039-.205-.078a2.647,2.647,0,0,1-.66-.413,2.357,2.357,0,0,1-.637-.874,2.033,2.033,0,0,1-.079-1.292,1.143,1.143,0,0,1,.056-.173l.016-.043c0-.011,0,0,0-.005h0l0-.006-.025-.031-.051-.062c-.035-.041-.069-.081-.1-.12a5.409,5.409,0,0,0-.436-.435c-.148-.133-.3-.253-.445-.36a3.357,3.357,0,0,0-.425-.275.822.822,0,0,0-.4-.1.6.6,0,0,0-.308.109.305.305,0,0,0-.119.153.226.226,0,0,0-.01.065.149.149,0,0,1-.008-.065.29.29,0,0,1,.09-.185.656.656,0,0,1,.344-.179,1.031,1.031,0,0,1,.519.054,3.249,3.249,0,0,1,.506.242,4.953,4.953,0,0,1,.517.337,4.4,4.4,0,0,1,.5.436c.04.04.079.082.118.124l.057.064.077.092.054.065c-.006.025-.018.052-.027.078l-.04.112a1,1,0,0,0-.048.15,2.146,2.146,0,0,0,.012,1.153,2.434,2.434,0,0,0,.467.86,2.705,2.705,0,0,0,.533.479c.073.051.136.083.176.109Z" transform="translate(-424.292 -101.848)" fill="#c33545"/>
            </g>
            <path id="Trazado_191575" data-name="Trazado 191575" d="M381.368,73.6c.034,2.757,2.019,2.825,2.019,2.825a1.652,1.652,0,0,1,1.146.46,7.324,7.324,0,0,1,1.645,2.723c.811-2.269.022-6.167.022-6.167a3.749,3.749,0,0,0,.545-4.589,4.93,4.93,0,0,0,6.966-3.494,8.016,8.016,0,0,0,1.588,2.07,2.7,2.7,0,0,0,2.439.624,1.648,1.648,0,0,0,1.1-2.059,8.546,8.546,0,0,0,4.068,4.05c1.2.562,2.74.788,3.744-.068a2.477,2.477,0,0,0,.817-1.725,3.433,3.433,0,0,0-.272-1.6A7.145,7.145,0,0,0,404.808,64a1.521,1.521,0,0,0,1.719-1.191,2.266,2.266,0,0,0-.794-2.059,4.93,4.93,0,0,0-2.065-.993,5.693,5.693,0,0,0-4.447.312A2.115,2.115,0,0,0,397.36,57.8a4.69,4.69,0,0,0-3.024.948c-1.792,1.169-3.4,2.791-5.5,3.222-1.361.278-2.808.017-4.141.409a4.771,4.771,0,0,0-3.171,3.386,5.559,5.559,0,0,0,.959,4.6S381.333,70.839,381.368,73.6Z" transform="translate(-381.366 -57.78)" fill="#1c1d1d"/>
            <path id="Trazado_191576" data-name="Trazado 191576" d="M381.368,73.6a4.767,4.767,0,0,0,.074.806,2.21,2.21,0,0,0,1.945,2.02,1.652,1.652,0,0,1,1.146.46A3.548,3.548,0,0,0,383.1,72.6c1.413.2,2.627-1.276,2.655-2.706a6.545,6.545,0,0,0-1.628-3.88,17.048,17.048,0,0,0,3.8.959,5.681,5.681,0,0,0,3.761-.822,3.473,3.473,0,0,0,1.537-3.375c.873.5,1.316,1.486,1.957,2.263S397,66.4,397.8,65.8c.834-.624.556-1.912.2-2.894a10.412,10.412,0,0,0,9.462,5.35,3.433,3.433,0,0,0-.272-1.6,4.306,4.306,0,0,0-.522-.885A9.055,9.055,0,0,0,404.808,64a1.521,1.521,0,0,0,1.719-1.191,2.266,2.266,0,0,0-.794-2.059,4.93,4.93,0,0,0-2.065-.993,5.693,5.693,0,0,0-4.447.312A2.115,2.115,0,0,0,397.36,57.8a4.69,4.69,0,0,0-3.024.948c-1.792,1.169-3.4,2.791-5.5,3.222-1.361.278-2.808.017-4.141.409a4.771,4.771,0,0,0-3.171,3.386,5.559,5.559,0,0,0,.959,4.6S381.333,70.839,381.368,73.6Z" transform="translate(-381.366 -57.78)" fill="#333"/>
            <path id="Trazado_191577" data-name="Trazado 191577" d="M383.046,73.6a4.767,4.767,0,0,0,.074.806c.544-.414.528-1.231.663-1.9a3.488,3.488,0,0,1,2.32-2.581,8.289,8.289,0,0,1-1.072-2.933,2.813,2.813,0,0,1,1.186-2.729c1.248-.72,2.8,0,4.237.017,1.889.017,3.546-1.219,4.93-2.513a8.252,8.252,0,0,1,1.8-1.43,2.384,2.384,0,0,1,2.218-.074,1.42,1.42,0,0,1,.533,1.968,4.837,4.837,0,0,1,3.767-1.3c.9.09,1.923.641,1.945,1.548.023.959-1.032,1.526-1.929,1.872a9.93,9.93,0,0,1,4.629,1.418A9.056,9.056,0,0,0,406.486,64a1.521,1.521,0,0,0,1.719-1.191,2.266,2.266,0,0,0-.794-2.059,4.93,4.93,0,0,0-2.065-.993,5.693,5.693,0,0,0-4.447.312,2.115,2.115,0,0,0-1.861-2.264,4.69,4.69,0,0,0-3.024.948c-1.792,1.169-3.4,2.791-5.5,3.222-1.361.278-2.808.017-4.141.409a4.771,4.771,0,0,0-3.171,3.386,5.559,5.559,0,0,0,.959,4.6S383.012,70.839,383.046,73.6Z" transform="translate(-383.044 -57.78)" fill="#484848"/>
          </g>
        </g>
      </g>
      <g id="Grupo_131814" data-name="Grupo 131814" transform="translate(86.901 38.473)">
        <path id="Trazado_191578" data-name="Trazado 191578" d="M299.709,168.912a21.648,21.648,0,0,0,1.454,4.107,27.947,27.947,0,0,1,1.057,16.106,2.912,2.912,0,0,1-1.077,1.995,1.9,1.9,0,0,1-1.744.028,3.765,3.765,0,0,1-1.362-1.173c-1.73-2.236-2.066-5.25-1.934-8.074s.665-5.645.409-8.46c-.213-2.34-.952-4.79-.063-6.965a1.211,1.211,0,0,1,.467-.631,1.37,1.37,0,0,1,.468-.133c.926-.146,1.372-.212,1.805.724A10.866,10.866,0,0,1,299.709,168.912Z" transform="translate(-288.13 -152.51)" fill="#525e2d"/>
        <g id="Grupo_131807" data-name="Grupo 131807" transform="translate(0.064)">
          <path id="Trazado_191579" data-name="Trazado 191579" d="M314.447,159.873c.036.281.171.527.2.809a3.777,3.777,0,0,1-.054.9,44.514,44.514,0,0,0-.225,6.6,8.39,8.39,0,0,0,.108,1.459c.08.417.225.812.269,1.238a7.217,7.217,0,0,1-.29,2.148,30.452,30.452,0,0,0-.133,6.44c.034,2.156-.23,4.521-1.4,5.977a4.625,4.625,0,0,1-1.994,1.388,6.736,6.736,0,0,1-4.968-.029,3.137,3.137,0,0,1-1.315-.886,5.268,5.268,0,0,1-.9-3.022c-.145-3.05.8-6.206.081-9.1a2.384,2.384,0,0,1-.118-.792,4.715,4.715,0,0,1,.395-1.044,3.466,3.466,0,0,0,.121-.93q.136-3.511.273-7.022a5.727,5.727,0,0,0-.286-2.554,1.477,1.477,0,0,1-.225-.712,1.7,1.7,0,0,1,.232-.592,3.417,3.417,0,0,0,.221-1.1c.124-1.377.247-2.758.264-4.145.049-4.247-.908-8.478-.539-12.7-.044.5,3.325,3.459,3.745,3.916q1.91,2.079,3.758,4.259c.854,1.007,2.643,3.783,2.808,5.391C314.623,157.225,314.258,158.431,314.447,159.873Z" transform="translate(-303.703 -140.294)" fill="#8ba448"/>
          <g id="Grupo_131805" data-name="Grupo 131805" transform="translate(0 2.009)">
            <path id="Trazado_191580" data-name="Trazado 191580" d="M317.579,196.537l-.017-.2q.079-2.132.159-4.264Q317.65,194.3,317.579,196.537Z" transform="translate(-313.293 -168.314)" fill="#758a3e"/>
            <path id="Trazado_191581" data-name="Trazado 191581" d="M317.9,173.206a4.727,4.727,0,0,1,.395-1.044,3.46,3.46,0,0,0,.121-.93q.136-3.512.273-7.023a5.724,5.724,0,0,0-.286-2.554,1.48,1.48,0,0,1-.225-.712,1.708,1.708,0,0,1,.232-.592,3.415,3.415,0,0,0,.222-1.1c.124-1.378.247-2.758.264-4.145.049-4.247-.908-8.478-.539-12.7-.04.46,2.8,3,3.588,3.759-.211,3.16.07,6.551.091,9.685q-.634-2.683-1.077-5.439.319,10.035,1.2,20.016l-.263,7.042a159.688,159.688,0,0,0-1.879-20.01,131.82,131.82,0,0,1,.65,14.134q-.216-2.295-.432-4.59a91.715,91.715,0,0,0-.127,13.371,39.645,39.645,0,0,0,.944-4.6q-.2,4.071-.121,8.154l.552-2.6c-.133,1.991.121,3.981-.013,5.972-.31-.075-1.145-.324-1.447-.444-.086-.912-.031-1.671-.117-2.583-.078.829-.017,1.646-.143,2.464a3.487,3.487,0,0,1-.971-.613,5.285,5.285,0,0,1-.862-3.032c-.145-3.049.8-6.206.081-9.1A2.391,2.391,0,0,1,317.9,173.206Z" transform="translate(-317.894 -142.407)" fill="#758a3e"/>
          </g>
          <path id="Trazado_191582" data-name="Trazado 191582" d="M322.1,174.113a2.386,2.386,0,0,1-.118-.792,4.717,4.717,0,0,1,.395-1.044,3.465,3.465,0,0,0,.121-.93q.136-3.511.273-7.022a5.726,5.726,0,0,0-.286-2.554,1.477,1.477,0,0,1-.225-.712,1.7,1.7,0,0,1,.232-.592,3.415,3.415,0,0,0,.221-1.1c.124-1.377.247-2.758.264-4.145.049-4.247-.908-8.478-.539-12.7-.023.265.908,1.216,1.853,2.122-.017.166-.033.327-.047.478-.288,3.073-1.129,6.069-.979,9.2.066,1.385.33,2.748.345,4.136.012,1.109-.135,2.21-.183,3.317-.063,1.47.048,2.942.076,4.414.033,1.7-.044,3.391-.121,5.084l-.218,4.793c-.066,1.461-.133,2.923-.269,4.374a17.359,17.359,0,0,0-.015,5.746,5.359,5.359,0,0,1-.862-2.977C321.876,180.164,322.824,177.007,322.1,174.113Z" transform="translate(-321.98 -140.457)" fill="#637235"/>
          <g id="Grupo_131806" data-name="Grupo 131806" transform="translate(7.071 9.749)">
            <path id="Trazado_191583" data-name="Trazado 191583" d="M306.689,158.943a20.825,20.825,0,0,1,.378,3.316c.044-.893.113-1.791.215-2.672.214.227.432.462.641.709.027.7.026,1.416.025,2.167q-.008,3.263.112,6.524c-.341-2.374-.575-4.775-.7-7.187a73.01,73.01,0,0,0,.422,12.624q.48-3.7.961-7.4-.243,6.886-.486,13.773a24.907,24.907,0,0,0-.4-5.145c-.533,3.876.24,7.931-.36,11.788-.077-3.463-.154-6.927-.257-10.39a25.4,25.4,0,0,0-.464-4.871c.124,2.623.149,5.255.076,7.882l-.258-2.245a59.261,59.261,0,0,0,.093,9.316q.144-1.978.286-3.955a83.99,83.99,0,0,0,.409,8.469,38.5,38.5,0,0,0,1.16-7.97c.058,3.614-.892,7.15-1.139,10.729-.07.062-.142.122-.215.178l-.165-2.19a16.86,16.86,0,0,1-.19,2.437,5.038,5.038,0,0,1-.458.255q.208-3.419.416-6.839l-.814,5.233c.219-6.213.134-12.447-.253-18.645a2.334,2.334,0,0,1,.367,1.1,44.336,44.336,0,0,1-.029-7.928,17.554,17.554,0,0,1,.552,1.85,46.721,46.721,0,0,1-.222-11.27l.225.265Z" transform="translate(-305.717 -158.587)" fill="#bdcb53"/>
            <path id="Trazado_191584" data-name="Trazado 191584" d="M306.753,205.017c0,.192-.011.384-.02.575Z" transform="translate(-304.216 -182.807)" fill="#bdcb53"/>
          </g>
          <path id="Trazado_191585" data-name="Trazado 191585" d="M314.7,182.028a3.2,3.2,0,0,1-1.561.759,30.307,30.307,0,0,1-4.158.771,6.047,6.047,0,0,0-2.077.465,2.841,2.841,0,0,0-1.49,1.886,17.314,17.314,0,0,0-.221-2.187,7.716,7.716,0,0,1-.358-1.928,35.963,35.963,0,0,0,4.949.947,14.688,14.688,0,0,0,2.475-.148C312.874,182.506,314.2,182.531,314.7,182.028Z" transform="translate(-304.183 -160.944)" fill="#637235"/>
          <path id="Trazado_191586" data-name="Trazado 191586" d="M312.185,206.267a5.589,5.589,0,0,0,2.9-1.076c-2.249,1.629-4.9,1.758-7.385,2.544a3.035,3.035,0,0,0-1.261.666,6.043,6.043,0,0,0-1.221,3.161,17.018,17.018,0,0,0,.016-3.941c-.037-.331-.286-1.207,0-1.457.2-.177,1.015.258,1.257.31A15.249,15.249,0,0,0,312.185,206.267Z" transform="translate(-304.695 -173.148)" fill="#637235"/>
          <path id="Trazado_191587" data-name="Trazado 191587" d="M310.887,154.685a22.093,22.093,0,0,1-6.47-12.112,5.128,5.128,0,0,1,.143-3.274,2.18,2.18,0,0,1,2.112-1.091c2.439.09,4.618,2.367,5.868,5.208a25.63,25.63,0,0,1,1.758,7.137c.179,1.452.955,4.85-.63,5.283C312.687,156.1,311.681,155.39,310.887,154.685Z" transform="translate(-303.838 -138.206)" fill="#ebd38d"/>
          <path id="Trazado_191588" data-name="Trazado 191588" d="M304.561,139.3a2.18,2.18,0,0,1,2.112-1.091c2.439.09,4.618,2.367,5.868,5.208a25.63,25.63,0,0,1,1.758,7.137c.179,1.452.955,4.85-.63,5.283-.983.268-1.989-.446-2.782-1.151a22.093,22.093,0,0,1-6.47-12.112A5.128,5.128,0,0,1,304.561,139.3Zm.422,2.939c.928,4.633,3.589,8.2,6.144,11.525a4.763,4.763,0,0,0,1.076,1.13,1.122,1.122,0,0,0,1.316.038,2.177,2.177,0,0,0,.659-1.553A7.536,7.536,0,0,0,314,151.54c-.628-3.5-1.4-7.1-3.139-9.824-1.14-1.791-3.066-3.112-4.839-2.619a1.482,1.482,0,0,0-.747.43A3.384,3.384,0,0,0,304.983,142.239Z" transform="translate(-303.838 -138.206)" fill="#cdd987"/>
          <path id="Trazado_191589" data-name="Trazado 191589" d="M309.056,141.613a4.675,4.675,0,0,1,.373,1.574,10.928,10.928,0,0,0,.994,3.271c.061.124.146.261.256.249a7.017,7.017,0,0,0-.709-2.525,4.171,4.171,0,0,1-.12-1.754.339.339,0,0,1,.077-.2c.089-.078.2.04.266.152a4.428,4.428,0,0,1,.42.962,10.4,10.4,0,0,1,.329,1.947q.1.945.2,1.89c.022.21.119.488.266.417a.242.242,0,0,0,.092-.1,2.243,2.243,0,0,0,.021-1.441,7.869,7.869,0,0,1-.109-1.817c.013-.227.117-.529.275-.453a.355.355,0,0,1,.131.174,3.26,3.26,0,0,1,.285.756,4.825,4.825,0,0,1-.047,1.441,2.2,2.2,0,0,0,.191,1.383l.066-1.737c0-.12.021-.264.1-.311.1-.059.2.092.254.229a2.462,2.462,0,0,1,.139.561,4.113,4.113,0,0,1-.38,1.915.664.664,0,0,1-.118.223c-.189.2-.445-.082-.592-.336-.242.042-.31.526-.163.79a1,1,0,0,0,.642.429.4.4,0,0,0,.3.013c.167-.085.224-.359.288-.586a2.2,2.2,0,0,1,.515-.933c.055-.057.123-.111.19-.086s.1.116.131.2a6.9,6.9,0,0,1,.34,1.707.6.6,0,0,1-.419-.151c-.034.186-.121.345-.167.526a.568.568,0,0,0,.077.522c.17.156.385-.078.517-.292a2.437,2.437,0,0,1,.274,1.05c-.594.243-1.3-.34-1.406-1.167-.2-.1-.458-.188-.594.033a.83.83,0,0,0,.1.78,2.314,2.314,0,0,0,1.913,1.268.226.226,0,0,1,.172.047.388.388,0,0,1,.08.174,2.751,2.751,0,0,1-.115,2.141.352.352,0,0,1-.15.141c-.164.061-.314-.182-.327-.412a4,4,0,0,1,.085-.68c.027-.228-.013-.507-.168-.6-.136-.084-.306.022-.386.194a1.216,1.216,0,0,0-.075.588,2.062,2.062,0,0,0,1.322,1.914,1,1,0,0,1-1.563-.644,6.183,6.183,0,0,1-.12-1.678c-.018-.566-.182-1.213-.579-1.388a6.341,6.341,0,0,0,.3,2.041.371.371,0,0,1,0,.182c-.05.134-.2.088-.295.009a2.662,2.662,0,0,1-.661-2.555c.066-.249.125-.621-.061-.7s-.291.275-.263.526.1.544-.03.73a.258.258,0,0,1-.386.039,1.034,1.034,0,0,1-.266-.429,2.057,2.057,0,0,1-.171-1.008c.046-.346.273-.666.531-.635.145.017.348.1.394-.091a.375.375,0,0,0-.006-.161,1.29,1.29,0,0,0-.45-.777.158.158,0,0,0-.15-.043c-.06.026-.091.114-.116.194l-.622,2.038a1.7,1.7,0,0,1-.529-.8,3.106,3.106,0,0,1-.293-1.008.966.966,0,0,1,.352-.9c.315-.16.727.146.98-.154a.618.618,0,0,0,.08-.574.337.337,0,0,0-.392-.243c-.322.1-.476.785-.8.712a.35.35,0,0,1-.193-.147.889.889,0,0,1-.019-.9.422.422,0,0,1,.663-.108.517.517,0,0,0-.9-.338,1.492,1.492,0,0,0-.1,1.417c.116.274.29.631.127.856s-.436-.009-.578-.255a2.886,2.886,0,0,1-.4-1.91c.125-.664.687-1.184,1.153-.916-.174-.4-.441-.863-.777-.768-.158.044-.287.21-.447.243-.2.043-.393-.136-.5-.367a2.674,2.674,0,0,1-.171-.775.457.457,0,0,1,.013-.232c.066-.144.229-.079.339,0l1.339.992a1.491,1.491,0,0,0-1.153-1.362,1.8,1.8,0,0,1-.43-.033.858.858,0,0,1-.473-.835.571.571,0,0,1,.1-.336c.146-.182.379-.058.552.073l1.038.786-.473-1.064a1.209,1.209,0,0,1-.117-.366C308.065,141.153,308.728,141.023,309.056,141.613Z" transform="translate(-305.244 -139.795)" fill="#f6e08a"/>
        </g>
        <g id="Grupo_131810" data-name="Grupo 131810" transform="translate(10.786 11.677)">
          <path id="Trazado_191590" data-name="Trazado 191590" d="M292.032,179.767c.037.222.171.417.2.64a2.4,2.4,0,0,1-.055.716,27.9,27.9,0,0,0-.224,5.226,5.313,5.313,0,0,0,.107,1.154,9.18,9.18,0,0,1,.269.981,4.6,4.6,0,0,1-.29,1.7,19.14,19.14,0,0,0-.132,5.1c.034,1.707-.229,3.578-1.4,4.731a4.8,4.8,0,0,1-1.994,1.1,8.4,8.4,0,0,1-4.969-.023,3.283,3.283,0,0,1-1.315-.7,3.583,3.583,0,0,1-.9-2.393c-.145-2.413.8-4.912.081-7.2a1.536,1.536,0,0,1-.118-.627c.036-.309.277-.542.395-.827a2.2,2.2,0,0,0,.121-.736q.136-2.779.273-5.559a3.655,3.655,0,0,0-.286-2.022,1.009,1.009,0,0,1-.225-.564,1.21,1.21,0,0,1,.232-.468,2.232,2.232,0,0,0,.222-.873c.123-1.09.247-2.183.263-3.281.05-3.361-.908-6.71-.539-10.049-.044.4,3.325,2.738,3.745,3.1q1.91,1.645,3.758,3.372c.853.8,2.643,2.994,2.807,4.267C292.209,177.671,291.844,178.626,292.032,179.767Z" transform="translate(-281.288 -164.269)" fill="#74873e"/>
          <g id="Grupo_131808" data-name="Grupo 131808" transform="translate(0 1.59)">
            <path id="Trazado_191591" data-name="Trazado 191591" d="M295.166,208.789c-.006-.053-.012-.107-.018-.16q.08-1.688.159-3.375Q295.237,207.021,295.166,208.789Z" transform="translate(-290.879 -186.448)" fill="#758a3e"/>
            <path id="Trazado_191592" data-name="Trazado 191592" d="M295.485,190.32c.036-.31.276-.542.395-.827a2.2,2.2,0,0,0,.121-.736q.136-2.779.273-5.559a3.655,3.655,0,0,0-.286-2.022,1.008,1.008,0,0,1-.225-.563,1.209,1.209,0,0,1,.233-.469,2.232,2.232,0,0,0,.222-.874c.123-1.09.247-2.183.263-3.281.05-3.361-.908-6.71-.539-10.049-.04.365,2.8,2.372,3.589,2.975-.212,2.5.07,5.186.091,7.666q-.634-2.123-1.077-4.3.318,7.943,1.2,15.844l-.263,5.574a100.965,100.965,0,0,0-1.879-15.839,82.8,82.8,0,0,1,.65,11.188l-.432-3.633A57.519,57.519,0,0,0,297.7,196a25.9,25.9,0,0,0,.944-3.638q-.2,3.222-.121,6.454l.552-2.056-.4,4.727a8.4,8.4,0,0,1-.919-.231q-.128-1.083-.257-2.166-.116.984-.307,1.957a2.664,2.664,0,0,1-.772-.5,3.584,3.584,0,0,1-.9-2.393c-.145-2.413.8-4.912.081-7.2A1.536,1.536,0,0,1,295.485,190.32Z" transform="translate(-295.48 -165.941)" fill="#758a3e"/>
          </g>
          <path id="Trazado_191593" data-name="Trazado 191593" d="M299.688,191.038a1.536,1.536,0,0,1-.118-.627c.036-.31.276-.542.395-.827a2.2,2.2,0,0,0,.121-.736q.136-2.78.273-5.559a3.653,3.653,0,0,0-.286-2.022,1.009,1.009,0,0,1-.225-.564,1.207,1.207,0,0,1,.232-.468,2.234,2.234,0,0,0,.222-.873c.123-1.09.247-2.183.263-3.281.05-3.361-.908-6.711-.539-10.049-.023.21.908.963,1.853,1.68-.017.132-.033.259-.047.378-.288,2.432-1.129,4.8-.979,7.286.066,1.1.33,2.175.345,3.274.012.878-.135,1.749-.183,2.626-.064,1.163.047,2.329.076,3.494.033,1.342-.044,2.684-.121,4.024l-.218,3.793c-.066,1.156-.133,2.313-.269,3.462a10.929,10.929,0,0,0-.016,4.548,3.633,3.633,0,0,1-.861-2.357C299.462,195.829,300.411,193.33,299.688,191.038Z" transform="translate(-299.566 -164.398)" fill="#637235"/>
          <g id="Grupo_131809" data-name="Grupo 131809" transform="translate(7.072 7.717)">
            <path id="Trazado_191594" data-name="Trazado 191594" d="M284.275,179.031a13.24,13.24,0,0,1,.377,2.625c.044-.707.113-1.417.216-2.115.213.18.432.366.641.562.027.556.026,1.121.024,1.715q-.008,2.582.112,5.163a50.97,50.97,0,0,1-.7-5.689,45.872,45.872,0,0,0,.422,9.993q.48-2.928.961-5.856-.242,5.45-.486,10.9a15.719,15.719,0,0,0-.4-4.073c-.533,3.068.241,6.278-.359,9.331-.077-2.742-.154-5.483-.257-8.224a16.063,16.063,0,0,0-.465-3.856c.124,2.077.15,4.16.077,6.239l-.258-1.777a37.131,37.131,0,0,0,.093,7.374l.286-3.13a52.671,52.671,0,0,0,.409,6.7,24.607,24.607,0,0,0,1.16-6.309c.058,2.861-.891,5.66-1.139,8.493-.07.049-.142.1-.215.141q-.082-.867-.165-1.734a10.68,10.68,0,0,1-.19,1.929c-.149.075-.3.142-.458.2q.207-2.707.416-5.414l-.814,4.143a120.307,120.307,0,0,0-.253-14.759,1.607,1.607,0,0,1,.366.87,27.845,27.845,0,0,1-.028-6.276,11.893,11.893,0,0,1,.552,1.464,29.35,29.35,0,0,1-.223-8.921l.226.21Z" transform="translate(-283.303 -178.749)" fill="#819344"/>
            <path id="Trazado_191595" data-name="Trazado 191595" d="M284.339,215.5c0,.152-.011.3-.02.455Z" transform="translate(-281.803 -197.92)" fill="#bdcb53"/>
          </g>
          <path id="Trazado_191596" data-name="Trazado 191596" d="M292.289,197.3a3.6,3.6,0,0,1-1.561.6,37.483,37.483,0,0,1-4.158.61,7.428,7.428,0,0,0-2.077.368,2.44,2.44,0,0,0-1.49,1.493,10.838,10.838,0,0,0-.22-1.73c-.089-.426-.444-1.127-.358-1.527a44.549,44.549,0,0,0,4.949.75,18.51,18.51,0,0,0,2.475-.117A6.06,6.06,0,0,0,292.289,197.3Z" transform="translate(-281.769 -180.614)" fill="#637235"/>
          <path id="Trazado_191597" data-name="Trazado 191597" d="M289.769,216.49a6.553,6.553,0,0,0,2.9-.851c-2.25,1.289-4.9,1.392-7.385,2.013a3.368,3.368,0,0,0-1.261.527,4.274,4.274,0,0,0-1.22,2.5,10.7,10.7,0,0,0,.015-3.119c-.037-.263-.285-.956,0-1.154.2-.14,1.015.2,1.257.246A19.193,19.193,0,0,0,289.769,216.49Z" transform="translate(-282.28 -190.275)" fill="#637235"/>
          <path id="Trazado_191598" data-name="Trazado 191598" d="M288.473,175.66a16.813,16.813,0,0,1-6.47-9.586,3.274,3.274,0,0,1,.143-2.592,2.388,2.388,0,0,1,2.112-.864c2.439.072,4.618,1.874,5.868,4.123a16.923,16.923,0,0,1,1.758,5.649c.179,1.15.955,3.839-.63,4.182A3.755,3.755,0,0,1,288.473,175.66Z" transform="translate(-281.424 -162.616)" fill="#ebd38d"/>
          <path id="Trazado_191599" data-name="Trazado 191599" d="M282.146,163.482a2.388,2.388,0,0,1,2.112-.864c2.439.072,4.618,1.874,5.868,4.123a16.923,16.923,0,0,1,1.758,5.649c.179,1.15.955,3.839-.63,4.182a3.755,3.755,0,0,1-2.782-.912,16.813,16.813,0,0,1-6.47-9.586A3.274,3.274,0,0,1,282.146,163.482Zm.422,2.326c.928,3.668,3.589,6.489,6.144,9.122a4.349,4.349,0,0,0,1.077.895,1.365,1.365,0,0,0,1.315.03,1.579,1.579,0,0,0,.659-1.229,4.772,4.772,0,0,0-.172-1.456c-.628-2.772-1.4-5.616-3.14-7.776a5.19,5.19,0,0,0-4.84-2.073,1.608,1.608,0,0,0-.746.34A2.2,2.2,0,0,0,282.569,165.808Z" transform="translate(-281.424 -162.616)" fill="#cdd987"/>
          <path id="Trazado_191600" data-name="Trazado 191600" d="M286.642,165.313a3.092,3.092,0,0,1,.374,1.246,7.389,7.389,0,0,0,.993,2.589c.062.1.146.207.256.2.076-.719-.459-1.327-.709-2a2.648,2.648,0,0,1-.12-1.389.239.239,0,0,1,.077-.162c.09-.061.2.032.266.12a3.2,3.2,0,0,1,.42.762,6.687,6.687,0,0,1,.328,1.541q.1.748.2,1.5c.022.166.119.386.266.33a.212.212,0,0,0,.092-.079c.229-.309.108-.757.021-1.141a4.954,4.954,0,0,1-.109-1.438c.013-.18.117-.419.276-.359a.3.3,0,0,1,.13.138,2.265,2.265,0,0,1,.285.6,3.036,3.036,0,0,1-.047,1.141A1.425,1.425,0,0,0,289.83,170q.033-.687.067-1.375c0-.1.021-.209.1-.246.1-.047.2.073.254.181a1.647,1.647,0,0,1,.139.444,2.687,2.687,0,0,1-.38,1.516.5.5,0,0,1-.118.177c-.19.155-.445-.065-.593-.266-.242.034-.309.417-.163.626a1.044,1.044,0,0,0,.642.34.5.5,0,0,0,.3.01c.167-.067.224-.284.288-.463a1.687,1.687,0,0,1,.515-.739.22.22,0,0,1,.19-.068c.066.02.1.092.131.158a4.455,4.455,0,0,1,.34,1.351.7.7,0,0,1-.42-.12c-.034.147-.121.273-.167.416a.376.376,0,0,0,.078.413c.171.123.385-.062.517-.232a1.622,1.622,0,0,1,.274.831,1.151,1.151,0,0,1-1.406-.923c-.2-.082-.457-.149-.594.026s-.031.439.1.617a2.412,2.412,0,0,0,1.913,1,.274.274,0,0,1,.172.037.29.29,0,0,1,.08.138,1.77,1.77,0,0,1-.115,1.695.336.336,0,0,1-.149.111c-.165.048-.315-.144-.328-.326a2.516,2.516,0,0,1,.085-.539.452.452,0,0,0-.168-.477.314.314,0,0,0-.386.154.773.773,0,0,0-.075.466,1.711,1.711,0,0,0,1.321,1.515,1.089,1.089,0,0,1-1.563-.51,3.9,3.9,0,0,1-.12-1.328c-.018-.448-.181-.96-.579-1.1-.123.54.193,1.071.3,1.615a.238.238,0,0,1,0,.144c-.051.106-.2.069-.295.007a1.822,1.822,0,0,1-.661-2.023c.066-.2.126-.491-.061-.552s-.291.218-.263.416.1.431-.03.577a.3.3,0,0,1-.386.031.811.811,0,0,1-.265-.339,1.332,1.332,0,0,1-.171-.8.558.558,0,0,1,.531-.5c.145.014.348.077.394-.072a.242.242,0,0,0-.006-.128,1.006,1.006,0,0,0-.45-.615.185.185,0,0,0-.15-.034c-.061.02-.092.09-.116.153l-.622,1.613a1.372,1.372,0,0,1-.529-.636,2.1,2.1,0,0,1-.293-.8.7.7,0,0,1,.353-.711c.315-.127.726.115.979-.122a.405.405,0,0,0,.08-.454.352.352,0,0,0-.392-.192c-.322.083-.476.621-.8.564a.348.348,0,0,1-.193-.116.581.581,0,0,1-.02-.716.488.488,0,0,1,.663-.085.549.549,0,0,0-.9-.267.974.974,0,0,0-.1,1.121c.116.217.29.5.127.678s-.436-.007-.578-.2a1.9,1.9,0,0,1-.4-1.512.917.917,0,0,1,1.153-.725c-.175-.318-.441-.683-.778-.608-.158.035-.288.166-.447.193a.517.517,0,0,1-.5-.29,1.742,1.742,0,0,1-.17-.613.287.287,0,0,1,.013-.184c.066-.114.229-.063.339,0l1.338.786a1.315,1.315,0,0,0-1.153-1.078,2.259,2.259,0,0,1-.43-.026.674.674,0,0,1-.474-.661.389.389,0,0,1,.1-.266c.146-.144.378-.046.552.058l1.038.623-.473-.842a.841.841,0,0,1-.117-.29C285.651,164.949,286.314,164.846,286.642,165.313Z" transform="translate(-282.83 -163.874)" fill="#f6e08a"/>
        </g>
        <g id="Grupo_131813" data-name="Grupo 131813" transform="translate(5.192 18.793)">
          <path id="Trazado_191601" data-name="Trazado 191601" d="M303.726,193.48c.036.208.171.389.2.6a2.073,2.073,0,0,1-.054.667,24.3,24.3,0,0,0-.225,4.872,4.6,4.6,0,0,0,.108,1.076,8.21,8.21,0,0,1,.269.914,4.035,4.035,0,0,1-.29,1.585,16.631,16.631,0,0,0-.132,4.753,5.7,5.7,0,0,1-1.4,4.41,4.9,4.9,0,0,1-1.994,1.024,8.973,8.973,0,0,1-4.968-.022,3.369,3.369,0,0,1-1.315-.654,3.216,3.216,0,0,1-.9-2.231c-.145-2.25.8-4.579.081-6.715a1.342,1.342,0,0,1-.118-.585c.036-.289.276-.505.395-.771a1.931,1.931,0,0,0,.121-.686q.136-2.591.273-5.183a3.2,3.2,0,0,0-.286-1.885.906.906,0,0,1-.225-.525,1.093,1.093,0,0,1,.233-.437,1.96,1.96,0,0,0,.221-.814,29.156,29.156,0,0,0,.264-3.059c.049-3.134-.908-6.257-.539-9.369-.044.369,3.325,2.552,3.745,2.89q1.91,1.533,3.758,3.143c.854.743,2.643,2.791,2.808,3.978C303.9,191.527,303.537,192.417,303.726,193.48Z" transform="translate(-292.982 -179.032)" fill="#a5c255"/>
          <g id="Grupo_131811" data-name="Grupo 131811" transform="translate(0 1.483)">
            <path id="Trazado_191602" data-name="Trazado 191602" d="M306.859,220.536c-.006-.049-.012-.1-.018-.149q.079-1.574.159-3.146Q306.929,218.888,306.859,220.536Z" transform="translate(-302.572 -199.709)" fill="#758a3e"/>
            <path id="Trazado_191603" data-name="Trazado 191603" d="M307.178,203.32c.036-.288.276-.505.395-.771a1.934,1.934,0,0,0,.121-.686q.136-2.591.273-5.182a3.2,3.2,0,0,0-.286-1.885.908.908,0,0,1-.225-.525,1.092,1.092,0,0,1,.233-.437,1.964,1.964,0,0,0,.221-.815,29.137,29.137,0,0,0,.264-3.059c.049-3.134-.908-6.256-.539-9.368-.04.339,2.8,2.211,3.588,2.774-.211,2.332.07,4.834.091,7.147q-.634-1.979-1.077-4.013.319,7.405,1.2,14.771l-.263,5.2A88,88,0,0,0,309.3,191.7a72.028,72.028,0,0,1,.65,10.43l-.432-3.387a49.969,49.969,0,0,0-.127,9.867,22.711,22.711,0,0,0,.944-3.392q-.2,3-.121,6.017l.553-1.917c-.133,1.469-.065,2.9-.2,4.371-.31-.055-.959-.2-1.26-.291-.086-.673-.031-1.233-.117-1.906-.077.612,0,1.219-.131,1.823a3.7,3.7,0,0,1-.948-.464,3.217,3.217,0,0,1-.9-2.231c-.145-2.25.8-4.58.081-6.716A1.341,1.341,0,0,1,307.178,203.32Z" transform="translate(-307.173 -180.592)" fill="#758a3e"/>
          </g>
          <path id="Trazado_191604" data-name="Trazado 191604" d="M311.381,203.989a1.342,1.342,0,0,1-.118-.585c.036-.289.276-.505.395-.771a1.932,1.932,0,0,0,.121-.686q.136-2.592.273-5.183a3.2,3.2,0,0,0-.286-1.885.905.905,0,0,1-.225-.525,1.093,1.093,0,0,1,.232-.437A1.96,1.96,0,0,0,312,193.1a29.156,29.156,0,0,0,.264-3.059c.049-3.134-.908-6.257-.539-9.369-.023.2.908.9,1.853,1.566-.017.123-.033.241-.047.353-.288,2.267-1.129,4.479-.979,6.792.066,1.023.33,2.028.345,3.052.012.818-.135,1.631-.183,2.448-.064,1.084.048,2.171.076,3.258.033,1.251-.044,2.5-.121,3.751l-.218,3.537c-.066,1.078-.133,2.156-.269,3.228a9.506,9.506,0,0,0-.015,4.24,3.254,3.254,0,0,1-.862-2.2C311.155,208.454,312.1,206.124,311.381,203.989Z" transform="translate(-311.259 -179.153)" fill="#637235"/>
          <g id="Grupo_131812" data-name="Grupo 131812" transform="translate(7.071 7.194)">
            <path id="Trazado_191605" data-name="Trazado 191605" d="M295.968,192.794a11.544,11.544,0,0,1,.378,2.447c.044-.659.113-1.321.215-1.972.214.167.432.341.641.523.027.519.026,1.045.025,1.6q-.008,2.407.112,4.814a44.468,44.468,0,0,1-.7-5.3,39.876,39.876,0,0,0,.422,9.316q.48-2.73.961-5.46-.243,5.082-.486,10.164a13.7,13.7,0,0,0-.4-3.8c-.533,2.86.24,5.852-.36,8.7-.077-2.556-.154-5.112-.257-7.667a13.99,13.99,0,0,0-.465-3.594,57.251,57.251,0,0,1,.077,5.816l-.258-1.657a32.321,32.321,0,0,0,.093,6.875q.143-1.459.286-2.918a45.826,45.826,0,0,0,.409,6.25,21.579,21.579,0,0,0,1.16-5.882c.058,2.667-.892,5.277-1.139,7.917-.07.046-.142.09-.215.132q-.082-.808-.165-1.616a9.3,9.3,0,0,1-.19,1.8c-.15.07-.3.132-.458.189q.208-2.524.416-5.047l-.814,3.862A104.412,104.412,0,0,0,295,204.523a1.449,1.449,0,0,1,.367.811,24.186,24.186,0,0,1-.029-5.851,10.55,10.55,0,0,1,.552,1.366,25.537,25.537,0,0,1-.222-8.317l.225.2Z" transform="translate(-294.996 -192.531)" fill="#bdcb53"/>
            <path id="Trazado_191606" data-name="Trazado 191606" d="M296.032,226.794c0,.142-.011.283-.02.424Z" transform="translate(-293.495 -210.404)" fill="#bdcb53"/>
          </g>
          <path id="Trazado_191607" data-name="Trazado 191607" d="M303.982,209.829a3.753,3.753,0,0,1-1.561.561,39.9,39.9,0,0,1-4.158.568,7.913,7.913,0,0,0-2.077.343,2.361,2.361,0,0,0-1.49,1.392,9.56,9.56,0,0,0-.221-1.614c-.089-.4-.444-1.05-.358-1.423a47.662,47.662,0,0,0,4.949.7,19.975,19.975,0,0,0,2.475-.109A6.449,6.449,0,0,0,303.982,209.829Z" transform="translate(-293.462 -194.27)" fill="#637235"/>
          <path id="Trazado_191608" data-name="Trazado 191608" d="M301.463,227.716a6.9,6.9,0,0,0,2.9-.794c-2.249,1.2-4.9,1.3-7.385,1.877a3.5,3.5,0,0,0-1.261.492,3.888,3.888,0,0,0-1.221,2.332,9.293,9.293,0,0,0,.016-2.908c-.037-.245-.286-.891,0-1.076.2-.13,1.015.191,1.257.23A20.544,20.544,0,0,0,301.463,227.716Z" transform="translate(-293.974 -203.276)" fill="#637235"/>
          <path id="Trazado_191609" data-name="Trazado 191609" d="M300.166,189.652a15.678,15.678,0,0,1-6.47-8.937,2.862,2.862,0,0,1,.143-2.416,2.475,2.475,0,0,1,2.112-.805,7.423,7.423,0,0,1,5.868,3.843,15.027,15.027,0,0,1,1.758,5.267c.179,1.072.955,3.579-.63,3.9A3.937,3.937,0,0,1,300.166,189.652Z" transform="translate(-293.117 -177.492)" fill="#ebd38d"/>
          <path id="Trazado_191610" data-name="Trazado 191610" d="M293.84,178.3a2.475,2.475,0,0,1,2.112-.805,7.423,7.423,0,0,1,5.868,3.843,15.027,15.027,0,0,1,1.758,5.267c.179,1.072.955,3.579-.63,3.9a3.937,3.937,0,0,1-2.782-.85,15.678,15.678,0,0,1-6.47-8.937A2.862,2.862,0,0,1,293.84,178.3Zm.422,2.169c.928,3.419,3.589,6.05,6.144,8.5a4.293,4.293,0,0,0,1.076.834,1.293,1.293,0,0,0,1.974-1.118,4.163,4.163,0,0,0-.172-1.357c-.628-2.584-1.4-5.236-3.139-7.25a5.363,5.363,0,0,0-4.839-1.932,1.66,1.66,0,0,0-.747.317A1.936,1.936,0,0,0,294.262,180.467Z" transform="translate(-293.117 -177.492)" fill="#cdd987"/>
          <path id="Trazado_191611" data-name="Trazado 191611" d="M298.335,180.006a2.732,2.732,0,0,1,.373,1.161,6.617,6.617,0,0,0,.994,2.414c.061.092.146.192.256.183.076-.67-.459-1.237-.709-1.863a2.306,2.306,0,0,1-.12-1.294.218.218,0,0,1,.077-.15c.089-.057.2.029.266.111a2.926,2.926,0,0,1,.42.71,5.874,5.874,0,0,1,.329,1.437q.1.7.2,1.395c.022.155.119.36.266.308a.218.218,0,0,0,.092-.074c.229-.289.107-.706.021-1.064a4.316,4.316,0,0,1-.109-1.341c.013-.167.117-.39.275-.334a.29.29,0,0,1,.131.129,2.057,2.057,0,0,1,.285.558,2.643,2.643,0,0,1-.047,1.063,1.254,1.254,0,0,0,.191,1.021l.066-1.282c0-.089.021-.195.1-.23.1-.044.2.068.254.169a1.444,1.444,0,0,1,.139.413,2.372,2.372,0,0,1-.38,1.414.47.47,0,0,1-.118.165c-.189.145-.445-.06-.592-.248-.242.032-.31.388-.163.583a1.065,1.065,0,0,0,.642.317.535.535,0,0,0,.3.01c.167-.063.223-.265.288-.432a1.576,1.576,0,0,1,.515-.688.229.229,0,0,1,.19-.064.241.241,0,0,1,.131.147,3.951,3.951,0,0,1,.34,1.26.741.741,0,0,1-.42-.111c-.034.137-.121.255-.167.388a.333.333,0,0,0,.078.385c.17.115.385-.057.517-.216a1.447,1.447,0,0,1,.274.775,1.152,1.152,0,0,1-1.406-.861c-.2-.076-.458-.139-.594.024s-.031.409.1.575a2.47,2.47,0,0,0,1.913.936.287.287,0,0,1,.172.034.261.261,0,0,1,.08.129,1.554,1.554,0,0,1-.115,1.58.335.335,0,0,1-.15.1c-.164.045-.314-.134-.327-.3a2.231,2.231,0,0,1,.085-.5.406.406,0,0,0-.168-.444.325.325,0,0,0-.386.143.684.684,0,0,0-.075.434,1.637,1.637,0,0,0,1.322,1.413,1.125,1.125,0,0,1-1.563-.475,3.4,3.4,0,0,1-.12-1.238,1.064,1.064,0,0,0-.579-1.024c-.123.5.192,1,.3,1.506a.2.2,0,0,1,0,.134c-.05.1-.2.065-.295.006a1.636,1.636,0,0,1-.661-1.886c.066-.184.125-.458-.061-.514s-.291.2-.263.388.1.4-.03.538a.319.319,0,0,1-.386.029.773.773,0,0,1-.266-.316,1.173,1.173,0,0,1-.171-.744.544.544,0,0,1,.531-.468c.145.013.348.072.394-.067a.207.207,0,0,0-.006-.119.946.946,0,0,0-.45-.574.2.2,0,0,0-.15-.032c-.06.019-.091.084-.116.143l-.622,1.5a1.3,1.3,0,0,1-.529-.593,1.869,1.869,0,0,1-.293-.744.639.639,0,0,1,.352-.663c.315-.118.727.108.98-.114a.349.349,0,0,0-.311-.6c-.322.077-.475.579-.8.525a.354.354,0,0,1-.193-.109.495.495,0,0,1,.643-.747.563.563,0,0,0-.9-.249.859.859,0,0,0-.1,1.045c.116.2.29.466.127.632s-.436-.006-.578-.188a1.689,1.689,0,0,1-.4-1.41.92.92,0,0,1,1.153-.675c-.174-.3-.441-.637-.777-.567-.158.033-.287.154-.447.18a.524.524,0,0,1-.5-.271,1.547,1.547,0,0,1-.171-.572.252.252,0,0,1,.013-.171c.065-.107.229-.059.339,0l1.339.732a1.282,1.282,0,0,0-1.153-1.006,2.432,2.432,0,0,1-.431-.024.635.635,0,0,1-.473-.617.347.347,0,0,1,.1-.248c.146-.134.379-.043.552.054l1.038.58-.473-.785a.742.742,0,0,1-.117-.27C297.344,179.667,298.007,179.571,298.335,180.006Z" transform="translate(-294.523 -178.664)" fill="#f6e08a"/>
        </g>
        <path id="Trazado_191612" data-name="Trazado 191612" d="M300.345,199.916a8.252,8.252,0,0,1-2.135.457,21.07,21.07,0,0,1-4.709.174,19.455,19.455,0,0,1-3.6-.811,20.25,20.25,0,0,1-3.2-1.209,12.33,12.33,0,0,1-5.532-5.61,1.7,1.7,0,0,0,.092,1.449,5.032,5.032,0,0,0,.92,1.18,21.234,21.234,0,0,0,3.578,3.223c2.646,1.738,5.913,2.2,9.069,2.455,2.154.172,4.421.245,6.361-.705.345-.169,1.708-1.162,1.013-1.669C301.95,198.667,300.735,199.759,300.345,199.916Z" transform="translate(-280.437 -166.745)" fill="#463429"/>
        <path id="Trazado_191613" data-name="Trazado 191613" d="M300.917,207.545a9.538,9.538,0,0,1-2.063.608,24.816,24.816,0,0,1-4.626.651,28.975,28.975,0,0,1-6.885-.942c-2.465-.735-5.636-3.3-5.777-4.267a1.615,1.615,0,0,0,.04,1.406,4.4,4.4,0,0,0,1.014.879,20.247,20.247,0,0,0,3.818,2.284c2.765,1.155,6.027,1.189,9.16,1.058a14.243,14.243,0,0,0,6.207-1.269c.325-.177,1.578-1.146.847-1.492C302.386,206.337,301.286,207.372,300.917,207.545Z" transform="translate(-281.098 -172.316)" fill="#463429"/>
        <path id="Trazado_191614" data-name="Trazado 191614" d="M299.749,203.126c-4.32,3.379-8.89,6.675-14.181,8.119a7.451,7.451,0,0,1-2.264.335c-.827-.035-1.786-.464-1.853-1.305a.187.187,0,0,1,.051-.149c.094-.09.229-.01.326.062a4.868,4.868,0,0,0,3.982.41,26.541,26.541,0,0,0,8.336-3.987q2.732-1.789,5.334-3.766a16.7,16.7,0,0,0,1.53-1.271,11.4,11.4,0,0,0,2.015-2.9.026.026,0,0,1,.047,0,.532.532,0,0,1,.123.486,3.221,3.221,0,0,1-.293.614,6.579,6.579,0,0,1-.851,1.269A15.281,15.281,0,0,1,299.749,203.126Z" transform="translate(-281.451 -169.741)" fill="#463429"/>
      </g>
      <g id="Grupo_131819" data-name="Grupo 131819" transform="translate(101.615 79.798)">
        <path id="Trazado_191615" data-name="Trazado 191615" d="M277.731,234.374a9.27,9.27,0,0,1-3.321-3.391,5.408,5.408,0,0,1,.869-1.336c.153-.188.322-.371.5-.553a14.458,14.458,0,0,1,1.316-1.167c.2-.166.414-.328.627-.485.568-.417,1.147-.806,1.7-1.152.235-.152.466-.292.687-.427.6-.361,1.141-.658,1.545-.875.469-.251.758-.393.758-.393,1.488,1.4,2.416,4.506,2.416,4.506a7.937,7.937,0,0,1-1.481,1.868A18.348,18.348,0,0,1,277.731,234.374Z" transform="translate(-274.41 -224.595)" fill="#f0886e"/>
        <g id="Grupo_131818" data-name="Grupo 131818" transform="translate(0.869 1.268)">
          <g id="Grupo_131815" data-name="Grupo 131815" transform="translate(4.144)">
            <path id="Trazado_191616" data-name="Trazado 191616" d="M283.265,230.113s-.222-.181-.532-.47a12.315,12.315,0,0,1-1.1-1.145c-.234-.283-.439-.566-.614-.825.235-.152.466-.292.687-.427a3.911,3.911,0,0,1,.673.634,4.021,4.021,0,0,1,.769,1.52A3.347,3.347,0,0,1,283.265,230.113Z" transform="translate(-281.021 -227.246)" fill="#c33545"/>
          </g>
          <g id="Grupo_131816" data-name="Grupo 131816" transform="translate(1.817 1.58)">
            <path id="Trazado_191617" data-name="Trazado 191617" d="M288.158,233.256s-.228-.155-.54-.41a9.052,9.052,0,0,1-1.094-1.045,8.576,8.576,0,0,1-.584-.768c.2-.166.414-.328.627-.485a3.748,3.748,0,0,1,.691.618,3.925,3.925,0,0,1,.764,1.414A3.426,3.426,0,0,1,288.158,233.256Z" transform="translate(-285.941 -230.548)" fill="#c33545"/>
          </g>
          <g id="Grupo_131817" data-name="Grupo 131817" transform="translate(0 3.231)">
            <path id="Trazado_191618" data-name="Trazado 191618" d="M291.812,236.957s-.24-.158-.572-.428a8.978,8.978,0,0,1-1.156-1.124,7.815,7.815,0,0,1-.622-.853c.153-.188.322-.371.5-.553a4.425,4.425,0,0,1,.861.781,4.533,4.533,0,0,1,.817,1.474A3.886,3.886,0,0,1,291.812,236.957Z" transform="translate(-289.461 -234)" fill="#c33545"/>
          </g>
        </g>
        <path id="Trazado_191619" data-name="Trazado 191619" d="M276.1,230.97a5.5,5.5,0,0,0,.123-2.027,6.708,6.708,0,0,0-.6-1.768,12.781,12.781,0,0,0-1-1.943,1.765,1.765,0,0,0-.216-.243c.469-.251.758-.393.758-.393,1.488,1.4,2.416,4.506,2.416,4.506A7.936,7.936,0,0,1,276.1,230.97Z" transform="translate(-267.165 -224.595)" fill="#f9ac80"/>
      </g>
      <path id="Trazado_191620" data-name="Trazado 191620" d="M403.487,179.975c.943,2.66,6.3,8.267,7.5,8.833s23.869-9.21,23.869-9.21l-.8-2.407-1.98-5.93-14.6,2.461,1.662-11.751-4.4-21.755s-.853.486-1.96,1.206c-1.876,1.231-4.471,3.136-4.853,4.5C407.318,148.077,402.544,177.316,403.487,179.975Z" transform="translate(-384.51 -100.782)" fill="#282e7f"/>
      <g id="Grupo_131822" data-name="Grupo 131822" transform="translate(13.274 8.599)">
        <path id="Trazado_191621" data-name="Trazado 191621" d="M455.318,118.141a3.009,3.009,0,0,0-.766,2.275,7.393,7.393,0,0,0,.63,2.377c1.721,4.242,4.435,7.993,7.122,11.7a9.3,9.3,0,0,1-1.78-5.542c-.028-1.974-.218-9.491.817-10.59.824-.875,4.326-.652,5.437-1.113a.554.554,0,0,0,.343-.266c.091-.246-.193-.459-.435-.56a8.534,8.534,0,0,0-7.064.277,6.01,6.01,0,0,1-2.177.951C456.607,117.7,456.012,117.444,455.318,118.141Z" transform="translate(-454.547 -96.637)" fill="#446336"/>
        <path id="Trazado_191622" data-name="Trazado 191622" d="M416.851,110.547a2.11,2.11,0,0,0-1.049.042,2.327,2.327,0,0,0-.834.706,16.8,16.8,0,0,1-4.8,3.781,28.933,28.933,0,0,0,5.163,1.037,73.548,73.548,0,0,1,23.023,7.286,16.127,16.127,0,0,1,4.63,3.284c-2.552-2.472-4.685-5.292-7.415-7.6a38.507,38.507,0,0,0-11.463-6.726A34.132,34.132,0,0,0,416.851,110.547Z" transform="translate(-409.163 -93.88)" fill="#50783f"/>
        <path id="Trazado_191623" data-name="Trazado 191623" d="M386.516,137.51a2.985,2.985,0,0,0,.985,1.236c.263.157.593.247.75.511a1.576,1.576,0,0,1,.109.76,3.912,3.912,0,0,0,.409,1.411A25.756,25.756,0,0,0,392.143,147a4.455,4.455,0,0,1,.488.693,4.4,4.4,0,0,1,.255.659,32.641,32.641,0,0,0,1.781,4.325,3.24,3.24,0,0,0,.772,1.106c.185.151.4.263.58.418a3.415,3.415,0,0,1,.85,1.886,16.7,16.7,0,0,0,1.693,4.293c.773,1.368,1.777,2.765,1.65,4.331a4.588,4.588,0,0,1-3.295,3.617,4.249,4.249,0,0,1-1.854.262,3.95,3.95,0,0,1-2.56-1.587,10.983,10.983,0,0,1-1.419-2.737,29.657,29.657,0,0,0-1.742-3.88,4.413,4.413,0,0,1-.48-.982,7.478,7.478,0,0,1-.139-1.172,7.624,7.624,0,0,0-.78-2.288q-1.03-2.216-2.074-4.426l-2.629-5.588a8.362,8.362,0,0,0-1.148-1.957,4.221,4.221,0,0,1-.514-.634,3.509,3.509,0,0,1-.3-1.007,14.551,14.551,0,0,0-1.882-4.145l-2.827-4.811,4.9.068a5.026,5.026,0,0,0,1.829-.411c.685-.229.725-.141,1.1.531C385.127,134.867,385.81,136.2,386.516,137.51Z" transform="translate(-350.33 -105.576)" fill="#88a046"/>
        <g id="Grupo_131820" data-name="Grupo 131820" transform="translate(26.236 27.803)">
          <path id="Trazado_191624" data-name="Trazado 191624" d="M400.425,167.658l-.912-1.7a6.774,6.774,0,0,0-.625-1.79A11.716,11.716,0,0,1,400.425,167.658Z" transform="translate(-387.446 -149.675)" fill="#758a3e"/>
          <path id="Trazado_191625" data-name="Trazado 191625" d="M387.9,193.165a6.884,6.884,0,0,1,.745,2.595Z" transform="translate(-370.405 -164.803)" fill="#758a3e"/>
          <path id="Trazado_191626" data-name="Trazado 191626" d="M399.49,160.888a4.413,4.413,0,0,1-.48-.982,7.475,7.475,0,0,1-.139-1.172,7.624,7.624,0,0,0-.78-2.289q-1.03-2.216-2.074-4.426l-2.629-5.588a8.365,8.365,0,0,0-1.148-1.957,4.219,4.219,0,0,1-.514-.634,3.51,3.51,0,0,1-.3-1.007,14.551,14.551,0,0,0-1.882-4.145l-2.827-4.811,3.3.046c.159.43.3.849.463,1.185a69.279,69.279,0,0,0,3.826,7.036l-2.873-3.209.542.974-.476-.373,4.331,7.54a15.6,15.6,0,0,0-1.323-3.5l.84,1.25q-.281-1.074-.562-2.148l4,7.48q.04.2.067.4l-1.777-2.034.827,2.21-1.707-2.03,5.212,10.606a24.785,24.785,0,0,0-1.615-5.649l1.886,3.843q-.412-2.495-.988-4.959l1.512,2.872a37.822,37.822,0,0,0-3.915-8.664c2.113,2.308,3.039,5.431,3.9,8.438l2.022,7.048a6.826,6.826,0,0,0-1.07-1.526q0,.853.01,1.706l-.985-2.06q.545,2.359,1.208,4.69l-2.8-5.872,2.222,5.475a12.3,12.3,0,0,0,1.45,2.838q.045-1.168.091-2.336l.191.826q.025-.3.05-.6a18.085,18.085,0,0,0,.947,3.735,2.973,2.973,0,0,1-.306-.019,3.95,3.95,0,0,1-2.56-1.587,10.983,10.983,0,0,1-1.419-2.737A29.656,29.656,0,0,0,399.49,160.888Z" transform="translate(-386.713 -133.876)" fill="#758a3e"/>
        </g>
        <path id="Trazado_191627" data-name="Trazado 191627" d="M384.226,140.794q-1.074-1.057-2.07-2.188a58.083,58.083,0,0,0,5.936,8.371,10.071,10.071,0,0,0-2.28-2.284l.917,1.364a3.546,3.546,0,0,0-.953-1,53.223,53.223,0,0,1,5.774,9.256,9.976,9.976,0,0,0-1.4-2.118l1.639,3.785-2.646-5.061c1.682,4.314,3.366,8.633,5.365,12.81a24.955,24.955,0,0,0-1.458-7.582,48.78,48.78,0,0,1,2.9,9.836l-.589-.855a14.68,14.68,0,0,1,.041,1.941,19.028,19.028,0,0,0-2.322-4.369,8.271,8.271,0,0,1,.5,2.462c-1.192-4.542-2.437-9.127-4.716-13.232a7.178,7.178,0,0,1-1.05-2.527l1.146,1.008q-1.523-1.694-2.883-3.525a5.728,5.728,0,0,1,1.026,1.168,14.4,14.4,0,0,1-2.741-4.538l1.258,1.262a48.368,48.368,0,0,1-5.571-9.21,15.392,15.392,0,0,1,2.836,2.688c-.98-1.2-2.9-2.182-3.041-3.952.7.347,1.259,1.4,1.705,2.016A31.491,31.491,0,0,1,384.226,140.794Z" transform="translate(-347.618 -106.297)" fill="#bdcb53"/>
        <path id="Trazado_191628" data-name="Trazado 191628" d="M404.605,149.764a12.711,12.711,0,0,0,3.8-2.908,1.573,1.573,0,0,1-.418.848,18.359,18.359,0,0,1-3.175,3.121,1.81,1.81,0,0,1-1.537.516c-.5-.153-1.033-.68-.555-1.082C403.062,149.97,404.141,149.96,404.605,149.764Z" transform="translate(-370.93 -112.844)" fill="#758a3e"/>
        <path id="Trazado_191629" data-name="Trazado 191629" d="M399.529,165.791l-4.921,3.478a.686.686,0,0,1-.521.181.608.608,0,0,1-.242-.14c-.646-.542-.762-.758-.017-1,.663-.211,1.327-.386,1.977-.643A18.134,18.134,0,0,0,399.529,165.791Z" transform="translate(-357.647 -122.721)" fill="#758a3e"/>
        <path id="Trazado_191630" data-name="Trazado 191630" d="M387.4,182.62a18.968,18.968,0,0,0,4.287-3.034,5.821,5.821,0,0,1-.8,1.346,12.287,12.287,0,0,1-4.8,3.808,1.2,1.2,0,0,1-.428.126c-.728.031-1.391-1.22-.7-1.67.261-.17.867-.018,1.188-.081A4.86,4.86,0,0,0,387.4,182.62Z" transform="translate(-345.668 -129.917)" fill="#758a3e"/>
        <path id="Trazado_191631" data-name="Trazado 191631" d="M438.367,93.675A54.493,54.493,0,0,0,427.31,81.41a29.146,29.146,0,0,0-9.347-5.655c3.683,1.925,5.775,5.857,7.761,9.507a70.979,70.979,0,0,0,10.062,14.8c1.682,1.8,3.512,3.46,5.13,5.321a21.092,21.092,0,0,1,2.192,2.952c.33.549.574,1.467,1.073,1.853a5.412,5.412,0,0,0-.192-2.353,36.98,36.98,0,0,0-.973-4.141A39.679,39.679,0,0,0,438.367,93.675Z" transform="translate(-414.174 -75.755)" fill="#618e4b"/>
        <path id="Trazado_191632" data-name="Trazado 191632" d="M418.76,124.424c-.255,2.647,1.156,5.209.253,7.863-1.843-3.137-3.775-5.372-4.954-8.112a2.656,2.656,0,0,1-.148-2.288,4.44,4.44,0,0,1,1.326-1.39c1.5-1.166,3.706-3.137,5.483-3.718.1.471-.437,1.193-.644,1.689a15.057,15.057,0,0,0-.664,1.992A24.916,24.916,0,0,0,418.76,124.424Z" transform="translate(-388.606 -97.155)" fill="#446336"/>
        <path id="Trazado_191633" data-name="Trazado 191633" d="M441.4,114.207a2.848,2.848,0,0,0,1.35-1.426.775.775,0,0,1,.267-.4.654.654,0,0,1,.355-.056,14.657,14.657,0,0,1,5.643,1.735c1.958.934,4.561,2.011,5.99,3.688-1.784-.569-3.393-1.612-5.23-2.151A35,35,0,0,0,441.4,114.207Z" transform="translate(-436.125 -94.829)" fill="#618e4b"/>
        <path id="Trazado_191634" data-name="Trazado 191634" d="M391.884,158.48a2.985,2.985,0,0,0,1.107,1.129c.278.129.615.185.8.431a1.577,1.577,0,0,1,.186.745,3.925,3.925,0,0,0,.551,1.362,25.8,25.8,0,0,0,3.93,5.2,4.437,4.437,0,0,1,.556.639,4.378,4.378,0,0,1,.321.629,32.654,32.654,0,0,0,2.215,4.12,3.238,3.238,0,0,0,.882,1.021c.2.132.424.22.62.356a3.412,3.412,0,0,1,1.039,1.789,16.7,16.7,0,0,0,2.125,4.1c.909,1.281,2.051,2.568,2.085,4.139a4.587,4.587,0,0,1-2.906,3.936,4.237,4.237,0,0,1-1.817.451,3.948,3.948,0,0,1-2.709-1.316,10.982,10.982,0,0,1-1.693-2.576,29.658,29.658,0,0,0-2.13-3.681,4.426,4.426,0,0,1-.578-.928,7.441,7.441,0,0,1-.258-1.152,7.633,7.633,0,0,0-1.01-2.2q-1.253-2.1-2.517-4.189l-3.188-5.289a8.384,8.384,0,0,0-1.343-1.829,4.281,4.281,0,0,1-.576-.579,3.509,3.509,0,0,1-.405-.971,14.548,14.548,0,0,0-2.3-3.93l-3.305-4.5,4.881-.434a5.031,5.031,0,0,0,1.778-.6c.658-.3.348,1.124.793,1.754C389.874,157.332,391.048,157.246,391.884,158.48Z" transform="translate(-360.797 -116.737)" fill="#8fae4b"/>
        <path id="Trazado_191635" data-name="Trazado 191635" d="M400.816,187.959q-2.87-5.564-5.289-11.344a26.336,26.336,0,0,0-2.754-5.455c-1.182-1.625-2.8-3.021-3.368-4.951a1.6,1.6,0,0,0-.262-.614,1.877,1.877,0,0,0-.686-.4,5.244,5.244,0,0,1-1.946-1.987,53.794,53.794,0,0,1-5.017-8.051l-.03-.073a5.229,5.229,0,0,0,1.7-.588c.658-.3.36.893.8,1.524.86,1.218,2.015,1.023,2.852,2.257.3.442.629,1.243,1.113,1.468.278.129.615.186.8.431a1.574,1.574,0,0,1,.186.744,3.915,3.915,0,0,0,.551,1.362,25.767,25.767,0,0,0,3.93,5.2,4.5,4.5,0,0,1,.556.639,4.377,4.377,0,0,1,.321.63,32.708,32.708,0,0,0,2.216,4.119,3.245,3.245,0,0,0,.882,1.021c.2.132.424.22.62.356a3.412,3.412,0,0,1,1.038,1.789,16.709,16.709,0,0,0,2.125,4.1c.909,1.282,2.052,2.568,2.086,4.139A4.4,4.4,0,0,1,400.816,187.959Z" transform="translate(-355.692 -116.806)" fill="#a6c256"/>
        <g id="Grupo_131821" data-name="Grupo 131821" transform="translate(19.973 38.152)">
          <path id="Trazado_191636" data-name="Trazado 191636" d="M409.082,187.987l-1.093-1.593a7.141,7.141,0,0,0-.829-1.7A12.459,12.459,0,0,1,409.082,187.987Z" transform="translate(-393.796 -170.736)" fill="#758a3e"/>
          <path id="Trazado_191637" data-name="Trazado 191637" d="M393.134,212a7.233,7.233,0,0,1,1.049,2.469Z" transform="translate(-372.188 -184.978)" fill="#758a3e"/>
          <path id="Trazado_191638" data-name="Trazado 191638" d="M407.236,181.6a5.174,5.174,0,0,1-.6-.913,8.017,8.017,0,0,1-.321-1.1,8.7,8.7,0,0,0-1.085-2.133q-1.3-2.06-2.608-4.113l-3.3-5.193a9.816,9.816,0,0,0-1.36-1.814,4.97,4.97,0,0,1-.568-.585,3.95,3.95,0,0,1-.442-.94,16.912,16.912,0,0,0-2.389-3.854c-1.116-1.486-2.41-3.965-3.526-5.451.99-.01,2.158.973,3.148.964.215.4.417.79.616,1.1q2.143,3.369,4.621,6.528l-3.122-2.952.652.9-.491-.34,5.16,6.991a17.926,17.926,0,0,0-1.778-3.263l.965,1.156-.866-2.006,4.855,6.941c.046.124.089.25.128.376l-1.939-1.873L404.1,172.1l-1.875-1.87,6.466,9.851a27.974,27.974,0,0,0-2.4-5.272l2.341,3.57q-.789-2.335-1.721-4.637l1.842,2.665a43.953,43.953,0,0,0-4.974-8.055c2.287,2.122,3.644,5.037,4.924,7.844l3,6.577a8.027,8.027,0,0,0-1.218-1.41q.148.8.3,1.6l-1.232-1.913q.887,2.205,1.874,4.379l-3.506-5.456,2.917,5.1a14.349,14.349,0,0,0,1.78,2.635q-.156-1.1-.31-2.2l.31.772q-.029-.284-.057-.568a20.259,20.259,0,0,0,1.479,3.488,2.588,2.588,0,0,1-.278-.011,4.3,4.3,0,0,1-2.569-1.436,12.857,12.857,0,0,1-1.736-2.54A34.423,34.423,0,0,0,407.236,181.6Z" transform="translate(-391.038 -155.511)" fill="#758a3e"/>
        </g>
        <path id="Trazado_191639" data-name="Trazado 191639" d="M389.71,161.707q-1.177-.941-2.284-1.964a58.131,58.131,0,0,0,6.764,7.718,10.058,10.058,0,0,0-2.5-2.038l1.052,1.263a3.551,3.551,0,0,0-1.05-.9,53.266,53.266,0,0,1,6.693,8.615,10,10,0,0,0-1.615-1.963l2.019,3.6-3.151-4.763c2.116,4.119,4.234,8.242,6.651,12.192a24.936,24.936,0,0,0-2.228-7.392,48.8,48.8,0,0,1,3.894,9.486l-.674-.791a14.665,14.665,0,0,1,.24,1.927,19.036,19.036,0,0,0-2.758-4.108,8.262,8.262,0,0,1,.749,2.4c-1.651-4.4-3.36-8.828-6.047-12.679a7.159,7.159,0,0,1-1.3-2.406l1.243.885q-1.688-1.529-3.229-3.211a5.724,5.724,0,0,1,1.141,1.057,14.394,14.394,0,0,1-3.192-4.234l1.381,1.127a48.373,48.373,0,0,1-6.486-8.59,15.417,15.417,0,0,1,3.1,2.383c-1.1-1.093-3.107-1.874-3.43-3.619.728.274,1.4,1.259,1.9,1.83A31.528,31.528,0,0,1,389.71,161.707Z" transform="translate(-357.938 -117.459)" fill="#bdcb53"/>
        <path id="Trazado_191640" data-name="Trazado 191640" d="M414.733,170.343a12.7,12.7,0,0,0,3.479-3.282,1.575,1.575,0,0,1-.329.886,18.345,18.345,0,0,1-2.839,3.43,1.809,1.809,0,0,1-1.475.671c-.511-.1-1.1-.571-.663-1.019C413.22,170.707,414.292,170.586,414.733,170.343Z" transform="translate(-385.632 -123.384)" fill="#758a3e"/>
        <path id="Trazado_191641" data-name="Trazado 191641" d="M407.534,184.951,403,188.915a.688.688,0,0,1-.5.234.6.6,0,0,1-.255-.115c-.7-.473-.835-.676-.119-.989.638-.279,1.281-.52,1.9-.842A18.143,18.143,0,0,0,407.534,184.951Z" transform="translate(-369.638 -132.716)" fill="#758a3e"/>
        <path id="Trazado_191642" data-name="Trazado 191642" d="M394.236,201.244a18.976,18.976,0,0,0,3.953-3.457,5.835,5.835,0,0,1-.657,1.42,12.3,12.3,0,0,1-4.385,4.281,1.2,1.2,0,0,1-.412.169c-.721.105-1.509-1.071-.872-1.588.242-.2.86-.107,1.173-.2A4.845,4.845,0,0,0,394.236,201.244Z" transform="translate(-355.502 -139.411)" fill="#758a3e"/>
        <path id="Trazado_191643" data-name="Trazado 191643" d="M416.836,170.6a18.376,18.376,0,0,0,2.371-2.24,17.87,17.87,0,0,1-3.346,3.424,1.878,1.878,0,0,1-1.44.633.614.614,0,0,1-.535-.526c.459-.2,1.026-.236,1.508-.444A7.325,7.325,0,0,0,416.836,170.6Z" transform="translate(-387.166 -124.063)" fill="#945b33"/>
        <path id="Trazado_191644" data-name="Trazado 191644" d="M407.23,184.264l-3.606,2.808a7.255,7.255,0,0,1-1.848,1.161,1.171,1.171,0,0,1-.526.095c-.657-.07-.719-.7-.147-.908.728-.262,1.473-.441,2.189-.745A15.692,15.692,0,0,0,407.23,184.264Z" transform="translate(-368.888 -132.357)" fill="#945b33"/>
        <path id="Trazado_191645" data-name="Trazado 191645" d="M396.532,201.068l2.306-2.2a37.752,37.752,0,0,0-2.554,3.093,8.123,8.123,0,0,0-1.871,2.18c-.114.271-.237.613-.529.651a.605.605,0,0,1-.3-.057c-.352-.143-1.029-.622-1.039-1.062-.009-.393.832-.374,1.186-.522A9.713,9.713,0,0,0,396.532,201.068Z" transform="translate(-356.588 -139.977)" fill="#945b33"/>
        <path id="Trazado_191646" data-name="Trazado 191646" d="M423.212,157.193a24.827,24.827,0,0,1-3.238-1.131c-1.665-.713-3.361-1.725-4.072-3.391-.138-.325-.512-.732-.446-1.079.115-.61.977-.973,1.568-1.166a3.66,3.66,0,0,1,1.445-.167,6.188,6.188,0,0,1,1.662.435,13.547,13.547,0,0,1,4.024,2.287,9.092,9.092,0,0,1,1.573,1.732,4.616,4.616,0,0,1,1,2.045C426.694,157.971,423.874,157.374,423.212,157.193Z" transform="translate(-395.437 -114.612)" fill="#ebd38d"/>
        <path id="Trazado_191647" data-name="Trazado 191647" d="M415.6,152.329a1.091,1.091,0,0,1-.123-.8c.115-.61,1.135-1.2,1.791-1.315a6.962,6.962,0,0,1,1.625,0,6.207,6.207,0,0,1,1.662.435,13.547,13.547,0,0,1,4.024,2.287,9.093,9.093,0,0,1,1.573,1.732,4.616,4.616,0,0,1,1,2.045c-.036,1.214-2.856.618-3.518.436a24.829,24.829,0,0,1-3.238-1.131C418.733,155.31,416.311,154,415.6,152.329Zm2.389,1.566a31.6,31.6,0,0,0,4.1,2.2,8.275,8.275,0,0,0,3.515.906,1.083,1.083,0,0,0,.828-.292c.317-.379.068-.952-.214-1.359a11.3,11.3,0,0,0-7.421-4.663c-1.038-.165-2.694-.143-2.664,1.11C416.152,152.535,417.37,153.5,417.989,153.9Z" transform="translate(-395.861 -114.573)" fill="#cdd987"/>
        <path id="Trazado_191648" data-name="Trazado 191648" d="M420.55,154.253c-.285-.854-1.55-1.012-1.906-1.839a2.956,2.956,0,0,1,1.573.918c.389.437.662,1,1.172,1.29a.639.639,0,0,0-.208-.663c-.174-.174-.4-.3-.552-.488a.557.557,0,0,1-.081-.676,4.585,4.585,0,0,1,1.467,1.977c.182-.194.014-.505-.157-.708s-.352-.5-.186-.709a.987.987,0,0,1,.589.634,2.929,2.929,0,0,1,.119.886c.131.044.249-.12.237-.258a2.534,2.534,0,0,0-.13-.393c-.034-.134.012-.315.149-.338a.3.3,0,0,1,.22.081,1.545,1.545,0,0,1,.445.542.384.384,0,0,0-.5.33c.005.232.364.371.5.179.068-.1.062-.242.151-.323.122-.112.316-.024.455.066l.84.545q-.432-.029-.865-.04a.381.381,0,0,0-.23.043.136.136,0,0,0-.033.2.205.205,0,0,0,.139.03,2.715,2.715,0,0,1,1.813.66,5.767,5.767,0,0,1-2.39-.714,1.52,1.52,0,0,0-.96-.309,2.524,2.524,0,0,0,1.125.675l2.338.892a.767.767,0,0,1,.391.252.265.265,0,0,1-.1.395.384.384,0,0,1-.288-.077l-2.716-1.584,2.6,1.781c.119.081.252.23.167.346-.061.083-.188.071-.287.039-.762-.247-1.2-1.061-1.922-1.412l.8.9a1.225,1.225,0,0,1-1.137-.455c-.288-.317-.48-.71-.744-1.048a4.209,4.209,0,0,0-1.371-1.087,8.141,8.141,0,0,1,1.386,1.889.927.927,0,0,1-.849-.493c-.186-.292-.282-.633-.46-.93a1.007,1.007,0,0,0,.162.5c.07.162.075.393-.083.471a.424.424,0,0,1-.317-.022,1.208,1.208,0,0,1-.468-.241.413.413,0,0,1-.1-.482,1.083,1.083,0,0,1,.259-.236.271.271,0,0,0,.106-.308,1.025,1.025,0,0,0-.487.467.471.471,0,0,1-.148.21.335.335,0,0,1-.223.023,1.5,1.5,0,0,1-1.112-.822,4.41,4.41,0,0,0,1.505-.392,4.917,4.917,0,0,1-2.032-.089c-.182-.061-.388-.266-.258-.408a.309.309,0,0,1,.246-.063,9,9,0,0,1,1.431.177,2.6,2.6,0,0,0-1.1-.3,1.679,1.679,0,0,1-1.263-.556c-.205-.31-.151-.812.314-.789.428.021,1.054.624,1.41.853Z" transform="translate(-395.645 -115.735)" fill="#f6e08a"/>
        <path id="Trazado_191649" data-name="Trazado 191649" d="M429.8,82.1a54.5,54.5,0,0,1,11.056,12.265,40.608,40.608,0,0,1,3.834,7.6,3.768,3.768,0,0,1-.111,1.032c-1.781-1.31-2.817-3.2-4.054-4.972-1.475-2.118-2.967-4.225-4.514-6.292a83.43,83.43,0,0,0-10.144-11.546c-1.062-.978-2.162-1.916-3.3-2.8-.089-.07-.184-.147-.283-.23A32.655,32.655,0,0,1,429.8,82.1Z" transform="translate(-416.665 -76.484)" fill="#70a156"/>
        <path id="Trazado_191650" data-name="Trazado 191650" d="M381.912,114.426a1.654,1.654,0,0,1,.692-.407,1.613,1.613,0,0,1,1.165.336,15.477,15.477,0,0,1,3.561,3.571c5.534,6.92,11.152,13.982,14.344,22.247a34.962,34.962,0,0,0-3.794-3.647l-5.645-4.907c-2.488-2.162-4.979-4.327-7.626-6.29-2.1-1.558-4.411-3.029-7.013-3.291-.552-.056-1.19-.1-1.515-.545a1.206,1.206,0,0,1,.022-1.287,3.539,3.539,0,0,1,.96-.955,13.6,13.6,0,0,0,2.678-2.219A14.623,14.623,0,0,1,381.912,114.426Z" transform="translate(-351.465 -95.704)" fill="#50783f"/>
        <path id="Trazado_191651" data-name="Trazado 191651" d="M386.508,117.9a26.245,26.245,0,0,1,3.2,4.073c3.539,4.928,8.327,9.022,10.886,14.524a51.06,51.06,0,0,0-16.662-15.87,1.8,1.8,0,0,1-.765-.674c-.356-.726.459-1.87.978-2.345C384.914,116.9,385.8,117.244,386.508,117.9Z" transform="translate(-353.81 -97.382)" fill="#618e4b"/>
      </g>
      <path id="Trazado_191652" data-name="Trazado 191652" d="M403.487,181.29c.943,2.66,6.3,8.267,7.5,8.833s23.869-9.21,23.869-9.21l-.8-2.407c-4.873,1.98-19.586,7.915-20.539,7.836-1.146-.094-6.679-4.843-7.314-7.146-.571-2.069,6.262-30.23,6.575-36.458-1.876,1.231-4.471,3.136-4.853,4.5C407.318,149.393,402.544,178.631,403.487,181.29Z" transform="translate(-384.51 -102.097)" fill="#192367"/>
      <g id="Grupo_131824" data-name="Grupo 131824" transform="translate(45.931 60.661)">
        <path id="Trazado_191653" data-name="Trazado 191653" d="M386.25,188.3a3.413,3.413,0,0,1,.833-.873c2.033-1.369,5.154-3.435,5.819-2.682s-5.068,4.706-5.068,4.706l.459,1.869,2.549-1.418,4.253-.053s.352.747.733,1.683a1.777,1.777,0,0,1,.1.26.124.124,0,0,1,.008.022c.01.024.017.058.027.082.045.1.089.221.129.329a13.193,13.193,0,0,1,.455,1.383,1.27,1.27,0,0,0,.047.157,5.246,5.246,0,0,1,.126.739,1.068,1.068,0,0,1-.06.568l-3.225.749s-1.99,4.122-2.561,4.512c-.227.157-4.725.687-4.725.687l-3.971-5.668,1.659-.661A53.093,53.093,0,0,1,386.25,188.3Z" transform="translate(-382.179 -184.59)" fill="#f0886e"/>
        <g id="Grupo_131823" data-name="Grupo 131823" transform="translate(9.253 6.819)">
          <path id="Trazado_191654" data-name="Trazado 191654" d="M388.165,198.977c.048.117.094.237.142.359a.857.857,0,0,1-.086.01c-.492.049-1.155.126-1.869.225a10.939,10.939,0,0,0-1.823.394c-.117.041-.223.076-.316.11l-.237.1-.209.089s.052-.062.155-.176c.052-.055.116-.124.194-.2s.178-.147.286-.23a4.331,4.331,0,0,1,1.915-.771A5.111,5.111,0,0,1,388.165,198.977Z" transform="translate(-383.768 -198.845)" fill="#c33545"/>
          <path id="Trazado_191655" data-name="Trazado 191655" d="M387.417,203.13c.016.051.029.105.044.155-.138.014-.318.03-.535.051-.491.049-1.155.126-1.87.224a11.077,11.077,0,0,0-1.821.4l-.319.11c-.091.042-.171.075-.236.105l-.21.089s.053-.064.157-.176c.051-.055.116-.125.193-.2s.177-.145.287-.23a4.336,4.336,0,0,1,1.913-.772,5.179,5.179,0,0,1,1.955.113C387.153,203.04,387.3,203.088,387.417,203.13Z" transform="translate(-382.301 -200.926)" fill="#c33545"/>
        </g>
      </g>
    </g>
  </g>
</svg>
