<svg xmlns="http://www.w3.org/2000/svg" width="63" height="63" viewBox="0 0 63 63">
  <g id="Grupo_142487" data-name="Grupo 142487" transform="translate(-265 -5261)">
    <circle id="Elipse_5185" data-name="Elipse 5185" cx="31.5" cy="31.5" r="31.5" transform="translate(265 5261)" fill="#5000c7"/>
    <g id="Grupo_142482" data-name="Grupo 142482" transform="translate(239.234 5128.857)">
      <path id="Trazado_202411" data-name="Trazado 202411" d="M77.574,179.7l-12.3-4.643v-5.042a15.118,15.118,0,0,0,4.459-10.04l.318-5.487a15.489,15.489,0,0,0-3.991-11.536,11.409,11.409,0,0,0-8.312-3.736h-.96a11.421,11.421,0,0,0-8.4,3.829A15.528,15.528,0,0,0,44.5,154.8l.424,5.486a15.077,15.077,0,0,0,4.33,9.669v5.094l-12.3,4.643a5.275,5.275,0,0,0-3.387,4.931v.747H80.213l.747-.031V184.6A5.265,5.265,0,0,0,77.574,179.7Zm-28.85-13.533A5.117,5.117,0,0,0,49,167.379a13.062,13.062,0,0,1-1.435-2.516Zm-2.744-11.979a15.281,15.281,0,0,1,.046-2.071c1.314-.6,4.482-2.088,8.528-4.355a34.454,34.454,0,0,0,5.976-4.2,7.569,7.569,0,0,0,2.637,4.228,14.365,14.365,0,0,0,5.187,3.177,15.089,15.089,0,0,1,.212,2.68l-3.879,1.579a1.724,1.724,0,0,0-.651.023,25.867,25.867,0,0,1-13.19,0,1.661,1.661,0,0,0-.894.025Zm15.932,16.467a9.366,9.366,0,0,1-4.483,1.171h-.216a9.544,9.544,0,0,1-5.048-1.464A14.083,14.083,0,0,0,61.911,170.652Zm4.274-4.859.9-1.009a13.388,13.388,0,0,1-1.015,1.922A4.4,4.4,0,0,0,66.185,165.793Zm2.055-5.909a14.8,14.8,0,0,1-.514,3.065l-1.541,1.724V157.4a2.434,2.434,0,0,0-.61-1.733l2.98-1.213ZM49.174,155.83A2.539,2.539,0,0,0,48.7,157.4v7.616l-1.767-1.977a15.03,15.03,0,0,1-.51-2.861l-.4-5.206Zm8.038,17.487h.216a11.01,11.01,0,0,0,6.351-2.07V176c-1.951,7.18-11.074,7.18-13.025,0v-4.777A11.1,11.1,0,0,0,57.212,173.317Z" fill="#fff"/>
      <path id="Trazado_202412" data-name="Trazado 202412" d="M58.723,156.928a1.093,1.093,0,1,0,1.092,1.093A1.092,1.092,0,0,0,58.723,156.928Z" transform="translate(-6.084 -4.48)" fill="#fff"/>
      <path id="Trazado_202413" data-name="Trazado 202413" d="M71.346,156.928a1.093,1.093,0,1,0,1.092,1.093A1.092,1.092,0,0,0,71.346,156.928Z" transform="translate(-9.276 -4.48)" fill="#fff"/>
      <path id="Trazado_202414" data-name="Trazado 202414" d="M55.9,155.55a3.153,3.153,0,0,1,4.454,0,.374.374,0,0,0,.528-.528,3.9,3.9,0,0,0-5.51,0,.374.374,0,0,0,.528.528Z" transform="translate(-5.484 -3.709)" fill="#fff"/>
      <path id="Trazado_202415" data-name="Trazado 202415" d="M68.519,155.55a3.153,3.153,0,0,1,4.454,0,.374.374,0,0,0,.528-.528,3.9,3.9,0,0,0-5.51,0,.374.374,0,0,0,.528.528Z" transform="translate(-8.676 -3.709)" fill="#fff"/>
    </g>
  </g>
</svg>
