<svg id="Grupo_142428" data-name="Grupo 142428" xmlns="http://www.w3.org/2000/svg" width="416.133" height="320.934" viewBox="0 0 416.133 320.934">
  <g id="Grupo_142075" data-name="Grupo 142075" transform="translate(0 70.206)">
    <path id="Trazado_202249" data-name="Trazado 202249" d="M3416.4,1186.992c-8.55-11.841-.228-52.8-28.768-78.138-28.606-25.395-37.6-22.76-37.6-22.76s6.385-29.049-1.051-46.231c-7.891-18.232-34,.651-34,.651s5.368-37.315-28.952-59.453c-30.814-19.877-69.443,12-90.3,33.363-13.018,13.33-28.913,18.77-44.448,15.086-16.9-4.007-41.554-4.713-69.833,10.508C3001.03,1083.3,3003.6,1169.1,3005,1202.826c.435,10.5,6.191,18.676,13.154,18.676h389.293c11.733,0,17.741-21.609,9.331-33.971Q3416.594,1187.26,3416.4,1186.992Z" transform="translate(-3004.574 -974.793)" fill="#fbdee0"/>
  </g>
  <g id="Grupo_142076" data-name="Grupo 142076" transform="translate(0 289.386)">
    <path id="Trazado_202250" data-name="Trazado 202250" d="M3408.616,1703.153c.116-.007.233-.015.349-.026.069-.007.136-.016.205-.024.1-.012.208-.024.311-.039.072-.011.144-.024.216-.036.1-.016.195-.032.291-.051.074-.014.147-.031.22-.047.094-.02.187-.041.279-.064.074-.018.147-.039.22-.058.091-.024.181-.049.271-.076l.218-.069c.088-.029.176-.057.262-.088s.144-.052.216-.079.171-.065.255-.1.142-.059.213-.09.167-.073.25-.111l.208-.1c.082-.04.163-.081.244-.123s.137-.071.2-.108.159-.089.238-.134.134-.077.2-.117.156-.1.233-.144.131-.083.2-.126.152-.1.228-.155.127-.088.191-.134.149-.11.222-.166.124-.093.185-.141.146-.118.219-.178.119-.1.178-.147.143-.126.215-.189.115-.1.172-.154.142-.135.212-.2c.054-.052.109-.1.162-.156.084-.083.166-.169.248-.255s.179-.19.266-.287c.064-.071.129-.142.193-.214s.119-.14.178-.211.109-.127.161-.192.12-.152.179-.228.1-.125.148-.189.118-.16.176-.24c.047-.063.093-.126.138-.19.059-.083.116-.167.173-.251.043-.064.087-.128.13-.192.057-.087.113-.175.169-.263l.122-.193c.056-.091.11-.183.165-.275.038-.063.075-.127.112-.191q.082-.143.161-.288c.035-.063.069-.126.1-.189.053-.1.105-.2.157-.3l.094-.186q.078-.157.153-.315c.029-.06.057-.12.085-.18.05-.109.1-.219.149-.33.026-.057.05-.115.075-.172q.075-.173.146-.347l.064-.16c.049-.122.1-.246.144-.369l.051-.139c.049-.132.1-.265.143-.4l.036-.107c.05-.146.1-.291.144-.438.006-.017.011-.035.017-.053a22.114,22.114,0,0,0,.969-5.541v-.009q.012-.281.018-.563v-.018q.005-.279,0-.559v-.022c0-.186-.005-.373-.011-.559v-.019q-.01-.282-.027-.565v-.011a19.361,19.361,0,0,0-2.674-8.86H3005.041c.013,4.17.126,8.017.291,11.427.435,9.05,6.194,16.1,13.158,16.1h389.419q.268,0,.532-.013C3408.5,1703.163,3408.557,1703.157,3408.616,1703.153Z" transform="translate(-3005.041 -1675.65)" fill="#fba95f"/>
  </g>
  <g id="Grupo_142427" data-name="Grupo 142427" transform="translate(64.599 0)">
    <g id="Grupo_142077" data-name="Grupo 142077" transform="translate(152.509 42.576)">
      <path id="Trazado_202251" data-name="Trazado 202251" d="M3726.82,904.951c-2.387,5.942-2.314,18.235,1.655,23.261,2.074,2.627,4.89,4.717,6.363,7.723,1.931,3.941,1.107,8.849-1.313,12.51s-6.219,6.215-10.221,8.017c-4.461,2.009-9.915,3.119-14.077.546-3.177-1.964-4.86-5.639-5.878-9.234-2.849-10.067-1.815-20.916,1.146-30.951s7.771-19.409,12.553-28.715" transform="translate(-3701.667 -888.109)" fill="#1c262b"/>
    </g>
    <g id="Grupo_142095" data-name="Grupo 142095" transform="translate(77.762 91.609)">
      <g id="Grupo_142078" data-name="Grupo 142078">
        <path id="Trazado_202252" data-name="Trazado 202252" d="M3580.305,1093.136l21.285-12.995s-16.132-31.142-18.6-32.262-35.058-5.935-35.058-5.935c-9.925,15.6-22.348,11.755-34.867,1.347-1.121.224-20.821,4.716-25.973,5.388s-19.933,24.292-19.933,24.292l16.823,29.415,1.269,30.475s.92,21.671-2.639,32.857l89.175,2.893a113.5,113.5,0,0,1-2.058-14.079c-.33-3.784-1.365-7.564-.589-12.428C3571.609,1126.646,3580.305,1093.136,3580.305,1093.136Z" transform="translate(-3467.162 -1041.944)" fill="#e03748"/>
      </g>
      <g id="Grupo_142079" data-name="Grupo 142079" transform="translate(10.413 7.03)">
        <path id="Trazado_202253" data-name="Trazado 202253" d="M3499.831,1072.908c1.336,4.489,12.73,11.131,16.7,8.648,1.262-.789,2.351-1.972,3.813-2.257,1.834-.357,3.573.806,5.347,1.393,4.152,1.374,9.489-.162,12.485,3.024,1.472,1.566,2.414,4.239,4.563,4.18a10.962,10.962,0,0,0,2.231-.626c2.411-.593,4.747,1.245,7.224,1.419a10.991,10.991,0,0,0,3.815-.642l17.791-5.217c1.294-.379,2.741-.888,3.282-2.123a9.53,9.53,0,0,1-6.5-.273,19.7,19.7,0,0,0-3.489-1.462c-3.143-.641-6,1.86-9.122,2.593-3.287.772-6.677-.459-9.829-1.67l-16.133-6.2c-4.448-1.709-9.006-3.485-12.544-6.675-1.122-1.011-5.342,1.115-6.663.385a42.021,42.021,0,0,1-4.371-3.39c-.278-.2-2.738,2.008-3.806,3.169C3503.475,1068.431,3499.831,1072.908,3499.831,1072.908Z" transform="translate(-3499.831 -1064.001)" fill="#fafafa"/>
      </g>
      <g id="Grupo_142080" data-name="Grupo 142080" transform="translate(17.423 74.846)">
        <path id="Trazado_202254" data-name="Trazado 202254" d="M3522.493,1292.832c3.955-1.678,10.749-4.3,14.97-5.1a28.909,28.909,0,0,1,9.475-.469c1.572.229,3.194.652,4.718.2,1.441-.426,2.55-1.568,3.9-2.231,3.858-1.9,8.474.469,12.738-.089a4.307,4.307,0,0,0,2.819-1.316,2.122,2.122,0,0,0-.054-2.871,3.022,3.022,0,0,0-1.71-.547,39.414,39.414,0,0,0-6.107.076l-3.277.21a12.6,12.6,0,0,1-4.074-.181,26.81,26.81,0,0,1-3.719-1.667c-4.372-1.927-9.4-1.066-14.129-.4a19.5,19.5,0,0,1-7.107.066,8.523,8.523,0,0,0-2.427-.418c-1.387.088-2.555,1.107-3.925,1.338s-1.456-2.4-2.76-2.676Z" transform="translate(-3521.823 -1276.76)" fill="#fafafa"/>
      </g>
      <g id="Grupo_142081" data-name="Grupo 142081" transform="translate(47.352 47.229)">
        <path id="Trazado_202255" data-name="Trazado 202255" d="M3673.293,1192.97a4.938,4.938,0,0,1-1.587.679c-2.571.357-4.148-4.17-6.609-3.344-.959.322-1.572,1.42-2.577,1.534-1.124.128-1.942-1.016-2.974-1.476-1.845-.821-3.872.652-5.885.812-2.27.18-4.924-1.237-6.618.285-.662.6-1.044,1.579-1.9,1.813-.814.222-1.605-.353-2.414-.594-2.463-.734-4.732,1.641-7.264,2.079-2.882.5-6.326-1.451-8.522.481-.778.684-1.257,1.792-2.253,2.079-.927.267-1.884-.311-2.849-.314-2.214-.006-4.253,2.917-6.118,1.724a2.637,2.637,0,0,0,2.373,1.861,13.253,13.253,0,0,0,3.205-.272c6.277-.771,12.649,3.31,18.735,1.592,1.675-.473,3.247-1.375,4.983-1.5,3.247-.235,6.193,2.285,9.446,2.165,2.534-.094,4.887-1.791,7.406-1.5,2.594.3,4.471,2.567,6.829,3.689,2.826,1.344,6.133.952,9.235.531l.888-.21a61.487,61.487,0,0,0,3.117-12.338A9.787,9.787,0,0,0,3673.293,1192.97Z" transform="translate(-3615.72 -1190.116)" fill="#fafafa"/>
      </g>
      <g id="Grupo_142082" data-name="Grupo 142082" transform="translate(42.54 104.425)">
        <path id="Trazado_202256" data-name="Trazado 202256" d="M3655.7,1369.558a6.642,6.642,0,0,0-3.388,1.374,5.586,5.586,0,0,1-3.438,1.182c-2.229-.243-4.231-2.983-6.182-1.876a11.215,11.215,0,0,0-1.367,1.24c-1.365,1.111-3.535.8-4.833,1.992-.67.614-1.037,1.575-1.86,1.961-1.553.726-3.027-1.067-4.592-1.769-2.454-1.1-5.24.6-7.929.554-1.364-.026-2.8-.5-4.046.066a13.553,13.553,0,0,0-1.792,1.285c-2.052,1.373-4.814.735-7.109-.177s-4.7-2.075-7.119-1.591c-.673.134-1.437.558-1.423,1.243a1.516,1.516,0,0,0,.272.74c1.442,2.361,4.185,3.578,6.843,4.345,2.914.841,5.991,1.338,8.584,2.911,1.644,1,3.374,2.474,5.229,1.967,1.463-.4,2.365-1.928,3.78-2.474,2-.772,4.371.63,6.349-.195.662-.276,1.213-.781,1.888-1.026,1.751-.637,3.7.642,5.522.23a8.86,8.86,0,0,1,1.929-.507c1.729.008,2.855,2.387,4.57,2.159,1.061-.141,1.774-1.258,2.826-1.452,1.387-.255,2.961,1.147,4.083.293.254-.193.462-.5.78-.528.445-.044.718.449.988.806,1.219,1.619,4.963.574,6.853-.16l-1.229-10.859C3659.913,1369.872,3656.941,1369.558,3655.7,1369.558Z" transform="translate(-3600.626 -1369.558)" fill="#fafafa"/>
      </g>
      <g id="Grupo_142084" data-name="Grupo 142084" transform="translate(19.467 2.287)" opacity="0.3">
        <g id="Grupo_142083" data-name="Grupo 142083">
          <path id="Trazado_202257" data-name="Trazado 202257" d="M3529.885,1063.154c-1.689,5.341-2.356,11.186-.669,16.527a63.444,63.444,0,0,0,3.115,7.12,52.415,52.415,0,0,1,4.542,25.834,1.463,1.463,0,0,0,.111.884c.359.589,1.253.374,1.881.088l4.027-1.838c1.739,1.419,2,4.225,3.929,5.37,2.042,1.211,4.607-.141,6.523-1.542,4.223-3.088,8.232-6.691,10.68-11.315a44.173,44.173,0,0,0,3.421-10.191c.761-3.076,1.522-6.157,2-9.289a52.273,52.273,0,0,0-7.594-35.682" transform="translate(-3528.236 -1049.12)" fill="#040405"/>
        </g>
      </g>
      <g id="Grupo_142086" data-name="Grupo 142086" transform="translate(106.373 21.106)">
        <g id="Grupo_142085" data-name="Grupo 142085">
          <path id="Trazado_202258" data-name="Trazado 202258" d="M3800.891,1108.16a2.044,2.044,0,0,1,.2.474c.125.367.283.826.475,1.387.413,1.275.977,3.012,1.664,5.131l2.41,7.63a58.88,58.88,0,0,1,2.292,9.547,29.63,29.63,0,0,1-.481,9.813,52.511,52.511,0,0,1-2.284,7.688c-.8,2.135-1.529,3.831-2.039,5l-.6,1.338a2.09,2.09,0,0,1-.24.454,2.114,2.114,0,0,1,.152-.491c.137-.362.309-.816.52-1.371.458-1.188,1.134-2.9,1.9-5.043a56,56,0,0,0,2.171-7.66,29.889,29.889,0,0,0,.438-9.667,61.4,61.4,0,0,0-2.24-9.484c-.865-2.865-1.647-5.455-2.312-7.653l-1.52-5.174c-.158-.573-.288-1.04-.391-1.415A2.14,2.14,0,0,1,3800.891,1108.16Z" transform="translate(-3800.888 -1108.16)" fill="#1c262b"/>
        </g>
      </g>
      <g id="Grupo_142088" data-name="Grupo 142088" transform="translate(107.478 22.602)" opacity="0.3">
        <g id="Grupo_142087" data-name="Grupo 142087">
          <path id="Trazado_202259" data-name="Trazado 202259" d="M3811.11,1138.211a21.471,21.471,0,0,0-.44-13.359,51.543,51.543,0,0,0-6.312-12c1.249,8.595,5.186,16.675,5.963,25.324" transform="translate(-3804.357 -1112.854)" fill="#040405"/>
        </g>
      </g>
      <g id="Grupo_142090" data-name="Grupo 142090" transform="translate(41.736 86.229)" opacity="0.3">
        <g id="Grupo_142089" data-name="Grupo 142089">
          <path id="Trazado_202260" data-name="Trazado 202260" d="M3598.1,1329.212a35.72,35.72,0,0,1,14.9-11.6,70.717,70.717,0,0,1,18.431-4.843c2.5-.362,5.215-.618,7.4.648s3.225,4.686,1.322,6.347a5.983,5.983,0,0,1-3.59,1.073c-8.737.633-17.964.665-25.515,5.106-2.985,1.756-5.641,4.173-8.939,5.232-1.5.48-3.712.211-3.861-1.353" transform="translate(-3598.1 -1312.472)" fill="#040405"/>
        </g>
      </g>
      <g id="Grupo_142092" data-name="Grupo 142092" transform="translate(39.265 85.222)">
        <g id="Grupo_142091" data-name="Grupo 142091">
          <path id="Trazado_202261" data-name="Trazado 202261" d="M3637.355,1309.446a2.251,2.251,0,0,1-.53.044l-1.512.034-1.091.014-1.3.085c-.929.072-1.99.1-3.15.28l-1.824.228c-.633.089-1.284.228-1.963.345-1.362.212-2.786.591-4.293.942a72.139,72.139,0,0,0-9.511,3.293,82.3,82.3,0,0,0-8.96,4.605c-1.321.812-2.583,1.572-3.716,2.358-1.158.75-2.2,1.506-3.146,2.2-.963.671-1.785,1.343-2.527,1.907s-1.367,1.069-1.873,1.488l-1.18.948a2.264,2.264,0,0,1-.433.306,2.228,2.228,0,0,1,.37-.378l1.124-1.016c.488-.442,1.094-.972,1.826-1.554s1.54-1.278,2.493-1.969c.94-.709,1.972-1.484,3.125-2.252,1.129-.8,2.39-1.58,3.711-2.406a77.885,77.885,0,0,1,9-4.666,68.888,68.888,0,0,1,9.59-3.281c1.521-.342,2.958-.709,4.333-.906.685-.11,1.342-.24,1.98-.32l1.84-.2c1.169-.154,2.238-.164,3.173-.211.468-.017.9-.044,1.3-.047l1.1.028,1.515.054A2.221,2.221,0,0,1,3637.355,1309.446Z" transform="translate(-3590.35 -1309.313)" fill="#1c262b"/>
        </g>
      </g>
      <g id="Grupo_142094" data-name="Grupo 142094" transform="translate(10.471 36.959)" opacity="0.3">
        <g id="Grupo_142093" data-name="Grupo 142093">
          <path id="Trazado_202262" data-name="Trazado 202262" d="M3502.154,1157.937c-2.312,3.2-2.576,7.526-1.624,11.358s2.986,7.293,4.993,10.693a32.606,32.606,0,0,0-.78-10.147c-.948-3.981-2.656-7.852-2.649-11.944" transform="translate(-3500.012 -1157.897)" fill="#040405"/>
        </g>
      </g>
    </g>
    <g id="Grupo_142216" data-name="Grupo 142216" transform="translate(96.911 0)">
      <g id="Grupo_142096" data-name="Grupo 142096" transform="translate(57.336 1.301)">
        <path id="Trazado_202263" data-name="Trazado 202263" d="M3707.934,763.153c.049-2.9,3.359-4.949,6.215-4.466s5.091,2.808,6.429,5.377,1.979,5.435,2.987,8.151c2.712,7.309,8.078,13.52,10.026,21.069a31.933,31.933,0,0,1-.493,16.235,72.542,72.542,0,0,1-6.418,15.081,55.247,55.247,0,0,0-4.225,8.985,15.686,15.686,0,0,0-.295,9.769,1.805,1.805,0,0,1,.126,1.3c-.285.623-1.163.648-1.827.477-3.333-.855-5.641-4.132-6.213-7.526s.3-6.869,1.517-10.088,2.781-6.317,3.679-9.639c1.967-7.272.6-14.96.259-22.486-.192-4.241-.057-8.527-.9-12.687s-2.823-8.3-6.34-10.674a24.471,24.471,0,0,1-4.1-2.756c-1.154-1.182-1.734-3.192-.691-4.473" transform="translate(-3707.122 -758.616)" fill="#1c262b"/>
      </g>
      <g id="Grupo_142179" data-name="Grupo 142179" transform="translate(21.843 11.044)">
        <g id="Grupo_142175" data-name="Grupo 142175">
          <g id="Grupo_142174" data-name="Grupo 142174">
            <g id="Grupo_142173" data-name="Grupo 142173">
              <g id="Grupo_142172" data-name="Grupo 142172">
                <g id="Grupo_142171" data-name="Grupo 142171">
                  <g id="Grupo_142170" data-name="Grupo 142170">
                    <g id="Grupo_142169" data-name="Grupo 142169">
                      <g id="Grupo_142152" data-name="Grupo 142152">
                        <g id="Grupo_142151" data-name="Grupo 142151">
                          <g id="Grupo_142150" data-name="Grupo 142150">
                            <g id="Grupo_142104" data-name="Grupo 142104">
                              <g id="Grupo_142103" data-name="Grupo 142103">
                                <g id="Grupo_142102" data-name="Grupo 142102">
                                  <g id="Grupo_142101" data-name="Grupo 142101">
                                    <g id="Grupo_142100" data-name="Grupo 142100">
                                      <g id="Grupo_142099" data-name="Grupo 142099">
                                        <g id="Grupo_142098" data-name="Grupo 142098">
                                          <g id="Grupo_142097" data-name="Grupo 142097">
                                            <path id="Trazado_202264" data-name="Trazado 202264" d="M3635.054,868.188s-.1-4.392-.093-4.344c0,0,13.005-2.477,15.308-19.576,1.145-8.5.391-22.384-.592-33.721-.886-10.2-7.954-22.584-18.111-21.266l-31.607,8.789c-3.086.4-4.1,3.04-3.967,6.149l-.223,1.462,2.635,48.752.9,8.141c.465,9.264,8.521,19.058,18.458,19.321h0C3627.35,882.4,3635.186,878.452,3635.054,868.188Z" transform="translate(-3595.768 -789.185)" fill="#f7ad8b"/>
                                          </g>
                                        </g>
                                      </g>
                                    </g>
                                  </g>
                                </g>
                              </g>
                            </g>
                            <g id="Grupo_142122" data-name="Grupo 142122" transform="translate(42.341 26.93)">
                              <g id="Grupo_142112" data-name="Grupo 142112" transform="translate(1.395 3.509)">
                                <g id="Grupo_142111" data-name="Grupo 142111">
                                  <g id="Grupo_142110" data-name="Grupo 142110">
                                    <g id="Grupo_142109" data-name="Grupo 142109">
                                      <g id="Grupo_142108" data-name="Grupo 142108">
                                        <g id="Grupo_142107" data-name="Grupo 142107">
                                          <g id="Grupo_142106" data-name="Grupo 142106">
                                            <g id="Grupo_142105" data-name="Grupo 142105">
                                              <path id="Trazado_202265" data-name="Trazado 202265" d="M3737.339,886.606a2.185,2.185,0,0,1-2.055,2.254,2.09,2.09,0,0,1-2.3-1.916,2.187,2.187,0,0,1,2.052-2.255A2.092,2.092,0,0,1,3737.339,886.606Z" transform="translate(-3732.982 -884.681)" fill="#1c262b"/>
                                            </g>
                                          </g>
                                        </g>
                                      </g>
                                    </g>
                                  </g>
                                </g>
                              </g>
                              <g id="Grupo_142121" data-name="Grupo 142121">
                                <g id="Grupo_142120" data-name="Grupo 142120">
                                  <g id="Grupo_142119" data-name="Grupo 142119">
                                    <g id="Grupo_142118" data-name="Grupo 142118">
                                      <g id="Grupo_142117" data-name="Grupo 142117">
                                        <g id="Grupo_142116" data-name="Grupo 142116">
                                          <g id="Grupo_142115" data-name="Grupo 142115">
                                            <g id="Grupo_142114" data-name="Grupo 142114">
                                              <g id="Grupo_142113" data-name="Grupo 142113">
                                                <path id="Trazado_202266" data-name="Trazado 202266" d="M3737.243,875.87c-.264.291-1.948-.894-4.3-.833-2.349.028-4.046,1.278-4.308,1-.128-.125.136-.645.874-1.21a6,6,0,0,1,3.44-1.15,5.76,5.76,0,0,1,3.43,1.018C3737.117,875.23,3737.374,875.739,3737.243,875.87Z" transform="translate(-3728.605 -873.673)" fill="#1c262b"/>
                                              </g>
                                            </g>
                                          </g>
                                        </g>
                                      </g>
                                    </g>
                                  </g>
                                </g>
                              </g>
                            </g>
                            <g id="Grupo_142132" data-name="Grupo 142132" transform="translate(19.463 31.33)">
                              <g id="Grupo_142131" data-name="Grupo 142131">
                                <g id="Grupo_142130" data-name="Grupo 142130">
                                  <g id="Grupo_142129" data-name="Grupo 142129">
                                    <g id="Grupo_142128" data-name="Grupo 142128">
                                      <g id="Grupo_142127" data-name="Grupo 142127">
                                        <g id="Grupo_142126" data-name="Grupo 142126">
                                          <g id="Grupo_142125" data-name="Grupo 142125">
                                            <g id="Grupo_142124" data-name="Grupo 142124">
                                              <g id="Grupo_142123" data-name="Grupo 142123">
                                                <path id="Trazado_202267" data-name="Trazado 202267" d="M3665.469,889.675c-.265.291-1.95-.894-4.3-.832-2.349.028-4.046,1.278-4.308,1-.128-.125.133-.645.874-1.21a5.994,5.994,0,0,1,3.439-1.151,5.762,5.762,0,0,1,3.43,1.019C3665.341,889.035,3665.6,889.545,3665.469,889.675Z" transform="translate(-3656.831 -887.478)" fill="#1c262b"/>
                                              </g>
                                            </g>
                                          </g>
                                        </g>
                                      </g>
                                    </g>
                                  </g>
                                </g>
                              </g>
                            </g>
                            <g id="Grupo_142141" data-name="Grupo 142141" transform="translate(35.349 27.314)">
                              <g id="Grupo_142140" data-name="Grupo 142140">
                                <g id="Grupo_142139" data-name="Grupo 142139">
                                  <g id="Grupo_142138" data-name="Grupo 142138">
                                    <g id="Grupo_142137" data-name="Grupo 142137">
                                      <g id="Grupo_142136" data-name="Grupo 142136">
                                        <g id="Grupo_142135" data-name="Grupo 142135">
                                          <g id="Grupo_142134" data-name="Grupo 142134">
                                            <g id="Grupo_142133" data-name="Grupo 142133">
                                              <path id="Trazado_202268" data-name="Trazado 202268" d="M3708.232,894.443a15.588,15.588,0,0,1,3.8-.78c.6-.076,1.164-.209,1.255-.62a3.058,3.058,0,0,0-.443-1.77q-.9-2.159-1.884-4.529c-2.619-6.45-4.531-11.76-4.27-11.863s2.6,5.041,5.215,11.491q.946,2.386,1.809,4.558a3.471,3.471,0,0,1,.367,2.349,1.507,1.507,0,0,1-.966.9,4.06,4.06,0,0,1-1.016.166A15.28,15.28,0,0,1,3708.232,894.443Z" transform="translate(-3706.671 -874.879)" fill="#1c262b"/>
                                            </g>
                                          </g>
                                        </g>
                                      </g>
                                    </g>
                                  </g>
                                </g>
                              </g>
                            </g>
                            <g id="Grupo_142149" data-name="Grupo 142149" transform="translate(16.235 69.113)">
                              <g id="Grupo_142148" data-name="Grupo 142148">
                                <g id="Grupo_142147" data-name="Grupo 142147">
                                  <g id="Grupo_142146" data-name="Grupo 142146">
                                    <g id="Grupo_142145" data-name="Grupo 142145">
                                      <g id="Grupo_142144" data-name="Grupo 142144">
                                        <g id="Grupo_142143" data-name="Grupo 142143">
                                          <g id="Grupo_142142" data-name="Grupo 142142">
                                            <path id="Trazado_202269" data-name="Trazado 202269" d="M3669.661,1011.561a43.35,43.35,0,0,1-22.958-5.546s6.039,11.888,23.051,9.891Z" transform="translate(-3646.702 -1006.015)" fill="#e88559"/>
                                          </g>
                                        </g>
                                      </g>
                                    </g>
                                  </g>
                                </g>
                              </g>
                            </g>
                          </g>
                        </g>
                      </g>
                      <g id="Grupo_142160" data-name="Grupo 142160" transform="translate(17.24 25.52)">
                        <g id="Grupo_142159" data-name="Grupo 142159">
                          <g id="Grupo_142158" data-name="Grupo 142158">
                            <g id="Grupo_142157" data-name="Grupo 142157">
                              <g id="Grupo_142156" data-name="Grupo 142156">
                                <g id="Grupo_142155" data-name="Grupo 142155">
                                  <g id="Grupo_142154" data-name="Grupo 142154">
                                    <g id="Grupo_142153" data-name="Grupo 142153">
                                      <path id="Trazado_202270" data-name="Trazado 202270" d="M3660.632,871.309c-.271.624-2.6.176-5.37.338-2.778.106-5.048.774-5.378.179-.146-.284.278-.86,1.214-1.423a9.355,9.355,0,0,1,8.189-.394C3660.272,870.48,3660.75,871.013,3660.632,871.309Z" transform="translate(-3649.856 -869.251)" fill="#1c262b"/>
                                    </g>
                                  </g>
                                </g>
                              </g>
                            </g>
                          </g>
                        </g>
                      </g>
                      <g id="Grupo_142168" data-name="Grupo 142168" transform="translate(41.142 19.556)">
                        <g id="Grupo_142167" data-name="Grupo 142167">
                          <g id="Grupo_142166" data-name="Grupo 142166">
                            <g id="Grupo_142165" data-name="Grupo 142165">
                              <g id="Grupo_142164" data-name="Grupo 142164">
                                <g id="Grupo_142163" data-name="Grupo 142163">
                                  <g id="Grupo_142162" data-name="Grupo 142162">
                                    <g id="Grupo_142161" data-name="Grupo 142161">
                                      <path id="Trazado_202271" data-name="Trazado 202271" d="M3734.327,852.86c-.477.545-2.406.037-4.71.065-2.3-.04-4.246.46-4.709-.088-.2-.267.092-.809.933-1.334a7.419,7.419,0,0,1,3.807-.965,7.307,7.307,0,0,1,3.782.985C3734.256,852.051,3734.536,852.594,3734.327,852.86Z" transform="translate(-3724.846 -850.537)" fill="#1c262b"/>
                                    </g>
                                  </g>
                                </g>
                              </g>
                            </g>
                          </g>
                        </g>
                      </g>
                    </g>
                  </g>
                </g>
              </g>
            </g>
          </g>
        </g>
        <g id="Grupo_142176" data-name="Grupo 142176" transform="translate(28.135 50.333)">
          <path id="Trazado_202272" data-name="Trazado 202272" d="M3691.058,948.575a3.9,3.9,0,0,0-2.931-1.472,4.613,4.613,0,0,0-3.372,1.618c-.02.019-.037.038-.057.058-.038.045-.09.08-.125.127l.049-.022a2.206,2.206,0,0,0-.578,1.27,3.256,3.256,0,0,0,1.4,2.724,4.121,4.121,0,0,0,4.742.186A3.362,3.362,0,0,0,3691.058,948.575Z" transform="translate(-3684.037 -947.097)" fill="#e88559"/>
        </g>
        <g id="Grupo_142178" data-name="Grupo 142178" transform="translate(28.927 49.534)">
          <g id="Grupo_142177" data-name="Grupo 142177">
            <path id="Trazado_202273" data-name="Trazado 202273" d="M3686.651,944.59c.136-.011.244.544.621,1.315a5.418,5.418,0,0,0,5.3,3.161c.858-.034,1.4-.2,1.452-.077.051.1-.419.494-1.368.708a5.118,5.118,0,0,1-5.975-3.567C3686.416,945.193,3686.542,944.591,3686.651,944.59Z" transform="translate(-3686.523 -944.589)" fill="#1c262b"/>
          </g>
        </g>
      </g>
      <g id="Grupo_142180" data-name="Grupo 142180" transform="translate(61.461 7.76)">
        <path id="Trazado_202274" data-name="Trazado 202274" d="M3720.126,782.536a5.316,5.316,0,0,0,1.851,4.6,25.765,25.765,0,0,0,4.281,2.883c4.541,2.836,6.78,9.024,8.908,13.936,3.738-7.121-2.014-16.357-6.765-21.921a10.287,10.287,0,0,0-2.966-2.582,4.334,4.334,0,0,0-3.81-.228" transform="translate(-3720.065 -778.883)" fill="#1c262b"/>
      </g>
      <g id="Grupo_142182" data-name="Grupo 142182" transform="translate(63.54 12.287)">
        <g id="Grupo_142181" data-name="Grupo 142181">
          <path id="Trazado_202275" data-name="Trazado 202275" d="M3739.618,849.064a3.436,3.436,0,0,1,.2-.629l.649-1.77c.521-1.551,1.287-3.793,1.965-6.638a63.505,63.505,0,0,0,1.243-22.658,50.6,50.6,0,0,0-2.94-12.164,21.458,21.458,0,0,0-5.678-8.358,15.3,15.3,0,0,0-5.978-3.284c-1.575-.417-2.495-.412-2.489-.468a3.458,3.458,0,0,1,.661,0,11.8,11.8,0,0,1,1.874.285,14.963,14.963,0,0,1,6.15,3.208,21.484,21.484,0,0,1,5.864,8.448,49.848,49.848,0,0,1,3.005,12.268,61.593,61.593,0,0,1-1.387,22.8,60.662,60.662,0,0,1-2.117,6.621c-.305.762-.562,1.345-.733,1.742A3.394,3.394,0,0,1,3739.618,849.064Z" transform="translate(-3726.587 -793.085)" fill="#354952"/>
        </g>
      </g>
      <g id="Grupo_142184" data-name="Grupo 142184" transform="translate(71.711 7.206)">
        <g id="Grupo_142183" data-name="Grupo 142183">
          <path id="Trazado_202276" data-name="Trazado 202276" d="M3758.613,850.461a.716.716,0,0,1-.083-.2c-.053-.163-.118-.36-.2-.6a11.148,11.148,0,0,1-.39-2.4,17.621,17.621,0,0,1,2.04-8.655c1.609-3.46,4.545-6.931,7.354-11.012a28.015,28.015,0,0,0,3.562-6.857,21.1,21.1,0,0,0,.962-8.186,20.822,20.822,0,0,0-2.241-7.932,30.7,30.7,0,0,0-4.515-6.285c-3.33-3.674-6.669-6.735-8.851-9.849a20.638,20.638,0,0,1-3.781-8.066,10.672,10.672,0,0,1-.211-3.269,21.3,21.3,0,0,0,.391,3.232,21.081,21.081,0,0,0,3.871,7.907c2.193,3.056,5.532,6.069,8.906,9.756a30.833,30.833,0,0,1,4.6,6.362,21.185,21.185,0,0,1,2.3,8.109,21.457,21.457,0,0,1-.994,8.369,28.2,28.2,0,0,1-3.642,6.957c-2.853,4.1-5.79,7.519-7.414,10.915a17.859,17.859,0,0,0-2.156,8.5A15.916,15.916,0,0,0,3758.613,850.461Z" transform="translate(-3752.22 -777.143)" fill="#1c262b"/>
        </g>
      </g>
      <g id="Grupo_142185" data-name="Grupo 142185">
        <path id="Trazado_202277" data-name="Trazado 202277" d="M3586.022,757.022c-2.916-2.068-6.672-2.533-10.247-2.482-9.625.138-19.393,3.817-25.833,10.971-5.423,6.024-13.442,17.628-14.96,25.59-3.7,19.385,8.556,24.817-1.424,55.077-1.8,5.453-4.069,10.782-5.176,16.417a28.9,28.9,0,0,0-.556,6.1c-1.17,3.545-.453,7.634.991,11.158,1.7,4.137,4.287,7.864,5.912,12.028s5.2,11,2.816,14.786c3.368-.9,3.488-4.415,6.157-6.656a17.6,17.6,0,0,1-.074,9.167,19.19,19.19,0,0,0,11.314-4.7c6.231-5.485,8.191-14.3,9.144-22.544,2.084-18.03.048-35.312-4.731-52.822l-.069.085c-3.475-11.2-10.054-21.535-4.144-24,10.292-4.293.892-8.819,4.811-19.641,1.224-3.379,2.59-6.955,5.473-9.1,3.434-2.554,8.078-2.426,12.352-2.661s9.126-1.356,11.133-5.136l.26-2.265C3590.679,763.145,3588.938,759.09,3586.022,757.022Z" transform="translate(-3527.24 -754.536)" fill="#1c262b"/>
      </g>
      <g id="Grupo_142187" data-name="Grupo 142187" transform="translate(7.627 2.646)">
        <g id="Grupo_142186" data-name="Grupo 142186">
          <path id="Trazado_202278" data-name="Trazado 202278" d="M3555.884,834.341a3.514,3.514,0,0,0,.752-.762,4.614,4.614,0,0,0,.576-2.963c-.287-2.683-1.644-6.39-3.411-10.894a42.8,42.8,0,0,1-2.305-7.607,16.45,16.45,0,0,1,6.837-16.975c2.9-2.093,6.853-2.408,9.277-5.246,2.493-2.7,3.607-6.228,4.683-9.514a42.3,42.3,0,0,1,1.82-4.825,24.807,24.807,0,0,1,9.223-10.467,15.67,15.67,0,0,1,3.76-1.782,10.893,10.893,0,0,1,3.817-.451,20.3,20.3,0,0,1,6.366,1.583,47.4,47.4,0,0,1,4.513,2.033,6.869,6.869,0,0,1,2.389,2.013,3.23,3.23,0,0,1,.481.981,9.243,9.243,0,0,0-.558-.925,7.055,7.055,0,0,0-2.4-1.907c-1.193-.62-2.736-1.245-4.52-1.948a20.283,20.283,0,0,0-6.286-1.495,10.582,10.582,0,0,0-3.694.466,15.359,15.359,0,0,0-3.658,1.764,24.515,24.515,0,0,0-9.023,10.326,42.134,42.134,0,0,0-1.789,4.779c-1.071,3.281-2.188,6.888-4.777,9.692a12,12,0,0,1-4.628,3.018,23.425,23.425,0,0,0-4.734,2.288,16.285,16.285,0,0,0-6.026,7.678,16.48,16.48,0,0,0-.685,8.847,43.1,43.1,0,0,0,2.232,7.557c1.726,4.518,3.046,8.259,3.282,11a4.609,4.609,0,0,1-.682,3.03,2.418,2.418,0,0,1-.586.572A1.207,1.207,0,0,1,3555.884,834.341Z" transform="translate(-3551.168 -762.837)" fill="#354952"/>
        </g>
      </g>
      <g id="Grupo_142211" data-name="Grupo 142211" transform="translate(17.212 47.392)">
        <g id="Grupo_142198" data-name="Grupo 142198">
          <g id="Grupo_142197" data-name="Grupo 142197">
            <g id="Grupo_142196" data-name="Grupo 142196">
              <g id="Grupo_142195" data-name="Grupo 142195">
                <g id="Grupo_142194" data-name="Grupo 142194">
                  <g id="Grupo_142193" data-name="Grupo 142193">
                    <g id="Grupo_142192" data-name="Grupo 142192">
                      <g id="Grupo_142191" data-name="Grupo 142191">
                        <g id="Grupo_142190" data-name="Grupo 142190">
                          <g id="Grupo_142189" data-name="Grupo 142189">
                            <g id="Grupo_142188" data-name="Grupo 142188">
                              <path id="Trazado_202279" data-name="Trazado 202279" d="M3591.369,907.959c-.259-3.621-4.259-5.956-7.362-4.072-1.7,1.034-2.98,3.067-2.739,6.912.643,10.253,10.8,7.493,10.8,7.2C3592.071,917.813,3591.673,912.2,3591.369,907.959Z" transform="translate(-3581.239 -903.219)" fill="#f7ad8b"/>
                            </g>
                          </g>
                        </g>
                      </g>
                    </g>
                  </g>
                </g>
              </g>
            </g>
          </g>
        </g>
        <g id="Grupo_142210" data-name="Grupo 142210" transform="translate(2.628 3.095)">
          <g id="Grupo_142209" data-name="Grupo 142209">
            <g id="Grupo_142208" data-name="Grupo 142208">
              <g id="Grupo_142207" data-name="Grupo 142207">
                <g id="Grupo_142206" data-name="Grupo 142206">
                  <g id="Grupo_142205" data-name="Grupo 142205">
                    <g id="Grupo_142204" data-name="Grupo 142204">
                      <g id="Grupo_142203" data-name="Grupo 142203">
                        <g id="Grupo_142202" data-name="Grupo 142202">
                          <g id="Grupo_142201" data-name="Grupo 142201">
                            <g id="Grupo_142200" data-name="Grupo 142200">
                              <g id="Grupo_142199" data-name="Grupo 142199">
                                <path id="Trazado_202280" data-name="Trazado 202280" d="M3594.313,920.924c-.047-.03-.171.137-.464.294a1.789,1.789,0,0,1-1.334.111c-1.108-.33-2.128-1.992-2.293-3.837a5.907,5.907,0,0,1,.339-2.589,2.066,2.066,0,0,1,1.258-1.455.912.912,0,0,1,1.085.423c.155.278.1.487.158.5.031.024.209-.185.1-.6a1.143,1.143,0,0,0-.444-.617,1.352,1.352,0,0,0-1-.2,2.516,2.516,0,0,0-1.766,1.706,6.075,6.075,0,0,0-.44,2.9c.2,2.062,1.374,3.929,2.883,4.264a1.916,1.916,0,0,0,1.617-.374C3594.31,921.173,3594.349,920.941,3594.313,920.924Z" transform="translate(-3589.483 -912.93)" fill="#e88559"/>
                              </g>
                            </g>
                          </g>
                        </g>
                      </g>
                    </g>
                  </g>
                </g>
              </g>
            </g>
          </g>
        </g>
      </g>
      <g id="Grupo_142213" data-name="Grupo 142213" transform="translate(22.998 59.69)">
        <g id="Grupo_142212" data-name="Grupo 142212">
          <path id="Trazado_202281" data-name="Trazado 202281" d="M3604.971,947.589c.025,0,.072.206-.018.57a2.275,2.275,0,0,1-.93,1.255,2.539,2.539,0,0,1-2.3.264,3.387,3.387,0,0,1-2.019-1.989,4.812,4.812,0,0,1,.891-4.862,2.6,2.6,0,0,1,1.813-1.016,5.522,5.522,0,0,0-1.558,1.233,4.7,4.7,0,0,0-.891,1.921,4.511,4.511,0,0,0,.185,2.55,3.026,3.026,0,0,0,1.728,1.754,2.237,2.237,0,0,0,1.976-.136,2.309,2.309,0,0,0,.936-1.034C3604.913,947.786,3604.932,947.587,3604.971,947.589Z" transform="translate(-3599.393 -941.801)" fill="#fff"/>
        </g>
      </g>
      <g id="Grupo_142215" data-name="Grupo 142215" transform="translate(14.904 9.196)">
        <g id="Grupo_142214" data-name="Grupo 142214">
          <path id="Trazado_202282" data-name="Trazado 202282" d="M3618.619,787.173a13.708,13.708,0,0,0-2.169-1.839,11.784,11.784,0,0,0-7.431-1.559,13.866,13.866,0,0,0-5.071,1.525,19.263,19.263,0,0,0-4.824,3.743,33,33,0,0,0-4.094,5.417c-1.247,2.009-2.376,4.19-3.55,6.419s-2.345,4.407-3.664,6.4a30.926,30.926,0,0,1-4.366,5.322c-1.562,1.539-3.117,2.909-4.458,4.3a19.608,19.608,0,0,0-3.251,4.229,10.886,10.886,0,0,0-1.3,7.452,8.566,8.566,0,0,0,1.126,2.6,4.388,4.388,0,0,1-.457-.589,6.982,6.982,0,0,1-.848-1.964,10.91,10.91,0,0,1,1.183-7.653,19.7,19.7,0,0,1,3.263-4.344c1.343-1.418,2.894-2.8,4.434-4.338a30.878,30.878,0,0,0,4.285-5.268c1.3-1.975,2.46-4.139,3.633-6.367s2.31-4.417,3.575-6.443a33,33,0,0,1,4.173-5.475,19.482,19.482,0,0,1,4.956-3.788,14.092,14.092,0,0,1,5.223-1.511,11.765,11.765,0,0,1,7.563,1.738,8.787,8.787,0,0,1,1.609,1.407A4.393,4.393,0,0,1,3618.619,787.173Z" transform="translate(-3573.999 -783.386)" fill="#354952"/>
        </g>
      </g>
    </g>
    <g id="Grupo_142239" data-name="Grupo 142239" transform="translate(45.617 62.387)">
      <g id="Grupo_142217" data-name="Grupo 142217" transform="translate(0 44.377)">
        <path id="Trazado_202283" data-name="Trazado 202283" d="M3399.871,1106.7l1.9-9.208-17.54-8-.452,1.5c-2.508,8.345-15.006,48.56-15.764,51.561-2.82,11.16-2.2,33.242,2.261,37.379,3.555,3.3,10.4,5.74,14.917,5.237s16.984-16.541,16.984-16.541l11.439-36.63Z" transform="translate(-3366.314 -1089.489)" fill="#f7ad8b"/>
      </g>
      <g id="Grupo_142219" data-name="Grupo 142219" transform="translate(29.24 56.11)">
        <g id="Grupo_142218" data-name="Grupo 142218">
          <path id="Trazado_202284" data-name="Trazado 202284" d="M3463.14,1126.3a4.047,4.047,0,0,1-.086.713l-.339,2.028c-.325,1.806-.781,4.335-1.34,7.44-.56,3.141-1.224,6.881-1.793,11.057a105.993,105.993,0,0,0-1.06,13.646,56.655,56.655,0,0,0,1.534,13.557c.994,4.085,1.906,7.84,1.811,11.079a14.627,14.627,0,0,1-1.885,7.3,7.58,7.58,0,0,1-1.761,2.146,13.224,13.224,0,0,0,3.312-9.452c.051-3.18-.88-6.882-1.9-10.973a55.851,55.851,0,0,1-1.583-13.659,101.844,101.844,0,0,1,1.1-13.7c.594-4.184,1.293-7.924,1.9-11.059.621-3.093,1.127-5.614,1.488-7.413q.266-1.258.426-2.011A4.132,4.132,0,0,1,3463.14,1126.3Z" transform="translate(-3458.049 -1126.3)" fill="#e88559"/>
        </g>
      </g>
      <g id="Grupo_142238" data-name="Grupo 142238" transform="translate(16.156)">
        <g id="Grupo_142220" data-name="Grupo 142220">
          <path id="Trazado_202285" data-name="Trazado 202285" d="M3453.308,987.416l-3.4-3.756v-4.472l-3.528-5.061-7.025,1.127-2.146.179,1.429-10.262a43.189,43.189,0,0,1,3.162-7.6c2.5-5.008-1.528-7.3-1.528-7.3l-7.533,13.184-2.5,8.764-1.073-7.154s1.271-6.953,1.092-10.531-3.775-3.062-3.775-3.062l-2.862,15.739v7.87l-2.5-4.651s-.537-3.935-.894-7.512-3.22-2.5-3.22-2.5v11.626l3.22,10.731s-2.115,13.848-2.473,14.385l16.563,11.606a35.875,35.875,0,0,1,4.332-2.918c.715-.179,9.659-6.8,9.659-6.8l6.259-6.618s1.073-.715,1.073-1.431S3453.308,987.416,3453.308,987.416Zm-8.585,4.293-3.577-1.61-1.968-4.829,1.458-2.65.51-.927.655-.457,2.385.457s1.073,3.4.894,5.008,1.968,3.219,1.968,3.219Z" transform="translate(-3417 -950.265)" fill="#f7ad8b"/>
        </g>
        <g id="Grupo_142227" data-name="Grupo 142227" transform="translate(21.531 27.118)">
          <g id="Grupo_142222" data-name="Grupo 142222">
            <g id="Grupo_142221" data-name="Grupo 142221">
              <path id="Trazado_202286" data-name="Trazado 202286" d="M3487.819,1039.195c-.007.056-.33.086-.823-.069a3.676,3.676,0,0,1-2.431-2.964c-.055-.514.037-.824.094-.82a5.042,5.042,0,0,0,3.16,3.853Z" transform="translate(-3484.548 -1035.342)" fill="#e88559"/>
            </g>
          </g>
          <g id="Grupo_142224" data-name="Grupo 142224" transform="translate(12.405 7.915)">
            <g id="Grupo_142223" data-name="Grupo 142223">
              <path id="Trazado_202287" data-name="Trazado 202287" d="M3523.538,1065.384a31.337,31.337,0,0,1,.233-5.212,9.524,9.524,0,0,1-.233,5.212Z" transform="translate(-3523.466 -1060.173)" fill="#e88559"/>
            </g>
          </g>
          <g id="Grupo_142226" data-name="Grupo 142226" transform="translate(5.035 12.524)">
            <g id="Grupo_142225" data-name="Grupo 142225">
              <path id="Trazado_202288" data-name="Trazado 202288" d="M3502.272,1081.995c-.043.038-.455-.292-.968-.98a4.6,4.6,0,0,1-.928-3.224,1.907,1.907,0,0,1,.442-.948,8.659,8.659,0,0,1,.632-.627,12.7,12.7,0,0,1,1.163-.929c.686-.491,1.181-.713,1.215-.64a8.753,8.753,0,0,1-1.008.9c-.313.273-.682.6-1.071.983-.193.191-.393.395-.582.615a1.5,1.5,0,0,0-.325.726,3.816,3.816,0,0,0,.169,1.665,5.806,5.806,0,0,0,.574,1.293A6.572,6.572,0,0,1,3502.272,1081.995Z" transform="translate(-3500.346 -1074.633)" fill="#e88559"/>
            </g>
          </g>
        </g>
        <g id="Grupo_142229" data-name="Grupo 142229" transform="translate(28.272 32.941)">
          <g id="Grupo_142228" data-name="Grupo 142228">
            <path id="Trazado_202289" data-name="Trazado 202289" d="M3510.347,1053.611a5.533,5.533,0,0,1-1.193,3.686,3.131,3.131,0,0,1-1.219,1.021,2.083,2.083,0,0,1-1.314.123c-.768-.2-.97-.721-.912-.728.056-.051.329.324.973.4a1.916,1.916,0,0,0,1.069-.188,2.994,2.994,0,0,0,1.026-.91A16.707,16.707,0,0,0,3510.347,1053.611Z" transform="translate(-3505.699 -1053.61)" fill="#e88559"/>
          </g>
        </g>
        <g id="Grupo_142231" data-name="Grupo 142231" transform="translate(26.725 29.044)">
          <g id="Grupo_142230" data-name="Grupo 142230">
            <path id="Trazado_202290" data-name="Trazado 202290" d="M3502.216,1048.519c-.11,0-.369-1.573-.87-3.515a19.8,19.8,0,0,1-.469-2.538c-.066-.664-.021-1.08.041-1.082s.142.4.289,1.029l.6,2.483A8.547,8.547,0,0,1,3502.216,1048.519Z" transform="translate(-3500.844 -1041.385)" fill="#e88559"/>
          </g>
        </g>
        <g id="Grupo_142233" data-name="Grupo 142233" transform="translate(27.971 36.178)">
          <g id="Grupo_142232" data-name="Grupo 142232">
            <path id="Trazado_202291" data-name="Trazado 202291" d="M3510.79,1068.9a8.182,8.182,0,0,1-4.05-1.433,4.925,4.925,0,0,1-1.32-1.12,3.074,3.074,0,0,1-.607-1.3,1.89,1.89,0,0,1,.066-1.283c.081,0,.043.495.258,1.2a3.817,3.817,0,0,0,1.849,2.094C3508.955,1068.308,3510.832,1068.745,3510.79,1068.9Z" transform="translate(-3504.753 -1063.768)" fill="#e88559"/>
          </g>
        </g>
        <g id="Grupo_142235" data-name="Grupo 142235" transform="translate(9.872 37.205)">
          <g id="Grupo_142234" data-name="Grupo 142234">
            <path id="Trazado_202292" data-name="Trazado 202292" d="M3457.364,1075.07a17.7,17.7,0,0,0-9.391-8.07,5.138,5.138,0,0,1,1.827.473,13.7,13.7,0,0,1,6.822,5.862A5.147,5.147,0,0,1,3457.364,1075.07Z" transform="translate(-3447.971 -1066.988)" fill="#e88559"/>
          </g>
        </g>
        <g id="Grupo_142237" data-name="Grupo 142237" transform="translate(7.742 28.491)">
          <g id="Grupo_142236" data-name="Grupo 142236">
            <path id="Trazado_202293" data-name="Trazado 202293" d="M3446.818,1039.746c.005.14-1.311.25-2.822.781-1.517.515-2.62,1.241-2.7,1.127a6.837,6.837,0,0,1,5.524-1.908Z" transform="translate(-3441.29 -1039.651)" fill="#e88559"/>
          </g>
        </g>
      </g>
    </g>
    <g id="Grupo_142414" data-name="Grupo 142414" transform="translate(0 215.451)">
      <g id="Grupo_142317" data-name="Grupo 142317" transform="translate(46.607 72.099)">
        <g id="Grupo_142311" data-name="Grupo 142311">
          <g id="Grupo_142246" data-name="Grupo 142246" transform="translate(0 2.834)">
            <g id="Grupo_142245" data-name="Grupo 142245">
              <g id="Grupo_142244" data-name="Grupo 142244">
                <g id="Grupo_142243" data-name="Grupo 142243">
                  <g id="Grupo_142242" data-name="Grupo 142242">
                    <g id="Grupo_142241" data-name="Grupo 142241">
                      <g id="Grupo_142240" data-name="Grupo 142240">
                        <path id="Trazado_202294" data-name="Trazado 202294" d="M3426.6,1665.567s-53.051,14.683-55.18,15.432c-3.2,1.125-2.659,12.834,2.314,12.652,2.353-.086,40.749,1.43,45.6,1.127s17.907-5.461,17.907-5.461Z" transform="translate(-3369.418 -1665.567)" fill="#354952"/>
                      </g>
                    </g>
                  </g>
                </g>
              </g>
            </g>
          </g>
          <g id="Grupo_142254" data-name="Grupo 142254" transform="translate(28.982 12.479)">
            <g id="Grupo_142253" data-name="Grupo 142253">
              <g id="Grupo_142252" data-name="Grupo 142252">
                <g id="Grupo_142251" data-name="Grupo 142251">
                  <g id="Grupo_142250" data-name="Grupo 142250">
                    <g id="Grupo_142249" data-name="Grupo 142249">
                      <g id="Grupo_142248" data-name="Grupo 142248">
                        <g id="Grupo_142247" data-name="Grupo 142247">
                          <path id="Trazado_202295" data-name="Trazado 202295" d="M3466.443,1706.424c-.266.037-.625-2.77-2.338-5.7-1.67-2.952-3.916-4.671-3.751-4.884.093-.2,2.728,1.291,4.52,4.441C3466.7,1703.416,3466.666,1706.447,3466.443,1706.424Z" transform="translate(-3460.345 -1695.826)" fill="#1c262b"/>
                        </g>
                      </g>
                    </g>
                  </g>
                </g>
              </g>
            </g>
          </g>
          <g id="Grupo_142262" data-name="Grupo 142262" transform="translate(35.497 10.43)">
            <g id="Grupo_142261" data-name="Grupo 142261">
              <g id="Grupo_142260" data-name="Grupo 142260">
                <g id="Grupo_142259" data-name="Grupo 142259">
                  <g id="Grupo_142258" data-name="Grupo 142258">
                    <g id="Grupo_142257" data-name="Grupo 142257">
                      <g id="Grupo_142256" data-name="Grupo 142256">
                        <g id="Grupo_142255" data-name="Grupo 142255">
                          <path id="Trazado_202296" data-name="Trazado 202296" d="M3485.9,1699.536c-.26.045-.8-2.463-2.21-5.234-1.385-2.786-3.08-4.711-2.889-4.893.146-.174,2.219,1.561,3.682,4.494C3485.966,1696.824,3486.125,1699.522,3485.9,1699.536Z" transform="translate(-3480.785 -1689.397)" fill="#1c262b"/>
                        </g>
                      </g>
                    </g>
                  </g>
                </g>
              </g>
            </g>
          </g>
          <g id="Grupo_142270" data-name="Grupo 142270" transform="translate(41.657 8.597)">
            <g id="Grupo_142269" data-name="Grupo 142269">
              <g id="Grupo_142268" data-name="Grupo 142268">
                <g id="Grupo_142267" data-name="Grupo 142267">
                  <g id="Grupo_142266" data-name="Grupo 142266">
                    <g id="Grupo_142265" data-name="Grupo 142265">
                      <g id="Grupo_142264" data-name="Grupo 142264">
                        <g id="Grupo_142263" data-name="Grupo 142263">
                          <path id="Trazado_202297" data-name="Trazado 202297" d="M3504.253,1694.228c-.268-.016-.064-2.666-1.241-5.6-1.128-2.958-3.075-4.767-2.889-4.961.106-.2,2.485,1.438,3.716,4.638C3505.1,1691.485,3504.468,1694.3,3504.253,1694.228Z" transform="translate(-3500.11 -1683.646)" fill="#1c262b"/>
                        </g>
                      </g>
                    </g>
                  </g>
                </g>
              </g>
            </g>
          </g>
          <g id="Grupo_142278" data-name="Grupo 142278" transform="translate(44.289)">
            <g id="Grupo_142277" data-name="Grupo 142277">
              <g id="Grupo_142276" data-name="Grupo 142276">
                <g id="Grupo_142275" data-name="Grupo 142275">
                  <g id="Grupo_142274" data-name="Grupo 142274">
                    <g id="Grupo_142273" data-name="Grupo 142273">
                      <g id="Grupo_142272" data-name="Grupo 142272">
                        <g id="Grupo_142271" data-name="Grupo 142271">
                          <path id="Trazado_202298" data-name="Trazado 202298" d="M3508.936,1669a9.4,9.4,0,0,1-.569-3.948,18.612,18.612,0,0,1,.537-4.326,18.36,18.36,0,0,1,.79-2.462,2.97,2.97,0,0,1,.85-1.3,1.415,1.415,0,0,1,1.822.09,2.34,2.34,0,0,1,.707,1.5,10.219,10.219,0,0,1,.069,1.4,11.747,11.747,0,0,1-.327,2.6,15.782,15.782,0,0,1-1.633,4.055,10.7,10.7,0,0,1-2.383,3.194c-.121-.085.768-1.32,1.827-3.484a17.424,17.424,0,0,0,1.391-3.944,11.632,11.632,0,0,0,.256-2.424c-.023-.815-.012-1.834-.489-2.226a.514.514,0,0,0-.7-.059,2.236,2.236,0,0,0-.582.927,19.568,19.568,0,0,0-.8,2.341,21.28,21.28,0,0,0-.7,4.143C3508.839,1667.479,3509.081,1668.98,3508.936,1669Z" transform="translate(-3508.367 -1656.674)" fill="#1c262b"/>
                        </g>
                      </g>
                    </g>
                  </g>
                </g>
              </g>
            </g>
          </g>
          <g id="Grupo_142286" data-name="Grupo 142286" transform="translate(44.924 11.235)">
            <g id="Grupo_142285" data-name="Grupo 142285">
              <g id="Grupo_142284" data-name="Grupo 142284">
                <g id="Grupo_142283" data-name="Grupo 142283">
                  <g id="Grupo_142282" data-name="Grupo 142282">
                    <g id="Grupo_142281" data-name="Grupo 142281">
                      <g id="Grupo_142280" data-name="Grupo 142280">
                        <g id="Grupo_142279" data-name="Grupo 142279">
                          <path id="Trazado_202299" data-name="Trazado 202299" d="M3510.359,1692.475a7.418,7.418,0,0,1,3.422-.552,15.4,15.4,0,0,1,3.764.461,8.321,8.321,0,0,1,2.168.8,2.239,2.239,0,0,1,1.2,2.425A2.65,2.65,0,0,1,3519,1697.5a4.86,4.86,0,0,1-2.38-.006,9.139,9.139,0,0,1-3.446-1.695,9.3,9.3,0,0,1-2.466-2.429,23.43,23.43,0,0,1,2.826,1.914,9.413,9.413,0,0,0,3.254,1.408,4.19,4.19,0,0,0,1.968-.027,1.8,1.8,0,0,0,1.292-1.261,1.368,1.368,0,0,0-.788-1.48,8.088,8.088,0,0,0-1.925-.751,17.835,17.835,0,0,0-3.575-.624C3511.683,1692.405,3510.382,1692.618,3510.359,1692.475Z" transform="translate(-3510.359 -1691.923)" fill="#1c262b"/>
                        </g>
                      </g>
                    </g>
                  </g>
                </g>
              </g>
            </g>
          </g>
          <g id="Grupo_142294" data-name="Grupo 142294" transform="translate(23.274 14.684)">
            <g id="Grupo_142293" data-name="Grupo 142293">
              <g id="Grupo_142292" data-name="Grupo 142292">
                <g id="Grupo_142291" data-name="Grupo 142291">
                  <g id="Grupo_142290" data-name="Grupo 142290">
                    <g id="Grupo_142289" data-name="Grupo 142289">
                      <g id="Grupo_142288" data-name="Grupo 142288">
                        <g id="Grupo_142287" data-name="Grupo 142287">
                          <path id="Trazado_202300" data-name="Trazado 202300" d="M3446.09,1711.7c-.263-.03,0-2.3-1.045-4.785-.994-2.508-2.765-3.948-2.6-4.153.087-.216,2.306,1.041,3.419,3.818C3447.011,1709.347,3446.3,1711.8,3446.09,1711.7Z" transform="translate(-3442.436 -1702.742)" fill="#1c262b"/>
                        </g>
                      </g>
                    </g>
                  </g>
                </g>
              </g>
            </g>
          </g>
          <g id="Grupo_142302" data-name="Grupo 142302" transform="translate(7.028 26.08)">
            <g id="Grupo_142301" data-name="Grupo 142301">
              <g id="Grupo_142300" data-name="Grupo 142300">
                <g id="Grupo_142299" data-name="Grupo 142299">
                  <g id="Grupo_142298" data-name="Grupo 142298">
                    <g id="Grupo_142297" data-name="Grupo 142297">
                      <g id="Grupo_142296" data-name="Grupo 142296">
                        <g id="Grupo_142295" data-name="Grupo 142295">
                          <path id="Trazado_202301" data-name="Trazado 202301" d="M3448.385,1738.51a11.069,11.069,0,0,1-2.052.965,45.512,45.512,0,0,1-5.9,1.829,84.166,84.166,0,0,1-20.254,1.92c-7.95-.087-15.114-.449-20.31-.657l-6.147-.326a11.1,11.1,0,0,1-2.25-.24,11.028,11.028,0,0,1,2.261-.1l6.156.043,20.3.4a94.908,94.908,0,0,0,20.111-1.644C3445.362,1739.65,3448.324,1738.345,3448.385,1738.51Z" transform="translate(-3391.467 -1738.496)" fill="#1c262b"/>
                        </g>
                      </g>
                    </g>
                  </g>
                </g>
              </g>
            </g>
          </g>
          <g id="Grupo_142310" data-name="Grupo 142310" transform="translate(39.761 22.792)">
            <g id="Grupo_142309" data-name="Grupo 142309">
              <g id="Grupo_142308" data-name="Grupo 142308">
                <g id="Grupo_142307" data-name="Grupo 142307">
                  <g id="Grupo_142306" data-name="Grupo 142306">
                    <g id="Grupo_142305" data-name="Grupo 142305">
                      <g id="Grupo_142304" data-name="Grupo 142304">
                        <g id="Grupo_142303" data-name="Grupo 142303">
                          <path id="Trazado_202302" data-name="Trazado 202302" d="M3519.916,1732.693c-.071.122-1.523-.726-3.975-1.8a18.475,18.475,0,0,0-10.039-1.669c-4,.612-6.832,3.3-8.677,5.162a31.176,31.176,0,0,1-3.058,3.122,16.475,16.475,0,0,1,2.6-3.549,21.052,21.052,0,0,1,3.519-3.289,12.6,12.6,0,0,1,5.48-2.323,17.552,17.552,0,0,1,10.444,1.976A14.059,14.059,0,0,1,3519.916,1732.693Z" transform="translate(-3494.163 -1728.182)" fill="#1c262b"/>
                        </g>
                      </g>
                    </g>
                  </g>
                </g>
              </g>
            </g>
          </g>
        </g>
        <g id="Grupo_142316" data-name="Grupo 142316" transform="translate(9.871 16.483)">
          <g id="Grupo_142315" data-name="Grupo 142315">
            <g id="Grupo_142314" data-name="Grupo 142314">
              <g id="Grupo_142313" data-name="Grupo 142313">
                <g id="Grupo_142312" data-name="Grupo 142312">
                  <path id="Trazado_202303" data-name="Trazado 202303" d="M3402.81,1721.5c-.1-.065.356-.766.774-2.005a9.711,9.711,0,0,0-1.754-9.5c-.833-1.008-1.506-1.5-1.439-1.6.041-.071.835.278,1.817,1.253a9.046,9.046,0,0,1,1.853,10.033C3403.49,1720.944,3402.873,1721.554,3402.81,1721.5Z" transform="translate(-3400.385 -1708.388)" fill="#1c262b"/>
                </g>
              </g>
            </g>
          </g>
        </g>
      </g>
      <g id="Grupo_142341" data-name="Grupo 142341">
        <g id="Grupo_142319" data-name="Grupo 142319">
          <g id="Grupo_142318" data-name="Grupo 142318">
            <path id="Trazado_202304" data-name="Trazado 202304" d="M3321.818,1430.475l-9.531,23.482s-47.377-17.335-75.11-12.285c-10.545,1.92-21.83,25.846-6.466,41.209,14.99,14.99,41.8,36.181,92.093,43.041,1.254.171,21.854,4.594,20.585,4.445s28.881,4.622,28.881,4.622l7.078-26.764,56.175,8.815c33.1-2.261,49.308-37.661,29.371-49.056-18.6-10.63-53.567-11.483-53.567-11.483l-8.589-23.417Z" transform="translate(-3223.198 -1430.475)" fill="#1c262b"/>
          </g>
        </g>
        <g id="Grupo_142322" data-name="Grupo 142322" transform="translate(46.607 22.431)">
          <g id="Grupo_142321" data-name="Grupo 142321">
            <g id="Grupo_142320" data-name="Grupo 142320">
              <path id="Trazado_202305" data-name="Trazado 202305" d="M3473,1583.9c.148-.906.548-3.343,1.367-8.343.446-2.67,1-5.923,1.706-9.667.356-1.872.755-3.865,1.228-5.965.241-1.049.5-2.125.806-3.22.157-.547.321-1.1.521-1.653a4.977,4.977,0,0,1,.852-1.652l.085.406c-11.958-4.245-26.9-9.853-42.837-16.571-9.8-4.167-19.037-8.375-27.168-12.755a88.21,88.21,0,0,1-11.144-6.911c-3.306-2.441-6.249-4.879-9.008-7-5.467-4.312-10.422-7.1-14.131-8.283a21.994,21.994,0,0,0-2.474-.731,14.208,14.208,0,0,0-1.849-.4l-1.147-.209a.2.2,0,1,1,.007-.061l1.16.15a13.14,13.14,0,0,1,1.87.346,21.077,21.077,0,0,1,2.507.682,33.5,33.5,0,0,1,6.5,2.894,68.359,68.359,0,0,1,7.814,5.273c2.783,2.107,5.741,4.525,9.044,6.937a88.867,88.867,0,0,0,11.113,6.825c8.12,4.339,17.355,8.527,27.141,12.689,15.915,6.71,30.84,12.358,42.761,16.67l.333.12-.248.285a4.833,4.833,0,0,0-.737,1.46c-.2.535-.362,1.079-.521,1.618-.31,1.081-.574,2.15-.822,3.192-.488,2.088-.9,4.074-1.274,5.94-.743,3.732-1.332,6.978-1.819,9.64l-1.143,6.153c-.14.7-.252,1.243-.339,1.6A4.16,4.16,0,0,1,3473,1583.9Z" transform="translate(-3369.418 -1500.849)" fill="#354952"/>
            </g>
          </g>
        </g>
        <g id="Grupo_142325" data-name="Grupo 142325" transform="translate(116.807 39.105)">
          <g id="Grupo_142324" data-name="Grupo 142324">
            <g id="Grupo_142323" data-name="Grupo 142323">
              <path id="Trazado_202306" data-name="Trazado 202306" d="M3703.651,1554.793a1.132,1.132,0,0,1-.3-.027l-.875-.139c-.771-.1-1.885-.39-3.356-.531a65.033,65.033,0,0,0-12.46-.441,92.5,92.5,0,0,0-18.24,3.009c-3.368.9-6.873,1.963-10.46,3.205s-7.245,2.677-10.993,4.17a101.677,101.677,0,0,1-11.208,3.7c-3.675,1.015-7.268,1.807-10.7,2.472-6.873,1.338-13.123,2.164-18.371,2.8s-9.506,1.071-12.447,1.373l-3.388.332-.883.071a1.129,1.129,0,0,1-.3,0,1.145,1.145,0,0,1,.3-.065l.876-.131,3.376-.445,12.42-1.563c5.237-.694,11.471-1.563,18.317-2.927,3.423-.678,7-1.479,10.655-2.5a102.9,102.9,0,0,0,11.141-3.689c3.745-1.491,7.423-2.926,11.023-4.168s7.127-2.292,10.513-3.184a90.344,90.344,0,0,1,18.359-2.9,61.177,61.177,0,0,1,12.515.635c1.471.178,2.582.5,3.348.645l.863.2A1.134,1.134,0,0,1,3703.651,1554.793Z" transform="translate(-3589.659 -1553.162)" fill="#354952"/>
            </g>
          </g>
        </g>
        <g id="Grupo_142328" data-name="Grupo 142328" transform="translate(98.621 26.05)">
          <g id="Grupo_142327" data-name="Grupo 142327">
            <g id="Grupo_142326" data-name="Grupo 142326">
              <path id="Trazado_202307" data-name="Trazado 202307" d="M3578.239,1517.258c.035.4-2.515,1.036-6.722,1.431a87.881,87.881,0,0,1-32.644-3.5c-4.028-1.277-6.385-2.441-6.266-2.823.266-.847,10.216,1.8,22.747,3.1C3567.871,1516.852,3578.158,1516.373,3578.239,1517.258Z" transform="translate(-3532.603 -1512.204)" fill="#1c262b"/>
            </g>
          </g>
        </g>
        <g id="Grupo_142331" data-name="Grupo 142331" transform="translate(146.668 26.396)">
          <g id="Grupo_142330" data-name="Grupo 142330">
            <g id="Grupo_142329" data-name="Grupo 142329">
              <path id="Trazado_202308" data-name="Trazado 202308" d="M3725.338,1513.3a11.631,11.631,0,0,1-1.854.494c-.6.125-1.332.313-2.169.566-.841.235-1.8.5-2.836.869a69.218,69.218,0,0,0-7.172,2.848c-2.627,1.244-5.458,2.733-8.34,4.453a132.131,132.131,0,0,0-14.063,9.89c-1.723,1.372-3.1,2.509-4.044,3.3a11.6,11.6,0,0,1-1.513,1.18,11.7,11.7,0,0,1,1.358-1.357c.9-.848,2.235-2.036,3.929-3.455a112.527,112.527,0,0,1,14.022-10.078,90.083,90.083,0,0,1,8.419-4.441,61.958,61.958,0,0,1,7.274-2.749c1.052-.349,2.026-.583,2.882-.789a21.051,21.051,0,0,1,2.206-.469A11.648,11.648,0,0,1,3725.338,1513.3Z" transform="translate(-3683.344 -1513.289)" fill="#354952"/>
            </g>
          </g>
        </g>
        <g id="Grupo_142334" data-name="Grupo 142334" transform="translate(114.666 40.113)">
          <g id="Grupo_142333" data-name="Grupo 142333">
            <g id="Grupo_142332" data-name="Grupo 142332">
              <path id="Trazado_202309" data-name="Trazado 202309" d="M3604.274,1566.217a13.634,13.634,0,0,1-3.328-.948,70.821,70.821,0,0,1-7.6-3.433l-7.369-3.86a25.164,25.164,0,0,1-3.031-1.647,15.959,15.959,0,0,1,3.218,1.263c1.944.883,4.567,2.226,7.456,3.705s5.53,2.752,7.485,3.574S3604.3,1566.125,3604.274,1566.217Z" transform="translate(-3582.943 -1556.322)" fill="#354952"/>
            </g>
          </g>
        </g>
        <g id="Grupo_142337" data-name="Grupo 142337" transform="translate(140 1.374)">
          <g id="Grupo_142336" data-name="Grupo 142336">
            <g id="Grupo_142335" data-name="Grupo 142335">
              <path id="Trazado_202310" data-name="Trazado 202310" d="M3663.544,1434.786c.092.014-.07,2.164-.247,5.639s-.334,8.282-.254,13.591.39,10.107.677,13.571.513,5.6.422,5.623a7.141,7.141,0,0,1-.3-1.476c-.159-.958-.347-2.353-.544-4.084-.4-3.461-.772-8.28-.857-13.62s.144-10.171.432-13.649c.143-1.739.288-3.143.417-4.107A7.2,7.2,0,0,1,3663.544,1434.786Z" transform="translate(-3662.422 -1434.786)" fill="#354952"/>
            </g>
          </g>
        </g>
        <g id="Grupo_142340" data-name="Grupo 142340" transform="translate(144.67 10.079)">
          <g id="Grupo_142339" data-name="Grupo 142339">
            <g id="Grupo_142338" data-name="Grupo 142338">
              <path id="Trazado_202311" data-name="Trazado 202311" d="M3678.8,1462.6c.03.049-.2.184-.494.528a3.321,3.321,0,0,0-.741,1.711,3.194,3.194,0,0,0,.729,2.541,2.986,2.986,0,0,0,4.95-1.835,3.193,3.193,0,0,0-1.1-2.4,3.324,3.324,0,0,0-1.677-.815c-.448-.068-.709-.021-.718-.078-.008-.024.242-.154.737-.156a3.227,3.227,0,0,1,1.933.722,3.55,3.55,0,0,1,1.386,2.744,3.5,3.5,0,0,1-5.92,2.194,3.547,3.547,0,0,1-.737-2.984,3.222,3.222,0,0,1,1-1.807C3678.516,1462.645,3678.791,1462.581,3678.8,1462.6Z" transform="translate(-3677.075 -1462.097)" fill="#354952"/>
            </g>
          </g>
        </g>
      </g>
      <g id="Grupo_142413" data-name="Grupo 142413" transform="translate(147.197 73.059)">
        <g id="Grupo_142348" data-name="Grupo 142348" transform="translate(0 3.957)">
          <g id="Grupo_142347" data-name="Grupo 142347">
            <g id="Grupo_142346" data-name="Grupo 142346">
              <g id="Grupo_142345" data-name="Grupo 142345">
                <g id="Grupo_142344" data-name="Grupo 142344">
                  <g id="Grupo_142343" data-name="Grupo 142343">
                    <g id="Grupo_142342" data-name="Grupo 142342">
                      <path id="Trazado_202312" data-name="Trazado 202312" d="M3694.289,1672.1s53.841,8.184,56.02,8.669c3.272.729,4.122,12.295-.785,12.7-2.321.192-39.861,6.2-44.662,6.47s-19.858-3.672-19.858-3.672Z" transform="translate(-3685.004 -1672.101)" fill="#354952"/>
                    </g>
                  </g>
                </g>
              </g>
            </g>
          </g>
        </g>
        <g id="Grupo_142356" data-name="Grupo 142356" transform="translate(33.159 10.121)">
          <g id="Grupo_142355" data-name="Grupo 142355">
            <g id="Grupo_142354" data-name="Grupo 142354">
              <g id="Grupo_142353" data-name="Grupo 142353">
                <g id="Grupo_142352" data-name="Grupo 142352">
                  <g id="Grupo_142351" data-name="Grupo 142351">
                    <g id="Grupo_142350" data-name="Grupo 142350">
                      <g id="Grupo_142349" data-name="Grupo 142349">
                        <path id="Trazado_202313" data-name="Trazado 202313" d="M3789.252,1702.559c.267,0,.289-2.794,1.627-5.87,1.293-3.1,3.3-5.049,3.11-5.238-.115-.19-2.527,1.589-3.918,4.894C3788.648,1699.634,3789.034,1702.608,3789.252,1702.559Z" transform="translate(-3789.035 -1691.437)" fill="#1c262b"/>
                      </g>
                    </g>
                  </g>
                </g>
              </g>
            </g>
          </g>
        </g>
        <g id="Grupo_142364" data-name="Grupo 142364" transform="translate(27.486 8.874)">
          <g id="Grupo_142363" data-name="Grupo 142363">
            <g id="Grupo_142362" data-name="Grupo 142362">
              <g id="Grupo_142361" data-name="Grupo 142361">
                <g id="Grupo_142360" data-name="Grupo 142360">
                  <g id="Grupo_142359" data-name="Grupo 142359">
                    <g id="Grupo_142358" data-name="Grupo 142358">
                      <g id="Grupo_142357" data-name="Grupo 142357">
                        <path id="Trazado_202314" data-name="Trazado 202314" d="M3771.4,1698.081c.261.014.494-2.513,1.555-5.4,1.034-2.9,2.472-4.99,2.263-5.146-.164-.154-2,1.794-3.089,4.847C3771.012,1695.425,3771.173,1698.094,3771.4,1698.081Z" transform="translate(-3771.236 -1687.525)" fill="#1c262b"/>
                      </g>
                    </g>
                  </g>
                </g>
              </g>
            </g>
          </g>
        </g>
        <g id="Grupo_142372" data-name="Grupo 142372" transform="translate(21.738 7.797)">
          <g id="Grupo_142371" data-name="Grupo 142371">
            <g id="Grupo_142370" data-name="Grupo 142370">
              <g id="Grupo_142369" data-name="Grupo 142369">
                <g id="Grupo_142368" data-name="Grupo 142368">
                  <g id="Grupo_142367" data-name="Grupo 142367">
                    <g id="Grupo_142366" data-name="Grupo 142366">
                      <g id="Grupo_142365" data-name="Grupo 142365">
                        <path id="Trazado_202315" data-name="Trazado 202315" d="M3753.854,1695.025c.261-.047-.251-2.627.56-5.652.759-3.039,2.459-5.045,2.255-5.213-.128-.185-2.272,1.705-3.105,4.993C3752.695,1692.431,3753.651,1695.125,3753.854,1695.025Z" transform="translate(-3753.204 -1684.148)" fill="#1c262b"/>
                      </g>
                    </g>
                  </g>
                </g>
              </g>
            </g>
          </g>
        </g>
        <g id="Grupo_142380" data-name="Grupo 142380" transform="translate(17.214)">
          <g id="Grupo_142379" data-name="Grupo 142379">
            <g id="Grupo_142378" data-name="Grupo 142378">
              <g id="Grupo_142377" data-name="Grupo 142377">
                <g id="Grupo_142376" data-name="Grupo 142376">
                  <g id="Grupo_142375" data-name="Grupo 142375">
                    <g id="Grupo_142374" data-name="Grupo 142374">
                      <g id="Grupo_142373" data-name="Grupo 142373">
                        <path id="Trazado_202316" data-name="Trazado 202316" d="M3744.3,1671.518a9.3,9.3,0,0,0,.095-3.945,18.415,18.415,0,0,0-1.037-4.186,18.113,18.113,0,0,0-1.065-2.326,2.938,2.938,0,0,0-.988-1.177,1.4,1.4,0,0,0-1.779.3,2.317,2.317,0,0,0-.518,1.557,10.2,10.2,0,0,0,.1,1.385,11.593,11.593,0,0,0,.627,2.513,15.619,15.619,0,0,0,2.081,3.792,10.569,10.569,0,0,0,2.717,2.857c.109-.1-.909-1.206-2.2-3.208a17.246,17.246,0,0,1-1.83-3.711,11.537,11.537,0,0,1-.536-2.351c-.073-.8-.2-1.8.218-2.244a.508.508,0,0,1,.682-.14,2.211,2.211,0,0,1,.68.842,19.338,19.338,0,0,1,1.065,2.205,21.076,21.076,0,0,1,1.177,3.987C3744.219,1670.011,3744.158,1671.514,3744.3,1671.518Z" transform="translate(-3739.011 -1659.685)" fill="#1c262b"/>
                      </g>
                    </g>
                  </g>
                </g>
              </g>
            </g>
          </g>
        </g>
        <g id="Grupo_142388" data-name="Grupo 142388" transform="translate(12.252 11.076)">
          <g id="Grupo_142387" data-name="Grupo 142387">
            <g id="Grupo_142386" data-name="Grupo 142386">
              <g id="Grupo_142385" data-name="Grupo 142385">
                <g id="Grupo_142384" data-name="Grupo 142384">
                  <g id="Grupo_142383" data-name="Grupo 142383">
                    <g id="Grupo_142382" data-name="Grupo 142382">
                      <g id="Grupo_142381" data-name="Grupo 142381">
                        <path id="Trazado_202317" data-name="Trazado 202317" d="M3733.568,1694.669a7.342,7.342,0,0,0-3.427-.14,15.248,15.248,0,0,0-3.643.9,8.193,8.193,0,0,0-2.036,1.039,2.215,2.215,0,0,0-.892,2.522,2.622,2.622,0,0,0,2.1,1.635,4.8,4.8,0,0,0,2.337-.286,9.048,9.048,0,0,0,3.186-2.07,9.233,9.233,0,0,0,2.138-2.676,23.092,23.092,0,0,0-2.551,2.213,9.308,9.308,0,0,1-3.031,1.766,4.138,4.138,0,0,1-1.936.2,1.778,1.778,0,0,1-1.417-1.087,1.354,1.354,0,0,1,.6-1.547,7.994,7.994,0,0,1,1.8-.963,17.618,17.618,0,0,1,3.439-1.034C3732.259,1694.756,3733.563,1694.811,3733.568,1694.669Z" transform="translate(-3723.441 -1694.434)" fill="#1c262b"/>
                      </g>
                    </g>
                  </g>
                </g>
              </g>
            </g>
          </g>
        </g>
        <g id="Grupo_142396" data-name="Grupo 142396" transform="translate(40.759 11.616)">
          <g id="Grupo_142395" data-name="Grupo 142395">
            <g id="Grupo_142394" data-name="Grupo 142394">
              <g id="Grupo_142393" data-name="Grupo 142393">
                <g id="Grupo_142392" data-name="Grupo 142392">
                  <g id="Grupo_142391" data-name="Grupo 142391">
                    <g id="Grupo_142390" data-name="Grupo 142390">
                      <g id="Grupo_142389" data-name="Grupo 142389">
                        <path id="Trazado_202318" data-name="Trazado 202318" d="M3813.57,1705.354c.254-.06-.268-2.257.465-4.824.68-2.581,2.251-4.2,2.063-4.385-.111-.2-2.143,1.294-2.91,4.153C3812.388,1703.147,3813.371,1705.471,3813.57,1705.354Z" transform="translate(-3812.879 -1696.127)" fill="#1c262b"/>
                      </g>
                    </g>
                  </g>
                </g>
              </g>
            </g>
          </g>
        </g>
        <g id="Grupo_142404" data-name="Grupo 142404" transform="translate(5.375 24.314)">
          <g id="Grupo_142403" data-name="Grupo 142403">
            <g id="Grupo_142402" data-name="Grupo 142402">
              <g id="Grupo_142401" data-name="Grupo 142401">
                <g id="Grupo_142400" data-name="Grupo 142400">
                  <g id="Grupo_142399" data-name="Grupo 142399">
                    <g id="Grupo_142398" data-name="Grupo 142398">
                      <g id="Grupo_142397" data-name="Grupo 142397">
                        <path id="Trazado_202319" data-name="Trazado 202319" d="M3701.866,1739.254a10.932,10.932,0,0,0,2.13.707,45.062,45.062,0,0,0,6.015,1.1,83.274,83.274,0,0,0,20.122-.5c7.8-1.021,14.795-2.219,19.874-3.034l6-1.043a10.961,10.961,0,0,0,2.183-.5,10.925,10.925,0,0,0-2.234.163l-6.042.767-19.89,2.777a93.857,93.857,0,0,1-19.949.751C3704.97,1740.018,3701.908,1739.084,3701.866,1739.254Z" transform="translate(-3701.866 -1735.966)" fill="#1c262b"/>
                      </g>
                    </g>
                  </g>
                </g>
              </g>
            </g>
          </g>
        </g>
        <g id="Grupo_142412" data-name="Grupo 142412" transform="translate(3.974 23.032)">
          <g id="Grupo_142411" data-name="Grupo 142411">
            <g id="Grupo_142410" data-name="Grupo 142410">
              <g id="Grupo_142409" data-name="Grupo 142409">
                <g id="Grupo_142408" data-name="Grupo 142408">
                  <g id="Grupo_142407" data-name="Grupo 142407">
                    <g id="Grupo_142406" data-name="Grupo 142406">
                      <g id="Grupo_142405" data-name="Grupo 142405">
                        <path id="Trazado_202320" data-name="Trazado 202320" d="M3697.474,1737.887c.085.112,1.411-.892,3.692-2.236a18.278,18.278,0,0,1,9.666-2.82c4,.131,7.1,2.436,9.131,4.05a30.94,30.94,0,0,0,3.371,2.708,16.288,16.288,0,0,0-2.968-3.181,20.817,20.817,0,0,0-3.843-2.817,12.464,12.464,0,0,0-5.657-1.638,17.363,17.363,0,0,0-10.026,3.17A13.943,13.943,0,0,0,3697.474,1737.887Z" transform="translate(-3697.471 -1731.945)" fill="#1c262b"/>
                      </g>
                    </g>
                  </g>
                </g>
              </g>
            </g>
          </g>
        </g>
      </g>
    </g>
    <g id="Grupo_142426" data-name="Grupo 142426" transform="translate(181.703 70.048)">
      <g id="Grupo_142419" data-name="Grupo 142419">
        <g id="Grupo_142415" data-name="Grupo 142415" transform="translate(5.346 43.356)">
          <path id="Trazado_202321" data-name="Trazado 202321" d="M3810.306,1154.168c-.207,1.328-.908,37.2,1.236,40.491,3.373,5.171,14.233,14.432,20.985,11.9,10.957-4.108,13.436-27.289,13.243-22.987l-8.678-73.252H3820.4l-1.389,26.27-4.867,2.971a48.039,48.039,0,0,1-1.864,9.006Z" transform="translate(-3810.03 -1110.32)" fill="#f7ad8b"/>
        </g>
        <g id="Grupo_142416" data-name="Grupo 142416">
          <path id="Trazado_202322" data-name="Trazado 202322" d="M3808.972,1017.654s-6.668-6.587-6.668-8.05-2.6-2.277-2.6-2.277l-4.229-2.115s-2.765-2.6-2.114-4.066a3.877,3.877,0,0,1,1.789-1.952s.215-3.578,2.873-4.554c0,0-2.5-2.765,0-4.717s3.1-1.139,3.1-1.139-.275-2.114,1.188-2.277,11.921-2.765,11.921-2.765a21.194,21.194,0,0,1,4.182,2.765c1.3,1.3,1.952,2.114,1.952,2.114a15.934,15.934,0,0,0,2.6-4.879c.65-2.44,1.626-9.759,8.945-9.434V976.1a19.7,19.7,0,0,0-2.927,7.157c-.976,4.554-2.766,14.625-2.766,14.625l-.547,19.774Z" transform="translate(-3793.259 -974.298)" fill="#f7ad8b"/>
        </g>
        <g id="Grupo_142418" data-name="Grupo 142418" transform="translate(8.627 43.187)">
          <g id="Grupo_142417" data-name="Grupo 142417">
            <path id="Trazado_202323" data-name="Trazado 202323" d="M3820.982,1183.028a4.49,4.49,0,0,1-.145-.736c-.07-.486-.213-1.2-.284-2.133a46.123,46.123,0,0,1-.113-7.912,97.046,97.046,0,0,1,1.565-11.629c.792-4.343,1.867-9.077,2.667-14.091a216.487,216.487,0,0,0,2.014-25.949c.117-3.3.213-5.984.281-7.9q.067-1.346.107-2.146a4.561,4.561,0,0,1,.07-.747,4.514,4.514,0,0,1,.025.75q-.007.8-.019,2.148c-.032,1.913-.076,4.6-.13,7.9a197.057,197.057,0,0,1-1.88,26.013c-.8,5.04-1.893,9.768-2.706,14.1a102.747,102.747,0,0,0-1.659,11.571,50.625,50.625,0,0,0-.037,7.873c.042.931.156,1.646.2,2.136A4.467,4.467,0,0,1,3820.982,1183.028Z" transform="translate(-3820.325 -1109.789)" fill="#e88559"/>
          </g>
        </g>
      </g>
      <g id="Grupo_142421" data-name="Grupo 142421" transform="translate(7.994 13.264)">
        <g id="Grupo_142420" data-name="Grupo 142420">
          <path id="Trazado_202324" data-name="Trazado 202324" d="M3831.277,1016.065c-.008.064-.727.044-1.885.2s-2.78.322-4.565.483a44.762,44.762,0,0,1-6.488.352,44.755,44.755,0,0,1,6.446-.823c1.786-.162,3.4-.284,4.58-.346A4.447,4.447,0,0,1,3831.277,1016.065Z" transform="translate(-3818.338 -1015.91)" fill="#e88559"/>
        </g>
      </g>
      <g id="Grupo_142423" data-name="Grupo 142423" transform="translate(5.049 20.199)">
        <g id="Grupo_142422" data-name="Grupo 142422">
          <path id="Trazado_202325" data-name="Trazado 202325" d="M3821.912,1038.7a10.05,10.05,0,0,1-1.885-.067c-1.157-.069-2.757-.1-4.534-.139a35.564,35.564,0,0,1-4.553-.34,5.871,5.871,0,0,1-1.84-.461,10.652,10.652,0,0,1,1.88.129c1.153.1,2.75.16,4.525.2a44.9,44.9,0,0,1,4.552.279A6.076,6.076,0,0,1,3821.912,1038.7Z" transform="translate(-3809.1 -1037.668)" fill="#e88559"/>
        </g>
      </g>
      <g id="Grupo_142425" data-name="Grupo 142425" transform="translate(2.54 24.849)">
        <g id="Grupo_142424" data-name="Grupo 142424">
          <path id="Trazado_202326" data-name="Trazado 202326" d="M3814.144,1054.946a7.9,7.9,0,0,1-1.923-.227c-1.177-.2-2.8-.508-4.583-.876s-3.4-.729-4.556-1.012a7.888,7.888,0,0,1-1.855-.554,7.964,7.964,0,0,1,1.928.228c1.177.2,2.8.507,4.579.875s3.39.728,4.55,1.011A7.945,7.945,0,0,1,3814.144,1054.946Z" transform="translate(-3801.226 -1052.256)" fill="#e88559"/>
        </g>
      </g>
    </g>
  </g>
</svg>
